<svg width="2664" height="981" viewBox="0 0 2664 981" fill="none" xmlns="http://www.w3.org/2000/svg">
<rect width="2664" height="981" fill="#FBFBFB"/>
<path d="M1687 339V465H2118" stroke="black" stroke-width="2"/>
<path d="M477.5 338.5H558H1647H1687V241H1720.5" stroke="black" stroke-width="2"/>
<rect x="170.5" y="274.5" width="303" height="121" fill="#FBFBFB" stroke="url(#paint0_linear)" stroke-width="5"/>
<path d="M255.888 347V322.117H262.912C265.077 322.117 266.991 322.596 268.654 323.553C270.318 324.51 271.599 325.871 272.5 327.637C273.411 329.403 273.872 331.431 273.884 333.721V335.311C273.884 337.658 273.428 339.714 272.517 341.48C271.617 343.246 270.323 344.602 268.637 345.547C266.962 346.493 265.008 346.977 262.775 347H255.888ZM259.169 324.817V344.317H262.622C265.151 344.317 267.116 343.531 268.518 341.958C269.93 340.386 270.637 338.147 270.637 335.242V333.79C270.637 330.964 269.97 328.771 268.637 327.21C267.316 325.638 265.436 324.84 262.998 324.817H259.169ZM281.796 347H278.635V328.509H281.796V347ZM278.378 323.604C278.378 323.091 278.532 322.658 278.84 322.305C279.159 321.952 279.626 321.775 280.241 321.775C280.856 321.775 281.324 321.952 281.643 322.305C281.962 322.658 282.121 323.091 282.121 323.604C282.121 324.117 281.962 324.544 281.643 324.886C281.324 325.228 280.856 325.398 280.241 325.398C279.626 325.398 279.159 325.228 278.84 324.886C278.532 324.544 278.378 324.117 278.378 323.604ZM297.639 342.095C297.639 341.241 297.314 340.58 296.665 340.113C296.027 339.634 294.904 339.224 293.298 338.882C291.703 338.541 290.432 338.13 289.487 337.652C288.553 337.173 287.858 336.604 287.402 335.943C286.958 335.282 286.735 334.496 286.735 333.584C286.735 332.069 287.373 330.787 288.649 329.739C289.937 328.691 291.577 328.167 293.571 328.167C295.668 328.167 297.365 328.708 298.664 329.791C299.974 330.873 300.629 332.257 300.629 333.943H297.451C297.451 333.077 297.08 332.331 296.34 331.705C295.611 331.078 294.688 330.765 293.571 330.765C292.421 330.765 291.521 331.015 290.871 331.517C290.222 332.018 289.897 332.673 289.897 333.482C289.897 334.245 290.199 334.821 290.803 335.208C291.407 335.595 292.495 335.966 294.067 336.319C295.651 336.672 296.932 337.094 297.912 337.583C298.892 338.073 299.615 338.666 300.083 339.361C300.561 340.044 300.8 340.882 300.8 341.873C300.8 343.525 300.139 344.852 298.818 345.855C297.496 346.846 295.782 347.342 293.674 347.342C292.193 347.342 290.882 347.08 289.743 346.556C288.604 346.032 287.709 345.302 287.06 344.368C286.422 343.423 286.103 342.403 286.103 341.309H289.265C289.322 342.369 289.743 343.212 290.529 343.838C291.327 344.454 292.375 344.761 293.674 344.761C294.87 344.761 295.827 344.522 296.545 344.043C297.274 343.554 297.639 342.904 297.639 342.095ZM312.336 344.761C313.464 344.761 314.449 344.419 315.292 343.736C316.136 343.052 316.603 342.198 316.694 341.172H319.685C319.628 342.232 319.263 343.24 318.591 344.197C317.919 345.154 317.019 345.918 315.891 346.487C314.774 347.057 313.589 347.342 312.336 347.342C309.818 347.342 307.813 346.504 306.32 344.83C304.839 343.143 304.099 340.842 304.099 337.925V337.396C304.099 335.595 304.429 333.995 305.09 332.593C305.751 331.192 306.696 330.104 307.927 329.329C309.169 328.554 310.633 328.167 312.319 328.167C314.392 328.167 316.113 328.788 317.48 330.03C318.859 331.272 319.593 332.884 319.685 334.866H316.694C316.603 333.67 316.147 332.69 315.327 331.927C314.518 331.152 313.515 330.765 312.319 330.765C310.712 330.765 309.465 331.346 308.576 332.508C307.699 333.659 307.26 335.328 307.26 337.515V338.113C307.26 340.244 307.699 341.884 308.576 343.035C309.453 344.186 310.707 344.761 312.336 344.761ZM322.402 337.583C322.402 335.772 322.755 334.143 323.461 332.696C324.179 331.249 325.17 330.132 326.435 329.346C327.711 328.56 329.164 328.167 330.793 328.167C333.311 328.167 335.345 329.039 336.894 330.782C338.455 332.525 339.235 334.843 339.235 337.737V337.959C339.235 339.76 338.888 341.377 338.193 342.813C337.509 344.237 336.524 345.348 335.236 346.146C333.96 346.943 332.491 347.342 330.827 347.342C328.321 347.342 326.287 346.47 324.726 344.727C323.177 342.984 322.402 340.677 322.402 337.806V337.583ZM325.581 337.959C325.581 340.01 326.053 341.657 326.999 342.898C327.956 344.14 329.232 344.761 330.827 344.761C332.434 344.761 333.71 344.135 334.655 342.881C335.601 341.617 336.074 339.851 336.074 337.583C336.074 335.556 335.59 333.915 334.621 332.662C333.664 331.397 332.388 330.765 330.793 330.765C329.232 330.765 327.973 331.386 327.016 332.627C326.059 333.869 325.581 335.647 325.581 337.959ZM349.028 342.71L353.608 328.509H356.838L350.207 347H347.797L341.098 328.509H344.328L349.028 342.71ZM367.314 347.342C364.807 347.342 362.768 346.521 361.196 344.881C359.624 343.229 358.837 341.024 358.837 338.267V337.686C358.837 335.852 359.185 334.217 359.88 332.781C360.586 331.334 361.566 330.206 362.819 329.397C364.084 328.577 365.451 328.167 366.921 328.167C369.325 328.167 371.193 328.959 372.526 330.542C373.859 332.126 374.526 334.393 374.526 337.344V338.66H361.999C362.045 340.483 362.574 341.958 363.588 343.086C364.614 344.203 365.913 344.761 367.485 344.761C368.601 344.761 369.547 344.533 370.322 344.078C371.097 343.622 371.774 343.018 372.355 342.266L374.287 343.77C372.737 346.151 370.413 347.342 367.314 347.342ZM366.921 330.765C365.645 330.765 364.574 331.232 363.708 332.166C362.842 333.089 362.307 334.388 362.102 336.062H371.364V335.823C371.273 334.217 370.84 332.975 370.065 332.098C369.291 331.209 368.243 330.765 366.921 330.765ZM387.138 331.346C386.66 331.266 386.141 331.226 385.583 331.226C383.509 331.226 382.102 332.109 381.362 333.875V347H378.2V328.509H381.276L381.328 330.645C382.364 328.993 383.834 328.167 385.737 328.167C386.352 328.167 386.819 328.247 387.138 328.406V331.346Z" fill="black"/>
<rect x="170.5" y="603.5" width="303" height="121" stroke="url(#paint1_linear)" stroke-width="5"/>
<path d="M252.22 671.909C249.406 671.1 247.355 670.109 246.067 668.935C244.791 667.75 244.153 666.292 244.153 664.56C244.153 662.6 244.934 660.983 246.495 659.707C248.067 658.419 250.106 657.775 252.613 657.775C254.322 657.775 255.843 658.106 257.176 658.767C258.52 659.427 259.557 660.339 260.286 661.501C261.027 662.663 261.397 663.933 261.397 665.312H258.099C258.099 663.808 257.62 662.629 256.663 661.774C255.706 660.909 254.356 660.476 252.613 660.476C250.995 660.476 249.73 660.834 248.819 661.552C247.919 662.259 247.469 663.244 247.469 664.509C247.469 665.523 247.896 666.383 248.75 667.089C249.616 667.784 251.08 668.422 253.143 669.003C255.216 669.584 256.834 670.228 257.996 670.935C259.17 671.63 260.035 672.444 260.594 673.378C261.163 674.313 261.448 675.412 261.448 676.677C261.448 678.693 260.662 680.311 259.09 681.53C257.518 682.738 255.416 683.342 252.784 683.342C251.075 683.342 249.48 683.017 247.999 682.368C246.517 681.707 245.372 680.807 244.563 679.667C243.766 678.528 243.367 677.235 243.367 675.788H246.666C246.666 677.292 247.218 678.483 248.323 679.36C249.44 680.226 250.927 680.659 252.784 680.659C254.515 680.659 255.843 680.306 256.766 679.599C257.688 678.893 258.15 677.93 258.15 676.711C258.15 675.492 257.723 674.552 256.868 673.891C256.014 673.219 254.464 672.558 252.22 671.909ZM269.463 660.031V664.509H272.916V666.953H269.463V678.42C269.463 679.16 269.617 679.719 269.925 680.095C270.232 680.459 270.757 680.642 271.497 680.642C271.862 680.642 272.363 680.573 273.001 680.437V683C272.169 683.228 271.36 683.342 270.574 683.342C269.161 683.342 268.096 682.915 267.378 682.06C266.661 681.206 266.302 679.992 266.302 678.42V666.953H262.935V664.509H266.302V660.031H269.463ZM275.445 673.583C275.445 671.772 275.798 670.143 276.504 668.696C277.222 667.249 278.213 666.132 279.478 665.346C280.754 664.56 282.207 664.167 283.836 664.167C286.354 664.167 288.388 665.039 289.937 666.782C291.498 668.525 292.278 670.843 292.278 673.737V673.959C292.278 675.76 291.931 677.377 291.236 678.813C290.552 680.237 289.567 681.348 288.279 682.146C287.003 682.943 285.534 683.342 283.87 683.342C281.364 683.342 279.33 682.47 277.769 680.727C276.22 678.984 275.445 676.677 275.445 673.806V673.583ZM278.624 673.959C278.624 676.01 279.096 677.657 280.042 678.898C280.999 680.14 282.275 680.761 283.87 680.761C285.477 680.761 286.753 680.135 287.698 678.881C288.644 677.617 289.117 675.851 289.117 673.583C289.117 671.556 288.632 669.915 287.664 668.662C286.707 667.397 285.431 666.765 283.836 666.765C282.275 666.765 281.016 667.386 280.059 668.627C279.102 669.869 278.624 671.647 278.624 673.959ZM305.181 667.346C304.703 667.266 304.184 667.226 303.626 667.226C301.552 667.226 300.145 668.109 299.405 669.875V683H296.243V664.509H299.319L299.371 666.645C300.407 664.993 301.877 664.167 303.78 664.167C304.395 664.167 304.862 664.247 305.181 664.406V667.346ZM314.461 678.369L318.768 664.509H322.151L314.717 685.854C313.567 688.93 311.738 690.468 309.231 690.468L308.633 690.417L307.454 690.195V687.631L308.309 687.7C309.38 687.7 310.211 687.483 310.804 687.05C311.408 686.617 311.903 685.826 312.291 684.675L312.991 682.795L306.395 664.509H309.847L314.461 678.369ZM345.086 683C344.904 682.635 344.756 681.986 344.642 681.052C343.172 682.578 341.417 683.342 339.378 683.342C337.555 683.342 336.057 682.829 334.883 681.804C333.721 680.767 333.14 679.457 333.14 677.873C333.14 675.948 333.869 674.455 335.328 673.396C336.797 672.325 338.86 671.789 341.514 671.789H344.59V670.336C344.59 669.231 344.26 668.354 343.599 667.705C342.938 667.044 341.964 666.713 340.677 666.713C339.549 666.713 338.603 666.998 337.84 667.568C337.076 668.138 336.695 668.827 336.695 669.636H333.516C333.516 668.713 333.841 667.824 334.49 666.97C335.151 666.104 336.04 665.42 337.156 664.919C338.284 664.418 339.52 664.167 340.865 664.167C342.995 664.167 344.664 664.702 345.872 665.773C347.08 666.833 347.706 668.297 347.752 670.166V678.676C347.752 680.374 347.968 681.724 348.401 682.727V683H345.086ZM339.839 680.59C340.831 680.59 341.771 680.334 342.659 679.821C343.548 679.309 344.192 678.642 344.59 677.822V674.028H342.112C338.239 674.028 336.302 675.161 336.302 677.429C336.302 678.42 336.632 679.195 337.293 679.753C337.954 680.311 338.803 680.59 339.839 680.59ZM351.939 673.601C351.939 670.764 352.611 668.485 353.956 666.765C355.3 665.033 357.06 664.167 359.236 664.167C361.401 664.167 363.116 664.908 364.38 666.389V656.75H367.542V683H364.637L364.483 681.018C363.218 682.567 361.458 683.342 359.202 683.342C357.06 683.342 355.311 682.465 353.956 680.71C352.611 678.955 351.939 676.665 351.939 673.84V673.601ZM355.101 673.959C355.101 676.056 355.534 677.696 356.399 678.881C357.265 680.066 358.462 680.659 359.988 680.659C361.993 680.659 363.458 679.759 364.38 677.958V669.465C363.435 667.722 361.982 666.85 360.022 666.85C358.473 666.85 357.265 667.448 356.399 668.645C355.534 669.841 355.101 671.612 355.101 673.959ZM383.23 678.095C383.23 677.241 382.906 676.58 382.256 676.113C381.618 675.634 380.496 675.224 378.89 674.882C377.295 674.541 376.024 674.13 375.079 673.652C374.144 673.173 373.449 672.604 372.994 671.943C372.549 671.282 372.327 670.496 372.327 669.584C372.327 668.069 372.965 666.787 374.241 665.739C375.529 664.691 377.169 664.167 379.163 664.167C381.259 664.167 382.957 664.708 384.256 665.791C385.566 666.873 386.221 668.257 386.221 669.943H383.042C383.042 669.077 382.672 668.331 381.932 667.705C381.202 667.078 380.28 666.765 379.163 666.765C378.012 666.765 377.112 667.015 376.463 667.517C375.813 668.018 375.489 668.673 375.489 669.482C375.489 670.245 375.791 670.821 376.395 671.208C376.998 671.595 378.086 671.966 379.659 672.319C381.242 672.672 382.524 673.094 383.504 673.583C384.484 674.073 385.207 674.666 385.674 675.361C386.153 676.044 386.392 676.882 386.392 677.873C386.392 679.525 385.731 680.852 384.41 681.855C383.088 682.846 381.373 683.342 379.266 683.342C377.785 683.342 376.474 683.08 375.335 682.556C374.196 682.032 373.301 681.302 372.652 680.368C372.014 679.423 371.695 678.403 371.695 677.309H374.856C374.913 678.369 375.335 679.212 376.121 679.838C376.919 680.454 377.967 680.761 379.266 680.761C380.462 680.761 381.419 680.522 382.137 680.043C382.866 679.554 383.23 678.904 383.23 678.095Z" fill="black"/>
<rect x="170.5" y="781.5" width="303" height="121" stroke="url(#paint2_linear)" stroke-width="5"/>
<path d="M248.169 851.259V861H244.888V836.117H254.065C256.788 836.117 258.919 836.812 260.457 838.202C262.007 839.592 262.781 841.432 262.781 843.722C262.781 846.138 262.024 848 260.508 849.311C259.004 850.609 256.845 851.259 254.031 851.259H248.169ZM248.169 848.576H254.065C255.82 848.576 257.164 848.166 258.099 847.345C259.033 846.514 259.5 845.317 259.5 843.756C259.5 842.275 259.033 841.09 258.099 840.202C257.164 839.313 255.883 838.852 254.253 838.817H248.169V848.576ZM265.396 851.583C265.396 849.772 265.749 848.143 266.456 846.696C267.173 845.249 268.165 844.132 269.429 843.346C270.705 842.56 272.158 842.167 273.787 842.167C276.305 842.167 278.339 843.039 279.888 844.782C281.449 846.525 282.229 848.843 282.229 851.737V851.959C282.229 853.76 281.882 855.377 281.187 856.813C280.503 858.237 279.518 859.348 278.23 860.146C276.954 860.943 275.485 861.342 273.821 861.342C271.315 861.342 269.281 860.47 267.72 858.727C266.171 856.984 265.396 854.677 265.396 851.806V851.583ZM268.575 851.959C268.575 854.01 269.048 855.657 269.993 856.898C270.95 858.14 272.226 858.761 273.821 858.761C275.428 858.761 276.704 858.135 277.649 856.881C278.595 855.617 279.068 853.851 279.068 851.583C279.068 849.556 278.584 847.915 277.615 846.662C276.658 845.397 275.382 844.765 273.787 844.765C272.226 844.765 270.967 845.386 270.01 846.627C269.053 847.869 268.575 849.647 268.575 851.959ZM296.961 856.095C296.961 855.241 296.636 854.58 295.987 854.113C295.349 853.634 294.227 853.224 292.62 852.882C291.025 852.541 289.755 852.13 288.809 851.652C287.875 851.173 287.18 850.604 286.724 849.943C286.28 849.282 286.058 848.496 286.058 847.584C286.058 846.069 286.696 844.787 287.972 843.739C289.259 842.691 290.9 842.167 292.894 842.167C294.99 842.167 296.688 842.708 297.986 843.791C299.297 844.873 299.952 846.257 299.952 847.943H296.773C296.773 847.077 296.403 846.331 295.662 845.705C294.933 845.078 294.01 844.765 292.894 844.765C291.743 844.765 290.843 845.015 290.193 845.517C289.544 846.018 289.219 846.673 289.219 847.482C289.219 848.245 289.521 848.821 290.125 849.208C290.729 849.595 291.817 849.966 293.389 850.319C294.973 850.672 296.255 851.094 297.234 851.583C298.214 852.073 298.938 852.666 299.405 853.361C299.883 854.044 300.123 854.882 300.123 855.873C300.123 857.525 299.462 858.852 298.14 859.855C296.819 860.846 295.104 861.342 292.996 861.342C291.515 861.342 290.205 861.08 289.065 860.556C287.926 860.032 287.032 859.302 286.382 858.368C285.744 857.423 285.425 856.403 285.425 855.309H288.587C288.644 856.369 289.065 857.212 289.852 857.838C290.649 858.454 291.697 858.761 292.996 858.761C294.192 858.761 295.149 858.522 295.867 858.043C296.596 857.554 296.961 856.904 296.961 856.095ZM308.531 838.031V842.509H311.983V844.953H308.531V856.42C308.531 857.16 308.685 857.719 308.992 858.095C309.3 858.459 309.824 858.642 310.564 858.642C310.929 858.642 311.43 858.573 312.068 858.437V861C311.237 861.228 310.428 861.342 309.642 861.342C308.229 861.342 307.164 860.915 306.446 860.06C305.728 859.206 305.369 857.992 305.369 856.42V844.953H302.002V842.509H305.369V838.031H308.531ZM335.789 861C335.607 860.635 335.459 859.986 335.345 859.052C333.875 860.578 332.12 861.342 330.081 861.342C328.258 861.342 326.76 860.829 325.586 859.804C324.424 858.767 323.843 857.457 323.843 855.873C323.843 853.948 324.572 852.455 326.031 851.396C327.5 850.325 329.563 849.789 332.217 849.789H335.293V848.336C335.293 847.231 334.963 846.354 334.302 845.705C333.641 845.044 332.667 844.713 331.38 844.713C330.252 844.713 329.306 844.998 328.543 845.568C327.78 846.138 327.398 846.827 327.398 847.636H324.219C324.219 846.713 324.544 845.824 325.193 844.97C325.854 844.104 326.743 843.42 327.859 842.919C328.987 842.418 330.223 842.167 331.568 842.167C333.698 842.167 335.368 842.702 336.575 843.773C337.783 844.833 338.41 846.297 338.455 848.166V856.676C338.455 858.374 338.672 859.724 339.104 860.727V861H335.789ZM330.542 858.59C331.534 858.59 332.474 858.334 333.362 857.821C334.251 857.309 334.895 856.642 335.293 855.822V852.028H332.815C328.942 852.028 327.005 853.161 327.005 855.429C327.005 856.42 327.335 857.195 327.996 857.753C328.657 858.311 329.506 858.59 330.542 858.59ZM342.642 851.601C342.642 848.764 343.314 846.485 344.659 844.765C346.003 843.033 347.763 842.167 349.939 842.167C352.104 842.167 353.819 842.908 355.083 844.389V834.75H358.245V861H355.34L355.186 859.018C353.921 860.567 352.161 861.342 349.905 861.342C347.763 861.342 346.014 860.465 344.659 858.71C343.314 856.955 342.642 854.665 342.642 851.84V851.601ZM345.804 851.959C345.804 854.056 346.237 855.696 347.103 856.881C347.968 858.066 349.165 858.659 350.691 858.659C352.697 858.659 354.161 857.759 355.083 855.958V847.465C354.138 845.722 352.685 844.85 350.726 844.85C349.176 844.85 347.968 845.448 347.103 846.645C346.237 847.841 345.804 849.612 345.804 851.959ZM373.934 856.095C373.934 855.241 373.609 854.58 372.959 854.113C372.321 853.634 371.199 853.224 369.593 852.882C367.998 852.541 366.727 852.13 365.782 851.652C364.847 851.173 364.153 850.604 363.697 849.943C363.252 849.282 363.03 848.496 363.03 847.584C363.03 846.069 363.668 844.787 364.944 843.739C366.232 842.691 367.872 842.167 369.866 842.167C371.963 842.167 373.66 842.708 374.959 843.791C376.269 844.873 376.924 846.257 376.924 847.943H373.746C373.746 847.077 373.375 846.331 372.635 845.705C371.906 845.078 370.983 844.765 369.866 844.765C368.715 844.765 367.815 845.015 367.166 845.517C366.517 846.018 366.192 846.673 366.192 847.482C366.192 848.245 366.494 848.821 367.098 849.208C367.701 849.595 368.79 849.966 370.362 850.319C371.945 850.672 373.227 851.094 374.207 851.583C375.187 852.073 375.91 852.666 376.377 853.361C376.856 854.044 377.095 854.882 377.095 855.873C377.095 857.525 376.434 858.852 375.113 859.855C373.791 860.846 372.076 861.342 369.969 861.342C368.488 861.342 367.177 861.08 366.038 860.556C364.899 860.032 364.004 859.302 363.355 858.368C362.717 857.423 362.398 856.403 362.398 855.309H365.56C365.617 856.369 366.038 857.212 366.824 857.838C367.622 858.454 368.67 858.761 369.969 858.761C371.165 858.761 372.122 858.522 372.84 858.043C373.569 857.554 373.934 856.904 373.934 856.095Z" fill="black"/>
<rect x="564.5" y="54.5" width="303" height="121" fill="#FBFBFB" stroke="url(#paint3_linear)" stroke-width="5"/>
<path d="M642.169 118.259V128H638.888V103.117H648.065C650.788 103.117 652.919 103.812 654.457 105.202C656.007 106.592 656.781 108.432 656.781 110.722C656.781 113.138 656.024 115 654.508 116.311C653.004 117.609 650.845 118.259 648.031 118.259H642.169ZM642.169 115.576H648.065C649.82 115.576 651.164 115.166 652.099 114.345C653.033 113.514 653.5 112.317 653.5 110.756C653.5 109.275 653.033 108.09 652.099 107.202C651.164 106.313 649.883 105.852 648.253 105.817H642.169V115.576ZM659.396 118.583C659.396 116.772 659.749 115.143 660.456 113.696C661.173 112.249 662.165 111.132 663.429 110.346C664.705 109.56 666.158 109.167 667.787 109.167C670.305 109.167 672.339 110.039 673.888 111.782C675.449 113.525 676.229 115.843 676.229 118.737V118.959C676.229 120.76 675.882 122.377 675.187 123.813C674.503 125.237 673.518 126.348 672.23 127.146C670.954 127.943 669.485 128.342 667.821 128.342C665.315 128.342 663.281 127.47 661.72 125.727C660.171 123.984 659.396 121.677 659.396 118.806V118.583ZM662.575 118.959C662.575 121.01 663.048 122.657 663.993 123.898C664.95 125.14 666.226 125.761 667.821 125.761C669.428 125.761 670.704 125.135 671.649 123.881C672.595 122.617 673.068 120.851 673.068 118.583C673.068 116.556 672.584 114.915 671.615 113.662C670.658 112.397 669.382 111.765 667.787 111.765C666.226 111.765 664.967 112.386 664.01 113.627C663.053 114.869 662.575 116.647 662.575 118.959ZM690.961 123.095C690.961 122.241 690.636 121.58 689.987 121.113C689.349 120.634 688.227 120.224 686.62 119.882C685.025 119.541 683.755 119.13 682.809 118.652C681.875 118.173 681.18 117.604 680.724 116.943C680.28 116.282 680.058 115.496 680.058 114.584C680.058 113.069 680.696 111.787 681.972 110.739C683.259 109.691 684.9 109.167 686.894 109.167C688.99 109.167 690.688 109.708 691.986 110.791C693.297 111.873 693.952 113.257 693.952 114.943H690.773C690.773 114.077 690.403 113.331 689.662 112.705C688.933 112.078 688.01 111.765 686.894 111.765C685.743 111.765 684.843 112.015 684.193 112.517C683.544 113.018 683.219 113.673 683.219 114.482C683.219 115.245 683.521 115.821 684.125 116.208C684.729 116.595 685.817 116.966 687.389 117.319C688.973 117.672 690.255 118.094 691.234 118.583C692.214 119.073 692.938 119.666 693.405 120.361C693.883 121.044 694.123 121.882 694.123 122.873C694.123 124.525 693.462 125.852 692.14 126.855C690.819 127.846 689.104 128.342 686.996 128.342C685.515 128.342 684.205 128.08 683.065 127.556C681.926 127.032 681.032 126.302 680.382 125.368C679.744 124.423 679.425 123.403 679.425 122.309H682.587C682.644 123.369 683.065 124.212 683.852 124.838C684.649 125.454 685.697 125.761 686.996 125.761C688.192 125.761 689.149 125.522 689.867 125.043C690.596 124.554 690.961 123.904 690.961 123.095ZM702.531 105.031V109.509H705.983V111.953H702.531V123.42C702.531 124.16 702.685 124.719 702.992 125.095C703.3 125.459 703.824 125.642 704.564 125.642C704.929 125.642 705.43 125.573 706.068 125.437V128C705.237 128.228 704.428 128.342 703.642 128.342C702.229 128.342 701.164 127.915 700.446 127.06C699.728 126.206 699.369 124.992 699.369 123.42V111.953H696.002V109.509H699.369V105.031H702.531ZM729.789 128C729.607 127.635 729.459 126.986 729.345 126.052C727.875 127.578 726.12 128.342 724.081 128.342C722.258 128.342 720.76 127.829 719.586 126.804C718.424 125.767 717.843 124.457 717.843 122.873C717.843 120.948 718.572 119.455 720.031 118.396C721.5 117.325 723.563 116.789 726.217 116.789H729.293V115.336C729.293 114.231 728.963 113.354 728.302 112.705C727.641 112.044 726.667 111.713 725.38 111.713C724.252 111.713 723.306 111.998 722.543 112.568C721.78 113.138 721.398 113.827 721.398 114.636H718.219C718.219 113.713 718.544 112.824 719.193 111.97C719.854 111.104 720.743 110.42 721.859 109.919C722.987 109.418 724.223 109.167 725.568 109.167C727.698 109.167 729.368 109.702 730.575 110.773C731.783 111.833 732.41 113.297 732.455 115.166V123.676C732.455 125.374 732.672 126.724 733.104 127.727V128H729.789ZM724.542 125.59C725.534 125.59 726.474 125.334 727.362 124.821C728.251 124.309 728.895 123.642 729.293 122.822V119.028H726.815C722.942 119.028 721.005 120.161 721.005 122.429C721.005 123.42 721.335 124.195 721.996 124.753C722.657 125.311 723.506 125.59 724.542 125.59ZM736.642 118.601C736.642 115.764 737.314 113.485 738.659 111.765C740.003 110.033 741.763 109.167 743.939 109.167C746.104 109.167 747.819 109.908 749.083 111.389V101.75H752.245V128H749.34L749.186 126.018C747.921 127.567 746.161 128.342 743.905 128.342C741.763 128.342 740.014 127.465 738.659 125.71C737.314 123.955 736.642 121.665 736.642 118.84V118.601ZM739.804 118.959C739.804 121.056 740.237 122.696 741.103 123.881C741.968 125.066 743.165 125.659 744.691 125.659C746.697 125.659 748.161 124.759 749.083 122.958V114.465C748.138 112.722 746.685 111.85 744.726 111.85C743.176 111.85 741.968 112.448 741.103 113.645C740.237 114.841 739.804 116.612 739.804 118.959ZM767.934 123.095C767.934 122.241 767.609 121.58 766.959 121.113C766.321 120.634 765.199 120.224 763.593 119.882C761.998 119.541 760.727 119.13 759.782 118.652C758.847 118.173 758.153 117.604 757.697 116.943C757.252 116.282 757.03 115.496 757.03 114.584C757.03 113.069 757.668 111.787 758.944 110.739C760.232 109.691 761.872 109.167 763.866 109.167C765.963 109.167 767.66 109.708 768.959 110.791C770.269 111.873 770.924 113.257 770.924 114.943H767.746C767.746 114.077 767.375 113.331 766.635 112.705C765.906 112.078 764.983 111.765 763.866 111.765C762.715 111.765 761.815 112.015 761.166 112.517C760.517 113.018 760.192 113.673 760.192 114.482C760.192 115.245 760.494 115.821 761.098 116.208C761.701 116.595 762.79 116.966 764.362 117.319C765.945 117.672 767.227 118.094 768.207 118.583C769.187 119.073 769.91 119.666 770.377 120.361C770.856 121.044 771.095 121.882 771.095 122.873C771.095 124.525 770.434 125.852 769.113 126.855C767.791 127.846 766.076 128.342 763.969 128.342C762.488 128.342 761.177 128.08 760.038 127.556C758.899 127.032 758.004 126.302 757.355 125.368C756.717 124.423 756.398 123.403 756.398 122.309H759.56C759.617 123.369 760.038 124.212 760.824 124.838C761.622 125.454 762.67 125.761 763.969 125.761C765.165 125.761 766.122 125.522 766.84 125.043C767.569 124.554 767.934 123.904 767.934 123.095Z" fill="black"/>
<rect x="564.5" y="274.5" width="303" height="121" fill="#FBFBFB" stroke="url(#paint4_linear)" stroke-width="5"/>
<path d="M682.22 335.909C679.406 335.1 677.355 334.109 676.067 332.935C674.791 331.75 674.153 330.292 674.153 328.56C674.153 326.6 674.934 324.983 676.495 323.707C678.067 322.419 680.106 321.775 682.613 321.775C684.322 321.775 685.843 322.106 687.176 322.767C688.52 323.427 689.557 324.339 690.286 325.501C691.027 326.663 691.397 327.933 691.397 329.312H688.099C688.099 327.808 687.62 326.629 686.663 325.774C685.706 324.909 684.356 324.476 682.613 324.476C680.995 324.476 679.73 324.834 678.819 325.552C677.919 326.259 677.469 327.244 677.469 328.509C677.469 329.523 677.896 330.383 678.75 331.089C679.616 331.784 681.08 332.422 683.143 333.003C685.216 333.584 686.834 334.228 687.996 334.935C689.17 335.63 690.035 336.444 690.594 337.378C691.163 338.313 691.448 339.412 691.448 340.677C691.448 342.693 690.662 344.311 689.09 345.53C687.518 346.738 685.416 347.342 682.784 347.342C681.075 347.342 679.48 347.017 677.999 346.368C676.517 345.707 675.372 344.807 674.563 343.667C673.766 342.528 673.367 341.235 673.367 339.788H676.666C676.666 341.292 677.218 342.483 678.323 343.36C679.44 344.226 680.927 344.659 682.784 344.659C684.515 344.659 685.843 344.306 686.766 343.599C687.688 342.893 688.15 341.93 688.15 340.711C688.15 339.492 687.723 338.552 686.868 337.891C686.014 337.219 684.464 336.558 682.22 335.909ZM698.335 330.748C699.737 329.027 701.56 328.167 703.804 328.167C707.712 328.167 709.683 330.372 709.717 334.781V347H706.556V334.764C706.544 333.431 706.237 332.445 705.633 331.807C705.04 331.169 704.112 330.85 702.847 330.85C701.822 330.85 700.922 331.124 700.147 331.67C699.372 332.217 698.768 332.935 698.335 333.824V347H695.174V320.75H698.335V330.748ZM713.614 337.583C713.614 335.772 713.967 334.143 714.673 332.696C715.391 331.249 716.382 330.132 717.647 329.346C718.923 328.56 720.376 328.167 722.005 328.167C724.523 328.167 726.556 329.039 728.106 330.782C729.667 332.525 730.447 334.843 730.447 337.737V337.959C730.447 339.76 730.1 341.377 729.405 342.813C728.721 344.237 727.736 345.348 726.448 346.146C725.172 346.943 723.702 347.342 722.039 347.342C719.533 347.342 717.499 346.47 715.938 344.727C714.389 342.984 713.614 340.677 713.614 337.806V337.583ZM716.792 337.959C716.792 340.01 717.265 341.657 718.211 342.898C719.168 344.14 720.444 344.761 722.039 344.761C723.646 344.761 724.922 344.135 725.867 342.881C726.813 341.617 727.286 339.851 727.286 337.583C727.286 335.556 726.801 333.915 725.833 332.662C724.876 331.397 723.6 330.765 722.005 330.765C720.444 330.765 719.185 331.386 718.228 332.627C717.271 333.869 716.792 335.647 716.792 337.959ZM750.032 337.959C750.032 340.774 749.389 343.041 748.101 344.761C746.814 346.482 745.07 347.342 742.872 347.342C740.627 347.342 738.861 346.63 737.574 345.206V354.109H734.412V328.509H737.3L737.454 330.56C738.742 328.965 740.53 328.167 742.82 328.167C745.042 328.167 746.797 329.004 748.084 330.679C749.383 332.354 750.032 334.684 750.032 337.669V337.959ZM746.871 337.601C746.871 335.516 746.426 333.869 745.538 332.662C744.649 331.454 743.43 330.85 741.88 330.85C739.966 330.85 738.531 331.699 737.574 333.396V342.232C738.519 343.918 739.966 344.761 741.915 344.761C743.43 344.761 744.632 344.163 745.521 342.967C746.421 341.759 746.871 339.97 746.871 337.601Z" fill="black"/>
<rect x="948.5" y="274.5" width="303" height="121" fill="#FBFBFB" stroke="url(#paint5_linear)" stroke-width="5"/>
<path d="M989.169 337.259V347H985.888V322.117H995.065C997.788 322.117 999.919 322.812 1001.46 324.202C1003.01 325.592 1003.78 327.432 1003.78 329.722C1003.78 332.138 1003.02 334 1001.51 335.311C1000 336.609 997.845 337.259 995.031 337.259H989.169ZM989.169 334.576H995.065C996.82 334.576 998.164 334.166 999.099 333.345C1000.03 332.514 1000.5 331.317 1000.5 329.756C1000.5 328.275 1000.03 327.09 999.099 326.202C998.164 325.313 996.883 324.852 995.253 324.817H989.169V334.576ZM1016.41 331.346C1015.93 331.266 1015.41 331.226 1014.86 331.226C1012.78 331.226 1011.37 332.109 1010.63 333.875V347H1007.47V328.509H1010.55L1010.6 330.645C1011.64 328.993 1013.11 328.167 1015.01 328.167C1015.62 328.167 1016.09 328.247 1016.41 328.406V331.346ZM1018.15 337.583C1018.15 335.772 1018.51 334.143 1019.21 332.696C1019.93 331.249 1020.92 330.132 1022.19 329.346C1023.46 328.56 1024.92 328.167 1026.54 328.167C1029.06 328.167 1031.1 329.039 1032.65 330.782C1034.21 332.525 1034.99 334.843 1034.99 337.737V337.959C1034.99 339.76 1034.64 341.377 1033.94 342.813C1033.26 344.237 1032.28 345.348 1030.99 346.146C1029.71 346.943 1028.24 347.342 1026.58 347.342C1024.07 347.342 1022.04 346.47 1020.48 344.727C1018.93 342.984 1018.15 340.677 1018.15 337.806V337.583ZM1021.33 337.959C1021.33 340.01 1021.81 341.657 1022.75 342.898C1023.71 344.14 1024.98 344.761 1026.58 344.761C1028.19 344.761 1029.46 344.135 1030.41 342.881C1031.35 341.617 1031.83 339.851 1031.83 337.583C1031.83 335.556 1031.34 333.915 1030.37 332.662C1029.42 331.397 1028.14 330.765 1026.54 330.765C1024.98 330.765 1023.73 331.386 1022.77 332.627C1021.81 333.869 1021.33 335.647 1021.33 337.959ZM1038.18 337.601C1038.18 334.764 1038.86 332.485 1040.2 330.765C1041.54 329.033 1043.3 328.167 1045.48 328.167C1047.65 328.167 1049.36 328.908 1050.62 330.389V320.75H1053.79V347H1050.88L1050.73 345.018C1049.46 346.567 1047.7 347.342 1045.45 347.342C1043.3 347.342 1041.56 346.465 1040.2 344.71C1038.86 342.955 1038.18 340.665 1038.18 337.84V337.601ZM1041.34 337.959C1041.34 340.056 1041.78 341.696 1042.64 342.881C1043.51 344.066 1044.71 344.659 1046.23 344.659C1048.24 344.659 1049.7 343.759 1050.62 341.958V333.465C1049.68 331.722 1048.23 330.85 1046.27 330.85C1044.72 330.85 1043.51 331.448 1042.64 332.645C1041.78 333.841 1041.34 335.612 1041.34 337.959ZM1070.12 345.171C1068.89 346.618 1067.09 347.342 1064.71 347.342C1062.74 347.342 1061.23 346.772 1060.19 345.633C1059.17 344.482 1058.65 342.785 1058.64 340.54V328.509H1061.8V340.455C1061.8 343.257 1062.94 344.659 1065.22 344.659C1067.63 344.659 1069.24 343.759 1070.04 341.958V328.509H1073.2V347H1070.19L1070.12 345.171ZM1085.44 344.761C1086.56 344.761 1087.55 344.419 1088.39 343.736C1089.24 343.052 1089.7 342.198 1089.79 341.172H1092.79C1092.73 342.232 1092.36 343.24 1091.69 344.197C1091.02 345.154 1090.12 345.918 1088.99 346.487C1087.87 347.057 1086.69 347.342 1085.44 347.342C1082.92 347.342 1080.91 346.504 1079.42 344.83C1077.94 343.143 1077.2 340.842 1077.2 337.925V337.396C1077.2 335.595 1077.53 333.995 1078.19 332.593C1078.85 331.192 1079.8 330.104 1081.03 329.329C1082.27 328.554 1083.73 328.167 1085.42 328.167C1087.49 328.167 1089.21 328.788 1090.58 330.03C1091.96 331.272 1092.69 332.884 1092.79 334.866H1089.79C1089.7 333.67 1089.25 332.69 1088.43 331.927C1087.62 331.152 1086.62 330.765 1085.42 330.765C1083.81 330.765 1082.57 331.346 1081.68 332.508C1080.8 333.659 1080.36 335.328 1080.36 337.515V338.113C1080.36 340.244 1080.8 341.884 1081.68 343.035C1082.55 344.186 1083.81 344.761 1085.44 344.761ZM1100.63 324.031V328.509H1104.08V330.953H1100.63V342.42C1100.63 343.16 1100.78 343.719 1101.09 344.095C1101.4 344.459 1101.92 344.642 1102.66 344.642C1103.03 344.642 1103.53 344.573 1104.17 344.437V347C1103.34 347.228 1102.53 347.342 1101.74 347.342C1100.33 347.342 1099.26 346.915 1098.54 346.06C1097.83 345.206 1097.47 343.992 1097.47 342.42V330.953H1094.1V328.509H1097.47V324.031H1100.63ZM1108.01 329.124L1106.22 327.894C1107.28 326.412 1107.82 324.852 1107.86 323.211V320.75H1110.99V322.972C1110.97 324.111 1110.69 325.25 1110.13 326.39C1109.58 327.518 1108.88 328.429 1108.01 329.124ZM1123.65 342.095C1123.65 341.241 1123.32 340.58 1122.68 340.113C1122.04 339.634 1120.92 339.224 1119.31 338.882C1117.71 338.541 1116.44 338.13 1115.5 337.652C1114.56 337.173 1113.87 336.604 1113.41 335.943C1112.97 335.282 1112.75 334.496 1112.75 333.584C1112.75 332.069 1113.38 330.787 1114.66 329.739C1115.95 328.691 1117.59 328.167 1119.58 328.167C1121.68 328.167 1123.38 328.708 1124.67 329.791C1125.99 330.873 1126.64 332.257 1126.64 333.943H1123.46C1123.46 333.077 1123.09 332.331 1122.35 331.705C1121.62 331.078 1120.7 330.765 1119.58 330.765C1118.43 330.765 1117.53 331.015 1116.88 331.517C1116.23 332.018 1115.91 332.673 1115.91 333.482C1115.91 334.245 1116.21 334.821 1116.81 335.208C1117.42 335.595 1118.51 335.966 1120.08 336.319C1121.66 336.672 1122.94 337.094 1123.92 337.583C1124.9 338.073 1125.63 338.666 1126.09 339.361C1126.57 340.044 1126.81 340.882 1126.81 341.873C1126.81 343.525 1126.15 344.852 1124.83 345.855C1123.51 346.846 1121.79 347.342 1119.68 347.342C1118.2 347.342 1116.89 347.08 1115.75 346.556C1114.61 346.032 1113.72 345.302 1113.07 344.368C1112.43 343.423 1112.11 342.403 1112.11 341.309H1115.28C1115.33 342.369 1115.75 343.212 1116.54 343.838C1117.34 344.454 1118.39 344.761 1119.68 344.761C1120.88 344.761 1121.84 344.522 1122.56 344.043C1123.28 343.554 1123.65 342.904 1123.65 342.095ZM1143.39 337.259V347H1140.11V322.117H1149.28C1152.01 322.117 1154.14 322.812 1155.68 324.202C1157.23 325.592 1158 327.432 1158 329.722C1158 332.138 1157.24 334 1155.73 335.311C1154.22 336.609 1152.06 337.259 1149.25 337.259H1143.39ZM1143.39 334.576H1149.28C1151.04 334.576 1152.38 334.166 1153.32 333.345C1154.25 332.514 1154.72 331.317 1154.72 329.756C1154.72 328.275 1154.25 327.09 1153.32 326.202C1152.38 325.313 1151.1 324.852 1149.47 324.817H1143.39V334.576ZM1160.61 337.583C1160.61 335.772 1160.97 334.143 1161.67 332.696C1162.39 331.249 1163.38 330.132 1164.65 329.346C1165.92 328.56 1167.38 328.167 1169.01 328.167C1171.52 328.167 1173.56 329.039 1175.11 330.782C1176.67 332.525 1177.45 334.843 1177.45 337.737V337.959C1177.45 339.76 1177.1 341.377 1176.41 342.813C1175.72 344.237 1174.74 345.348 1173.45 346.146C1172.17 346.943 1170.7 347.342 1169.04 347.342C1166.53 347.342 1164.5 346.47 1162.94 344.727C1161.39 342.984 1160.61 340.677 1160.61 337.806V337.583ZM1163.79 337.959C1163.79 340.01 1164.27 341.657 1165.21 342.898C1166.17 344.14 1167.44 344.761 1169.04 344.761C1170.65 344.761 1171.92 344.135 1172.87 342.881C1173.81 341.617 1174.29 339.851 1174.29 337.583C1174.29 335.556 1173.8 333.915 1172.83 332.662C1171.88 331.397 1170.6 330.765 1169.01 330.765C1167.44 330.765 1166.19 331.386 1165.23 332.627C1164.27 333.869 1163.79 335.647 1163.79 337.959ZM1192.18 342.095C1192.18 341.241 1191.85 340.58 1191.21 340.113C1190.57 339.634 1189.45 339.224 1187.84 338.882C1186.24 338.541 1184.97 338.13 1184.03 337.652C1183.09 337.173 1182.4 336.604 1181.94 335.943C1181.5 335.282 1181.28 334.496 1181.28 333.584C1181.28 332.069 1181.91 330.787 1183.19 329.739C1184.48 328.691 1186.12 328.167 1188.11 328.167C1190.21 328.167 1191.91 328.708 1193.21 329.791C1194.52 330.873 1195.17 332.257 1195.17 333.943H1191.99C1191.99 333.077 1191.62 332.331 1190.88 331.705C1190.15 331.078 1189.23 330.765 1188.11 330.765C1186.96 330.765 1186.06 331.015 1185.41 331.517C1184.76 332.018 1184.44 332.673 1184.44 333.482C1184.44 334.245 1184.74 334.821 1185.34 335.208C1185.95 335.595 1187.04 335.966 1188.61 336.319C1190.19 336.672 1191.47 337.094 1192.45 337.583C1193.43 338.073 1194.16 338.666 1194.62 339.361C1195.1 340.044 1195.34 340.882 1195.34 341.873C1195.34 343.525 1194.68 344.852 1193.36 345.855C1192.04 346.846 1190.32 347.342 1188.21 347.342C1186.73 347.342 1185.42 347.08 1184.28 346.556C1183.14 346.032 1182.25 345.302 1181.6 344.368C1180.96 343.423 1180.64 342.403 1180.64 341.309H1183.81C1183.86 342.369 1184.28 343.212 1185.07 343.838C1185.87 344.454 1186.92 344.761 1188.21 344.761C1189.41 344.761 1190.37 344.522 1191.09 344.043C1191.82 343.554 1192.18 342.904 1192.18 342.095ZM1203.75 324.031V328.509H1207.2V330.953H1203.75V342.42C1203.75 343.16 1203.9 343.719 1204.21 344.095C1204.52 344.459 1205.04 344.642 1205.78 344.642C1206.15 344.642 1206.65 344.573 1207.29 344.437V347C1206.46 347.228 1205.65 347.342 1204.86 347.342C1203.45 347.342 1202.38 346.915 1201.66 346.06C1200.95 345.206 1200.59 343.992 1200.59 342.42V330.953H1197.22V328.509H1200.59V324.031H1203.75Z" fill="black"/>
<rect x="1340.5" y="274.5" width="303" height="121" fill="#FBFBFB" stroke="url(#paint6_linear)" stroke-width="5"/>
<rect x="1787.5" y="904.5" width="73" height="29" fill="#FBFBFB" stroke="url(#paint7_linear)" stroke-width="5"/>
<rect x="2157.5" y="904.5" width="73" height="29" fill="#FBFBFB" stroke="black" stroke-width="5"/>
<path d="M1381.17 337.259V347H1377.89V322.117H1387.07C1389.79 322.117 1391.92 322.812 1393.46 324.202C1395.01 325.592 1395.78 327.432 1395.78 329.722C1395.78 332.138 1395.02 334 1393.51 335.311C1392 336.609 1389.85 337.259 1387.03 337.259H1381.17ZM1381.17 334.576H1387.07C1388.82 334.576 1390.16 334.166 1391.1 333.345C1392.03 332.514 1392.5 331.317 1392.5 329.756C1392.5 328.275 1392.03 327.09 1391.1 326.202C1390.16 325.313 1388.88 324.852 1387.25 324.817H1381.17V334.576ZM1408.41 331.346C1407.93 331.266 1407.41 331.226 1406.86 331.226C1404.78 331.226 1403.37 332.109 1402.63 333.875V347H1399.47V328.509H1402.55L1402.6 330.645C1403.64 328.993 1405.11 328.167 1407.01 328.167C1407.62 328.167 1408.09 328.247 1408.41 328.406V331.346ZM1410.15 337.583C1410.15 335.772 1410.51 334.143 1411.21 332.696C1411.93 331.249 1412.92 330.132 1414.19 329.346C1415.46 328.56 1416.92 328.167 1418.54 328.167C1421.06 328.167 1423.1 329.039 1424.65 330.782C1426.21 332.525 1426.99 334.843 1426.99 337.737V337.959C1426.99 339.76 1426.64 341.377 1425.94 342.813C1425.26 344.237 1424.28 345.348 1422.99 346.146C1421.71 346.943 1420.24 347.342 1418.58 347.342C1416.07 347.342 1414.04 346.47 1412.48 344.727C1410.93 342.984 1410.15 340.677 1410.15 337.806V337.583ZM1413.33 337.959C1413.33 340.01 1413.81 341.657 1414.75 342.898C1415.71 344.14 1416.98 344.761 1418.58 344.761C1420.19 344.761 1421.46 344.135 1422.41 342.881C1423.35 341.617 1423.83 339.851 1423.83 337.583C1423.83 335.556 1423.34 333.915 1422.37 332.662C1421.42 331.397 1420.14 330.765 1418.54 330.765C1416.98 330.765 1415.73 331.386 1414.77 332.627C1413.81 333.869 1413.33 335.647 1413.33 337.959ZM1430.18 337.601C1430.18 334.764 1430.86 332.485 1432.2 330.765C1433.54 329.033 1435.3 328.167 1437.48 328.167C1439.65 328.167 1441.36 328.908 1442.62 330.389V320.75H1445.79V347H1442.88L1442.73 345.018C1441.46 346.567 1439.7 347.342 1437.45 347.342C1435.3 347.342 1433.56 346.465 1432.2 344.71C1430.86 342.955 1430.18 340.665 1430.18 337.84V337.601ZM1433.34 337.959C1433.34 340.056 1433.78 341.696 1434.64 342.881C1435.51 344.066 1436.71 344.659 1438.23 344.659C1440.24 344.659 1441.7 343.759 1442.62 341.958V333.465C1441.68 331.722 1440.23 330.85 1438.27 330.85C1436.72 330.85 1435.51 331.448 1434.64 332.645C1433.78 333.841 1433.34 335.612 1433.34 337.959ZM1462.12 345.171C1460.89 346.618 1459.09 347.342 1456.71 347.342C1454.74 347.342 1453.23 346.772 1452.19 345.633C1451.17 344.482 1450.65 342.785 1450.64 340.54V328.509H1453.8V340.455C1453.8 343.257 1454.94 344.659 1457.22 344.659C1459.63 344.659 1461.24 343.759 1462.04 341.958V328.509H1465.2V347H1462.19L1462.12 345.171ZM1477.44 344.761C1478.56 344.761 1479.55 344.419 1480.39 343.736C1481.24 343.052 1481.7 342.198 1481.79 341.172H1484.79C1484.73 342.232 1484.36 343.24 1483.69 344.197C1483.02 345.154 1482.12 345.918 1480.99 346.487C1479.87 347.057 1478.69 347.342 1477.44 347.342C1474.92 347.342 1472.91 346.504 1471.42 344.83C1469.94 343.143 1469.2 340.842 1469.2 337.925V337.396C1469.2 335.595 1469.53 333.995 1470.19 332.593C1470.85 331.192 1471.8 330.104 1473.03 329.329C1474.27 328.554 1475.73 328.167 1477.42 328.167C1479.49 328.167 1481.21 328.788 1482.58 330.03C1483.96 331.272 1484.69 332.884 1484.79 334.866H1481.79C1481.7 333.67 1481.25 332.69 1480.43 331.927C1479.62 331.152 1478.62 330.765 1477.42 330.765C1475.81 330.765 1474.57 331.346 1473.68 332.508C1472.8 333.659 1472.36 335.328 1472.36 337.515V338.113C1472.36 340.244 1472.8 341.884 1473.68 343.035C1474.55 344.186 1475.81 344.761 1477.44 344.761ZM1492.63 324.031V328.509H1496.08V330.953H1492.63V342.42C1492.63 343.16 1492.78 343.719 1493.09 344.095C1493.4 344.459 1493.92 344.642 1494.66 344.642C1495.03 344.642 1495.53 344.573 1496.17 344.437V347C1495.34 347.228 1494.53 347.342 1493.74 347.342C1492.33 347.342 1491.26 346.915 1490.54 346.06C1489.83 345.206 1489.47 343.992 1489.47 342.42V330.953H1486.1V328.509H1489.47V324.031H1492.63ZM1500.01 329.124L1498.22 327.894C1499.28 326.412 1499.82 324.852 1499.86 323.211V320.75H1502.99V322.972C1502.97 324.111 1502.69 325.25 1502.13 326.39C1501.58 327.518 1500.88 328.429 1500.01 329.124ZM1515.65 342.095C1515.65 341.241 1515.32 340.58 1514.68 340.113C1514.04 339.634 1512.92 339.224 1511.31 338.882C1509.71 338.541 1508.44 338.13 1507.5 337.652C1506.56 337.173 1505.87 336.604 1505.41 335.943C1504.97 335.282 1504.75 334.496 1504.75 333.584C1504.75 332.069 1505.38 330.787 1506.66 329.739C1507.95 328.691 1509.59 328.167 1511.58 328.167C1513.68 328.167 1515.38 328.708 1516.67 329.791C1517.99 330.873 1518.64 332.257 1518.64 333.943H1515.46C1515.46 333.077 1515.09 332.331 1514.35 331.705C1513.62 331.078 1512.7 330.765 1511.58 330.765C1510.43 330.765 1509.53 331.015 1508.88 331.517C1508.23 332.018 1507.91 332.673 1507.91 333.482C1507.91 334.245 1508.21 334.821 1508.81 335.208C1509.42 335.595 1510.51 335.966 1512.08 336.319C1513.66 336.672 1514.94 337.094 1515.92 337.583C1516.9 338.073 1517.63 338.666 1518.09 339.361C1518.57 340.044 1518.81 340.882 1518.81 341.873C1518.81 343.525 1518.15 344.852 1516.83 345.855C1515.51 346.846 1513.79 347.342 1511.68 347.342C1510.2 347.342 1508.89 347.08 1507.75 346.556C1506.61 346.032 1505.72 345.302 1505.07 344.368C1504.43 343.423 1504.11 342.403 1504.11 341.309H1507.28C1507.33 342.369 1507.75 343.212 1508.54 343.838C1509.34 344.454 1510.39 344.761 1511.68 344.761C1512.88 344.761 1513.84 344.522 1514.56 344.043C1515.28 343.554 1515.65 342.904 1515.65 342.095ZM1535.39 337.259V347H1532.11V322.117H1541.28C1544.01 322.117 1546.14 322.812 1547.68 324.202C1549.23 325.592 1550 327.432 1550 329.722C1550 332.138 1549.24 334 1547.73 335.311C1546.22 336.609 1544.06 337.259 1541.25 337.259H1535.39ZM1535.39 334.576H1541.28C1543.04 334.576 1544.38 334.166 1545.32 333.345C1546.25 332.514 1546.72 331.317 1546.72 329.756C1546.72 328.275 1546.25 327.09 1545.32 326.202C1544.38 325.313 1543.1 324.852 1541.47 324.817H1535.39V334.576ZM1564.9 347C1564.72 346.635 1564.57 345.986 1564.46 345.052C1562.99 346.578 1561.23 347.342 1559.19 347.342C1557.37 347.342 1555.87 346.829 1554.7 345.804C1553.54 344.767 1552.96 343.457 1552.96 341.873C1552.96 339.948 1553.69 338.455 1555.14 337.396C1556.61 336.325 1558.68 335.789 1561.33 335.789H1564.41V334.336C1564.41 333.231 1564.08 332.354 1563.42 331.705C1562.75 331.044 1561.78 330.713 1560.49 330.713C1559.37 330.713 1558.42 330.998 1557.66 331.568C1556.89 332.138 1556.51 332.827 1556.51 333.636H1553.33C1553.33 332.713 1553.66 331.824 1554.31 330.97C1554.97 330.104 1555.86 329.42 1556.97 328.919C1558.1 328.418 1559.34 328.167 1560.68 328.167C1562.81 328.167 1564.48 328.702 1565.69 329.773C1566.9 330.833 1567.52 332.297 1567.57 334.166V342.676C1567.57 344.374 1567.78 345.724 1568.22 346.727V347H1564.9ZM1559.66 344.59C1560.65 344.59 1561.59 344.334 1562.48 343.821C1563.36 343.309 1564.01 342.642 1564.41 341.822V338.028H1561.93C1558.06 338.028 1556.12 339.161 1556.12 341.429C1556.12 342.42 1556.45 343.195 1557.11 343.753C1557.77 344.311 1558.62 344.59 1559.66 344.59ZM1571.77 337.601C1571.77 334.718 1572.44 332.428 1573.77 330.73C1575.1 329.021 1576.87 328.167 1579.07 328.167C1581.33 328.167 1583.09 328.965 1584.35 330.56L1584.5 328.509H1587.39V346.556C1587.39 348.948 1586.68 350.834 1585.26 352.212C1583.84 353.591 1581.94 354.28 1579.55 354.28C1578.22 354.28 1576.91 353.995 1575.63 353.426C1574.36 352.856 1573.38 352.076 1572.71 351.084L1574.35 349.188C1575.71 350.862 1577.37 351.7 1579.33 351.7C1580.86 351.7 1582.06 351.267 1582.92 350.401C1583.78 349.535 1584.21 348.316 1584.21 346.744V345.154C1582.95 346.613 1581.22 347.342 1579.04 347.342C1576.87 347.342 1575.12 346.47 1573.77 344.727C1572.44 342.984 1571.77 340.608 1571.77 337.601ZM1574.95 337.959C1574.95 340.044 1575.38 341.685 1576.23 342.881C1577.09 344.066 1578.28 344.659 1579.82 344.659C1581.82 344.659 1583.28 343.753 1584.21 341.941V333.499C1583.25 331.733 1581.79 330.85 1579.86 330.85C1578.32 330.85 1577.12 331.448 1576.25 332.645C1575.38 333.841 1574.95 335.612 1574.95 337.959ZM1599.85 347.342C1597.34 347.342 1595.31 346.521 1593.73 344.881C1592.16 343.229 1591.37 341.024 1591.37 338.267V337.686C1591.37 335.852 1591.72 334.217 1592.42 332.781C1593.12 331.334 1594.1 330.206 1595.36 329.397C1596.62 328.577 1597.99 328.167 1599.46 328.167C1601.86 328.167 1603.73 328.959 1605.06 330.542C1606.4 332.126 1607.06 334.393 1607.06 337.344V338.66H1594.54C1594.58 340.483 1595.11 341.958 1596.13 343.086C1597.15 344.203 1598.45 344.761 1600.02 344.761C1601.14 344.761 1602.08 344.533 1602.86 344.078C1603.63 343.622 1604.31 343.018 1604.89 342.266L1606.82 343.77C1605.27 346.151 1602.95 347.342 1599.85 347.342ZM1599.46 330.765C1598.18 330.765 1597.11 331.232 1596.25 332.166C1595.38 333.089 1594.84 334.388 1594.64 336.062H1603.9V335.823C1603.81 334.217 1603.38 332.975 1602.6 332.098C1601.83 331.209 1600.78 330.765 1599.46 330.765Z" fill="black"/>
<path d="M1893.41 934H1890.13V909.117H1893.41V934ZM1901.92 915.509L1902.02 917.833C1903.43 916.056 1905.28 915.167 1907.56 915.167C1911.47 915.167 1913.44 917.372 1913.47 921.781V934H1910.31V921.764C1910.3 920.431 1909.99 919.445 1909.39 918.807C1908.8 918.169 1907.87 917.85 1906.6 917.85C1905.58 917.85 1904.68 918.124 1903.9 918.67C1903.13 919.217 1902.52 919.935 1902.09 920.824V934H1898.93V915.509H1901.92ZM1924.82 924.72H1916.48V922.14H1924.82V924.72ZM1942.15 927.506H1931.72L1929.38 934H1926L1935.5 909.117H1938.37L1947.89 934H1944.52L1942.15 927.506ZM1932.72 924.806H1941.17L1936.94 913.167L1932.72 924.806ZM1966.37 924.959C1966.37 927.774 1965.72 930.041 1964.43 931.761C1963.15 933.482 1961.4 934.342 1959.2 934.342C1956.96 934.342 1955.19 933.63 1953.91 932.206V941.109H1950.75V915.509H1953.63L1953.79 917.56C1955.07 915.965 1956.86 915.167 1959.15 915.167C1961.38 915.167 1963.13 916.004 1964.42 917.679C1965.72 919.354 1966.37 921.684 1966.37 924.669V924.959ZM1963.2 924.601C1963.2 922.516 1962.76 920.869 1961.87 919.662C1960.98 918.454 1959.76 917.85 1958.21 917.85C1956.3 917.85 1954.86 918.699 1953.91 920.396V929.232C1954.85 930.918 1956.3 931.761 1958.25 931.761C1959.76 931.761 1960.96 931.163 1961.85 929.967C1962.75 928.759 1963.2 926.97 1963.2 924.601ZM1986.02 924.959C1986.02 927.774 1985.37 930.041 1984.09 931.761C1982.8 933.482 1981.06 934.342 1978.86 934.342C1976.61 934.342 1974.85 933.63 1973.56 932.206V941.109H1970.4V915.509H1973.29L1973.44 917.56C1974.73 915.965 1976.52 915.167 1978.81 915.167C1981.03 915.167 1982.78 916.004 1984.07 917.679C1985.37 919.354 1986.02 921.684 1986.02 924.669V924.959ZM1982.86 924.601C1982.86 922.516 1982.41 920.869 1981.52 919.662C1980.64 918.454 1979.42 917.85 1977.87 917.85C1975.95 917.85 1974.52 918.699 1973.56 920.396V929.232C1974.51 930.918 1975.95 931.761 1977.9 931.761C1979.42 931.761 1980.62 931.163 1981.51 929.967C1982.41 928.759 1982.86 926.97 1982.86 924.601ZM2002.51 924.259V934H1999.23V909.117H2008.41C2011.13 909.117 2013.26 909.812 2014.8 911.202C2016.35 912.592 2017.12 914.432 2017.12 916.722C2017.12 919.138 2016.36 921 2014.85 922.311C2013.35 923.609 2011.19 924.259 2008.37 924.259H2002.51ZM2002.51 921.576H2008.41C2010.16 921.576 2011.51 921.166 2012.44 920.345C2013.37 919.514 2013.84 918.317 2013.84 916.756C2013.84 915.275 2013.37 914.09 2012.44 913.202C2011.51 912.313 2010.22 911.852 2008.59 911.817H2002.51V921.576ZM2032.02 934C2031.84 933.635 2031.69 932.986 2031.58 932.052C2030.11 933.578 2028.36 934.342 2026.32 934.342C2024.49 934.342 2023 933.829 2021.82 932.804C2020.66 931.767 2020.08 930.457 2020.08 928.873C2020.08 926.948 2020.81 925.455 2022.27 924.396C2023.74 923.325 2025.8 922.789 2028.45 922.789H2031.53V921.336C2031.53 920.231 2031.2 919.354 2030.54 918.705C2029.88 918.044 2028.9 917.713 2027.62 917.713C2026.49 917.713 2025.54 917.998 2024.78 918.568C2024.01 919.138 2023.63 919.827 2023.63 920.636H2020.45C2020.45 919.713 2020.78 918.824 2021.43 917.97C2022.09 917.104 2022.98 916.42 2024.09 915.919C2025.22 915.418 2026.46 915.167 2027.8 915.167C2029.93 915.167 2031.6 915.702 2032.81 916.773C2034.02 917.833 2034.64 919.297 2034.69 921.166V929.676C2034.69 931.374 2034.91 932.724 2035.34 933.727V934H2032.02ZM2026.78 931.59C2027.77 931.59 2028.71 931.334 2029.6 930.821C2030.49 930.309 2031.13 929.642 2031.53 928.822V925.028H2029.05C2025.18 925.028 2023.24 926.161 2023.24 928.429C2023.24 929.42 2023.57 930.195 2024.23 930.753C2024.89 931.311 2025.74 931.59 2026.78 931.59ZM2038.89 924.601C2038.89 921.718 2039.56 919.428 2040.89 917.73C2042.23 916.021 2043.99 915.167 2046.19 915.167C2048.45 915.167 2050.21 915.965 2051.47 917.56L2051.63 915.509H2054.51V933.556C2054.51 935.948 2053.8 937.834 2052.38 939.212C2050.97 940.591 2049.06 941.28 2046.67 941.28C2045.34 941.28 2044.03 940.995 2042.76 940.426C2041.48 939.856 2040.51 939.076 2039.83 938.084L2041.48 936.188C2042.83 937.862 2044.49 938.7 2046.45 938.7C2047.99 938.7 2049.18 938.267 2050.04 937.401C2050.9 936.535 2051.34 935.316 2051.34 933.744V932.154C2050.07 933.613 2048.35 934.342 2046.16 934.342C2043.99 934.342 2042.24 933.47 2040.89 931.727C2039.56 929.984 2038.89 927.608 2038.89 924.601ZM2042.07 924.959C2042.07 927.044 2042.5 928.685 2043.35 929.881C2044.21 931.066 2045.41 931.659 2046.94 931.659C2048.94 931.659 2050.4 930.753 2051.34 928.941V920.499C2050.37 918.733 2048.91 917.85 2046.98 917.85C2045.44 917.85 2044.24 918.448 2043.37 919.645C2042.51 920.841 2042.07 922.612 2042.07 924.959ZM2066.97 934.342C2064.47 934.342 2062.43 933.521 2060.85 931.881C2059.28 930.229 2058.5 928.024 2058.5 925.267V924.686C2058.5 922.852 2058.84 921.217 2059.54 919.781C2060.25 918.334 2061.23 917.206 2062.48 916.397C2063.74 915.577 2065.11 915.167 2066.58 915.167C2068.98 915.167 2070.85 915.959 2072.19 917.542C2073.52 919.126 2074.19 921.393 2074.19 924.344V925.66H2061.66C2061.7 927.483 2062.23 928.958 2063.25 930.086C2064.27 931.203 2065.57 931.761 2067.14 931.761C2068.26 931.761 2069.21 931.533 2069.98 931.078C2070.76 930.622 2071.43 930.018 2072.01 929.266L2073.95 930.77C2072.4 933.151 2070.07 934.342 2066.97 934.342ZM2066.58 917.765C2065.3 917.765 2064.23 918.232 2063.37 919.166C2062.5 920.089 2061.97 921.388 2061.76 923.062H2071.02V922.823C2070.93 921.217 2070.5 919.975 2069.72 919.098C2068.95 918.209 2067.9 917.765 2066.58 917.765Z" fill="black"/>
<path d="M2279.03 922.362C2279.03 924.8 2278.62 926.931 2277.8 928.753C2276.98 930.565 2275.82 931.949 2274.31 932.906C2272.81 933.863 2271.05 934.342 2269.05 934.342C2267.09 934.342 2265.35 933.863 2263.84 932.906C2262.32 931.938 2261.14 930.565 2260.3 928.788C2259.47 926.999 2259.04 924.931 2259.02 922.584V920.79C2259.02 918.397 2259.43 916.284 2260.26 914.449C2261.1 912.615 2262.27 911.214 2263.78 910.245C2265.31 909.265 2267.05 908.775 2269.01 908.775C2271.01 908.775 2272.76 909.26 2274.28 910.228C2275.8 911.185 2276.98 912.581 2277.8 914.415C2278.62 916.238 2279.03 918.363 2279.03 920.79V922.362ZM2275.76 920.755C2275.76 917.805 2275.17 915.543 2273.99 913.971C2272.8 912.387 2271.14 911.595 2269.01 911.595C2266.94 911.595 2265.31 912.387 2264.11 913.971C2262.92 915.543 2262.31 917.73 2262.28 920.533V922.362C2262.28 925.222 2262.88 927.472 2264.08 929.112C2265.28 930.742 2266.94 931.556 2269.05 931.556C2271.17 931.556 2272.81 930.787 2273.97 929.249C2275.13 927.7 2275.73 925.484 2275.76 922.601V920.755ZM2294.87 932.171C2293.64 933.618 2291.83 934.342 2289.45 934.342C2287.48 934.342 2285.98 933.772 2284.94 932.633C2283.92 931.482 2283.4 929.785 2283.39 927.54V915.509H2286.55V927.455C2286.55 930.257 2287.69 931.659 2289.97 931.659C2292.38 931.659 2293.99 930.759 2294.79 928.958V915.509H2297.95V934H2294.94L2294.87 932.171ZM2307.06 911.031V915.509H2310.51V917.953H2307.06V929.42C2307.06 930.16 2307.21 930.719 2307.52 931.095C2307.83 931.459 2308.35 931.642 2309.09 931.642C2309.45 931.642 2309.96 931.573 2310.59 931.437V934C2309.76 934.228 2308.95 934.342 2308.17 934.342C2306.75 934.342 2305.69 933.915 2304.97 933.06C2304.25 932.206 2303.89 930.992 2303.89 929.42V917.953H2300.53V915.509H2303.89V911.031H2307.06ZM2324.98 929.095C2324.98 928.241 2324.66 927.58 2324.01 927.113C2323.37 926.634 2322.25 926.224 2320.64 925.882C2319.05 925.541 2317.78 925.13 2316.83 924.652C2315.9 924.173 2315.2 923.604 2314.75 922.943C2314.3 922.282 2314.08 921.496 2314.08 920.584C2314.08 919.069 2314.72 917.787 2315.99 916.739C2317.28 915.691 2318.92 915.167 2320.92 915.167C2323.01 915.167 2324.71 915.708 2326.01 916.791C2327.32 917.873 2327.97 919.257 2327.97 920.943H2324.8C2324.8 920.077 2324.43 919.331 2323.68 918.705C2322.96 918.078 2322.03 917.765 2320.92 917.765C2319.77 917.765 2318.87 918.015 2318.22 918.517C2317.57 919.018 2317.24 919.673 2317.24 920.482C2317.24 921.245 2317.54 921.821 2318.15 922.208C2318.75 922.595 2319.84 922.966 2321.41 923.319C2323 923.672 2324.28 924.094 2325.26 924.583C2326.24 925.073 2326.96 925.666 2327.43 926.361C2327.91 927.044 2328.15 927.882 2328.15 928.873C2328.15 930.525 2327.48 931.852 2326.16 932.855C2324.84 933.846 2323.13 934.342 2321.02 934.342C2319.54 934.342 2318.23 934.08 2317.09 933.556C2315.95 933.032 2315.05 932.302 2314.4 931.368C2313.77 930.423 2313.45 929.403 2313.45 928.309H2316.61C2316.67 929.369 2317.09 930.212 2317.87 930.838C2318.67 931.454 2319.72 931.761 2321.02 931.761C2322.21 931.761 2323.17 931.522 2323.89 931.043C2324.62 930.554 2324.98 929.904 2324.98 929.095ZM2335.7 934H2332.54V915.509H2335.7V934ZM2332.28 910.604C2332.28 910.091 2332.43 909.658 2332.74 909.305C2333.06 908.952 2333.53 908.775 2334.14 908.775C2334.76 908.775 2335.23 908.952 2335.54 909.305C2335.86 909.658 2336.02 910.091 2336.02 910.604C2336.02 911.117 2335.86 911.544 2335.54 911.886C2335.23 912.228 2334.76 912.398 2334.14 912.398C2333.53 912.398 2333.06 912.228 2332.74 911.886C2332.43 911.544 2332.28 911.117 2332.28 910.604ZM2340.01 924.601C2340.01 921.764 2340.68 919.485 2342.02 917.765C2343.37 916.033 2345.13 915.167 2347.3 915.167C2349.47 915.167 2351.18 915.908 2352.45 917.389V907.75H2355.61V934H2352.7L2352.55 932.018C2351.28 933.567 2349.52 934.342 2347.27 934.342C2345.13 934.342 2343.38 933.465 2342.02 931.71C2340.68 929.955 2340.01 927.665 2340.01 924.84V924.601ZM2343.17 924.959C2343.17 927.056 2343.6 928.696 2344.47 929.881C2345.33 931.066 2346.53 931.659 2348.05 931.659C2350.06 931.659 2351.52 930.759 2352.45 928.958V920.465C2351.5 918.722 2350.05 917.85 2348.09 917.85C2346.54 917.85 2345.33 918.448 2344.47 919.645C2343.6 920.841 2343.17 922.612 2343.17 924.959ZM2368.2 934.342C2365.7 934.342 2363.66 933.521 2362.09 931.881C2360.51 930.229 2359.73 928.024 2359.73 925.267V924.686C2359.73 922.852 2360.07 921.217 2360.77 919.781C2361.48 918.334 2362.46 917.206 2363.71 916.397C2364.97 915.577 2366.34 915.167 2367.81 915.167C2370.21 915.167 2372.08 915.959 2373.42 917.542C2374.75 919.126 2375.42 921.393 2375.42 924.344V925.66H2362.89C2362.93 927.483 2363.46 928.958 2364.48 930.086C2365.5 931.203 2366.8 931.761 2368.37 931.761C2369.49 931.761 2370.44 931.533 2371.21 931.078C2371.99 930.622 2372.66 930.018 2373.25 929.266L2375.18 930.77C2373.63 933.151 2371.3 934.342 2368.2 934.342ZM2367.81 917.765C2366.53 917.765 2365.46 918.232 2364.6 919.166C2363.73 920.089 2363.2 921.388 2362.99 923.062H2372.25V922.823C2372.16 921.217 2371.73 919.975 2370.96 919.098C2370.18 918.209 2369.13 917.765 2367.81 917.765ZM2402.01 927.506H2391.58L2389.24 934H2385.86L2395.36 909.117H2398.23L2407.75 934H2404.38L2402.01 927.506ZM2392.57 924.806H2401.03L2396.79 913.167L2392.57 924.806ZM2426.22 924.959C2426.22 927.774 2425.58 930.041 2424.29 931.761C2423.01 933.482 2421.26 934.342 2419.06 934.342C2416.82 934.342 2415.05 933.63 2413.77 932.206V941.109H2410.6V915.509H2413.49L2413.65 917.56C2414.93 915.965 2416.72 915.167 2419.01 915.167C2421.23 915.167 2422.99 916.004 2424.28 917.679C2425.57 919.354 2426.22 921.684 2426.22 924.669V924.959ZM2423.06 924.601C2423.06 922.516 2422.62 920.869 2421.73 919.662C2420.84 918.454 2419.62 917.85 2418.07 917.85C2416.16 917.85 2414.72 918.699 2413.77 920.396V929.232C2414.71 930.918 2416.16 931.761 2418.11 931.761C2419.62 931.761 2420.82 931.163 2421.71 929.967C2422.61 928.759 2423.06 926.97 2423.06 924.601ZM2445.88 924.959C2445.88 927.774 2445.23 930.041 2443.95 931.761C2442.66 933.482 2440.92 934.342 2438.72 934.342C2436.47 934.342 2434.71 933.63 2433.42 932.206V941.109H2430.26V915.509H2433.15L2433.3 917.56C2434.59 915.965 2436.38 915.167 2438.67 915.167C2440.89 915.167 2442.64 916.004 2443.93 917.679C2445.23 919.354 2445.88 921.684 2445.88 924.669V924.959ZM2442.72 924.601C2442.72 922.516 2442.27 920.869 2441.38 919.662C2440.49 918.454 2439.27 917.85 2437.73 917.85C2435.81 917.85 2434.38 918.699 2433.42 920.396V929.232C2434.36 930.918 2435.81 931.761 2437.76 931.761C2439.27 931.761 2440.48 931.163 2441.37 929.967C2442.27 928.759 2442.72 926.97 2442.72 924.601Z" fill="black"/>
<rect x="1730.5" y="180.5" width="303" height="121" fill="#FBFBFB" stroke="url(#paint8_linear)" stroke-width="5"/>
<path d="M1818.63 252.506H1808.2L1805.86 259H1802.48L1811.98 234.117H1814.85L1824.37 259H1821L1818.63 252.506ZM1809.19 249.806H1817.65L1813.42 238.167L1809.19 249.806ZM1826.46 249.601C1826.46 246.764 1827.13 244.485 1828.47 242.765C1829.82 241.033 1831.58 240.167 1833.75 240.167C1835.92 240.167 1837.63 240.908 1838.9 242.389V232.75H1842.06V259H1839.15L1839 257.018C1837.73 258.567 1835.97 259.342 1833.72 259.342C1831.58 259.342 1829.83 258.465 1828.47 256.71C1827.13 254.955 1826.46 252.665 1826.46 249.84V249.601ZM1829.62 249.959C1829.62 252.056 1830.05 253.696 1830.92 254.881C1831.78 256.066 1832.98 256.659 1834.5 256.659C1836.51 256.659 1837.97 255.759 1838.9 253.958V245.465C1837.95 243.722 1836.5 242.85 1834.54 242.85C1832.99 242.85 1831.78 243.448 1830.92 244.645C1830.05 245.841 1829.62 247.612 1829.62 249.959ZM1846.21 249.601C1846.21 246.764 1846.88 244.485 1848.23 242.765C1849.57 241.033 1851.33 240.167 1853.51 240.167C1855.67 240.167 1857.39 240.908 1858.65 242.389V232.75H1861.81V259H1858.91L1858.76 257.018C1857.49 258.567 1855.73 259.342 1853.47 259.342C1851.33 259.342 1849.58 258.465 1848.23 256.71C1846.88 254.955 1846.21 252.665 1846.21 249.84V249.601ZM1849.37 249.959C1849.37 252.056 1849.81 253.696 1850.67 254.881C1851.54 256.066 1852.73 256.659 1854.26 256.659C1856.27 256.659 1857.73 255.759 1858.65 253.958V245.465C1857.71 243.722 1856.25 242.85 1854.29 242.85C1852.75 242.85 1851.54 243.448 1850.67 244.645C1849.81 245.841 1849.37 247.612 1849.37 249.959ZM1879.71 236.031V240.509H1883.16V242.953H1879.71V254.42C1879.71 255.16 1879.86 255.719 1880.17 256.095C1880.48 256.459 1881 256.642 1881.74 256.642C1882.11 256.642 1882.61 256.573 1883.25 256.437V259C1882.41 259.228 1881.6 259.342 1880.82 259.342C1879.41 259.342 1878.34 258.915 1877.62 258.06C1876.9 257.206 1876.55 255.992 1876.55 254.42V242.953H1873.18V240.509H1876.55V236.031H1879.71ZM1885.69 249.583C1885.69 247.772 1886.04 246.143 1886.75 244.696C1887.47 243.249 1888.46 242.132 1889.72 241.346C1891 240.56 1892.45 240.167 1894.08 240.167C1896.6 240.167 1898.63 241.039 1900.18 242.782C1901.74 244.525 1902.52 246.843 1902.52 249.737V249.959C1902.52 251.76 1902.17 253.377 1901.48 254.813C1900.8 256.237 1899.81 257.348 1898.52 258.146C1897.25 258.943 1895.78 259.342 1894.11 259.342C1891.61 259.342 1889.57 258.47 1888.01 256.727C1886.46 254.984 1885.69 252.677 1885.69 249.806V249.583ZM1888.87 249.959C1888.87 252.01 1889.34 253.657 1890.29 254.898C1891.24 256.14 1892.52 256.761 1894.11 256.761C1895.72 256.761 1897 256.135 1897.94 254.881C1898.89 253.617 1899.36 251.851 1899.36 249.583C1899.36 247.556 1898.88 245.915 1897.91 244.662C1896.95 243.397 1895.68 242.765 1894.08 242.765C1892.52 242.765 1891.26 243.386 1890.3 244.627C1889.35 245.869 1888.87 247.647 1888.87 249.959ZM1930.82 249.959C1930.82 252.785 1930.17 255.058 1928.88 256.778C1927.58 258.487 1925.83 259.342 1923.65 259.342C1921.31 259.342 1919.5 258.516 1918.23 256.864L1918.07 259H1915.17V232.75H1918.33V242.542C1919.61 240.959 1921.37 240.167 1923.61 240.167C1925.86 240.167 1927.62 241.016 1928.89 242.713C1930.18 244.411 1930.82 246.735 1930.82 249.686V249.959ZM1927.66 249.601C1927.66 247.447 1927.25 245.784 1926.41 244.61C1925.58 243.437 1924.39 242.85 1922.83 242.85C1920.74 242.85 1919.24 243.819 1918.33 245.755V253.753C1919.3 255.69 1920.81 256.659 1922.86 256.659C1924.37 256.659 1925.55 256.072 1926.4 254.898C1927.24 253.725 1927.66 251.959 1927.66 249.601ZM1946.24 259C1946.06 258.635 1945.91 257.986 1945.79 257.052C1944.32 258.578 1942.57 259.342 1940.53 259.342C1938.71 259.342 1937.21 258.829 1936.04 257.804C1934.87 256.767 1934.29 255.457 1934.29 253.873C1934.29 251.948 1935.02 250.455 1936.48 249.396C1937.95 248.325 1940.01 247.789 1942.67 247.789H1945.74V246.336C1945.74 245.231 1945.41 244.354 1944.75 243.705C1944.09 243.044 1943.12 242.713 1941.83 242.713C1940.7 242.713 1939.76 242.998 1938.99 243.568C1938.23 244.138 1937.85 244.827 1937.85 245.636H1934.67C1934.67 244.713 1934.99 243.824 1935.64 242.97C1936.3 242.104 1937.19 241.42 1938.31 240.919C1939.44 240.418 1940.67 240.167 1942.02 240.167C1944.15 240.167 1945.82 240.702 1947.02 241.773C1948.23 242.833 1948.86 244.297 1948.9 246.166V254.676C1948.9 256.374 1949.12 257.724 1949.55 258.727V259H1946.24ZM1940.99 256.59C1941.98 256.59 1942.92 256.334 1943.81 255.821C1944.7 255.309 1945.34 254.642 1945.74 253.822V250.028H1943.26C1939.39 250.028 1937.45 251.161 1937.45 253.429C1937.45 254.42 1937.78 255.195 1938.45 255.753C1939.11 256.311 1939.95 256.59 1940.99 256.59ZM1953.11 249.601C1953.11 246.718 1953.77 244.428 1955.11 242.73C1956.44 241.021 1958.21 240.167 1960.41 240.167C1962.66 240.167 1964.42 240.965 1965.69 242.56L1965.84 240.509H1968.73V258.556C1968.73 260.948 1968.02 262.834 1966.59 264.212C1965.18 265.591 1963.28 266.28 1960.88 266.28C1959.55 266.28 1958.25 265.995 1956.97 265.426C1955.69 264.856 1954.72 264.076 1954.05 263.084L1955.69 261.188C1957.04 262.862 1958.7 263.7 1960.66 263.7C1962.2 263.7 1963.4 263.267 1964.25 262.401C1965.12 261.535 1965.55 260.316 1965.55 258.744V257.154C1964.29 258.613 1962.56 259.342 1960.37 259.342C1958.21 259.342 1956.45 258.47 1955.11 256.727C1953.77 254.984 1953.11 252.608 1953.11 249.601ZM1956.29 249.959C1956.29 252.044 1956.71 253.685 1957.57 254.881C1958.42 256.066 1959.62 256.659 1961.16 256.659C1963.15 256.659 1964.62 255.753 1965.55 253.941V245.499C1964.58 243.733 1963.13 242.85 1961.19 242.85C1959.65 242.85 1958.45 243.448 1957.59 244.645C1956.72 245.841 1956.29 247.612 1956.29 249.959Z" fill="black"/>
<rect x="1730.5" y="400.5" width="303" height="121" fill="#FBFBFB" stroke="black" stroke-width="5"/>
<path d="M1767.89 473V448.117H1776.02C1778.72 448.117 1780.75 448.675 1782.11 449.792C1783.47 450.909 1784.16 452.561 1784.16 454.748C1784.16 455.91 1783.83 456.941 1783.17 457.841C1782.51 458.73 1781.61 459.419 1780.47 459.909C1781.81 460.285 1782.87 461.003 1783.65 462.062C1784.43 463.111 1784.82 464.364 1784.82 465.822C1784.82 468.055 1784.1 469.81 1782.65 471.086C1781.21 472.362 1779.16 473 1776.52 473H1767.89ZM1771.17 461.362V470.317H1776.59C1778.11 470.317 1779.32 469.924 1780.19 469.138C1781.08 468.34 1781.53 467.246 1781.53 465.856C1781.53 462.86 1779.9 461.362 1776.64 461.362H1771.17ZM1771.17 458.73H1776.13C1777.56 458.73 1778.71 458.371 1779.56 457.653C1780.43 456.936 1780.86 455.961 1780.86 454.731C1780.86 453.364 1780.46 452.373 1779.66 451.757C1778.87 451.131 1777.65 450.817 1776.02 450.817H1771.17V458.73ZM1800.62 471.171C1799.38 472.618 1797.58 473.342 1795.2 473.342C1793.23 473.342 1791.72 472.772 1790.69 471.633C1789.66 470.482 1789.14 468.785 1789.13 466.54V454.509H1792.29V466.455C1792.29 469.257 1793.43 470.659 1795.71 470.659C1798.13 470.659 1799.73 469.759 1800.53 467.958V454.509H1803.69V473H1800.68L1800.62 471.171ZM1814.56 468.369L1818.87 454.509H1822.25L1814.82 475.854C1813.67 478.93 1811.84 480.468 1809.33 480.468L1808.73 480.417L1807.55 480.195V477.631L1808.41 477.7C1809.48 477.7 1810.31 477.483 1810.9 477.05C1811.51 476.617 1812 475.826 1812.39 474.675L1813.09 472.795L1806.49 454.509H1809.95L1814.56 468.369ZM1832.93 463.583C1832.93 461.772 1833.29 460.143 1833.99 458.696C1834.71 457.249 1835.7 456.132 1836.97 455.346C1838.24 454.56 1839.69 454.167 1841.32 454.167C1843.84 454.167 1845.87 455.039 1847.42 456.782C1848.99 458.525 1849.77 460.843 1849.77 463.737V463.959C1849.77 465.76 1849.42 467.377 1848.72 468.813C1848.04 470.237 1847.05 471.348 1845.77 472.146C1844.49 472.943 1843.02 473.342 1841.36 473.342C1838.85 473.342 1836.82 472.47 1835.26 470.727C1833.71 468.984 1832.93 466.677 1832.93 463.806V463.583ZM1836.11 463.959C1836.11 466.01 1836.58 467.657 1837.53 468.898C1838.49 470.14 1839.76 470.761 1841.36 470.761C1842.96 470.761 1844.24 470.135 1845.19 468.881C1846.13 467.617 1846.6 465.851 1846.6 463.583C1846.6 461.556 1846.12 459.915 1845.15 458.662C1844.19 457.397 1842.92 456.765 1841.32 456.765C1839.76 456.765 1838.5 457.386 1837.55 458.627C1836.59 459.869 1836.11 461.647 1836.11 463.959ZM1856.72 454.509L1856.82 456.833C1858.24 455.056 1860.08 454.167 1862.36 454.167C1866.27 454.167 1868.24 456.372 1868.27 460.781V473H1865.11V460.764C1865.1 459.431 1864.79 458.445 1864.19 457.807C1863.6 457.169 1862.67 456.85 1861.4 456.85C1860.38 456.85 1859.48 457.124 1858.7 457.67C1857.93 458.217 1857.33 458.935 1856.89 459.824V473H1853.73V454.509H1856.72ZM1887.59 465.156L1888.06 468.437L1888.76 465.48L1893.69 448.117H1896.46L1901.26 465.48L1901.94 468.488L1902.47 465.139L1906.33 448.117H1909.63L1903.6 473H1900.61L1895.48 454.868L1895.09 452.971L1894.69 454.868L1889.38 473H1886.39L1880.37 448.117H1883.65L1887.59 465.156ZM1919.92 473.342C1917.41 473.342 1915.37 472.521 1913.8 470.881C1912.23 469.229 1911.44 467.024 1911.44 464.267V463.686C1911.44 461.852 1911.79 460.217 1912.49 458.781C1913.19 457.334 1914.17 456.206 1915.42 455.397C1916.69 454.577 1918.06 454.167 1919.53 454.167C1921.93 454.167 1923.8 454.959 1925.13 456.542C1926.46 458.126 1927.13 460.393 1927.13 463.344V464.66H1914.6C1914.65 466.483 1915.18 467.958 1916.19 469.086C1917.22 470.203 1918.52 470.761 1920.09 470.761C1921.21 470.761 1922.15 470.533 1922.93 470.078C1923.7 469.622 1924.38 469.018 1924.96 468.266L1926.89 469.77C1925.34 472.151 1923.02 473.342 1919.92 473.342ZM1919.53 456.765C1918.25 456.765 1917.18 457.232 1916.31 458.166C1915.45 459.089 1914.91 460.388 1914.71 462.062H1923.97V461.823C1923.88 460.217 1923.45 458.975 1922.67 458.098C1921.9 457.209 1920.85 456.765 1919.53 456.765ZM1946.46 463.959C1946.46 466.785 1945.81 469.058 1944.51 470.778C1943.21 472.487 1941.47 473.342 1939.28 473.342C1936.95 473.342 1935.14 472.516 1933.86 470.864L1933.71 473H1930.81V446.75H1933.97V456.542C1935.24 454.959 1937 454.167 1939.25 454.167C1941.49 454.167 1943.25 455.016 1944.53 456.713C1945.82 458.411 1946.46 460.735 1946.46 463.686V463.959ZM1943.3 463.601C1943.3 461.447 1942.88 459.784 1942.05 458.61C1941.22 457.437 1940.02 456.85 1938.46 456.85C1936.38 456.85 1934.88 457.819 1933.97 459.755V467.753C1934.94 469.69 1936.45 470.659 1938.5 470.659C1940.01 470.659 1941.19 470.072 1942.03 468.898C1942.88 467.725 1943.3 465.959 1943.3 463.601ZM1961.23 468.095C1961.23 467.241 1960.9 466.58 1960.25 466.113C1959.61 465.634 1958.49 465.224 1956.88 464.882C1955.29 464.541 1954.02 464.13 1953.07 463.652C1952.14 463.173 1951.44 462.604 1950.99 461.943C1950.54 461.282 1950.32 460.496 1950.32 459.584C1950.32 458.069 1950.96 456.787 1952.24 455.739C1953.52 454.691 1955.16 454.167 1957.16 454.167C1959.25 454.167 1960.95 454.708 1962.25 455.791C1963.56 456.873 1964.22 458.257 1964.22 459.943H1961.04C1961.04 459.077 1960.67 458.331 1959.93 457.705C1959.2 457.078 1958.27 456.765 1957.16 456.765C1956.01 456.765 1955.11 457.015 1954.46 457.517C1953.81 458.018 1953.48 458.673 1953.48 459.482C1953.48 460.245 1953.79 460.821 1954.39 461.208C1954.99 461.595 1956.08 461.966 1957.65 462.319C1959.24 462.672 1960.52 463.094 1961.5 463.583C1962.48 464.073 1963.2 464.666 1963.67 465.361C1964.15 466.044 1964.39 466.882 1964.39 467.873C1964.39 469.525 1963.73 470.852 1962.4 471.855C1961.08 472.846 1959.37 473.342 1957.26 473.342C1955.78 473.342 1954.47 473.08 1953.33 472.556C1952.19 472.032 1951.3 471.302 1950.65 470.368C1950.01 469.423 1949.69 468.403 1949.69 467.309H1952.85C1952.91 468.369 1953.33 469.212 1954.12 469.838C1954.91 470.454 1955.96 470.761 1957.26 470.761C1958.46 470.761 1959.41 470.522 1960.13 470.043C1960.86 469.554 1961.23 468.904 1961.23 468.095ZM1971.94 473H1968.78V454.509H1971.94V473ZM1968.52 449.604C1968.52 449.091 1968.68 448.658 1968.98 448.305C1969.3 447.952 1969.77 447.775 1970.39 447.775C1971 447.775 1971.47 447.952 1971.79 448.305C1972.11 448.658 1972.27 449.091 1972.27 449.604C1972.27 450.117 1972.11 450.544 1971.79 450.886C1971.47 451.228 1971 451.398 1970.39 451.398C1969.77 451.398 1969.3 451.228 1968.98 450.886C1968.68 450.544 1968.52 450.117 1968.52 449.604ZM1981.31 450.031V454.509H1984.76V456.953H1981.31V468.42C1981.31 469.16 1981.46 469.719 1981.77 470.095C1982.08 470.459 1982.6 470.642 1983.34 470.642C1983.7 470.642 1984.21 470.573 1984.84 470.437V473C1984.01 473.228 1983.2 473.342 1982.42 473.342C1981 473.342 1979.94 472.915 1979.22 472.06C1978.5 471.206 1978.14 469.992 1978.14 468.42V456.953H1974.78V454.509H1978.14V450.031H1981.31ZM1996.14 473.342C1993.63 473.342 1991.59 472.521 1990.02 470.881C1988.45 469.229 1987.66 467.024 1987.66 464.267V463.686C1987.66 461.852 1988.01 460.217 1988.71 458.781C1989.41 457.334 1990.39 456.206 1991.65 455.397C1992.91 454.577 1994.28 454.167 1995.75 454.167C1998.15 454.167 2000.02 454.959 2001.35 456.542C2002.69 458.126 2003.35 460.393 2003.35 463.344V464.66H1990.83C1990.87 466.483 1991.4 467.958 1992.41 469.086C1993.44 470.203 1994.74 470.761 1996.31 470.761C1997.43 470.761 1998.37 470.533 1999.15 470.078C1999.92 469.622 2000.6 469.018 2001.18 468.266L2003.11 469.77C2001.56 472.151 1999.24 473.342 1996.14 473.342ZM1995.75 456.765C1994.47 456.765 1993.4 457.232 1992.53 458.166C1991.67 459.089 1991.13 460.388 1990.93 462.062H2000.19V461.823C2000.1 460.217 1999.67 458.975 1998.89 458.098C1998.12 457.209 1997.07 456.765 1995.75 456.765Z" fill="black"/>
<rect x="2120.5" y="400.5" width="303" height="121" fill="#FBFBFB" stroke="black" stroke-width="5"/>
<path d="M2167.01 462.934H2161.17V473H2157.87V448.117H2166.11C2168.91 448.117 2171.06 448.755 2172.57 450.031C2174.08 451.307 2174.84 453.164 2174.84 455.603C2174.84 457.152 2174.42 458.502 2173.58 459.653C2172.74 460.804 2171.58 461.664 2170.09 462.233L2175.94 472.795V473H2172.41L2167.01 462.934ZM2161.17 460.251H2166.21C2167.84 460.251 2169.13 459.829 2170.09 458.986C2171.06 458.143 2171.54 457.015 2171.54 455.603C2171.54 454.064 2171.08 452.885 2170.16 452.065C2169.25 451.245 2167.93 450.829 2166.19 450.817H2161.17V460.251ZM2186.63 473.342C2184.13 473.342 2182.09 472.521 2180.52 470.881C2178.94 469.229 2178.16 467.024 2178.16 464.267V463.686C2178.16 461.852 2178.5 460.217 2179.2 458.781C2179.91 457.334 2180.89 456.206 2182.14 455.397C2183.4 454.577 2184.77 454.167 2186.24 454.167C2188.64 454.167 2190.51 454.959 2191.85 456.542C2193.18 458.126 2193.85 460.393 2193.85 463.344V464.66H2181.32C2181.36 466.483 2181.89 467.958 2182.91 469.086C2183.93 470.203 2185.23 470.761 2186.8 470.761C2187.92 470.761 2188.87 470.533 2189.64 470.078C2190.42 469.622 2191.09 469.018 2191.67 468.266L2193.61 469.77C2192.06 472.151 2189.73 473.342 2186.63 473.342ZM2186.24 456.765C2184.96 456.765 2183.89 457.232 2183.03 458.166C2182.16 459.089 2181.63 460.388 2181.42 462.062H2190.68V461.823C2190.59 460.217 2190.16 458.975 2189.38 458.098C2188.61 457.209 2187.56 456.765 2186.24 456.765ZM2201.81 450.031V454.509H2205.26V456.953H2201.81V468.42C2201.81 469.16 2201.96 469.719 2202.27 470.095C2202.58 470.459 2203.1 470.642 2203.84 470.642C2204.21 470.642 2204.71 470.573 2205.35 470.437V473C2204.51 473.228 2203.71 473.342 2202.92 473.342C2201.51 473.342 2200.44 472.915 2199.72 472.06C2199.01 471.206 2198.65 469.992 2198.65 468.42V456.953H2195.28V454.509H2198.65V450.031H2201.81ZM2220.39 473C2220.2 472.635 2220.06 471.986 2219.94 471.052C2218.47 472.578 2216.72 473.342 2214.68 473.342C2212.85 473.342 2211.36 472.829 2210.18 471.804C2209.02 470.767 2208.44 469.457 2208.44 467.873C2208.44 465.948 2209.17 464.455 2210.63 463.396C2212.1 462.325 2214.16 461.789 2216.81 461.789H2219.89V460.336C2219.89 459.231 2219.56 458.354 2218.9 457.705C2218.24 457.044 2217.26 456.713 2215.98 456.713C2214.85 456.713 2213.9 456.998 2213.14 457.568C2212.38 458.138 2211.99 458.827 2211.99 459.636H2208.82C2208.82 458.713 2209.14 457.824 2209.79 456.97C2210.45 456.104 2211.34 455.42 2212.46 454.919C2213.58 454.418 2214.82 454.167 2216.16 454.167C2218.3 454.167 2219.96 454.702 2221.17 455.773C2222.38 456.833 2223.01 458.297 2223.05 460.166V468.676C2223.05 470.374 2223.27 471.724 2223.7 472.727V473H2220.39ZM2215.14 470.59C2216.13 470.59 2217.07 470.334 2217.96 469.821C2218.85 469.309 2219.49 468.642 2219.89 467.822V464.028H2217.41C2213.54 464.028 2211.6 465.161 2211.6 467.429C2211.6 468.42 2211.93 469.195 2212.59 469.753C2213.25 470.311 2214.1 470.59 2215.14 470.59ZM2231.44 473H2228.28V454.509H2231.44V473ZM2228.02 449.604C2228.02 449.091 2228.18 448.658 2228.49 448.305C2228.81 447.952 2229.27 447.775 2229.89 447.775C2230.5 447.775 2230.97 447.952 2231.29 448.305C2231.61 448.658 2231.77 449.091 2231.77 449.604C2231.77 450.117 2231.61 450.544 2231.29 450.886C2230.97 451.228 2230.5 451.398 2229.89 451.398C2229.27 451.398 2228.81 451.228 2228.49 450.886C2228.18 450.544 2228.02 450.117 2228.02 449.604ZM2239.95 473H2236.79V446.75H2239.95V473ZM2245.25 455.124L2243.46 453.894C2244.52 452.412 2245.06 450.852 2245.1 449.211V446.75H2248.23V448.972C2248.21 450.111 2247.93 451.25 2247.37 452.39C2246.82 453.518 2246.12 454.429 2245.25 455.124ZM2260.89 468.095C2260.89 467.241 2260.56 466.58 2259.91 466.113C2259.28 465.634 2258.15 465.224 2256.55 464.882C2254.95 464.541 2253.68 464.13 2252.74 463.652C2251.8 463.173 2251.11 462.604 2250.65 461.943C2250.21 461.282 2249.99 460.496 2249.99 459.584C2249.99 458.069 2250.62 456.787 2251.9 455.739C2253.19 454.691 2254.83 454.167 2256.82 454.167C2258.92 454.167 2260.62 454.708 2261.91 455.791C2263.22 456.873 2263.88 458.257 2263.88 459.943H2260.7C2260.7 459.077 2260.33 458.331 2259.59 457.705C2258.86 457.078 2257.94 456.765 2256.82 456.765C2255.67 456.765 2254.77 457.015 2254.12 457.517C2253.47 458.018 2253.15 458.673 2253.15 459.482C2253.15 460.245 2253.45 460.821 2254.05 461.208C2254.66 461.595 2255.74 461.966 2257.32 462.319C2258.9 462.672 2260.18 463.094 2261.16 463.583C2262.14 464.073 2262.87 464.666 2263.33 465.361C2263.81 466.044 2264.05 466.882 2264.05 467.873C2264.05 469.525 2263.39 470.852 2262.07 471.855C2260.75 472.846 2259.03 473.342 2256.92 473.342C2255.44 473.342 2254.13 473.08 2252.99 472.556C2251.85 472.032 2250.96 471.302 2250.31 470.368C2249.67 469.423 2249.35 468.403 2249.35 467.309H2252.51C2252.57 468.369 2252.99 469.212 2253.78 469.838C2254.58 470.454 2255.62 470.761 2256.92 470.761C2258.12 470.761 2259.08 470.522 2259.79 470.043C2260.52 469.554 2260.89 468.904 2260.89 468.095ZM2282.71 465.156L2283.19 468.437L2283.89 465.48L2288.81 448.117H2291.58L2296.38 465.48L2297.07 468.488L2297.6 465.139L2301.46 448.117H2304.76L2298.73 473H2295.73L2290.61 454.868L2290.21 452.971L2289.82 454.868L2284.51 473H2281.52L2275.5 448.117H2278.78L2282.71 465.156ZM2315.05 473.342C2312.54 473.342 2310.5 472.521 2308.93 470.881C2307.36 469.229 2306.57 467.024 2306.57 464.267V463.686C2306.57 461.852 2306.92 460.217 2307.61 458.781C2308.32 457.334 2309.3 456.206 2310.55 455.397C2311.82 454.577 2313.18 454.167 2314.65 454.167C2317.06 454.167 2318.93 454.959 2320.26 456.542C2321.59 458.126 2322.26 460.393 2322.26 463.344V464.66H2309.73C2309.78 466.483 2310.31 467.958 2311.32 469.086C2312.35 470.203 2313.65 470.761 2315.22 470.761C2316.33 470.761 2317.28 470.533 2318.05 470.078C2318.83 469.622 2319.51 469.018 2320.09 468.266L2322.02 469.77C2320.47 472.151 2318.15 473.342 2315.05 473.342ZM2314.65 456.765C2313.38 456.765 2312.31 457.232 2311.44 458.166C2310.57 459.089 2310.04 460.388 2309.83 462.062H2319.1V461.823C2319.01 460.217 2318.57 458.975 2317.8 458.098C2317.02 457.209 2315.97 456.765 2314.65 456.765ZM2341.59 463.959C2341.59 466.785 2340.94 469.058 2339.64 470.778C2338.34 472.487 2336.6 473.342 2334.41 473.342C2332.07 473.342 2330.27 472.516 2328.99 470.864L2328.84 473H2325.93V446.75H2329.09V456.542C2330.37 454.959 2332.13 454.167 2334.38 454.167C2336.62 454.167 2338.38 455.016 2339.66 456.713C2340.94 458.411 2341.59 460.735 2341.59 463.686V463.959ZM2338.43 463.601C2338.43 461.447 2338.01 459.784 2337.18 458.61C2336.35 457.437 2335.15 456.85 2333.59 456.85C2331.5 456.85 2330.01 457.819 2329.09 459.755V467.753C2330.06 469.69 2331.57 470.659 2333.62 470.659C2335.14 470.659 2336.32 470.072 2337.16 468.898C2338 467.725 2338.43 465.959 2338.43 463.601ZM2356.35 468.095C2356.35 467.241 2356.03 466.58 2355.38 466.113C2354.74 465.634 2353.62 465.224 2352.01 464.882C2350.42 464.541 2349.15 464.13 2348.2 463.652C2347.27 463.173 2346.57 462.604 2346.12 461.943C2345.67 461.282 2345.45 460.496 2345.45 459.584C2345.45 458.069 2346.09 456.787 2347.36 455.739C2348.65 454.691 2350.29 454.167 2352.29 454.167C2354.38 454.167 2356.08 454.708 2357.38 455.791C2358.69 456.873 2359.34 458.257 2359.34 459.943H2356.16C2356.16 459.077 2355.79 458.331 2355.05 457.705C2354.32 457.078 2353.4 456.765 2352.29 456.765C2351.13 456.765 2350.23 457.015 2349.58 457.517C2348.94 458.018 2348.61 458.673 2348.61 459.482C2348.61 460.245 2348.91 460.821 2349.52 461.208C2350.12 461.595 2351.21 461.966 2352.78 462.319C2354.36 462.672 2355.65 463.094 2356.63 463.583C2357.61 464.073 2358.33 464.666 2358.8 465.361C2359.27 466.044 2359.51 466.882 2359.51 467.873C2359.51 469.525 2358.85 470.852 2357.53 471.855C2356.21 472.846 2354.5 473.342 2352.39 473.342C2350.91 473.342 2349.6 473.08 2348.46 472.556C2347.32 472.032 2346.42 471.302 2345.77 470.368C2345.14 469.423 2344.82 468.403 2344.82 467.309H2347.98C2348.04 468.369 2348.46 469.212 2349.24 469.838C2350.04 470.454 2351.09 470.761 2352.39 470.761C2353.58 470.761 2354.54 470.522 2355.26 470.043C2355.99 469.554 2356.35 468.904 2356.35 468.095ZM2367.07 473H2363.91V454.509H2367.07V473ZM2363.65 449.604C2363.65 449.091 2363.8 448.658 2364.11 448.305C2364.43 447.952 2364.9 447.775 2365.51 447.775C2366.13 447.775 2366.6 447.952 2366.91 448.305C2367.23 448.658 2367.39 449.091 2367.39 449.604C2367.39 450.117 2367.23 450.544 2366.91 450.886C2366.6 451.228 2366.13 451.398 2365.51 451.398C2364.9 451.398 2364.43 451.228 2364.11 450.886C2363.8 450.544 2363.65 450.117 2363.65 449.604ZM2376.43 450.031V454.509H2379.89V456.953H2376.43V468.42C2376.43 469.16 2376.59 469.719 2376.89 470.095C2377.2 470.459 2377.73 470.642 2378.47 470.642C2378.83 470.642 2379.33 470.573 2379.97 470.437V473C2379.14 473.228 2378.33 473.342 2377.54 473.342C2376.13 473.342 2375.07 472.915 2374.35 472.06C2373.63 471.206 2373.27 469.992 2373.27 468.42V456.953H2369.9V454.509H2373.27V450.031H2376.43ZM2391.27 473.342C2388.76 473.342 2386.72 472.521 2385.15 470.881C2383.58 469.229 2382.79 467.024 2382.79 464.267V463.686C2382.79 461.852 2383.14 460.217 2383.83 458.781C2384.54 457.334 2385.52 456.206 2386.77 455.397C2388.04 454.577 2389.4 454.167 2390.87 454.167C2393.28 454.167 2395.15 454.959 2396.48 456.542C2397.81 458.126 2398.48 460.393 2398.48 463.344V464.66H2385.95C2386 466.483 2386.53 467.958 2387.54 469.086C2388.57 470.203 2389.87 470.761 2391.44 470.761C2392.55 470.761 2393.5 470.533 2394.27 470.078C2395.05 469.622 2395.73 469.018 2396.31 468.266L2398.24 469.77C2396.69 472.151 2394.37 473.342 2391.27 473.342ZM2390.87 456.765C2389.6 456.765 2388.53 457.232 2387.66 458.166C2386.8 459.089 2386.26 460.388 2386.05 462.062H2395.32V461.823C2395.23 460.217 2394.79 458.975 2394.02 458.098C2393.24 457.209 2392.2 456.765 2390.87 456.765Z" fill="black"/>
<rect x="958.5" y="686.5" width="303" height="121" stroke="black" stroke-width="5"/>
<path d="M1005.01 748.934H999.169V759H995.871V734.117H1004.11C1006.91 734.117 1009.06 734.755 1010.57 736.031C1012.08 737.307 1012.84 739.164 1012.84 741.603C1012.84 743.152 1012.42 744.502 1011.58 745.653C1010.74 746.804 1009.58 747.664 1008.09 748.233L1013.94 758.795V759H1010.41L1005.01 748.934ZM999.169 746.251H1004.21C1005.84 746.251 1007.13 745.829 1008.09 744.986C1009.06 744.143 1009.54 743.015 1009.54 741.603C1009.54 740.064 1009.08 738.885 1008.16 738.065C1007.25 737.245 1005.93 736.829 1004.19 736.817H999.169V746.251ZM1024.63 759.342C1022.13 759.342 1020.09 758.521 1018.52 756.881C1016.94 755.229 1016.16 753.024 1016.16 750.267V749.686C1016.16 747.852 1016.5 746.217 1017.2 744.781C1017.91 743.334 1018.89 742.206 1020.14 741.397C1021.4 740.577 1022.77 740.167 1024.24 740.167C1026.64 740.167 1028.51 740.959 1029.85 742.542C1031.18 744.126 1031.85 746.393 1031.85 749.344V750.66H1019.32C1019.36 752.483 1019.89 753.958 1020.91 755.086C1021.93 756.203 1023.23 756.761 1024.8 756.761C1025.92 756.761 1026.87 756.533 1027.64 756.078C1028.42 755.622 1029.09 755.018 1029.67 754.266L1031.61 755.77C1030.06 758.151 1027.73 759.342 1024.63 759.342ZM1024.24 742.765C1022.96 742.765 1021.89 743.232 1021.03 744.166C1020.16 745.089 1019.63 746.388 1019.42 748.062H1028.68V747.823C1028.59 746.217 1028.16 744.975 1027.38 744.098C1026.61 743.209 1025.56 742.765 1024.24 742.765ZM1039.81 736.031V740.509H1043.26V742.953H1039.81V754.42C1039.81 755.16 1039.96 755.719 1040.27 756.095C1040.58 756.459 1041.1 756.642 1041.84 756.642C1042.21 756.642 1042.71 756.573 1043.35 756.437V759C1042.51 759.228 1041.71 759.342 1040.92 759.342C1039.51 759.342 1038.44 758.915 1037.72 758.06C1037.01 757.206 1036.65 755.992 1036.65 754.42V742.953H1033.28V740.509H1036.65V736.031H1039.81ZM1058.39 759C1058.2 758.635 1058.06 757.986 1057.94 757.052C1056.47 758.578 1054.72 759.342 1052.68 759.342C1050.85 759.342 1049.36 758.829 1048.18 757.804C1047.02 756.767 1046.44 755.457 1046.44 753.873C1046.44 751.948 1047.17 750.455 1048.63 749.396C1050.1 748.325 1052.16 747.789 1054.81 747.789H1057.89V746.336C1057.89 745.231 1057.56 744.354 1056.9 743.705C1056.24 743.044 1055.26 742.713 1053.98 742.713C1052.85 742.713 1051.9 742.998 1051.14 743.568C1050.38 744.138 1049.99 744.827 1049.99 745.636H1046.82C1046.82 744.713 1047.14 743.824 1047.79 742.97C1048.45 742.104 1049.34 741.42 1050.46 740.919C1051.58 740.418 1052.82 740.167 1054.16 740.167C1056.3 740.167 1057.96 740.702 1059.17 741.773C1060.38 742.833 1061.01 744.297 1061.05 746.166V754.676C1061.05 756.374 1061.27 757.724 1061.7 758.727V759H1058.39ZM1053.14 756.59C1054.13 756.59 1055.07 756.334 1055.96 755.821C1056.85 755.309 1057.49 754.642 1057.89 753.822V750.028H1055.41C1051.54 750.028 1049.6 751.161 1049.6 753.429C1049.6 754.42 1049.93 755.195 1050.59 755.753C1051.25 756.311 1052.1 756.59 1053.14 756.59ZM1069.44 759H1066.28V740.509H1069.44V759ZM1066.02 735.604C1066.02 735.091 1066.18 734.658 1066.49 734.305C1066.81 733.952 1067.27 733.775 1067.89 733.775C1068.5 733.775 1068.97 733.952 1069.29 734.305C1069.61 734.658 1069.77 735.091 1069.77 735.604C1069.77 736.117 1069.61 736.544 1069.29 736.886C1068.97 737.228 1068.5 737.398 1067.89 737.398C1067.27 737.398 1066.81 737.228 1066.49 736.886C1066.18 736.544 1066.02 736.117 1066.02 735.604ZM1077.95 759H1074.79V732.75H1077.95V759ZM1083.25 741.124L1081.46 739.894C1082.52 738.412 1083.06 736.852 1083.1 735.211V732.75H1086.23V734.972C1086.21 736.111 1085.93 737.25 1085.37 738.39C1084.82 739.518 1084.12 740.429 1083.25 741.124ZM1098.89 754.095C1098.89 753.241 1098.56 752.58 1097.91 752.113C1097.28 751.634 1096.15 751.224 1094.55 750.882C1092.95 750.541 1091.68 750.13 1090.74 749.652C1089.8 749.173 1089.11 748.604 1088.65 747.943C1088.21 747.282 1087.99 746.496 1087.99 745.584C1087.99 744.069 1088.62 742.787 1089.9 741.739C1091.19 740.691 1092.83 740.167 1094.82 740.167C1096.92 740.167 1098.62 740.708 1099.91 741.791C1101.22 742.873 1101.88 744.257 1101.88 745.943H1098.7C1098.7 745.077 1098.33 744.331 1097.59 743.705C1096.86 743.078 1095.94 742.765 1094.82 742.765C1093.67 742.765 1092.77 743.015 1092.12 743.517C1091.47 744.018 1091.15 744.673 1091.15 745.482C1091.15 746.245 1091.45 746.821 1092.05 747.208C1092.66 747.595 1093.74 747.966 1095.32 748.319C1096.9 748.672 1098.18 749.094 1099.16 749.583C1100.14 750.073 1100.87 750.666 1101.33 751.361C1101.81 752.044 1102.05 752.882 1102.05 753.873C1102.05 755.525 1101.39 756.852 1100.07 757.855C1098.75 758.846 1097.03 759.342 1094.92 759.342C1093.44 759.342 1092.13 759.08 1090.99 758.556C1089.85 758.032 1088.96 757.302 1088.31 756.368C1087.67 755.423 1087.35 754.403 1087.35 753.309H1090.51C1090.57 754.369 1090.99 755.212 1091.78 755.838C1092.58 756.454 1093.62 756.761 1094.92 756.761C1096.12 756.761 1097.08 756.522 1097.79 756.043C1098.52 755.554 1098.89 754.904 1098.89 754.095ZM1120.71 751.156L1121.19 754.437L1121.89 751.48L1126.81 734.117H1129.58L1134.38 751.48L1135.07 754.488L1135.6 751.139L1139.46 734.117H1142.76L1136.73 759H1133.73L1128.61 740.868L1128.21 738.971L1127.82 740.868L1122.51 759H1119.52L1113.5 734.117H1116.78L1120.71 751.156ZM1153.05 759.342C1150.54 759.342 1148.5 758.521 1146.93 756.881C1145.36 755.229 1144.57 753.024 1144.57 750.267V749.686C1144.57 747.852 1144.92 746.217 1145.61 744.781C1146.32 743.334 1147.3 742.206 1148.55 741.397C1149.82 740.577 1151.18 740.167 1152.65 740.167C1155.06 740.167 1156.93 740.959 1158.26 742.542C1159.59 744.126 1160.26 746.393 1160.26 749.344V750.66H1147.73C1147.78 752.483 1148.31 753.958 1149.32 755.086C1150.35 756.203 1151.65 756.761 1153.22 756.761C1154.33 756.761 1155.28 756.533 1156.05 756.078C1156.83 755.622 1157.51 755.018 1158.09 754.266L1160.02 755.77C1158.47 758.151 1156.15 759.342 1153.05 759.342ZM1152.65 742.765C1151.38 742.765 1150.31 743.232 1149.44 744.166C1148.57 745.089 1148.04 746.388 1147.83 748.062H1157.1V747.823C1157.01 746.217 1156.57 744.975 1155.8 744.098C1155.02 743.209 1153.97 742.765 1152.65 742.765ZM1179.59 749.959C1179.59 752.785 1178.94 755.058 1177.64 756.778C1176.34 758.487 1174.6 759.342 1172.41 759.342C1170.07 759.342 1168.27 758.516 1166.99 756.864L1166.84 759H1163.93V732.75H1167.09V742.542C1168.37 740.959 1170.13 740.167 1172.38 740.167C1174.62 740.167 1176.38 741.016 1177.66 742.713C1178.94 744.411 1179.59 746.735 1179.59 749.686V749.959ZM1176.43 749.601C1176.43 747.447 1176.01 745.784 1175.18 744.61C1174.35 743.437 1173.15 742.85 1171.59 742.85C1169.5 742.85 1168.01 743.819 1167.09 745.755V753.753C1168.06 755.69 1169.57 756.659 1171.62 756.659C1173.14 756.659 1174.32 756.072 1175.16 754.898C1176 753.725 1176.43 751.959 1176.43 749.601ZM1194.35 754.095C1194.35 753.241 1194.03 752.58 1193.38 752.113C1192.74 751.634 1191.62 751.224 1190.01 750.882C1188.42 750.541 1187.15 750.13 1186.2 749.652C1185.27 749.173 1184.57 748.604 1184.12 747.943C1183.67 747.282 1183.45 746.496 1183.45 745.584C1183.45 744.069 1184.09 742.787 1185.36 741.739C1186.65 740.691 1188.29 740.167 1190.29 740.167C1192.38 740.167 1194.08 740.708 1195.38 741.791C1196.69 742.873 1197.34 744.257 1197.34 745.943H1194.16C1194.16 745.077 1193.79 744.331 1193.05 743.705C1192.32 743.078 1191.4 742.765 1190.29 742.765C1189.13 742.765 1188.23 743.015 1187.58 743.517C1186.94 744.018 1186.61 744.673 1186.61 745.482C1186.61 746.245 1186.91 746.821 1187.52 747.208C1188.12 747.595 1189.21 747.966 1190.78 748.319C1192.36 748.672 1193.65 749.094 1194.63 749.583C1195.61 750.073 1196.33 750.666 1196.8 751.361C1197.27 752.044 1197.51 752.882 1197.51 753.873C1197.51 755.525 1196.85 756.852 1195.53 757.855C1194.21 758.846 1192.5 759.342 1190.39 759.342C1188.91 759.342 1187.6 759.08 1186.46 758.556C1185.32 758.032 1184.42 757.302 1183.77 756.368C1183.14 755.423 1182.82 754.403 1182.82 753.309H1185.98C1186.04 754.369 1186.46 755.212 1187.24 755.838C1188.04 756.454 1189.09 756.761 1190.39 756.761C1191.58 756.761 1192.54 756.522 1193.26 756.043C1193.99 755.554 1194.35 754.904 1194.35 754.095ZM1205.07 759H1201.91V740.509H1205.07V759ZM1201.65 735.604C1201.65 735.091 1201.8 734.658 1202.11 734.305C1202.43 733.952 1202.9 733.775 1203.51 733.775C1204.13 733.775 1204.6 733.952 1204.91 734.305C1205.23 734.658 1205.39 735.091 1205.39 735.604C1205.39 736.117 1205.23 736.544 1204.91 736.886C1204.6 737.228 1204.13 737.398 1203.51 737.398C1202.9 737.398 1202.43 737.228 1202.11 736.886C1201.8 736.544 1201.65 736.117 1201.65 735.604ZM1214.43 736.031V740.509H1217.89V742.953H1214.43V754.42C1214.43 755.16 1214.59 755.719 1214.89 756.095C1215.2 756.459 1215.73 756.642 1216.47 756.642C1216.83 756.642 1217.33 756.573 1217.97 756.437V759C1217.14 759.228 1216.33 759.342 1215.54 759.342C1214.13 759.342 1213.07 758.915 1212.35 758.06C1211.63 757.206 1211.27 755.992 1211.27 754.42V742.953H1207.9V740.509H1211.27V736.031H1214.43ZM1229.27 759.342C1226.76 759.342 1224.72 758.521 1223.15 756.881C1221.58 755.229 1220.79 753.024 1220.79 750.267V749.686C1220.79 747.852 1221.14 746.217 1221.83 744.781C1222.54 743.334 1223.52 742.206 1224.77 741.397C1226.04 740.577 1227.4 740.167 1228.87 740.167C1231.28 740.167 1233.15 740.959 1234.48 742.542C1235.81 744.126 1236.48 746.393 1236.48 749.344V750.66H1223.95C1224 752.483 1224.53 753.958 1225.54 755.086C1226.57 756.203 1227.87 756.761 1229.44 756.761C1230.55 756.761 1231.5 756.533 1232.27 756.078C1233.05 755.622 1233.73 755.018 1234.31 754.266L1236.24 755.77C1234.69 758.151 1232.37 759.342 1229.27 759.342ZM1228.87 742.765C1227.6 742.765 1226.53 743.232 1225.66 744.166C1224.8 745.089 1224.26 746.388 1224.05 748.062H1233.32V747.823C1233.23 746.217 1232.79 744.975 1232.02 744.098C1231.24 743.209 1230.2 742.765 1228.87 742.765Z" fill="black"/>
<path d="M874 104H1093V271" stroke="black" stroke-width="2"/>
<path d="M478 663.5H506V855H478" stroke="black" stroke-width="2"/>
<path d="M507.5 748H955.5" stroke="black" stroke-width="2"/>
<rect x="564.5" y="686.5" width="303" height="121" fill="#FBFBFB" stroke="url(#paint9_linear)" stroke-width="5"/>
<path d="M646.22 754.909C643.406 754.1 641.355 753.109 640.067 751.935C638.791 750.75 638.153 749.292 638.153 747.56C638.153 745.6 638.934 743.983 640.495 742.707C642.067 741.419 644.106 740.775 646.613 740.775C648.322 740.775 649.843 741.106 651.176 741.767C652.52 742.427 653.557 743.339 654.286 744.501C655.027 745.663 655.397 746.933 655.397 748.312H652.099C652.099 746.808 651.62 745.629 650.663 744.774C649.706 743.909 648.356 743.476 646.613 743.476C644.995 743.476 643.73 743.834 642.819 744.552C641.919 745.259 641.469 746.244 641.469 747.509C641.469 748.523 641.896 749.383 642.75 750.089C643.616 750.784 645.08 751.422 647.143 752.003C649.216 752.584 650.834 753.228 651.996 753.935C653.17 754.63 654.035 755.444 654.594 756.378C655.163 757.313 655.448 758.412 655.448 759.677C655.448 761.693 654.662 763.311 653.09 764.53C651.518 765.738 649.416 766.342 646.784 766.342C645.075 766.342 643.48 766.017 641.999 765.368C640.517 764.707 639.372 763.807 638.563 762.667C637.766 761.528 637.367 760.235 637.367 758.788H640.666C640.666 760.292 641.218 761.483 642.323 762.36C643.44 763.226 644.927 763.659 646.784 763.659C648.515 763.659 649.843 763.306 650.766 762.599C651.688 761.893 652.15 760.93 652.15 759.711C652.15 758.492 651.723 757.552 650.868 756.891C650.014 756.219 648.464 755.558 646.22 754.909ZM662.335 749.748C663.737 748.027 665.56 747.167 667.804 747.167C671.712 747.167 673.683 749.372 673.717 753.781V766H670.556V753.764C670.544 752.431 670.237 751.445 669.633 750.807C669.04 750.169 668.112 749.85 666.847 749.85C665.822 749.85 664.922 750.124 664.147 750.67C663.372 751.217 662.768 751.935 662.335 752.824V766H659.174V739.75H662.335V749.748ZM677.614 756.583C677.614 754.772 677.967 753.143 678.673 751.696C679.391 750.249 680.382 749.132 681.647 748.346C682.923 747.56 684.376 747.167 686.005 747.167C688.523 747.167 690.556 748.039 692.106 749.782C693.667 751.525 694.447 753.843 694.447 756.737V756.959C694.447 758.76 694.1 760.377 693.405 761.813C692.721 763.237 691.736 764.348 690.448 765.146C689.172 765.943 687.702 766.342 686.039 766.342C683.533 766.342 681.499 765.47 679.938 763.727C678.389 761.984 677.614 759.677 677.614 756.806V756.583ZM680.792 756.959C680.792 759.01 681.265 760.657 682.211 761.898C683.168 763.14 684.444 763.761 686.039 763.761C687.646 763.761 688.922 763.135 689.867 761.881C690.813 760.617 691.286 758.851 691.286 756.583C691.286 754.556 690.801 752.915 689.833 751.662C688.876 750.397 687.6 749.765 686.005 749.765C684.444 749.765 683.185 750.386 682.228 751.627C681.271 752.869 680.792 754.647 680.792 756.959ZM714.032 756.959C714.032 759.774 713.389 762.041 712.101 763.761C710.814 765.482 709.07 766.342 706.872 766.342C704.627 766.342 702.861 765.63 701.574 764.206V773.109H698.412V747.509H701.3L701.454 749.56C702.742 747.965 704.53 747.167 706.82 747.167C709.042 747.167 710.797 748.004 712.084 749.679C713.383 751.354 714.032 753.684 714.032 756.669V756.959ZM710.871 756.601C710.871 754.516 710.426 752.869 709.538 751.662C708.649 750.454 707.43 749.85 705.88 749.85C703.966 749.85 702.531 750.699 701.574 752.396V761.232C702.519 762.918 703.966 763.761 705.915 763.761C707.43 763.761 708.632 763.163 709.521 761.967C710.421 760.759 710.871 758.97 710.871 756.601ZM746.366 766H743.068L730.541 746.825V766H727.243V741.117H730.541L743.102 760.377V741.117H746.366V766ZM750.861 756.583C750.861 754.772 751.214 753.143 751.92 751.696C752.638 750.249 753.629 749.132 754.894 748.346C756.17 747.56 757.623 747.167 759.252 747.167C761.77 747.167 763.804 748.039 765.353 749.782C766.914 751.525 767.694 753.843 767.694 756.737V756.959C767.694 758.76 767.347 760.377 766.652 761.813C765.968 763.237 764.983 764.348 763.695 765.146C762.419 765.943 760.95 766.342 759.286 766.342C756.78 766.342 754.746 765.47 753.185 763.727C751.636 761.984 750.861 759.677 750.861 756.806V756.583ZM754.04 756.959C754.04 759.01 754.512 760.657 755.458 761.898C756.415 763.14 757.691 763.761 759.286 763.761C760.893 763.761 762.169 763.135 763.114 761.881C764.06 760.617 764.533 758.851 764.533 756.583C764.533 754.556 764.049 752.915 763.08 751.662C762.123 750.397 760.847 749.765 759.252 749.765C757.691 749.765 756.432 750.386 755.475 751.627C754.518 752.869 754.04 754.647 754.04 756.959ZM788.031 761.642L791.586 747.509H794.748L789.364 766H786.801L782.306 751.986L777.931 766H775.368L770.001 747.509H773.146L776.786 761.352L781.093 747.509H783.639L788.031 761.642Z" fill="black"/>
<defs>
<linearGradient id="paint0_linear" x1="193.5" y1="264.5" x2="469.5" y2="393" gradientUnits="userSpaceOnUse">
<stop stop-color="#7702AE"/>
<stop offset="1" stop-color="#B4036D"/>
</linearGradient>
<linearGradient id="paint1_linear" x1="193.5" y1="593.5" x2="469.5" y2="722" gradientUnits="userSpaceOnUse">
<stop stop-color="#7702AE"/>
<stop offset="1" stop-color="#B4036D"/>
</linearGradient>
<linearGradient id="paint2_linear" x1="193.5" y1="771.5" x2="469.5" y2="900" gradientUnits="userSpaceOnUse">
<stop stop-color="#7702AE"/>
<stop offset="1" stop-color="#B4036D"/>
</linearGradient>
<linearGradient id="paint3_linear" x1="587.5" y1="44.5" x2="863.5" y2="173" gradientUnits="userSpaceOnUse">
<stop stop-color="#7702AE"/>
<stop offset="1" stop-color="#B4036D"/>
</linearGradient>
<linearGradient id="paint4_linear" x1="587.5" y1="264.5" x2="863.5" y2="393" gradientUnits="userSpaceOnUse">
<stop stop-color="#7702AE"/>
<stop offset="1" stop-color="#B4036D"/>
</linearGradient>
<linearGradient id="paint5_linear" x1="971.5" y1="264.5" x2="1247.5" y2="393" gradientUnits="userSpaceOnUse">
<stop stop-color="#7702AE"/>
<stop offset="1" stop-color="#B4036D"/>
</linearGradient>
<linearGradient id="paint6_linear" x1="1363.5" y1="264.5" x2="1639.5" y2="393" gradientUnits="userSpaceOnUse">
<stop stop-color="#7702AE"/>
<stop offset="1" stop-color="#B4036D"/>
</linearGradient>
<linearGradient id="paint7_linear" x1="1791.46" y1="899.976" x2="1862.87" y2="931.18" gradientUnits="userSpaceOnUse">
<stop stop-color="#7702AE"/>
<stop offset="1" stop-color="#B4036D"/>
</linearGradient>
<linearGradient id="paint8_linear" x1="1753.5" y1="170.5" x2="2029.5" y2="299" gradientUnits="userSpaceOnUse">
<stop stop-color="#7702AE"/>
<stop offset="1" stop-color="#B4036D"/>
</linearGradient>
<linearGradient id="paint9_linear" x1="587.5" y1="676.5" x2="863.5" y2="805" gradientUnits="userSpaceOnUse">
<stop stop-color="#7702AE"/>
<stop offset="1" stop-color="#B4036D"/>
</linearGradient>
</defs>
</svg>
