<svg width="3347" height="748" viewBox="0 0 3347 748" fill="none" xmlns="http://www.w3.org/2000/svg">
<path d="M0 0H3347V748H0V0Z" fill="url(#paint0_linear)"/>
<path d="M689.349 163.233V172H684.222V147.117H693.929C695.797 147.117 697.438 147.459 698.851 148.143C700.275 148.826 701.368 149.8 702.132 151.065C702.895 152.318 703.277 153.748 703.277 155.354C703.277 157.793 702.439 159.718 700.765 161.131C699.101 162.532 696.794 163.233 693.843 163.233H689.349ZM689.349 159.08H693.929C695.285 159.08 696.316 158.761 697.022 158.123C697.74 157.485 698.099 156.574 698.099 155.389C698.099 154.17 697.74 153.184 697.022 152.432C696.304 151.68 695.313 151.293 694.048 151.27H689.349V159.08ZM716.026 162.891H711.941V172H706.814V147.117H716.06C719 147.117 721.267 147.772 722.862 149.083C724.457 150.393 725.254 152.244 725.254 154.637C725.254 156.334 724.884 157.753 724.144 158.892C723.414 160.02 722.304 160.92 720.811 161.592L726.194 171.761V172H720.691L716.026 162.891ZM711.941 158.738H716.077C717.365 158.738 718.361 158.414 719.068 157.764C719.774 157.103 720.127 156.198 720.127 155.047C720.127 153.873 719.791 152.951 719.119 152.278C718.458 151.606 717.439 151.27 716.06 151.27H711.941V158.738ZM749.607 160.123C749.607 162.572 749.174 164.72 748.309 166.565C747.443 168.411 746.201 169.835 744.583 170.838C742.977 171.84 741.131 172.342 739.046 172.342C736.984 172.342 735.144 171.846 733.526 170.855C731.908 169.864 730.655 168.451 729.766 166.617C728.877 164.771 728.427 162.652 728.416 160.259V159.029C728.416 156.579 728.855 154.426 729.732 152.569C730.621 150.7 731.868 149.271 733.475 148.279C735.092 147.277 736.938 146.775 739.012 146.775C741.085 146.775 742.925 147.277 744.532 148.279C746.15 149.271 747.397 150.7 748.274 152.569C749.163 154.426 749.607 156.574 749.607 159.012V160.123ZM744.412 158.995C744.412 156.386 743.945 154.403 743.011 153.047C742.076 151.692 740.743 151.014 739.012 151.014C737.291 151.014 735.964 151.686 735.03 153.03C734.096 154.363 733.623 156.323 733.611 158.909V160.123C733.611 162.663 734.078 164.634 735.013 166.036C735.947 167.437 737.291 168.138 739.046 168.138C740.766 168.138 742.088 167.465 743.011 166.121C743.934 164.765 744.401 162.794 744.412 160.208V158.995ZM772.867 163.711C772.673 166.389 771.682 168.497 769.893 170.035C768.116 171.573 765.769 172.342 762.852 172.342C759.662 172.342 757.15 171.271 755.315 169.129C753.493 166.976 752.581 164.025 752.581 160.276V158.755C752.581 156.363 753.003 154.255 753.846 152.432C754.689 150.609 755.891 149.214 757.452 148.245C759.024 147.265 760.847 146.775 762.92 146.775C765.792 146.775 768.104 147.544 769.859 149.083C771.613 150.621 772.627 152.78 772.901 155.56H767.774C767.649 153.953 767.199 152.791 766.424 152.073C765.66 151.344 764.493 150.979 762.92 150.979C761.211 150.979 759.93 151.595 759.075 152.825C758.232 154.044 757.799 155.941 757.776 158.516V160.396C757.776 163.085 758.181 165.05 758.99 166.292C759.81 167.534 761.097 168.155 762.852 168.155C764.436 168.155 765.615 167.796 766.39 167.078C767.176 166.349 767.626 165.227 767.74 163.711H772.867ZM791.204 161.216H781.36V167.881H792.913V172H776.233V147.117H792.879V151.27H781.36V157.2H791.204V161.216ZM808.824 165.472C808.824 164.503 808.482 163.763 807.798 163.25C807.115 162.726 805.884 162.179 804.107 161.609C802.33 161.028 800.923 160.459 799.886 159.9C797.06 158.374 795.647 156.317 795.647 153.731C795.647 152.387 796.023 151.19 796.775 150.142C797.539 149.083 798.627 148.257 800.04 147.664C801.464 147.072 803.059 146.775 804.825 146.775C806.602 146.775 808.186 147.1 809.576 147.75C810.966 148.388 812.042 149.293 812.806 150.467C813.58 151.64 813.968 152.973 813.968 154.466H808.841C808.841 153.326 808.482 152.444 807.764 151.817C807.046 151.179 806.038 150.86 804.739 150.86C803.486 150.86 802.512 151.128 801.817 151.663C801.122 152.187 800.774 152.882 800.774 153.748C800.774 154.557 801.179 155.235 801.988 155.782C802.808 156.329 804.01 156.841 805.594 157.32C808.51 158.197 810.635 159.285 811.968 160.584C813.301 161.883 813.968 163.501 813.968 165.438C813.968 167.591 813.153 169.283 811.524 170.513C809.895 171.732 807.701 172.342 804.944 172.342C803.03 172.342 801.287 171.994 799.715 171.299C798.143 170.593 796.941 169.63 796.109 168.411C795.289 167.192 794.878 165.779 794.878 164.173H800.022C800.022 166.919 801.663 168.292 804.944 168.292C806.163 168.292 807.115 168.047 807.798 167.557C808.482 167.055 808.824 166.36 808.824 165.472ZM830.357 165.472C830.357 164.503 830.015 163.763 829.332 163.25C828.648 162.726 827.417 162.179 825.64 161.609C823.863 161.028 822.456 160.459 821.419 159.9C818.593 158.374 817.181 156.317 817.181 153.731C817.181 152.387 817.557 151.19 818.309 150.142C819.072 149.083 820.16 148.257 821.573 147.664C822.997 147.072 824.592 146.775 826.358 146.775C828.135 146.775 829.719 147.1 831.109 147.75C832.499 148.388 833.576 149.293 834.339 150.467C835.114 151.64 835.501 152.973 835.501 154.466H830.374C830.374 153.326 830.015 152.444 829.297 151.817C828.58 151.179 827.571 150.86 826.272 150.86C825.019 150.86 824.045 151.128 823.35 151.663C822.655 152.187 822.308 152.882 822.308 153.748C822.308 154.557 822.712 155.235 823.521 155.782C824.341 156.329 825.543 156.841 827.127 157.32C830.044 158.197 832.168 159.285 833.501 160.584C834.834 161.883 835.501 163.501 835.501 165.438C835.501 167.591 834.686 169.283 833.057 170.513C831.428 171.732 829.235 172.342 826.478 172.342C824.563 172.342 822.82 171.994 821.248 171.299C819.676 170.593 818.474 169.63 817.642 168.411C816.822 167.192 816.412 165.779 816.412 164.173H821.556C821.556 166.919 823.196 168.292 826.478 168.292C827.697 168.292 828.648 168.047 829.332 167.557C830.015 167.055 830.357 166.36 830.357 165.472Z" fill="white"/>
<path d="M696.798 330H692.257V299.897L683.15 303.242V299.141L696.09 294.282H696.798V330ZM710.592 327.632C710.592 326.851 710.82 326.2 711.275 325.679C711.747 325.158 712.447 324.897 713.375 324.897C714.303 324.897 715.003 325.158 715.475 325.679C715.963 326.2 716.207 326.851 716.207 327.632C716.207 328.381 715.963 329.007 715.475 329.512C715.003 330.016 714.303 330.269 713.375 330.269C712.447 330.269 711.747 330.016 711.275 329.512C710.82 329.007 710.592 328.381 710.592 327.632ZM736.788 330V294.453H746.822C749.915 294.453 752.649 295.137 755.025 296.504C757.402 297.871 759.233 299.816 760.519 302.339C761.821 304.862 762.48 307.759 762.496 311.03V313.301C762.496 316.654 761.845 319.591 760.543 322.114C759.257 324.637 757.41 326.574 755.001 327.925C752.608 329.276 749.817 329.967 746.627 330H736.788ZM741.476 298.311V326.167H746.407C750.021 326.167 752.828 325.044 754.83 322.798C756.848 320.552 757.857 317.354 757.857 313.203V311.128C757.857 307.091 756.905 303.958 755.001 301.729C753.113 299.482 750.427 298.343 746.944 298.311H741.476ZM773.8 330H769.283V303.584H773.8V330ZM768.917 296.577C768.917 295.845 769.137 295.226 769.576 294.722C770.032 294.217 770.699 293.965 771.578 293.965C772.457 293.965 773.124 294.217 773.58 294.722C774.036 295.226 774.264 295.845 774.264 296.577C774.264 297.31 774.036 297.92 773.58 298.408C773.124 298.896 772.457 299.141 771.578 299.141C770.699 299.141 770.032 298.896 769.576 298.408C769.137 297.92 768.917 297.31 768.917 296.577ZM796.432 322.993C796.432 321.772 795.968 320.828 795.04 320.161C794.129 319.478 792.525 318.892 790.23 318.403C787.952 317.915 786.137 317.329 784.786 316.646C783.451 315.962 782.459 315.148 781.808 314.204C781.173 313.26 780.855 312.137 780.855 310.835C780.855 308.67 781.767 306.839 783.59 305.342C785.429 303.844 787.773 303.096 790.621 303.096C793.616 303.096 796.041 303.869 797.896 305.415C799.768 306.961 800.704 308.939 800.704 311.348H796.163C796.163 310.111 795.634 309.045 794.576 308.149C793.535 307.254 792.216 306.807 790.621 306.807C788.977 306.807 787.691 307.165 786.764 307.881C785.836 308.597 785.372 309.533 785.372 310.688C785.372 311.779 785.803 312.601 786.666 313.154C787.529 313.708 789.083 314.237 791.329 314.741C793.591 315.246 795.423 315.848 796.822 316.548C798.222 317.248 799.256 318.094 799.923 319.087C800.606 320.063 800.948 321.26 800.948 322.676C800.948 325.036 800.004 326.932 798.116 328.364C796.228 329.78 793.779 330.488 790.768 330.488C788.652 330.488 786.78 330.114 785.152 329.365C783.525 328.617 782.247 327.575 781.319 326.24C780.408 324.889 779.952 323.433 779.952 321.87H784.469C784.55 323.384 785.152 324.588 786.275 325.483C787.415 326.362 788.912 326.802 790.768 326.802C792.477 326.802 793.844 326.46 794.869 325.776C795.911 325.076 796.432 324.149 796.432 322.993ZM817.428 326.802C819.039 326.802 820.447 326.313 821.651 325.337C822.856 324.36 823.523 323.14 823.653 321.675H827.926C827.844 323.188 827.324 324.629 826.363 325.996C825.403 327.363 824.117 328.454 822.506 329.268C820.911 330.081 819.218 330.488 817.428 330.488C813.831 330.488 810.966 329.292 808.834 326.899C806.718 324.491 805.66 321.203 805.66 317.036V316.279C805.66 313.708 806.132 311.421 807.076 309.419C808.02 307.417 809.371 305.863 811.129 304.756C812.903 303.649 814.994 303.096 817.403 303.096C820.366 303.096 822.823 303.983 824.776 305.757C826.746 307.531 827.796 309.834 827.926 312.666H823.653C823.523 310.957 822.872 309.557 821.7 308.467C820.545 307.36 819.112 306.807 817.403 306.807C815.108 306.807 813.326 307.637 812.057 309.297C810.803 310.941 810.177 313.325 810.177 316.45V317.305C810.177 320.348 810.803 322.692 812.057 324.336C813.31 325.98 815.1 326.802 817.428 326.802ZM831.808 316.548C831.808 313.96 832.312 311.632 833.321 309.565C834.347 307.498 835.763 305.903 837.569 304.78C839.392 303.657 841.467 303.096 843.795 303.096C847.392 303.096 850.297 304.341 852.511 306.831C854.741 309.321 855.855 312.633 855.855 316.768V317.085C855.855 319.657 855.359 321.968 854.366 324.019C853.39 326.053 851.982 327.64 850.143 328.779C848.32 329.919 846.22 330.488 843.844 330.488C840.263 330.488 837.358 329.243 835.128 326.753C832.914 324.263 831.808 320.967 831.808 316.865V316.548ZM836.349 317.085C836.349 320.015 837.024 322.367 838.375 324.141C839.742 325.915 841.565 326.802 843.844 326.802C846.139 326.802 847.962 325.907 849.312 324.116C850.663 322.31 851.339 319.787 851.339 316.548C851.339 313.651 850.647 311.307 849.264 309.517C847.896 307.71 846.074 306.807 843.795 306.807C841.565 306.807 839.767 307.694 838.399 309.468C837.032 311.242 836.349 313.781 836.349 317.085ZM869.845 323.872L876.388 303.584H881.002L871.529 330H868.087L858.517 303.584H863.131L869.845 323.872ZM895.968 330.488C892.387 330.488 889.474 329.316 887.228 326.973C884.981 324.613 883.858 321.463 883.858 317.524V316.694C883.858 314.074 884.355 311.738 885.348 309.688C886.357 307.62 887.757 306.009 889.547 304.854C891.354 303.682 893.307 303.096 895.406 303.096C898.84 303.096 901.51 304.227 903.414 306.489C905.318 308.752 906.271 311.991 906.271 316.206V318.086H888.375C888.44 320.69 889.197 322.798 890.646 324.409C892.11 326.004 893.966 326.802 896.212 326.802C897.807 326.802 899.158 326.476 900.265 325.825C901.371 325.174 902.34 324.312 903.17 323.237L905.929 325.386C903.715 328.787 900.395 330.488 895.968 330.488ZM895.406 306.807C893.583 306.807 892.053 307.474 890.816 308.809C889.579 310.127 888.814 311.982 888.521 314.375H901.754V314.033C901.624 311.738 901.005 309.964 899.898 308.711C898.792 307.441 897.294 306.807 895.406 306.807ZM924.288 307.637C923.604 307.523 922.864 307.466 922.066 307.466C919.104 307.466 917.094 308.727 916.036 311.25V330H911.52V303.584H915.914L915.987 306.636C917.468 304.276 919.568 303.096 922.286 303.096C923.165 303.096 923.832 303.21 924.288 303.438V307.637Z" fill="white"/>
<path d="M698.628 404.506H688.204L685.862 411H682.479L691.98 386.117H694.852L704.371 411H701.004L698.628 404.506ZM689.195 401.806H697.654L693.416 390.167L689.195 401.806ZM722.845 401.959C722.845 404.774 722.201 407.041 720.914 408.761C719.626 410.482 717.883 411.342 715.684 411.342C713.44 411.342 711.674 410.63 710.386 409.206V418.109H707.225V392.509H710.113L710.267 394.56C711.554 392.965 713.343 392.167 715.633 392.167C717.854 392.167 719.609 393.004 720.896 394.679C722.195 396.354 722.845 398.684 722.845 401.669V401.959ZM719.683 401.601C719.683 399.516 719.239 397.869 718.35 396.662C717.461 395.454 716.242 394.85 714.693 394.85C712.779 394.85 711.343 395.699 710.386 397.396V406.232C711.332 407.918 712.779 408.761 714.727 408.761C716.242 408.761 717.444 408.163 718.333 406.967C719.233 405.759 719.683 403.97 719.683 401.601ZM742.498 401.959C742.498 404.774 741.854 407.041 740.567 408.761C739.279 410.482 737.536 411.342 735.337 411.342C733.093 411.342 731.327 410.63 730.04 409.206V418.109H726.878V392.509H729.766L729.92 394.56C731.207 392.965 732.996 392.167 735.286 392.167C737.508 392.167 739.262 393.004 740.55 394.679C741.849 396.354 742.498 398.684 742.498 401.669V401.959ZM739.336 401.601C739.336 399.516 738.892 397.869 738.003 396.662C737.115 395.454 735.896 394.85 734.346 394.85C732.432 394.85 730.997 395.699 730.04 397.396V406.232C730.985 407.918 732.432 408.761 734.38 408.761C735.896 408.761 737.098 408.163 737.986 406.967C738.886 405.759 739.336 403.97 739.336 401.601ZM764.834 400.934H758.99V411H755.691V386.117H763.929C766.731 386.117 768.885 386.755 770.389 388.031C771.904 389.307 772.662 391.164 772.662 393.603C772.662 395.152 772.24 396.502 771.397 397.653C770.565 398.804 769.403 399.664 767.911 400.233L773.755 410.795V411H770.235L764.834 400.934ZM758.99 398.251H764.031C765.66 398.251 766.954 397.829 767.911 396.986C768.879 396.143 769.363 395.015 769.363 393.603C769.363 392.064 768.902 390.885 767.979 390.065C767.068 389.245 765.746 388.829 764.014 388.817H758.99V398.251ZM784.454 411.342C781.947 411.342 779.908 410.521 778.335 408.881C776.763 407.229 775.977 405.024 775.977 402.267V401.686C775.977 399.852 776.325 398.217 777.02 396.781C777.726 395.334 778.706 394.206 779.959 393.397C781.224 392.577 782.591 392.167 784.061 392.167C786.465 392.167 788.333 392.959 789.666 394.542C790.999 396.126 791.666 398.393 791.666 401.344V402.66H779.139C779.184 404.483 779.714 405.958 780.728 407.086C781.753 408.203 783.052 408.761 784.625 408.761C785.741 408.761 786.687 408.533 787.461 408.078C788.236 407.622 788.914 407.018 789.495 406.266L791.426 407.77C789.877 410.151 787.553 411.342 784.454 411.342ZM784.061 394.765C782.785 394.765 781.714 395.232 780.848 396.166C779.982 397.089 779.446 398.388 779.241 400.062H788.504V399.823C788.413 398.217 787.98 396.975 787.205 396.098C786.43 395.209 785.382 394.765 784.061 394.765ZM806.106 406.095C806.106 405.241 805.782 404.58 805.132 404.113C804.494 403.634 803.372 403.224 801.766 402.882C800.171 402.541 798.9 402.13 797.955 401.652C797.02 401.173 796.325 400.604 795.87 399.943C795.425 399.282 795.203 398.496 795.203 397.584C795.203 396.069 795.841 394.787 797.117 393.739C798.405 392.691 800.045 392.167 802.039 392.167C804.135 392.167 805.833 392.708 807.132 393.791C808.442 394.873 809.097 396.257 809.097 397.943H805.918C805.918 397.077 805.548 396.331 804.808 395.705C804.078 395.078 803.156 394.765 802.039 394.765C800.888 394.765 799.988 395.015 799.339 395.517C798.689 396.018 798.365 396.673 798.365 397.482C798.365 398.245 798.667 398.821 799.271 399.208C799.874 399.595 800.962 399.966 802.535 400.319C804.118 400.672 805.4 401.094 806.38 401.583C807.36 402.073 808.083 402.666 808.55 403.361C809.029 404.044 809.268 404.882 809.268 405.873C809.268 407.525 808.607 408.852 807.286 409.855C805.964 410.846 804.249 411.342 802.142 411.342C800.66 411.342 799.35 411.08 798.211 410.556C797.072 410.032 796.177 409.302 795.528 408.368C794.89 407.423 794.571 406.403 794.571 405.309H797.732C797.789 406.369 798.211 407.212 798.997 407.838C799.795 408.454 800.843 408.761 802.142 408.761C803.338 408.761 804.295 408.522 805.013 408.043C805.742 407.554 806.106 406.904 806.106 406.095ZM821.06 411.342C818.554 411.342 816.514 410.521 814.942 408.881C813.37 407.229 812.583 405.024 812.583 402.267V401.686C812.583 399.852 812.931 398.217 813.626 396.781C814.332 395.334 815.312 394.206 816.565 393.397C817.83 392.577 819.197 392.167 820.667 392.167C823.071 392.167 824.939 392.959 826.272 394.542C827.605 396.126 828.272 398.393 828.272 401.344V402.66H815.745C815.791 404.483 816.32 405.958 817.334 407.086C818.36 408.203 819.659 408.761 821.231 408.761C822.347 408.761 823.293 408.533 824.068 408.078C824.843 407.622 825.521 407.018 826.102 406.266L828.033 407.77C826.483 410.151 824.159 411.342 821.06 411.342ZM820.667 394.765C819.391 394.765 818.32 395.232 817.454 396.166C816.588 397.089 816.053 398.388 815.848 400.062H825.11V399.823C825.019 398.217 824.586 396.975 823.812 396.098C823.037 395.209 821.989 394.765 820.667 394.765ZM843.362 411C843.18 410.635 843.032 409.986 842.918 409.052C841.448 410.578 839.694 411.342 837.654 411.342C835.831 411.342 834.333 410.829 833.16 409.804C831.998 408.767 831.417 407.457 831.417 405.873C831.417 403.948 832.146 402.455 833.604 401.396C835.074 400.325 837.136 399.789 839.791 399.789H842.867V398.336C842.867 397.231 842.536 396.354 841.875 395.705C841.215 395.044 840.241 394.713 838.953 394.713C837.825 394.713 836.88 394.998 836.116 395.568C835.353 396.138 834.971 396.827 834.971 397.636H831.792C831.792 396.713 832.117 395.824 832.767 394.97C833.427 394.104 834.316 393.42 835.433 392.919C836.561 392.418 837.797 392.167 839.141 392.167C841.272 392.167 842.941 392.702 844.148 393.773C845.356 394.833 845.983 396.297 846.028 398.166V406.676C846.028 408.374 846.245 409.724 846.678 410.727V411H843.362ZM838.116 408.59C839.107 408.59 840.047 408.334 840.936 407.821C841.824 407.309 842.468 406.642 842.867 405.822V402.028H840.389C836.515 402.028 834.578 403.161 834.578 405.429C834.578 406.42 834.909 407.195 835.569 407.753C836.23 408.311 837.079 408.59 838.116 408.59ZM859.922 395.346C859.444 395.266 858.925 395.226 858.367 395.226C856.294 395.226 854.887 396.109 854.146 397.875V411H850.984V392.509H854.061L854.112 394.645C855.149 392.993 856.618 392.167 858.521 392.167C859.136 392.167 859.603 392.247 859.922 392.406V395.346ZM869.92 408.761C871.048 408.761 872.033 408.419 872.876 407.736C873.72 407.052 874.187 406.198 874.278 405.172H877.269C877.212 406.232 876.847 407.24 876.175 408.197C875.503 409.154 874.603 409.918 873.475 410.487C872.358 411.057 871.173 411.342 869.92 411.342C867.402 411.342 865.397 410.504 863.904 408.83C862.423 407.143 861.683 404.842 861.683 401.925V401.396C861.683 399.595 862.013 397.995 862.674 396.593C863.335 395.192 864.28 394.104 865.511 393.329C866.753 392.554 868.217 392.167 869.903 392.167C871.976 392.167 873.697 392.788 875.064 394.03C876.443 395.272 877.177 396.884 877.269 398.866H874.278C874.187 397.67 873.731 396.69 872.911 395.927C872.102 395.152 871.099 394.765 869.903 394.765C868.296 394.765 867.049 395.346 866.16 396.508C865.283 397.659 864.844 399.328 864.844 401.515V402.113C864.844 404.244 865.283 405.884 866.16 407.035C867.037 408.186 868.291 408.761 869.92 408.761ZM883.985 394.748C885.386 393.027 887.209 392.167 889.454 392.167C893.361 392.167 895.333 394.372 895.367 398.781V411H892.205V398.764C892.194 397.431 891.886 396.445 891.282 395.807C890.69 395.169 889.761 394.85 888.497 394.85C887.471 394.85 886.571 395.124 885.796 395.67C885.022 396.217 884.418 396.935 883.985 397.824V411H880.823V384.75H883.985V394.748ZM702.405 439.117V456.036C702.394 458.383 701.653 460.303 700.184 461.795C698.725 463.288 696.743 464.125 694.236 464.308L693.365 464.342C690.642 464.342 688.471 463.607 686.854 462.137C685.236 460.667 684.415 458.645 684.393 456.07V439.117H687.64V455.968C687.64 457.768 688.135 459.169 689.126 460.172C690.118 461.163 691.53 461.659 693.365 461.659C695.222 461.659 696.64 461.163 697.62 460.172C698.611 459.181 699.107 457.785 699.107 455.985V439.117H702.405ZM717.854 459.095C717.854 458.241 717.53 457.58 716.88 457.113C716.242 456.634 715.12 456.224 713.514 455.882C711.919 455.541 710.648 455.13 709.703 454.652C708.768 454.173 708.073 453.604 707.618 452.943C707.173 452.282 706.951 451.496 706.951 450.584C706.951 449.069 707.589 447.787 708.865 446.739C710.153 445.691 711.793 445.167 713.787 445.167C715.883 445.167 717.581 445.708 718.88 446.791C720.19 447.873 720.845 449.257 720.845 450.943H717.667C717.667 450.077 717.296 449.331 716.556 448.705C715.826 448.078 714.904 447.765 713.787 447.765C712.636 447.765 711.736 448.015 711.087 448.517C710.438 449.018 710.113 449.673 710.113 450.482C710.113 451.245 710.415 451.821 711.019 452.208C711.622 452.595 712.71 452.966 714.283 453.319C715.866 453.672 717.148 454.094 718.128 454.583C719.108 455.073 719.831 455.666 720.298 456.361C720.777 457.044 721.016 457.882 721.016 458.873C721.016 460.525 720.355 461.852 719.034 462.855C717.712 463.846 715.997 464.342 713.89 464.342C712.409 464.342 711.098 464.08 709.959 463.556C708.82 463.032 707.925 462.302 707.276 461.368C706.638 460.423 706.319 459.403 706.319 458.309H709.48C709.537 459.369 709.959 460.212 710.745 460.838C711.543 461.454 712.591 461.761 713.89 461.761C715.086 461.761 716.043 461.522 716.761 461.043C717.49 460.554 717.854 459.904 717.854 459.095ZM732.808 464.342C730.302 464.342 728.262 463.521 726.69 461.881C725.118 460.229 724.332 458.024 724.332 455.267V454.686C724.332 452.852 724.679 451.217 725.374 449.781C726.08 448.334 727.06 447.206 728.313 446.397C729.578 445.577 730.945 445.167 732.415 445.167C734.819 445.167 736.688 445.959 738.021 447.542C739.354 449.126 740.02 451.393 740.02 454.344V455.66H727.493C727.539 457.483 728.069 458.958 729.083 460.086C730.108 461.203 731.407 461.761 732.979 461.761C734.096 461.761 735.041 461.533 735.816 461.078C736.591 460.622 737.269 460.018 737.85 459.266L739.781 460.77C738.231 463.151 735.907 464.342 732.808 464.342ZM732.415 447.765C731.139 447.765 730.068 448.232 729.202 449.166C728.336 450.089 727.801 451.388 727.596 453.062H736.858V452.823C736.767 451.217 736.334 449.975 735.56 449.098C734.785 448.209 733.737 447.765 732.415 447.765ZM752.632 448.346C752.154 448.266 751.635 448.226 751.077 448.226C749.004 448.226 747.597 449.109 746.856 450.875V464H743.694V445.509H746.771L746.822 447.645C747.859 445.993 749.328 445.167 751.231 445.167C751.846 445.167 752.313 445.247 752.632 445.406V448.346ZM773.858 453.934H768.013V464H764.715V439.117H772.952C775.755 439.117 777.908 439.755 779.412 441.031C780.927 442.307 781.685 444.164 781.685 446.603C781.685 448.152 781.264 449.502 780.42 450.653C779.589 451.804 778.427 452.664 776.934 453.233L782.779 463.795V464H779.258L773.858 453.934ZM768.013 451.251H773.055C774.684 451.251 775.977 450.829 776.934 449.986C777.903 449.143 778.387 448.015 778.387 446.603C778.387 445.064 777.925 443.885 777.002 443.065C776.091 442.245 774.769 441.829 773.038 441.817H768.013V451.251ZM793.477 464.342C790.971 464.342 788.931 463.521 787.359 461.881C785.787 460.229 785 458.024 785 455.267V454.686C785 452.852 785.348 451.217 786.043 449.781C786.749 448.334 787.729 447.206 788.982 446.397C790.247 445.577 791.614 445.167 793.084 445.167C795.488 445.167 797.356 445.959 798.689 447.542C800.022 449.126 800.689 451.393 800.689 454.344V455.66H788.162C788.208 457.483 788.737 458.958 789.751 460.086C790.777 461.203 792.076 461.761 793.648 461.761C794.764 461.761 795.71 461.533 796.485 461.078C797.26 460.622 797.938 460.018 798.519 459.266L800.45 460.77C798.9 463.151 796.576 464.342 793.477 464.342ZM793.084 447.765C791.808 447.765 790.737 448.232 789.871 449.166C789.005 450.089 788.47 451.388 788.265 453.062H797.527V452.823C797.436 451.217 797.003 449.975 796.229 449.098C795.454 448.209 794.406 447.765 793.084 447.765ZM815.13 459.095C815.13 458.241 814.805 457.58 814.156 457.113C813.518 456.634 812.396 456.224 810.789 455.882C809.194 455.541 807.924 455.13 806.978 454.652C806.044 454.173 805.349 453.604 804.893 452.943C804.449 452.282 804.227 451.496 804.227 450.584C804.227 449.069 804.865 447.787 806.141 446.739C807.428 445.691 809.069 445.167 811.062 445.167C813.159 445.167 814.856 445.708 816.155 446.791C817.465 447.873 818.121 449.257 818.121 450.943H814.942C814.942 450.077 814.572 449.331 813.831 448.705C813.102 448.078 812.179 447.765 811.062 447.765C809.912 447.765 809.012 448.015 808.362 448.517C807.713 449.018 807.388 449.673 807.388 450.482C807.388 451.245 807.69 451.821 808.294 452.208C808.898 452.595 809.986 452.966 811.558 453.319C813.142 453.672 814.424 454.094 815.403 454.583C816.383 455.073 817.107 455.666 817.574 456.361C818.052 457.044 818.292 457.882 818.292 458.873C818.292 460.525 817.631 461.852 816.309 462.855C814.987 463.846 813.273 464.342 811.165 464.342C809.684 464.342 808.374 464.08 807.234 463.556C806.095 463.032 805.201 462.302 804.551 461.368C803.913 460.423 803.594 459.403 803.594 458.309H806.756C806.813 459.369 807.234 460.212 808.021 460.838C808.818 461.454 809.866 461.761 811.165 461.761C812.361 461.761 813.318 461.522 814.036 461.043C814.765 460.554 815.13 459.904 815.13 459.095ZM830.083 464.342C827.577 464.342 825.538 463.521 823.965 461.881C822.393 460.229 821.607 458.024 821.607 455.267V454.686C821.607 452.852 821.954 451.217 822.649 449.781C823.356 448.334 824.336 447.206 825.589 446.397C826.854 445.577 828.221 445.167 829.69 445.167C832.094 445.167 833.963 445.959 835.296 447.542C836.629 449.126 837.295 451.393 837.295 454.344V455.66H824.769C824.814 457.483 825.344 458.958 826.358 460.086C827.383 461.203 828.682 461.761 830.254 461.761C831.371 461.761 832.317 461.533 833.091 461.078C833.866 460.622 834.544 460.018 835.125 459.266L837.056 460.77C835.507 463.151 833.182 464.342 830.083 464.342ZM829.69 447.765C828.414 447.765 827.343 448.232 826.478 449.166C825.612 450.089 825.076 451.388 824.871 453.062H834.134V452.823C834.043 451.217 833.61 449.975 832.835 449.098C832.06 448.209 831.012 447.765 829.69 447.765ZM852.386 464C852.203 463.635 852.055 462.986 851.941 462.052C850.472 463.578 848.717 464.342 846.678 464.342C844.855 464.342 843.357 463.829 842.183 462.804C841.021 461.767 840.44 460.457 840.44 458.873C840.44 456.948 841.169 455.455 842.627 454.396C844.097 453.325 846.159 452.789 848.814 452.789H851.89V451.336C851.89 450.231 851.56 449.354 850.899 448.705C850.238 448.044 849.264 447.713 847.977 447.713C846.849 447.713 845.903 447.998 845.14 448.568C844.376 449.138 843.995 449.827 843.995 450.636H840.816C840.816 449.713 841.141 448.824 841.79 447.97C842.451 447.104 843.34 446.42 844.456 445.919C845.584 445.418 846.82 445.167 848.165 445.167C850.295 445.167 851.964 445.702 853.172 446.773C854.38 447.833 855.006 449.297 855.052 451.166V459.676C855.052 461.374 855.268 462.724 855.701 463.727V464H852.386ZM847.139 461.59C848.13 461.59 849.07 461.334 849.959 460.821C850.848 460.309 851.491 459.642 851.89 458.822V455.028H849.412C845.538 455.028 843.602 456.161 843.602 458.429C843.602 459.42 843.932 460.195 844.593 460.753C845.254 461.311 846.102 461.59 847.139 461.59ZM868.946 448.346C868.467 448.266 867.949 448.226 867.391 448.226C865.317 448.226 863.91 449.109 863.169 450.875V464H860.008V445.509H863.084L863.135 447.645C864.172 445.993 865.642 445.167 867.544 445.167C868.16 445.167 868.627 445.247 868.946 445.406V448.346ZM878.943 461.761C880.071 461.761 881.057 461.419 881.9 460.736C882.743 460.052 883.21 459.198 883.301 458.172H886.292C886.235 459.232 885.87 460.24 885.198 461.197C884.526 462.154 883.626 462.918 882.498 463.487C881.382 464.057 880.197 464.342 878.943 464.342C876.425 464.342 874.42 463.504 872.928 461.83C871.447 460.143 870.706 457.842 870.706 454.925V454.396C870.706 452.595 871.036 450.995 871.697 449.593C872.358 448.192 873.304 447.104 874.534 446.329C875.776 445.554 877.24 445.167 878.926 445.167C881 445.167 882.72 445.788 884.087 447.03C885.466 448.272 886.201 449.884 886.292 451.866H883.301C883.21 450.67 882.754 449.69 881.934 448.927C881.125 448.152 880.123 447.765 878.926 447.765C877.32 447.765 876.072 448.346 875.184 449.508C874.306 450.659 873.868 452.328 873.868 454.515V455.113C873.868 457.244 874.306 458.884 875.184 460.035C876.061 461.186 877.314 461.761 878.943 461.761ZM893.008 447.748C894.41 446.027 896.233 445.167 898.477 445.167C902.385 445.167 904.356 447.372 904.39 451.781V464H901.229V451.764C901.217 450.431 900.91 449.445 900.306 448.807C899.713 448.169 898.785 447.85 897.52 447.85C896.495 447.85 895.595 448.124 894.82 448.67C894.045 449.217 893.441 449.935 893.008 450.824V464H889.847V437.75H893.008V447.748ZM702.405 492.117V509.036C702.394 511.383 701.653 513.303 700.184 514.795C698.725 516.288 696.743 517.125 694.236 517.308L693.365 517.342C690.642 517.342 688.471 516.607 686.854 515.137C685.236 513.667 684.415 511.645 684.393 509.07V492.117H687.64V508.968C687.64 510.768 688.135 512.169 689.126 513.172C690.118 514.163 691.53 514.659 693.365 514.659C695.222 514.659 696.64 514.163 697.62 513.172C698.611 512.181 699.107 510.785 699.107 508.985V492.117H702.405ZM717.854 512.095C717.854 511.241 717.53 510.58 716.88 510.113C716.242 509.634 715.12 509.224 713.514 508.882C711.919 508.541 710.648 508.13 709.703 507.652C708.768 507.173 708.073 506.604 707.618 505.943C707.173 505.282 706.951 504.496 706.951 503.584C706.951 502.069 707.589 500.787 708.865 499.739C710.153 498.691 711.793 498.167 713.787 498.167C715.883 498.167 717.581 498.708 718.88 499.791C720.19 500.873 720.845 502.257 720.845 503.943H717.667C717.667 503.077 717.296 502.331 716.556 501.705C715.826 501.078 714.904 500.765 713.787 500.765C712.636 500.765 711.736 501.015 711.087 501.517C710.438 502.018 710.113 502.673 710.113 503.482C710.113 504.245 710.415 504.821 711.019 505.208C711.622 505.595 712.71 505.966 714.283 506.319C715.866 506.672 717.148 507.094 718.128 507.583C719.108 508.073 719.831 508.666 720.298 509.361C720.777 510.044 721.016 510.882 721.016 511.873C721.016 513.525 720.355 514.852 719.034 515.855C717.712 516.846 715.997 517.342 713.89 517.342C712.409 517.342 711.098 517.08 709.959 516.556C708.82 516.032 707.925 515.302 707.276 514.368C706.638 513.423 706.319 512.403 706.319 511.309H709.48C709.537 512.369 709.959 513.212 710.745 513.838C711.543 514.454 712.591 514.761 713.89 514.761C715.086 514.761 716.043 514.522 716.761 514.043C717.49 513.554 717.854 512.904 717.854 512.095ZM736.551 517C736.368 516.635 736.22 515.986 736.106 515.052C734.637 516.578 732.882 517.342 730.843 517.342C729.02 517.342 727.522 516.829 726.348 515.804C725.186 514.767 724.605 513.457 724.605 511.873C724.605 509.948 725.334 508.455 726.792 507.396C728.262 506.325 730.324 505.789 732.979 505.789H736.055V504.336C736.055 503.231 735.725 502.354 735.064 501.705C734.403 501.044 733.429 500.713 732.142 500.713C731.014 500.713 730.068 500.998 729.305 501.568C728.541 502.138 728.16 502.827 728.16 503.636H724.981C724.981 502.713 725.306 501.824 725.955 500.97C726.616 500.104 727.505 499.42 728.621 498.919C729.749 498.418 730.985 498.167 732.33 498.167C734.46 498.167 736.129 498.702 737.337 499.773C738.545 500.833 739.171 502.297 739.217 504.166V512.676C739.217 514.374 739.433 515.724 739.866 516.727V517H736.551ZM731.304 514.59C732.295 514.59 733.235 514.334 734.124 513.821C735.013 513.309 735.656 512.642 736.055 511.822V508.028H733.577C729.703 508.028 727.767 509.161 727.767 511.429C727.767 512.42 728.097 513.195 728.758 513.753C729.419 514.311 730.267 514.59 731.304 514.59ZM759.827 507.959C759.827 510.785 759.178 513.058 757.879 514.778C756.58 516.487 754.837 517.342 752.649 517.342C750.314 517.342 748.508 516.516 747.232 514.864L747.078 517H744.173V490.75H747.334V500.542C748.611 498.959 750.371 498.167 752.615 498.167C754.86 498.167 756.62 499.016 757.896 500.713C759.183 502.411 759.827 504.735 759.827 507.686V507.959ZM756.666 507.601C756.666 505.447 756.25 503.784 755.418 502.61C754.586 501.437 753.39 500.85 751.829 500.85C749.744 500.85 748.246 501.819 747.334 503.755V511.753C748.303 513.69 749.812 514.659 751.863 514.659C753.379 514.659 754.558 514.072 755.401 512.898C756.244 511.725 756.666 509.959 756.666 507.601ZM767.261 517H764.1V498.509H767.261V517ZM763.843 493.604C763.843 493.091 763.997 492.658 764.305 492.305C764.624 491.952 765.091 491.775 765.706 491.775C766.321 491.775 766.788 491.952 767.107 492.305C767.426 492.658 767.586 493.091 767.586 493.604C767.586 494.117 767.426 494.544 767.107 494.886C766.788 495.228 766.321 495.398 765.706 495.398C765.091 495.398 764.624 495.228 764.305 494.886C763.997 494.544 763.843 494.117 763.843 493.604ZM775.772 517H772.61V490.75H775.772V517ZM784.283 517H781.121V498.509H784.283V517ZM780.865 493.604C780.865 493.091 781.019 492.658 781.326 492.305C781.645 491.952 782.112 491.775 782.728 491.775C783.343 491.775 783.81 491.952 784.129 492.305C784.448 492.658 784.607 493.091 784.607 493.604C784.607 494.117 784.448 494.544 784.129 494.886C783.81 495.228 783.343 495.398 782.728 495.398C782.112 495.398 781.645 495.228 781.326 494.886C781.019 494.544 780.865 494.117 780.865 493.604ZM793.648 494.031V498.509H797.1V500.953H793.648V512.42C793.648 513.16 793.802 513.719 794.109 514.095C794.417 514.459 794.941 514.642 795.682 514.642C796.046 514.642 796.548 514.573 797.186 514.437V517C796.354 517.228 795.545 517.342 794.759 517.342C793.346 517.342 792.281 516.915 791.563 516.06C790.845 515.206 790.486 513.992 790.486 512.42V500.953H787.12V498.509H790.486V494.031H793.648ZM806.858 512.369L811.165 498.509H814.549L807.115 519.854C805.964 522.93 804.135 524.468 801.629 524.468L801.031 524.417L799.852 524.195V521.631L800.706 521.7C801.777 521.7 802.609 521.483 803.201 521.05C803.805 520.617 804.301 519.826 804.688 518.675L805.389 516.795L798.792 498.509H802.244L806.858 512.369ZM843.072 494.817H835.074V517H831.81V494.817H823.829V492.117H843.072V494.817ZM852.232 517.342C849.725 517.342 847.686 516.521 846.114 514.881C844.542 513.229 843.755 511.024 843.755 508.267V507.686C843.755 505.852 844.103 504.217 844.798 502.781C845.504 501.334 846.484 500.206 847.737 499.397C849.002 498.577 850.369 498.167 851.839 498.167C854.243 498.167 856.111 498.959 857.444 500.542C858.777 502.126 859.444 504.393 859.444 507.344V508.66H846.917C846.963 510.483 847.492 511.958 848.506 513.086C849.532 514.203 850.831 514.761 852.403 514.761C853.519 514.761 854.465 514.533 855.24 514.078C856.014 513.622 856.692 513.018 857.273 512.266L859.205 513.77C857.655 516.151 855.331 517.342 852.232 517.342ZM851.839 500.765C850.563 500.765 849.492 501.232 848.626 502.166C847.76 503.089 847.225 504.388 847.02 506.062H856.282V505.823C856.191 504.217 855.758 502.975 854.983 502.098C854.209 501.209 853.16 500.765 851.839 500.765ZM873.885 512.095C873.885 511.241 873.56 510.58 872.911 510.113C872.273 509.634 871.15 509.224 869.544 508.882C867.949 508.541 866.679 508.13 865.733 507.652C864.799 507.173 864.104 506.604 863.648 505.943C863.204 505.282 862.981 504.496 862.981 503.584C862.981 502.069 863.619 500.787 864.896 499.739C866.183 498.691 867.824 498.167 869.817 498.167C871.914 498.167 873.611 498.708 874.91 499.791C876.22 500.873 876.875 502.257 876.875 503.943H873.697C873.697 503.077 873.326 502.331 872.586 501.705C871.857 501.078 870.934 500.765 869.817 500.765C868.667 500.765 867.767 501.015 867.117 501.517C866.468 502.018 866.143 502.673 866.143 503.482C866.143 504.245 866.445 504.821 867.049 505.208C867.653 505.595 868.741 505.966 870.313 506.319C871.897 506.672 873.178 507.094 874.158 507.583C875.138 508.073 875.861 508.666 876.329 509.361C876.807 510.044 877.046 510.882 877.046 511.873C877.046 513.525 876.386 514.852 875.064 515.855C873.742 516.846 872.028 517.342 869.92 517.342C868.439 517.342 867.129 517.08 865.989 516.556C864.85 516.032 863.956 515.302 863.306 514.368C862.668 513.423 862.349 512.403 862.349 511.309H865.511C865.568 512.369 865.989 513.212 866.775 513.838C867.573 514.454 868.621 514.761 869.92 514.761C871.116 514.761 872.073 514.522 872.791 514.043C873.52 513.554 873.885 512.904 873.885 512.095ZM885.455 494.031V498.509H888.907V500.953H885.455V512.42C885.455 513.16 885.608 513.719 885.916 514.095C886.224 514.459 886.748 514.642 887.488 514.642C887.853 514.642 888.354 514.573 888.992 514.437V517C888.16 517.228 887.352 517.342 886.565 517.342C885.153 517.342 884.087 516.915 883.37 516.06C882.652 515.206 882.293 513.992 882.293 512.42V500.953H878.926V498.509H882.293V494.031H885.455ZM896.05 517H892.889V498.509H896.05V517ZM892.632 493.604C892.632 493.091 892.786 492.658 893.094 492.305C893.413 491.952 893.88 491.775 894.495 491.775C895.11 491.775 895.577 491.952 895.896 492.305C896.215 492.658 896.375 493.091 896.375 493.604C896.375 494.117 896.215 494.544 895.896 494.886C895.577 495.228 895.11 495.398 894.495 495.398C893.88 495.398 893.413 495.228 893.094 494.886C892.786 494.544 892.632 494.117 892.632 493.604ZM904.117 498.509L904.219 500.833C905.632 499.056 907.478 498.167 909.756 498.167C913.664 498.167 915.635 500.372 915.669 504.781V517H912.508V504.764C912.496 503.431 912.189 502.445 911.585 501.807C910.993 501.169 910.064 500.85 908.799 500.85C907.774 500.85 906.874 501.124 906.099 501.67C905.324 502.217 904.721 502.935 904.288 503.824V517H901.126V498.509H904.117ZM919.686 507.601C919.686 504.718 920.352 502.428 921.685 500.73C923.018 499.021 924.784 498.167 926.983 498.167C929.239 498.167 930.999 498.965 932.264 500.56L932.417 498.509H935.306V516.556C935.306 518.948 934.594 520.834 933.169 522.212C931.757 523.591 929.854 524.28 927.461 524.28C926.128 524.28 924.824 523.995 923.548 523.426C922.272 522.856 921.298 522.076 920.625 521.084L922.266 519.188C923.622 520.862 925.28 521.7 927.239 521.7C928.777 521.7 929.974 521.267 930.828 520.401C931.694 519.535 932.127 518.316 932.127 516.744V515.154C930.862 516.613 929.136 517.342 926.949 517.342C924.784 517.342 923.029 516.47 921.685 514.727C920.352 512.984 919.686 510.608 919.686 507.601ZM922.864 507.959C922.864 510.044 923.292 511.685 924.146 512.881C925 514.066 926.197 514.659 927.735 514.659C929.729 514.659 931.193 513.753 932.127 511.941V503.499C931.159 501.733 929.706 500.85 927.769 500.85C926.231 500.85 925.029 501.448 924.163 502.645C923.297 503.841 922.864 505.612 922.864 507.959Z" fill="white"/>
<path d="M1557.17 401.259V411H1553.89V386.117H1563.07C1565.79 386.117 1567.92 386.812 1569.46 388.202C1571.01 389.592 1571.78 391.432 1571.78 393.722C1571.78 396.138 1571.02 398 1569.51 399.311C1568 400.609 1565.85 401.259 1563.03 401.259H1557.17ZM1557.17 398.576H1563.07C1564.82 398.576 1566.16 398.166 1567.1 397.345C1568.03 396.514 1568.5 395.317 1568.5 393.756C1568.5 392.275 1568.03 391.09 1567.1 390.202C1566.16 389.313 1564.88 388.852 1563.25 388.817H1557.17V398.576ZM1582.91 411.342C1580.4 411.342 1578.36 410.521 1576.79 408.881C1575.22 407.229 1574.43 405.024 1574.43 402.267V401.686C1574.43 399.852 1574.78 398.217 1575.47 396.781C1576.18 395.334 1577.16 394.206 1578.41 393.397C1579.68 392.577 1581.04 392.167 1582.51 392.167C1584.92 392.167 1586.79 392.959 1588.12 394.542C1589.45 396.126 1590.12 398.393 1590.12 401.344V402.66H1577.59C1577.64 404.483 1578.17 405.958 1579.18 407.086C1580.21 408.203 1581.51 408.761 1583.08 408.761C1584.19 408.761 1585.14 408.533 1585.91 408.078C1586.69 407.622 1587.37 407.018 1587.95 406.266L1589.88 407.77C1588.33 410.151 1586.01 411.342 1582.91 411.342ZM1582.51 394.765C1581.24 394.765 1580.17 395.232 1579.3 396.166C1578.43 397.089 1577.9 398.388 1577.69 400.062H1586.96V399.823C1586.87 398.217 1586.43 396.975 1585.66 396.098C1584.88 395.209 1583.84 394.765 1582.51 394.765ZM1602.73 395.346C1602.25 395.266 1601.73 395.226 1601.18 395.226C1599.1 395.226 1597.7 396.109 1596.95 397.875V411H1593.79V392.509H1596.87L1596.92 394.645C1597.96 392.993 1599.43 392.167 1601.33 392.167C1601.94 392.167 1602.41 392.247 1602.73 392.406V395.346ZM1616.42 406.095C1616.42 405.241 1616.1 404.58 1615.45 404.113C1614.81 403.634 1613.69 403.224 1612.08 402.882C1610.48 402.541 1609.21 402.13 1608.27 401.652C1607.33 401.173 1606.64 400.604 1606.18 399.943C1605.74 399.282 1605.52 398.496 1605.52 397.584C1605.52 396.069 1606.15 394.787 1607.43 393.739C1608.72 392.691 1610.36 392.167 1612.35 392.167C1614.45 392.167 1616.15 392.708 1617.45 393.791C1618.76 394.873 1619.41 396.257 1619.41 397.943H1616.23C1616.23 397.077 1615.86 396.331 1615.12 395.705C1614.39 395.078 1613.47 394.765 1612.35 394.765C1611.2 394.765 1610.3 395.015 1609.65 395.517C1609 396.018 1608.68 396.673 1608.68 397.482C1608.68 398.245 1608.98 398.821 1609.58 399.208C1610.19 399.595 1611.28 399.966 1612.85 400.319C1614.43 400.672 1615.71 401.094 1616.69 401.583C1617.67 402.073 1618.4 402.666 1618.86 403.361C1619.34 404.044 1619.58 404.882 1619.58 405.873C1619.58 407.525 1618.92 408.852 1617.6 409.855C1616.28 410.846 1614.56 411.342 1612.46 411.342C1610.97 411.342 1609.66 411.08 1608.52 410.556C1607.39 410.032 1606.49 409.302 1605.84 408.368C1605.2 407.423 1604.88 406.403 1604.88 405.309H1608.05C1608.1 406.369 1608.52 407.212 1609.31 407.838C1610.11 408.454 1611.16 408.761 1612.46 408.761C1613.65 408.761 1614.61 408.522 1615.33 408.043C1616.06 407.554 1616.42 406.904 1616.42 406.095ZM1622.86 401.583C1622.86 399.772 1623.22 398.143 1623.92 396.696C1624.64 395.249 1625.63 394.132 1626.9 393.346C1628.17 392.56 1629.62 392.167 1631.25 392.167C1633.77 392.167 1635.81 393.039 1637.35 394.782C1638.92 396.525 1639.7 398.843 1639.7 401.737V401.959C1639.7 403.76 1639.35 405.377 1638.65 406.813C1637.97 408.237 1636.98 409.348 1635.7 410.146C1634.42 410.943 1632.95 411.342 1631.29 411.342C1628.78 411.342 1626.75 410.47 1625.19 408.727C1623.64 406.984 1622.86 404.677 1622.86 401.806V401.583ZM1626.04 401.959C1626.04 404.01 1626.51 405.657 1627.46 406.898C1628.42 408.14 1629.69 408.761 1631.29 408.761C1632.89 408.761 1634.17 408.135 1635.12 406.881C1636.06 405.617 1636.53 403.851 1636.53 401.583C1636.53 399.556 1636.05 397.915 1635.08 396.662C1634.12 395.397 1632.85 394.765 1631.25 394.765C1629.69 394.765 1628.43 395.386 1627.48 396.627C1626.52 397.869 1626.04 399.647 1626.04 401.959ZM1646.65 392.509L1646.75 394.833C1648.17 393.056 1650.01 392.167 1652.29 392.167C1656.2 392.167 1658.17 394.372 1658.2 398.781V411H1655.04V398.764C1655.03 397.431 1654.72 396.445 1654.12 395.807C1653.53 395.169 1652.6 394.85 1651.33 394.85C1650.31 394.85 1649.41 395.124 1648.63 395.67C1647.86 396.217 1647.26 396.935 1646.82 397.824V411H1643.66V392.509H1646.65ZM1674.39 411C1674.21 410.635 1674.06 409.986 1673.94 409.052C1672.47 410.578 1670.72 411.342 1668.68 411.342C1666.86 411.342 1665.36 410.829 1664.19 409.804C1663.02 408.767 1662.44 407.457 1662.44 405.873C1662.44 403.948 1663.17 402.455 1664.63 401.396C1666.1 400.325 1668.16 399.789 1670.82 399.789H1673.89V398.336C1673.89 397.231 1673.56 396.354 1672.9 395.705C1672.24 395.044 1671.27 394.713 1669.98 394.713C1668.85 394.713 1667.91 394.998 1667.14 395.568C1666.38 396.138 1666 396.827 1666 397.636H1662.82C1662.82 396.713 1663.14 395.824 1663.79 394.97C1664.45 394.104 1665.34 393.42 1666.46 392.919C1667.59 392.418 1668.82 392.167 1670.17 392.167C1672.3 392.167 1673.97 392.702 1675.17 393.773C1676.38 394.833 1677.01 396.297 1677.05 398.166V406.676C1677.05 408.374 1677.27 409.724 1677.7 410.727V411H1674.39ZM1669.14 408.59C1670.13 408.59 1671.07 408.334 1671.96 407.821C1672.85 407.309 1673.49 406.642 1673.89 405.822V402.028H1671.42C1667.54 402.028 1665.6 403.161 1665.6 405.429C1665.6 406.42 1665.93 407.195 1666.6 407.753C1667.26 408.311 1668.11 408.59 1669.14 408.59ZM1692.78 406.095C1692.78 405.241 1692.45 404.58 1691.8 404.113C1691.17 403.634 1690.04 403.224 1688.44 402.882C1686.84 402.541 1685.57 402.13 1684.63 401.652C1683.69 401.173 1683 400.604 1682.54 399.943C1682.1 399.282 1681.87 398.496 1681.87 397.584C1681.87 396.069 1682.51 394.787 1683.79 393.739C1685.08 392.691 1686.72 392.167 1688.71 392.167C1690.81 392.167 1692.5 392.708 1693.8 393.791C1695.11 394.873 1695.77 396.257 1695.77 397.943H1692.59C1692.59 397.077 1692.22 396.331 1691.48 395.705C1690.75 395.078 1689.83 394.765 1688.71 394.765C1687.56 394.765 1686.66 395.015 1686.01 395.517C1685.36 396.018 1685.04 396.673 1685.04 397.482C1685.04 398.245 1685.34 398.821 1685.94 399.208C1686.55 399.595 1687.63 399.966 1689.21 400.319C1690.79 400.672 1692.07 401.094 1693.05 401.583C1694.03 402.073 1694.75 402.666 1695.22 403.361C1695.7 404.044 1695.94 404.882 1695.94 405.873C1695.94 407.525 1695.28 408.852 1693.96 409.855C1692.63 410.846 1690.92 411.342 1688.81 411.342C1687.33 411.342 1686.02 411.08 1684.88 410.556C1683.74 410.032 1682.85 409.302 1682.2 408.368C1681.56 407.423 1681.24 406.403 1681.24 405.309H1684.4C1684.46 406.369 1684.88 407.212 1685.67 407.838C1686.47 408.454 1687.51 408.761 1688.81 408.761C1690.01 408.761 1690.97 408.522 1691.68 408.043C1692.41 407.554 1692.78 406.904 1692.78 406.095ZM1564.31 439.117H1567.61V456.737C1567.61 459.118 1566.89 460.981 1565.46 462.325C1564.03 463.67 1562.13 464.342 1559.75 464.342C1557.28 464.342 1555.35 463.709 1553.97 462.445C1552.6 461.18 1551.91 459.409 1551.91 457.13H1555.19C1555.19 458.554 1555.57 459.665 1556.35 460.462C1557.14 461.26 1558.27 461.659 1559.75 461.659C1561.11 461.659 1562.2 461.231 1563.03 460.377C1563.87 459.522 1564.3 458.326 1564.31 456.788V439.117ZM1571.87 454.583C1571.87 452.772 1572.22 451.143 1572.93 449.696C1573.64 448.249 1574.64 447.132 1575.9 446.346C1577.18 445.56 1578.63 445.167 1580.26 445.167C1582.78 445.167 1584.81 446.039 1586.36 447.782C1587.92 449.525 1588.7 451.843 1588.7 454.737V454.959C1588.7 456.76 1588.35 458.377 1587.66 459.813C1586.97 461.237 1585.99 462.348 1584.7 463.146C1583.43 463.943 1581.96 464.342 1580.29 464.342C1577.79 464.342 1575.75 463.47 1574.19 461.727C1572.64 459.984 1571.87 457.677 1571.87 454.806V454.583ZM1575.05 454.959C1575.05 457.01 1575.52 458.657 1576.46 459.898C1577.42 461.14 1578.7 461.761 1580.29 461.761C1581.9 461.761 1583.17 461.135 1584.12 459.881C1585.07 458.617 1585.54 456.851 1585.54 454.583C1585.54 452.556 1585.05 450.915 1584.09 449.662C1583.13 448.397 1581.85 447.765 1580.26 447.765C1578.7 447.765 1577.44 448.386 1576.48 449.627C1575.52 450.869 1575.05 452.647 1575.05 454.959ZM1604.08 462.171C1602.85 463.618 1601.04 464.342 1598.66 464.342C1596.69 464.342 1595.19 463.772 1594.15 462.633C1593.13 461.482 1592.61 459.785 1592.6 457.54V445.509H1595.76V457.455C1595.76 460.257 1596.9 461.659 1599.18 461.659C1601.59 461.659 1603.2 460.759 1604 458.958V445.509H1607.16V464H1604.15L1604.08 462.171ZM1620.91 448.346C1620.44 448.266 1619.92 448.226 1619.36 448.226C1617.29 448.226 1615.88 449.109 1615.14 450.875V464H1611.98V445.509H1615.05L1615.1 447.645C1616.14 445.993 1617.61 445.167 1619.51 445.167C1620.13 445.167 1620.6 445.247 1620.91 445.406V448.346ZM1626.83 445.509L1626.93 447.833C1628.34 446.056 1630.19 445.167 1632.47 445.167C1636.38 445.167 1638.35 447.372 1638.38 451.781V464H1635.22V451.764C1635.21 450.431 1634.9 449.445 1634.3 448.807C1633.7 448.169 1632.77 447.85 1631.51 447.85C1630.48 447.85 1629.58 448.124 1628.81 448.67C1628.04 449.217 1627.43 449.935 1627 450.824V464H1623.84V445.509H1626.83ZM1650.82 464.342C1648.32 464.342 1646.28 463.521 1644.7 461.881C1643.13 460.229 1642.35 458.024 1642.35 455.267V454.686C1642.35 452.852 1642.69 451.217 1643.39 449.781C1644.09 448.334 1645.07 447.206 1646.33 446.397C1647.59 445.577 1648.96 445.167 1650.43 445.167C1652.83 445.167 1654.7 445.959 1656.03 447.542C1657.37 449.126 1658.03 451.393 1658.03 454.344V455.66H1645.51C1645.55 457.483 1646.08 458.958 1647.1 460.086C1648.12 461.203 1649.42 461.761 1650.99 461.761C1652.11 461.761 1653.05 461.533 1653.83 461.078C1654.6 460.622 1655.28 460.018 1655.86 459.266L1657.79 460.77C1656.24 463.151 1653.92 464.342 1650.82 464.342ZM1650.43 447.765C1649.15 447.765 1648.08 448.232 1647.22 449.166C1646.35 450.089 1645.81 451.388 1645.61 453.062H1654.87V452.823C1654.78 451.217 1654.35 449.975 1653.57 449.098C1652.8 448.209 1651.75 447.765 1650.43 447.765ZM1667.52 459.369L1671.83 445.509H1675.21L1667.77 466.854C1666.62 469.93 1664.8 471.468 1662.29 471.468L1661.69 471.417L1660.51 471.195V468.631L1661.37 468.7C1662.44 468.7 1663.27 468.483 1663.86 468.05C1664.47 467.617 1664.96 466.826 1665.35 465.675L1666.05 463.795L1659.45 445.509H1662.9L1667.52 459.369ZM1691.46 439.117L1699.6 459.42L1707.73 439.117H1711.99V464H1708.71V454.31L1709.01 443.851L1700.84 464H1698.33L1690.18 443.902L1690.5 454.31V464H1687.22V439.117H1691.46ZM1728.7 464C1728.52 463.635 1728.37 462.986 1728.26 462.052C1726.79 463.578 1725.03 464.342 1722.99 464.342C1721.17 464.342 1719.67 463.829 1718.5 462.804C1717.34 461.767 1716.75 460.457 1716.75 458.873C1716.75 456.948 1717.48 455.455 1718.94 454.396C1720.41 453.325 1722.47 452.789 1725.13 452.789H1728.2V451.336C1728.2 450.231 1727.87 449.354 1727.21 448.705C1726.55 448.044 1725.58 447.713 1724.29 447.713C1723.16 447.713 1722.22 447.998 1721.45 448.568C1720.69 449.138 1720.31 449.827 1720.31 450.636H1717.13C1717.13 449.713 1717.46 448.824 1718.1 447.97C1718.77 447.104 1719.65 446.42 1720.77 445.919C1721.9 445.418 1723.13 445.167 1724.48 445.167C1726.61 445.167 1728.28 445.702 1729.49 446.773C1730.69 447.833 1731.32 449.297 1731.37 451.166V459.676C1731.37 461.374 1731.58 462.724 1732.02 463.727V464H1728.7ZM1723.45 461.59C1724.44 461.59 1725.38 461.334 1726.27 460.821C1727.16 460.309 1727.81 459.642 1728.2 458.822V455.028H1725.73C1721.85 455.028 1719.92 456.161 1719.92 458.429C1719.92 459.42 1720.25 460.195 1720.91 460.753C1721.57 461.311 1722.42 461.59 1723.45 461.59ZM1751.94 454.959C1751.94 457.774 1751.3 460.041 1750.01 461.761C1748.72 463.482 1746.98 464.342 1744.78 464.342C1742.54 464.342 1740.77 463.63 1739.48 462.206V471.109H1736.32V445.509H1739.21L1739.36 447.56C1740.65 445.965 1742.44 445.167 1744.73 445.167C1746.95 445.167 1748.71 446.004 1749.99 447.679C1751.29 449.354 1751.94 451.684 1751.94 454.669V454.959ZM1748.78 454.601C1748.78 452.516 1748.34 450.869 1747.45 449.662C1746.56 448.454 1745.34 447.85 1743.79 447.85C1741.88 447.85 1740.44 448.699 1739.48 450.396V459.232C1740.43 460.918 1741.88 461.761 1743.82 461.761C1745.34 461.761 1746.54 461.163 1747.43 459.967C1748.33 458.759 1748.78 456.97 1748.78 454.601ZM1771.6 454.959C1771.6 457.774 1770.95 460.041 1769.66 461.761C1768.38 463.482 1766.63 464.342 1764.44 464.342C1762.19 464.342 1760.42 463.63 1759.14 462.206V471.109H1755.98V445.509H1758.86L1759.02 447.56C1760.31 445.965 1762.09 445.167 1764.38 445.167C1766.61 445.167 1768.36 446.004 1769.65 447.679C1770.95 449.354 1771.6 451.684 1771.6 454.669V454.959ZM1768.43 454.601C1768.43 452.516 1767.99 450.869 1767.1 449.662C1766.21 448.454 1764.99 447.85 1763.44 447.85C1761.53 447.85 1760.09 448.699 1759.14 450.396V459.232C1760.08 460.918 1761.53 461.761 1763.48 461.761C1764.99 461.761 1766.2 461.163 1767.08 459.967C1767.98 458.759 1768.43 456.97 1768.43 454.601ZM1779.06 464H1775.9V445.509H1779.06V464ZM1775.65 440.604C1775.65 440.091 1775.8 439.658 1776.11 439.305C1776.43 438.952 1776.89 438.775 1777.51 438.775C1778.12 438.775 1778.59 438.952 1778.91 439.305C1779.23 439.658 1779.39 440.091 1779.39 440.604C1779.39 441.117 1779.23 441.544 1778.91 441.886C1778.59 442.228 1778.12 442.398 1777.51 442.398C1776.89 442.398 1776.43 442.228 1776.11 441.886C1775.8 441.544 1775.65 441.117 1775.65 440.604ZM1787.13 445.509L1787.23 447.833C1788.65 446.056 1790.49 445.167 1792.77 445.167C1796.68 445.167 1798.65 447.372 1798.68 451.781V464H1795.52V451.764C1795.51 450.431 1795.2 449.445 1794.6 448.807C1794.01 448.169 1793.08 447.85 1791.81 447.85C1790.79 447.85 1789.89 448.124 1789.11 448.67C1788.34 449.217 1787.73 449.935 1787.3 450.824V464H1784.14V445.509H1787.13ZM1802.7 454.601C1802.7 451.718 1803.37 449.428 1804.7 447.73C1806.03 446.021 1807.8 445.167 1810 445.167C1812.25 445.167 1814.01 445.965 1815.28 447.56L1815.43 445.509H1818.32V463.556C1818.32 465.948 1817.61 467.834 1816.18 469.212C1814.77 470.591 1812.87 471.28 1810.48 471.28C1809.14 471.28 1807.84 470.995 1806.56 470.426C1805.29 469.856 1804.31 469.076 1803.64 468.084L1805.28 466.188C1806.64 467.862 1808.29 468.7 1810.25 468.7C1811.79 468.7 1812.99 468.267 1813.84 467.401C1814.71 466.535 1815.14 465.316 1815.14 463.744V462.154C1813.88 463.613 1812.15 464.342 1809.96 464.342C1807.8 464.342 1806.04 463.47 1804.7 461.727C1803.37 459.984 1802.7 457.608 1802.7 454.601ZM1805.88 454.959C1805.88 457.044 1806.31 458.685 1807.16 459.881C1808.01 461.066 1809.21 461.659 1810.75 461.659C1812.74 461.659 1814.21 460.753 1815.14 458.941V450.499C1814.17 448.733 1812.72 447.85 1810.78 447.85C1809.24 447.85 1808.04 448.448 1807.18 449.645C1806.31 450.841 1805.88 452.612 1805.88 454.959ZM1572.26 513.736C1571.42 514.944 1570.24 515.849 1568.72 516.453C1567.22 517.046 1565.46 517.342 1563.46 517.342C1561.43 517.342 1559.63 516.869 1558.06 515.923C1556.49 514.966 1555.27 513.611 1554.4 511.856C1553.55 510.101 1553.11 508.068 1553.08 505.755V503.584C1553.08 499.836 1553.96 496.931 1555.7 494.869C1557.45 492.806 1559.92 491.775 1563.08 491.775C1565.68 491.775 1567.77 492.442 1569.35 493.775C1570.94 495.097 1571.91 496.976 1572.26 499.415H1568.98C1568.36 496.122 1566.4 494.476 1563.1 494.476C1560.9 494.476 1559.23 495.25 1558.09 496.8C1556.96 498.338 1556.39 500.571 1556.38 503.499V505.533C1556.38 508.324 1557.02 510.546 1558.3 512.198C1559.57 513.838 1561.3 514.659 1563.48 514.659C1564.71 514.659 1565.78 514.522 1566.71 514.249C1567.63 513.975 1568.39 513.514 1569 512.864V507.276H1563.24V504.61H1572.26V513.736ZM1576.41 507.583C1576.41 505.772 1576.77 504.143 1577.47 502.696C1578.19 501.249 1579.18 500.132 1580.45 499.346C1581.72 498.56 1583.17 498.167 1584.8 498.167C1587.32 498.167 1589.36 499.039 1590.9 500.782C1592.47 502.525 1593.25 504.843 1593.25 507.737V507.959C1593.25 509.76 1592.9 511.377 1592.2 512.813C1591.52 514.237 1590.53 515.348 1589.25 516.146C1587.97 516.943 1586.5 517.342 1584.84 517.342C1582.33 517.342 1580.3 516.47 1578.74 514.727C1577.19 512.984 1576.41 510.677 1576.41 507.806V507.583ZM1579.59 507.959C1579.59 510.01 1580.06 511.657 1581.01 512.898C1581.97 514.14 1583.24 514.761 1584.84 514.761C1586.44 514.761 1587.72 514.135 1588.67 512.881C1589.61 511.617 1590.08 509.851 1590.08 507.583C1590.08 505.556 1589.6 503.915 1588.63 502.662C1587.67 501.397 1586.4 500.765 1584.8 500.765C1583.24 500.765 1581.98 501.386 1581.03 502.627C1580.07 503.869 1579.59 505.647 1579.59 507.959ZM1608.63 517C1608.44 516.635 1608.3 515.986 1608.18 515.052C1606.71 516.578 1604.96 517.342 1602.92 517.342C1601.1 517.342 1599.6 516.829 1598.42 515.804C1597.26 514.767 1596.68 513.457 1596.68 511.873C1596.68 509.948 1597.41 508.455 1598.87 507.396C1600.34 506.325 1602.4 505.789 1605.06 505.789H1608.13V504.336C1608.13 503.231 1607.8 502.354 1607.14 501.705C1606.48 501.044 1605.51 500.713 1604.22 500.713C1603.09 500.713 1602.14 500.998 1601.38 501.568C1600.62 502.138 1600.24 502.827 1600.24 503.636H1597.06C1597.06 502.713 1597.38 501.824 1598.03 500.97C1598.69 500.104 1599.58 499.42 1600.7 498.919C1601.83 498.418 1603.06 498.167 1604.41 498.167C1606.54 498.167 1608.21 498.702 1609.41 499.773C1610.62 500.833 1611.25 502.297 1611.29 504.166V512.676C1611.29 514.374 1611.51 515.724 1611.94 516.727V517H1608.63ZM1603.38 514.59C1604.37 514.59 1605.31 514.334 1606.2 513.821C1607.09 513.309 1607.73 512.642 1608.13 511.822V508.028H1605.65C1601.78 508.028 1599.84 509.161 1599.84 511.429C1599.84 512.42 1600.17 513.195 1600.83 513.753C1601.49 514.311 1602.34 514.59 1603.38 514.59ZM1619.68 517H1616.52V490.75H1619.68V517ZM1635.53 512.095C1635.53 511.241 1635.2 510.58 1634.55 510.113C1633.91 509.634 1632.79 509.224 1631.19 508.882C1629.59 508.541 1628.32 508.13 1627.37 507.652C1626.44 507.173 1625.75 506.604 1625.29 505.943C1624.85 505.282 1624.62 504.496 1624.62 503.584C1624.62 502.069 1625.26 500.787 1626.54 499.739C1627.82 498.691 1629.47 498.167 1631.46 498.167C1633.56 498.167 1635.25 498.708 1636.55 499.791C1637.86 500.873 1638.52 502.257 1638.52 503.943H1635.34C1635.34 503.077 1634.97 502.331 1634.23 501.705C1633.5 501.078 1632.58 500.765 1631.46 500.765C1630.31 500.765 1629.41 501.015 1628.76 501.517C1628.11 502.018 1627.78 502.673 1627.78 503.482C1627.78 504.245 1628.09 504.821 1628.69 505.208C1629.29 505.595 1630.38 505.966 1631.95 506.319C1633.54 506.672 1634.82 507.094 1635.8 507.583C1636.78 508.073 1637.5 508.666 1637.97 509.361C1638.45 510.044 1638.69 510.882 1638.69 511.873C1638.69 513.525 1638.03 514.852 1636.71 515.855C1635.38 516.846 1633.67 517.342 1631.56 517.342C1630.08 517.342 1628.77 517.08 1627.63 516.556C1626.49 516.032 1625.6 515.302 1624.95 514.368C1624.31 513.423 1623.99 512.403 1623.99 511.309H1627.15C1627.21 512.369 1627.63 513.212 1628.42 513.838C1629.21 514.454 1630.26 514.761 1631.56 514.761C1632.76 514.761 1633.71 514.522 1634.43 514.043C1635.16 513.554 1635.53 512.904 1635.53 512.095Z" fill="white"/>
<path d="M2341.19 408.317H2352.98V411H2337.89V386.117H2341.19V408.317ZM2355.39 401.583C2355.39 399.772 2355.74 398.143 2356.45 396.696C2357.17 395.249 2358.16 394.132 2359.42 393.346C2360.7 392.56 2362.15 392.167 2363.78 392.167C2366.3 392.167 2368.33 393.039 2369.88 394.782C2371.44 396.525 2372.22 398.843 2372.22 401.737V401.959C2372.22 403.76 2371.87 405.377 2371.18 406.813C2370.5 408.237 2369.51 409.348 2368.22 410.146C2366.95 410.943 2365.48 411.342 2363.81 411.342C2361.31 411.342 2359.27 410.47 2357.71 408.727C2356.16 406.984 2355.39 404.677 2355.39 401.806V401.583ZM2358.57 401.959C2358.57 404.01 2359.04 405.657 2359.99 406.898C2360.94 408.14 2362.22 408.761 2363.81 408.761C2365.42 408.761 2366.7 408.135 2367.64 406.881C2368.59 405.617 2369.06 403.851 2369.06 401.583C2369.06 399.556 2368.58 397.915 2367.61 396.662C2366.65 395.397 2365.37 394.765 2363.78 394.765C2362.22 394.765 2360.96 395.386 2360 396.627C2359.05 397.869 2358.57 399.647 2358.57 401.959ZM2392.56 406.642L2396.11 392.509H2399.27L2393.89 411H2391.33L2386.83 396.986L2382.46 411H2379.9L2374.53 392.509H2377.67L2381.31 406.352L2385.62 392.509H2388.17L2392.56 406.642ZM2409.08 401.72H2400.74V399.14H2409.08V401.72ZM2413.24 411V394.953H2410.31V392.509H2413.24V390.937C2413.24 388.874 2413.82 387.268 2415 386.117C2416.18 384.966 2417.85 384.391 2420 384.391C2421.28 384.391 2422.89 384.739 2424.84 385.434L2424.31 388.1C2422.89 387.53 2421.53 387.245 2420.24 387.245C2418.89 387.245 2417.91 387.553 2417.3 388.168C2416.71 388.772 2416.42 389.683 2416.42 390.902V392.509H2420.19V394.953H2416.42V411H2413.24ZM2426.41 411H2423.23V392.509H2426.41V411ZM2446.1 403.156L2446.58 406.437L2447.28 403.48L2452.2 386.117H2454.97L2459.77 403.48L2460.46 406.488L2460.99 403.139L2464.85 386.117H2468.15L2462.11 411H2459.12L2454 392.868L2453.6 390.971L2453.21 392.868L2447.9 411H2444.9L2438.89 386.117H2442.17L2446.1 403.156ZM2474.74 411H2471.58V392.509H2474.74V411ZM2471.33 387.604C2471.33 387.091 2471.48 386.658 2471.79 386.305C2472.11 385.952 2472.57 385.775 2473.19 385.775C2473.8 385.775 2474.27 385.952 2474.59 386.305C2474.91 386.658 2475.07 387.091 2475.07 387.604C2475.07 388.117 2474.91 388.544 2474.59 388.886C2474.27 389.228 2473.8 389.398 2473.19 389.398C2472.57 389.398 2472.11 389.228 2471.79 388.886C2471.48 388.544 2471.33 388.117 2471.33 387.604ZM2488.76 395.346C2488.28 395.266 2487.76 395.226 2487.2 395.226C2485.13 395.226 2483.72 396.109 2482.98 397.875V411H2479.82V392.509H2482.9L2482.95 394.645C2483.98 392.993 2485.45 392.167 2487.36 392.167C2487.97 392.167 2488.44 392.247 2488.76 392.406V395.346ZM2499.01 411.342C2496.5 411.342 2494.47 410.521 2492.89 408.881C2491.32 407.229 2490.53 405.024 2490.53 402.267V401.686C2490.53 399.852 2490.88 398.217 2491.58 396.781C2492.28 395.334 2493.26 394.206 2494.52 393.397C2495.78 392.577 2497.15 392.167 2498.62 392.167C2501.02 392.167 2502.89 392.959 2504.22 394.542C2505.56 396.126 2506.22 398.393 2506.22 401.344V402.66H2493.7C2493.74 404.483 2494.27 405.958 2495.29 407.086C2496.31 408.203 2497.61 408.761 2499.18 408.761C2500.3 408.761 2501.24 408.533 2502.02 408.078C2502.79 407.622 2503.47 407.018 2504.05 406.266L2505.98 407.77C2504.43 410.151 2502.11 411.342 2499.01 411.342ZM2498.62 394.765C2497.34 394.765 2496.27 395.232 2495.41 396.166C2494.54 397.089 2494 398.388 2493.8 400.062H2503.06V399.823C2502.97 398.217 2502.54 396.975 2501.76 396.098C2500.99 395.209 2499.94 394.765 2498.62 394.765ZM2511.45 411V394.953H2508.53V392.509H2511.45V390.612C2511.45 388.629 2511.98 387.097 2513.04 386.015C2514.1 384.932 2515.6 384.391 2517.54 384.391C2518.27 384.391 2518.99 384.488 2519.71 384.682L2519.54 387.245C2519 387.143 2518.43 387.091 2517.83 387.091C2516.8 387.091 2516.01 387.393 2515.45 387.997C2514.89 388.59 2514.61 389.444 2514.61 390.561V392.509H2518.56V394.953H2514.61V411H2511.45ZM2531 395.346C2530.52 395.266 2530.01 395.226 2529.45 395.226C2527.37 395.226 2525.97 396.109 2525.23 397.875V411H2522.07V392.509H2525.14L2525.19 394.645C2526.23 392.993 2527.7 392.167 2529.6 392.167C2530.22 392.167 2530.68 392.247 2531 392.406V395.346ZM2544.66 411C2544.48 410.635 2544.33 409.986 2544.21 409.052C2542.74 410.578 2540.99 411.342 2538.95 411.342C2537.13 411.342 2535.63 410.829 2534.46 409.804C2533.29 408.767 2532.71 407.457 2532.71 405.873C2532.71 403.948 2533.44 402.455 2534.9 401.396C2536.37 400.325 2538.43 399.789 2541.09 399.789H2544.16V398.336C2544.16 397.231 2543.83 396.354 2543.17 395.705C2542.51 395.044 2541.54 394.713 2540.25 394.713C2539.12 394.713 2538.18 394.998 2537.41 395.568C2536.65 396.138 2536.27 396.827 2536.27 397.636H2533.09C2533.09 396.713 2533.41 395.824 2534.06 394.97C2534.72 394.104 2535.61 393.42 2536.73 392.919C2537.86 392.418 2539.09 392.167 2540.44 392.167C2542.57 392.167 2544.24 392.702 2545.44 393.773C2546.65 394.833 2547.28 396.297 2547.32 398.166V406.676C2547.32 408.374 2547.54 409.724 2547.97 410.727V411H2544.66ZM2539.41 408.59C2540.4 408.59 2541.34 408.334 2542.23 407.821C2543.12 407.309 2543.76 406.642 2544.16 405.822V402.028H2541.68C2537.81 402.028 2535.87 403.161 2535.87 405.429C2535.87 406.42 2536.2 407.195 2536.87 407.753C2537.53 408.311 2538.37 408.59 2539.41 408.59ZM2555.25 392.509L2555.34 394.56C2556.7 392.965 2558.52 392.167 2560.83 392.167C2563.41 392.167 2565.17 393.158 2566.11 395.141C2566.72 394.252 2567.52 393.534 2568.5 392.987C2569.49 392.44 2570.66 392.167 2572 392.167C2576.06 392.167 2578.12 394.315 2578.19 398.61V411H2575.03V398.798C2575.03 397.476 2574.72 396.491 2574.12 395.841C2573.52 395.181 2572.5 394.85 2571.08 394.85C2569.91 394.85 2568.93 395.203 2568.16 395.91C2567.38 396.605 2566.93 397.545 2566.81 398.729V411H2563.63V398.883C2563.63 396.194 2562.31 394.85 2559.68 394.85C2557.61 394.85 2556.19 395.733 2555.42 397.499V411H2552.26V392.509H2555.25ZM2590.65 411.342C2588.14 411.342 2586.1 410.521 2584.53 408.881C2582.96 407.229 2582.17 405.024 2582.17 402.267V401.686C2582.17 399.852 2582.52 398.217 2583.21 396.781C2583.92 395.334 2584.9 394.206 2586.15 393.397C2587.42 392.577 2588.78 392.167 2590.25 392.167C2592.66 392.167 2594.53 392.959 2595.86 394.542C2597.19 396.126 2597.86 398.393 2597.86 401.344V402.66H2585.33C2585.38 404.483 2585.91 405.958 2586.92 407.086C2587.95 408.203 2589.25 408.761 2590.82 408.761C2591.93 408.761 2592.88 408.533 2593.65 408.078C2594.43 407.622 2595.11 407.018 2595.69 406.266L2597.62 407.77C2596.07 410.151 2593.75 411.342 2590.65 411.342ZM2590.25 394.765C2588.98 394.765 2587.91 395.232 2587.04 396.166C2586.18 397.089 2585.64 398.388 2585.43 400.062H2594.7V399.823C2594.61 398.217 2594.17 396.975 2593.4 396.098C2592.62 395.209 2591.58 394.765 2590.25 394.765ZM2612.3 406.095C2612.3 405.241 2611.98 404.58 2611.33 404.113C2610.69 403.634 2609.57 403.224 2607.96 402.882C2606.36 402.541 2605.09 402.13 2604.15 401.652C2603.21 401.173 2602.52 400.604 2602.06 399.943C2601.62 399.282 2601.4 398.496 2601.4 397.584C2601.4 396.069 2602.03 394.787 2603.31 393.739C2604.6 392.691 2606.24 392.167 2608.23 392.167C2610.33 392.167 2612.03 392.708 2613.33 393.791C2614.64 394.873 2615.29 396.257 2615.29 397.943H2612.11C2612.11 397.077 2611.74 396.331 2611 395.705C2610.27 395.078 2609.35 394.765 2608.23 394.765C2607.08 394.765 2606.18 395.015 2605.53 395.517C2604.88 396.018 2604.56 396.673 2604.56 397.482C2604.56 398.245 2604.86 398.821 2605.46 399.208C2606.07 399.595 2607.16 399.966 2608.73 400.319C2610.31 400.672 2611.59 401.094 2612.57 401.583C2613.55 402.073 2614.28 402.666 2614.74 403.361C2615.22 404.044 2615.46 404.882 2615.46 405.873C2615.46 407.525 2614.8 408.852 2613.48 409.855C2612.16 410.846 2610.44 411.342 2608.33 411.342C2606.85 411.342 2605.54 411.08 2604.4 410.556C2603.26 410.032 2602.37 409.302 2601.72 408.368C2601.08 407.423 2600.76 406.403 2600.76 405.309H2603.93C2603.98 406.369 2604.4 407.212 2605.19 407.838C2605.99 408.454 2607.04 408.761 2608.33 408.761C2609.53 408.761 2610.49 408.522 2611.21 408.043C2611.94 407.554 2612.3 406.904 2612.3 406.095ZM2346.13 459.642L2353.23 439.117H2356.82L2347.6 464H2344.69L2335.48 439.117H2339.05L2346.13 459.642ZM2363.11 464H2359.95V445.509H2363.11V464ZM2359.69 440.604C2359.69 440.091 2359.85 439.658 2360.16 439.305C2360.48 438.952 2360.94 438.775 2361.56 438.775C2362.17 438.775 2362.64 438.952 2362.96 439.305C2363.28 439.658 2363.44 440.091 2363.44 440.604C2363.44 441.117 2363.28 441.544 2362.96 441.886C2362.64 442.228 2362.17 442.398 2361.56 442.398C2360.94 442.398 2360.48 442.228 2360.16 441.886C2359.85 441.544 2359.69 441.117 2359.69 440.604ZM2378.96 459.095C2378.96 458.241 2378.63 457.58 2377.98 457.113C2377.34 456.634 2376.22 456.224 2374.61 455.882C2373.02 455.541 2371.75 455.13 2370.8 454.652C2369.87 454.173 2369.17 453.604 2368.72 452.943C2368.27 452.282 2368.05 451.496 2368.05 450.584C2368.05 449.069 2368.69 447.787 2369.97 446.739C2371.25 445.691 2372.89 445.167 2374.89 445.167C2376.98 445.167 2378.68 445.708 2379.98 446.791C2381.29 447.873 2381.95 449.257 2381.95 450.943H2378.77C2378.77 450.077 2378.4 449.331 2377.66 448.705C2376.93 448.078 2376 447.765 2374.89 447.765C2373.74 447.765 2372.84 448.015 2372.19 448.517C2371.54 449.018 2371.21 449.673 2371.21 450.482C2371.21 451.245 2371.52 451.821 2372.12 452.208C2372.72 452.595 2373.81 452.966 2375.38 453.319C2376.97 453.672 2378.25 454.094 2379.23 454.583C2380.21 455.073 2380.93 455.666 2381.4 456.361C2381.88 457.044 2382.12 457.882 2382.12 458.873C2382.12 460.525 2381.46 461.852 2380.13 462.855C2378.81 463.846 2377.1 464.342 2374.99 464.342C2373.51 464.342 2372.2 464.08 2371.06 463.556C2369.92 463.032 2369.03 462.302 2368.38 461.368C2367.74 460.423 2367.42 459.403 2367.42 458.309H2370.58C2370.64 459.369 2371.06 460.212 2371.85 460.838C2372.64 461.454 2373.69 461.761 2374.99 461.761C2376.19 461.761 2377.14 461.522 2377.86 461.043C2378.59 460.554 2378.96 459.904 2378.96 459.095ZM2397.65 462.171C2396.42 463.618 2394.62 464.342 2392.23 464.342C2390.26 464.342 2388.76 463.772 2387.72 462.633C2386.7 461.482 2386.18 459.785 2386.17 457.54V445.509H2389.33V457.455C2389.33 460.257 2390.47 461.659 2392.75 461.659C2395.16 461.659 2396.77 460.759 2397.57 458.958V445.509H2400.73V464H2397.72L2397.65 462.171ZM2416.96 464C2416.78 463.635 2416.63 462.986 2416.52 462.052C2415.05 463.578 2413.29 464.342 2411.25 464.342C2409.43 464.342 2407.93 463.829 2406.76 462.804C2405.6 461.767 2405.02 460.457 2405.02 458.873C2405.02 456.948 2405.75 455.455 2407.2 454.396C2408.67 453.325 2410.74 452.789 2413.39 452.789H2416.47V451.336C2416.47 450.231 2416.14 449.354 2415.48 448.705C2414.82 448.044 2413.84 447.713 2412.55 447.713C2411.43 447.713 2410.48 447.998 2409.72 448.568C2408.95 449.138 2408.57 449.827 2408.57 450.636H2405.39C2405.39 449.713 2405.72 448.824 2406.37 447.97C2407.03 447.104 2407.92 446.42 2409.03 445.919C2410.16 445.418 2411.4 445.167 2412.74 445.167C2414.87 445.167 2416.54 445.702 2417.75 446.773C2418.96 447.833 2419.58 449.297 2419.63 451.166V459.676C2419.63 461.374 2419.85 462.724 2420.28 463.727V464H2416.96ZM2411.72 461.59C2412.71 461.59 2413.65 461.334 2414.54 460.821C2415.42 460.309 2416.07 459.642 2416.47 458.822V455.028H2413.99C2410.12 455.028 2408.18 456.161 2408.18 458.429C2408.18 459.42 2408.51 460.195 2409.17 460.753C2409.83 461.311 2410.68 461.59 2411.72 461.59ZM2428.02 464H2424.86V437.75H2428.02V464ZM2446.51 439.117L2454.65 459.42L2462.78 439.117H2467.04V464H2463.75V454.31L2464.06 443.851L2455.89 464H2453.38L2445.23 443.902L2445.55 454.31V464H2442.27V439.117H2446.51ZM2471.5 454.583C2471.5 452.772 2471.85 451.143 2472.56 449.696C2473.27 448.249 2474.27 447.132 2475.53 446.346C2476.81 445.56 2478.26 445.167 2479.89 445.167C2482.41 445.167 2484.44 446.039 2485.99 447.782C2487.55 449.525 2488.33 451.843 2488.33 454.737V454.959C2488.33 456.76 2487.98 458.377 2487.29 459.813C2486.6 461.237 2485.62 462.348 2484.33 463.146C2483.06 463.943 2481.59 464.342 2479.92 464.342C2477.42 464.342 2475.38 463.47 2473.82 461.727C2472.27 459.984 2471.5 457.677 2471.5 454.806V454.583ZM2474.68 454.959C2474.68 457.01 2475.15 458.657 2476.09 459.898C2477.05 461.14 2478.33 461.761 2479.92 461.761C2481.53 461.761 2482.8 461.135 2483.75 459.881C2484.7 458.617 2485.17 456.851 2485.17 454.583C2485.17 452.556 2484.68 450.915 2483.72 449.662C2482.76 448.397 2481.48 447.765 2479.89 447.765C2478.33 447.765 2477.07 448.386 2476.11 449.627C2475.15 450.869 2474.68 452.647 2474.68 454.959ZM2499.71 461.761C2500.84 461.761 2501.83 461.419 2502.67 460.736C2503.51 460.052 2503.98 459.198 2504.07 458.172H2507.06C2507 459.232 2506.64 460.24 2505.97 461.197C2505.29 462.154 2504.39 462.918 2503.27 463.487C2502.15 464.057 2500.97 464.342 2499.71 464.342C2497.19 464.342 2495.19 463.504 2493.7 461.83C2492.22 460.143 2491.47 457.842 2491.47 454.925V454.396C2491.47 452.595 2491.81 450.995 2492.47 449.593C2493.13 448.192 2494.07 447.104 2495.3 446.329C2496.54 445.554 2498.01 445.167 2499.69 445.167C2501.77 445.167 2503.49 445.788 2504.86 447.03C2506.23 448.272 2506.97 449.884 2507.06 451.866H2504.07C2503.98 450.67 2503.52 449.69 2502.7 448.927C2501.89 448.152 2500.89 447.765 2499.69 447.765C2498.09 447.765 2496.84 448.346 2495.95 449.508C2495.07 450.659 2494.64 452.328 2494.64 454.515V455.113C2494.64 457.244 2495.07 458.884 2495.95 460.035C2496.83 461.186 2498.08 461.761 2499.71 461.761ZM2515.78 455.438L2513.79 457.506V464H2510.63V437.75H2513.79V453.626L2515.49 451.593L2521.25 445.509H2525.09L2517.9 453.233L2525.93 464H2522.22L2515.78 455.438ZM2539.77 462.171C2538.54 463.618 2536.73 464.342 2534.35 464.342C2532.38 464.342 2530.88 463.772 2529.84 462.633C2528.82 461.482 2528.3 459.785 2528.29 457.54V445.509H2531.45V457.455C2531.45 460.257 2532.59 461.659 2534.87 461.659C2537.28 461.659 2538.89 460.759 2539.69 458.958V445.509H2542.85V464H2539.84L2539.77 462.171ZM2563.29 454.959C2563.29 457.774 2562.64 460.041 2561.35 461.761C2560.07 463.482 2558.32 464.342 2556.13 464.342C2553.88 464.342 2552.12 463.63 2550.83 462.206V471.109H2547.67V445.509H2550.55L2550.71 447.56C2552 445.965 2553.78 445.167 2556.07 445.167C2558.3 445.167 2560.05 446.004 2561.34 447.679C2562.64 449.354 2563.29 451.684 2563.29 454.669V454.959ZM2560.12 454.601C2560.12 452.516 2559.68 450.869 2558.79 449.662C2557.9 448.454 2556.68 447.85 2555.13 447.85C2553.22 447.85 2551.78 448.699 2550.83 450.396V459.232C2551.77 460.918 2553.22 461.761 2555.17 461.761C2556.68 461.761 2557.89 461.163 2558.77 459.967C2559.67 458.759 2560.12 456.97 2560.12 454.601ZM2341.41 517H2338.13V492.117H2341.41V517ZM2349.92 498.509L2350.02 500.833C2351.43 499.056 2353.28 498.167 2355.56 498.167C2359.47 498.167 2361.44 500.372 2361.47 504.781V517H2358.31V504.764C2358.3 503.431 2357.99 502.445 2357.39 501.807C2356.8 501.169 2355.87 500.85 2354.6 500.85C2353.58 500.85 2352.68 501.124 2351.9 501.67C2351.13 502.217 2350.52 502.935 2350.09 503.824V517H2346.93V498.509H2349.92ZM2370.53 494.031V498.509H2373.98V500.953H2370.53V512.42C2370.53 513.16 2370.68 513.719 2370.99 514.095C2371.3 514.459 2371.82 514.642 2372.56 514.642C2372.93 514.642 2373.43 514.573 2374.07 514.437V517C2373.24 517.228 2372.43 517.342 2371.64 517.342C2370.23 517.342 2369.16 516.915 2368.44 516.06C2367.73 515.206 2367.37 513.992 2367.37 512.42V500.953H2364V498.509H2367.37V494.031H2370.53ZM2385.36 517.342C2382.86 517.342 2380.82 516.521 2379.25 514.881C2377.67 513.229 2376.89 511.024 2376.89 508.267V507.686C2376.89 505.852 2377.23 504.217 2377.93 502.781C2378.64 501.334 2379.62 500.206 2380.87 499.397C2382.13 498.577 2383.5 498.167 2384.97 498.167C2387.37 498.167 2389.24 498.959 2390.58 500.542C2391.91 502.126 2392.58 504.393 2392.58 507.344V508.66H2380.05C2380.09 510.483 2380.62 511.958 2381.64 513.086C2382.66 514.203 2383.96 514.761 2385.53 514.761C2386.65 514.761 2387.6 514.533 2388.37 514.078C2389.15 513.622 2389.82 513.018 2390.41 512.266L2392.34 513.77C2390.79 516.151 2388.46 517.342 2385.36 517.342ZM2384.97 500.765C2383.69 500.765 2382.62 501.232 2381.76 502.166C2380.89 503.089 2380.36 504.388 2380.15 506.062H2389.41V505.823C2389.32 504.217 2388.89 502.975 2388.12 502.098C2387.34 501.209 2386.29 500.765 2384.97 500.765ZM2405.19 501.346C2404.71 501.266 2404.19 501.226 2403.63 501.226C2401.56 501.226 2400.15 502.109 2399.41 503.875V517H2396.25V498.509H2399.33L2399.38 500.645C2400.41 498.993 2401.88 498.167 2403.79 498.167C2404.4 498.167 2404.87 498.247 2405.19 498.406V501.346ZM2418.84 517C2418.66 516.635 2418.51 515.986 2418.4 515.052C2416.93 516.578 2415.17 517.342 2413.13 517.342C2411.31 517.342 2409.81 516.829 2408.64 515.804C2407.48 514.767 2406.9 513.457 2406.9 511.873C2406.9 509.948 2407.63 508.455 2409.08 507.396C2410.55 506.325 2412.62 505.789 2415.27 505.789H2418.35V504.336C2418.35 503.231 2418.02 502.354 2417.36 501.705C2416.7 501.044 2415.72 500.713 2414.43 500.713C2413.31 500.713 2412.36 500.998 2411.6 501.568C2410.83 502.138 2410.45 502.827 2410.45 503.636H2407.27C2407.27 502.713 2407.6 501.824 2408.25 500.97C2408.91 500.104 2409.8 499.42 2410.91 498.919C2412.04 498.418 2413.28 498.167 2414.62 498.167C2416.75 498.167 2418.42 498.702 2419.63 499.773C2420.84 500.833 2421.46 502.297 2421.51 504.166V512.676C2421.51 514.374 2421.73 515.724 2422.16 516.727V517H2418.84ZM2413.6 514.59C2414.59 514.59 2415.53 514.334 2416.42 513.821C2417.3 513.309 2417.95 512.642 2418.35 511.822V508.028H2415.87C2412 508.028 2410.06 509.161 2410.06 511.429C2410.06 512.42 2410.39 513.195 2411.05 513.753C2411.71 514.311 2412.56 514.59 2413.6 514.59ZM2433.88 514.761C2435.01 514.761 2436 514.419 2436.84 513.736C2437.68 513.052 2438.15 512.198 2438.24 511.172H2441.23C2441.17 512.232 2440.81 513.24 2440.14 514.197C2439.46 515.154 2438.56 515.918 2437.44 516.487C2436.32 517.057 2435.14 517.342 2433.88 517.342C2431.36 517.342 2429.36 516.504 2427.87 514.83C2426.39 513.143 2425.64 510.842 2425.64 507.925V507.396C2425.64 505.595 2425.97 503.995 2426.64 502.593C2427.3 501.192 2428.24 500.104 2429.47 499.329C2430.71 498.554 2432.18 498.167 2433.86 498.167C2435.94 498.167 2437.66 498.788 2439.03 500.03C2440.4 501.272 2441.14 502.884 2441.23 504.866H2438.24C2438.15 503.67 2437.69 502.69 2436.87 501.927C2436.06 501.152 2435.06 500.765 2433.86 500.765C2432.26 500.765 2431.01 501.346 2430.12 502.508C2429.24 503.659 2428.81 505.328 2428.81 507.515V508.113C2428.81 510.244 2429.24 511.884 2430.12 513.035C2431 514.186 2432.25 514.761 2433.88 514.761ZM2449.07 494.031V498.509H2452.53V500.953H2449.07V512.42C2449.07 513.16 2449.23 513.719 2449.54 514.095C2449.84 514.459 2450.37 514.642 2451.11 514.642C2451.47 514.642 2451.97 514.573 2452.61 514.437V517C2451.78 517.228 2450.97 517.342 2450.19 517.342C2448.77 517.342 2447.71 516.915 2446.99 516.06C2446.27 515.206 2445.91 513.992 2445.91 512.42V500.953H2442.55V498.509H2445.91V494.031H2449.07ZM2459.67 517H2456.51V498.509H2459.67V517ZM2456.25 493.604C2456.25 493.091 2456.41 492.658 2456.71 492.305C2457.03 491.952 2457.5 491.775 2458.12 491.775C2458.73 491.775 2459.2 491.952 2459.52 492.305C2459.84 492.658 2460 493.091 2460 493.604C2460 494.117 2459.84 494.544 2459.52 494.886C2459.2 495.228 2458.73 495.398 2458.12 495.398C2457.5 495.398 2457.03 495.228 2456.71 494.886C2456.41 494.544 2456.25 494.117 2456.25 493.604ZM2470.85 512.71L2475.43 498.509H2478.66L2472.03 517H2469.62L2462.92 498.509H2466.15L2470.85 512.71ZM2489.13 517.342C2486.63 517.342 2484.59 516.521 2483.02 514.881C2481.44 513.229 2480.66 511.024 2480.66 508.267V507.686C2480.66 505.852 2481 504.217 2481.7 502.781C2482.41 501.334 2483.39 500.206 2484.64 499.397C2485.9 498.577 2487.27 498.167 2488.74 498.167C2491.14 498.167 2493.01 498.959 2494.35 500.542C2495.68 502.126 2496.35 504.393 2496.35 507.344V508.66H2483.82C2483.86 510.483 2484.39 511.958 2485.41 513.086C2486.43 514.203 2487.73 514.761 2489.3 514.761C2490.42 514.761 2491.37 514.533 2492.14 514.078C2492.92 513.622 2493.59 513.018 2494.17 512.266L2496.11 513.77C2494.56 516.151 2492.23 517.342 2489.13 517.342ZM2488.74 500.765C2487.46 500.765 2486.39 501.232 2485.53 502.166C2484.66 503.089 2484.13 504.388 2483.92 506.062H2493.18V505.823C2493.09 504.217 2492.66 502.975 2491.88 502.098C2491.11 501.209 2490.06 500.765 2488.74 500.765ZM2512.48 507.259V517H2509.2V492.117H2518.37C2521.1 492.117 2523.23 492.812 2524.77 494.202C2526.32 495.592 2527.09 497.432 2527.09 499.722C2527.09 502.138 2526.33 504 2524.82 505.311C2523.31 506.609 2521.15 507.259 2518.34 507.259H2512.48ZM2512.48 504.576H2518.37C2520.13 504.576 2521.47 504.166 2522.41 503.345C2523.34 502.514 2523.81 501.317 2523.81 499.756C2523.81 498.275 2523.34 497.09 2522.41 496.202C2521.47 495.313 2520.19 494.852 2518.56 494.817H2512.48V504.576ZM2539.72 501.346C2539.24 501.266 2538.72 501.226 2538.16 501.226C2536.09 501.226 2534.68 502.109 2533.94 503.875V517H2530.78V498.509H2533.86L2533.91 500.645C2534.95 498.993 2536.42 498.167 2538.32 498.167C2538.93 498.167 2539.4 498.247 2539.72 498.406V501.346ZM2541.46 507.583C2541.46 505.772 2541.82 504.143 2542.52 502.696C2543.24 501.249 2544.23 500.132 2545.5 499.346C2546.77 498.56 2548.22 498.167 2549.85 498.167C2552.37 498.167 2554.41 499.039 2555.95 500.782C2557.52 502.525 2558.3 504.843 2558.3 507.737V507.959C2558.3 509.76 2557.95 511.377 2557.25 512.813C2556.57 514.237 2555.58 515.348 2554.3 516.146C2553.02 516.943 2551.55 517.342 2549.89 517.342C2547.38 517.342 2545.35 516.47 2543.79 514.727C2542.24 512.984 2541.46 510.677 2541.46 507.806V507.583ZM2544.64 507.959C2544.64 510.01 2545.11 511.657 2546.06 512.898C2547.02 514.14 2548.29 514.761 2549.89 514.761C2551.49 514.761 2552.77 514.135 2553.72 512.881C2554.66 511.617 2555.13 509.851 2555.13 507.583C2555.13 505.556 2554.65 503.915 2553.68 502.662C2552.72 501.397 2551.45 500.765 2549.85 500.765C2548.29 500.765 2547.03 501.386 2546.08 502.627C2545.12 503.869 2544.64 505.647 2544.64 507.959ZM2566.55 494.031V498.509H2570V500.953H2566.55V512.42C2566.55 513.16 2566.7 513.719 2567.01 514.095C2567.32 514.459 2567.84 514.642 2568.58 514.642C2568.95 514.642 2569.45 514.573 2570.09 514.437V517C2569.26 517.228 2568.45 517.342 2567.66 517.342C2566.25 517.342 2565.18 516.915 2564.47 516.06C2563.75 515.206 2563.39 513.992 2563.39 512.42V500.953H2560.02V498.509H2563.39V494.031H2566.55ZM2572.53 507.583C2572.53 505.772 2572.88 504.143 2573.59 502.696C2574.31 501.249 2575.3 500.132 2576.56 499.346C2577.84 498.56 2579.29 498.167 2580.92 498.167C2583.44 498.167 2585.47 499.039 2587.02 500.782C2588.58 502.525 2589.37 504.843 2589.37 507.737V507.959C2589.37 509.76 2589.02 511.377 2588.32 512.813C2587.64 514.237 2586.65 515.348 2585.37 516.146C2584.09 516.943 2582.62 517.342 2580.96 517.342C2578.45 517.342 2576.42 516.47 2574.86 514.727C2573.31 512.984 2572.53 510.677 2572.53 507.806V507.583ZM2575.71 507.959C2575.71 510.01 2576.18 511.657 2577.13 512.898C2578.09 514.14 2579.36 514.761 2580.96 514.761C2582.56 514.761 2583.84 514.135 2584.79 512.881C2585.73 511.617 2586.2 509.851 2586.2 507.583C2586.2 505.556 2585.72 503.915 2584.75 502.662C2583.79 501.397 2582.52 500.765 2580.92 500.765C2579.36 500.765 2578.1 501.386 2577.15 502.627C2576.19 503.869 2575.71 505.647 2575.71 507.959ZM2597.62 494.031V498.509H2601.07V500.953H2597.62V512.42C2597.62 513.16 2597.77 513.719 2598.08 514.095C2598.39 514.459 2598.91 514.642 2599.65 514.642C2600.02 514.642 2600.52 514.573 2601.16 514.437V517C2600.33 517.228 2599.52 517.342 2598.73 517.342C2597.32 517.342 2596.25 516.915 2595.53 516.06C2594.82 515.206 2594.46 513.992 2594.46 512.42V500.953H2591.09V498.509H2594.46V494.031H2597.62ZM2610.83 512.369L2615.14 498.509H2618.52L2611.09 519.854C2609.94 522.93 2608.11 524.468 2605.6 524.468L2605 524.417L2603.82 524.195V521.631L2604.68 521.7C2605.75 521.7 2606.58 521.483 2607.17 521.05C2607.78 520.617 2608.27 519.826 2608.66 518.675L2609.36 516.795L2602.76 498.509H2606.22L2610.83 512.369ZM2636.98 507.959C2636.98 510.774 2636.33 513.041 2635.05 514.761C2633.76 516.482 2632.02 517.342 2629.82 517.342C2627.57 517.342 2625.81 516.63 2624.52 515.206V524.109H2621.36V498.509H2624.25L2624.4 500.56C2625.69 498.965 2627.48 498.167 2629.77 498.167C2631.99 498.167 2633.74 499.004 2635.03 500.679C2636.33 502.354 2636.98 504.684 2636.98 507.669V507.959ZM2633.82 507.601C2633.82 505.516 2633.37 503.869 2632.48 502.662C2631.59 501.454 2630.38 500.85 2628.83 500.85C2626.91 500.85 2625.48 501.699 2624.52 503.396V512.232C2625.46 513.918 2626.91 514.761 2628.86 514.761C2630.38 514.761 2631.58 514.163 2632.47 512.967C2633.37 511.759 2633.82 509.97 2633.82 507.601ZM2648.68 517.342C2646.18 517.342 2644.14 516.521 2642.57 514.881C2640.99 513.229 2640.21 511.024 2640.21 508.267V507.686C2640.21 505.852 2640.56 504.217 2641.25 502.781C2641.96 501.334 2642.94 500.206 2644.19 499.397C2645.45 498.577 2646.82 498.167 2648.29 498.167C2650.69 498.167 2652.56 498.959 2653.9 500.542C2655.23 502.126 2655.9 504.393 2655.9 507.344V508.66H2643.37C2643.41 510.483 2643.94 511.958 2644.96 513.086C2645.98 514.203 2647.28 514.761 2648.85 514.761C2649.97 514.761 2650.92 514.533 2651.69 514.078C2652.47 513.622 2653.14 513.018 2653.73 512.266L2655.66 513.77C2654.11 516.151 2651.78 517.342 2648.68 517.342ZM2648.29 500.765C2647.01 500.765 2645.94 501.232 2645.08 502.166C2644.21 503.089 2643.68 504.388 2643.47 506.062H2652.73V505.823C2652.64 504.217 2652.21 502.975 2651.44 502.098C2650.66 501.209 2649.61 500.765 2648.29 500.765Z" fill="white"/>
<path d="M1575.25 330H1551.95V326.753L1564.26 313.081C1566.08 311.014 1567.33 309.338 1568.02 308.052C1568.72 306.75 1569.07 305.407 1569.07 304.023C1569.07 302.168 1568.51 300.646 1567.38 299.458C1566.26 298.27 1564.76 297.676 1562.89 297.676C1560.65 297.676 1558.9 298.319 1557.64 299.604C1556.41 300.874 1555.79 302.648 1555.79 304.927H1551.27C1551.27 301.655 1552.32 299.01 1554.42 296.992C1556.54 294.974 1559.36 293.965 1562.89 293.965C1566.2 293.965 1568.81 294.836 1570.73 296.577C1572.65 298.302 1573.61 300.605 1573.61 303.486C1573.61 306.986 1571.38 311.152 1566.92 315.986L1557.4 326.313H1575.25V330ZM1580.59 327.632C1580.59 326.851 1580.82 326.2 1581.28 325.679C1581.75 325.158 1582.45 324.897 1583.38 324.897C1584.3 324.897 1585 325.158 1585.47 325.679C1585.96 326.2 1586.21 326.851 1586.21 327.632C1586.21 328.381 1585.96 329.007 1585.47 329.512C1585 330.016 1584.3 330.269 1583.38 330.269C1582.45 330.269 1581.75 330.016 1581.28 329.512C1580.82 329.007 1580.59 328.381 1580.59 327.632ZM1606.79 330V294.453H1616.82C1619.91 294.453 1622.65 295.137 1625.03 296.504C1627.4 297.871 1629.23 299.816 1630.52 302.339C1631.82 304.862 1632.48 307.759 1632.5 311.03V313.301C1632.5 316.654 1631.85 319.591 1630.54 322.114C1629.26 324.637 1627.41 326.574 1625 327.925C1622.61 329.276 1619.82 329.967 1616.63 330H1606.79ZM1611.48 298.311V326.167H1616.41C1620.02 326.167 1622.83 325.044 1624.83 322.798C1626.85 320.552 1627.86 317.354 1627.86 313.203V311.128C1627.86 307.091 1626.91 303.958 1625 301.729C1623.11 299.482 1620.43 298.343 1616.94 298.311H1611.48ZM1649.85 330.488C1646.27 330.488 1643.36 329.316 1641.11 326.973C1638.87 324.613 1637.75 321.463 1637.75 317.524V316.694C1637.75 314.074 1638.24 311.738 1639.23 309.688C1640.24 307.62 1641.64 306.009 1643.43 304.854C1645.24 303.682 1647.19 303.096 1649.29 303.096C1652.73 303.096 1655.4 304.227 1657.3 306.489C1659.21 308.752 1660.16 311.991 1660.16 316.206V318.086H1642.26C1642.33 320.69 1643.08 322.798 1644.53 324.409C1646 326.004 1647.85 326.802 1650.1 326.802C1651.69 326.802 1653.04 326.476 1654.15 325.825C1655.26 325.174 1656.23 324.312 1657.06 323.237L1659.82 325.386C1657.6 328.787 1654.28 330.488 1649.85 330.488ZM1649.29 306.807C1647.47 306.807 1645.94 307.474 1644.7 308.809C1643.47 310.127 1642.7 311.982 1642.41 314.375H1655.64V314.033C1655.51 311.738 1654.89 309.964 1653.79 308.711C1652.68 307.441 1651.18 306.807 1649.29 306.807ZM1666.92 330V307.075H1662.75V303.584H1666.92V301.338C1666.92 298.392 1667.76 296.097 1669.43 294.453C1671.13 292.809 1673.51 291.987 1676.59 291.987C1678.41 291.987 1680.71 292.484 1683.5 293.477L1682.74 297.285C1680.71 296.471 1678.77 296.064 1676.93 296.064C1674.99 296.064 1673.59 296.504 1672.73 297.383C1671.88 298.245 1671.46 299.548 1671.46 301.289V303.584H1676.86V307.075H1671.46V330H1666.92ZM1685.74 330H1681.2V303.584H1685.74V330ZM1697.36 303.584L1697.51 306.904C1699.53 304.365 1702.17 303.096 1705.42 303.096C1711 303.096 1713.82 306.245 1713.87 312.544V330H1709.35V312.52C1709.34 310.615 1708.9 309.207 1708.03 308.296C1707.19 307.384 1705.86 306.929 1704.05 306.929C1702.59 306.929 1701.3 307.319 1700.2 308.101C1699.09 308.882 1698.23 309.907 1697.61 311.177V330H1693.09V303.584H1697.36ZM1731.64 330.488C1728.06 330.488 1725.15 329.316 1722.9 326.973C1720.66 324.613 1719.53 321.463 1719.53 317.524V316.694C1719.53 314.074 1720.03 311.738 1721.02 309.688C1722.03 307.62 1723.43 306.009 1725.22 304.854C1727.03 303.682 1728.98 303.096 1731.08 303.096C1734.51 303.096 1737.18 304.227 1739.09 306.489C1740.99 308.752 1741.94 311.991 1741.94 316.206V318.086H1724.05C1724.11 320.69 1724.87 322.798 1726.32 324.409C1727.78 326.004 1729.64 326.802 1731.89 326.802C1733.48 326.802 1734.83 326.476 1735.94 325.825C1737.05 325.174 1738.01 324.312 1738.84 323.237L1741.6 325.386C1739.39 328.787 1736.07 330.488 1731.64 330.488ZM1731.08 306.807C1729.26 306.807 1727.73 307.474 1726.49 308.809C1725.25 310.127 1724.49 311.982 1724.2 314.375H1737.43V314.033C1737.3 311.738 1736.68 309.964 1735.57 308.711C1734.47 307.441 1732.97 306.807 1731.08 306.807Z" fill="white"/>
<path d="M2344.52 310.029H2347.92C2350.05 309.997 2351.72 309.435 2352.94 308.345C2354.17 307.254 2354.78 305.781 2354.78 303.926C2354.78 299.759 2352.7 297.676 2348.55 297.676C2346.6 297.676 2345.03 298.237 2343.86 299.36C2342.71 300.467 2342.13 301.94 2342.13 303.779H2337.61C2337.61 300.964 2338.64 298.628 2340.69 296.772C2342.76 294.901 2345.38 293.965 2348.55 293.965C2351.9 293.965 2354.53 294.852 2356.44 296.626C2358.34 298.4 2359.29 300.866 2359.29 304.023C2359.29 305.57 2358.79 307.067 2357.78 308.516C2356.79 309.964 2355.43 311.047 2353.7 311.763C2355.65 312.381 2357.16 313.407 2358.22 314.839C2359.29 316.271 2359.83 318.021 2359.83 320.088C2359.83 323.278 2358.79 325.809 2356.7 327.681C2354.62 329.552 2351.91 330.488 2348.57 330.488C2345.24 330.488 2342.52 329.585 2340.42 327.778C2338.34 325.972 2337.29 323.587 2337.29 320.625H2341.84C2341.84 322.497 2342.45 323.994 2343.67 325.117C2344.89 326.24 2346.52 326.802 2348.57 326.802C2350.76 326.802 2352.42 326.232 2353.58 325.093C2354.73 323.953 2355.31 322.318 2355.31 320.186C2355.31 318.118 2354.68 316.532 2353.41 315.425C2352.14 314.318 2350.31 313.748 2347.92 313.716H2344.52V310.029ZM2366.59 327.632C2366.59 326.851 2366.82 326.2 2367.28 325.679C2367.75 325.158 2368.45 324.897 2369.38 324.897C2370.3 324.897 2371 325.158 2371.47 325.679C2371.96 326.2 2372.21 326.851 2372.21 327.632C2372.21 328.381 2371.96 329.007 2371.47 329.512C2371 330.016 2370.3 330.269 2369.38 330.269C2368.45 330.269 2367.75 330.016 2367.28 329.512C2366.82 329.007 2366.59 328.381 2366.59 327.632ZM2392.79 330V294.453H2402.82C2405.91 294.453 2408.65 295.137 2411.03 296.504C2413.4 297.871 2415.23 299.816 2416.52 302.339C2417.82 304.862 2418.48 307.759 2418.5 311.03V313.301C2418.5 316.654 2417.85 319.591 2416.54 322.114C2415.26 324.637 2413.41 326.574 2411 327.925C2408.61 329.276 2405.82 329.967 2402.63 330H2392.79ZM2397.48 298.311V326.167H2402.41C2406.02 326.167 2408.83 325.044 2410.83 322.798C2412.85 320.552 2413.86 317.354 2413.86 313.203V311.128C2413.86 307.091 2412.91 303.958 2411 301.729C2409.11 299.482 2406.43 298.343 2402.94 298.311H2397.48ZM2435.85 330.488C2432.27 330.488 2429.36 329.316 2427.11 326.973C2424.87 324.613 2423.75 321.463 2423.75 317.524V316.694C2423.75 314.074 2424.24 311.738 2425.23 309.688C2426.24 307.62 2427.64 306.009 2429.43 304.854C2431.24 303.682 2433.19 303.096 2435.29 303.096C2438.73 303.096 2441.4 304.227 2443.3 306.489C2445.21 308.752 2446.16 311.991 2446.16 316.206V318.086H2428.26C2428.33 320.69 2429.08 322.798 2430.53 324.409C2432 326.004 2433.85 326.802 2436.1 326.802C2437.69 326.802 2439.04 326.476 2440.15 325.825C2441.26 325.174 2442.23 324.312 2443.06 323.237L2445.82 325.386C2443.6 328.787 2440.28 330.488 2435.85 330.488ZM2435.29 306.807C2433.47 306.807 2431.94 307.474 2430.7 308.809C2429.47 310.127 2428.7 311.982 2428.41 314.375H2441.64V314.033C2441.51 311.738 2440.89 309.964 2439.79 308.711C2438.68 307.441 2437.18 306.807 2435.29 306.807ZM2466.79 322.993C2466.79 321.772 2466.32 320.828 2465.4 320.161C2464.48 319.478 2462.88 318.892 2460.59 318.403C2458.31 317.915 2456.49 317.329 2455.14 316.646C2453.81 315.962 2452.81 315.148 2452.16 314.204C2451.53 313.26 2451.21 312.137 2451.21 310.835C2451.21 308.67 2452.12 306.839 2453.95 305.342C2455.78 303.844 2458.13 303.096 2460.98 303.096C2463.97 303.096 2466.4 303.869 2468.25 305.415C2470.12 306.961 2471.06 308.939 2471.06 311.348H2466.52C2466.52 310.111 2465.99 309.045 2464.93 308.149C2463.89 307.254 2462.57 306.807 2460.98 306.807C2459.33 306.807 2458.05 307.165 2457.12 307.881C2456.19 308.597 2455.73 309.533 2455.73 310.688C2455.73 311.779 2456.16 312.601 2457.02 313.154C2457.88 313.708 2459.44 314.237 2461.68 314.741C2463.95 315.246 2465.78 315.848 2467.18 316.548C2468.58 317.248 2469.61 318.094 2470.28 319.087C2470.96 320.063 2471.3 321.26 2471.3 322.676C2471.3 325.036 2470.36 326.932 2468.47 328.364C2466.58 329.78 2464.13 330.488 2461.12 330.488C2459.01 330.488 2457.14 330.114 2455.51 329.365C2453.88 328.617 2452.6 327.575 2451.67 326.24C2450.76 324.889 2450.31 323.433 2450.31 321.87H2454.82C2454.91 323.384 2455.51 324.588 2456.63 325.483C2457.77 326.362 2459.27 326.802 2461.12 326.802C2462.83 326.802 2464.2 326.46 2465.22 325.776C2466.27 325.076 2466.79 324.149 2466.79 322.993ZM2482.09 330H2477.58V303.584H2482.09V330ZM2477.21 296.577C2477.21 295.845 2477.43 295.226 2477.87 294.722C2478.33 294.217 2478.99 293.965 2479.87 293.965C2480.75 293.965 2481.42 294.217 2481.88 294.722C2482.33 295.226 2482.56 295.845 2482.56 296.577C2482.56 297.31 2482.33 297.92 2481.88 298.408C2481.42 298.896 2480.75 299.141 2479.87 299.141C2478.99 299.141 2478.33 298.896 2477.87 298.408C2477.43 297.92 2477.21 297.31 2477.21 296.577ZM2488.27 316.572C2488.27 312.454 2489.22 309.183 2491.13 306.758C2493.03 304.316 2495.56 303.096 2498.7 303.096C2501.92 303.096 2504.43 304.235 2506.24 306.514L2506.46 303.584H2510.59V329.365C2510.59 332.783 2509.57 335.477 2507.53 337.446C2505.52 339.416 2502.8 340.4 2499.38 340.4C2497.48 340.4 2495.61 339.993 2493.79 339.18C2491.97 338.366 2490.57 337.251 2489.61 335.835L2491.96 333.125C2493.89 335.518 2496.26 336.714 2499.06 336.714C2501.26 336.714 2502.97 336.095 2504.19 334.858C2505.43 333.621 2506.04 331.88 2506.04 329.634V327.363C2504.24 329.447 2501.77 330.488 2498.65 330.488C2495.56 330.488 2493.05 329.243 2491.13 326.753C2489.22 324.263 2488.27 320.869 2488.27 316.572ZM2492.81 317.085C2492.81 320.063 2493.42 322.407 2494.64 324.116C2495.86 325.809 2497.57 326.655 2499.77 326.655C2502.62 326.655 2504.71 325.361 2506.04 322.773V310.713C2504.66 308.19 2502.59 306.929 2499.82 306.929C2497.62 306.929 2495.9 307.783 2494.67 309.492C2493.43 311.201 2492.81 313.732 2492.81 317.085ZM2521.69 303.584L2521.84 306.904C2523.86 304.365 2526.5 303.096 2529.75 303.096C2535.33 303.096 2538.15 306.245 2538.2 312.544V330H2533.68V312.52C2533.67 310.615 2533.23 309.207 2532.36 308.296C2531.52 307.384 2530.19 306.929 2528.38 306.929C2526.92 306.929 2525.63 307.319 2524.53 308.101C2523.42 308.882 2522.56 309.907 2521.94 311.177V330H2517.42V303.584H2521.69Z" fill="white"/>
<defs>
<linearGradient id="paint0_linear" x1="21" y1="748" x2="3347" y2="748" gradientUnits="userSpaceOnUse">
<stop stop-color="#B30168"/>
<stop offset="1" stop-color="#5B01C4"/>
</linearGradient>
</defs>
</svg>
