<svg width="51" height="48" viewBox="0 0 51 48" fill="none" xmlns="http://www.w3.org/2000/svg">
<path d="M19 3.2521V6.60804C19 7.1948 19.4757 7.67046 20.0624 7.67046C20.6492 7.67046 21.1248 7.1948 21.1248 6.60804V3.22654H29.7305V6.68134C29.7305 7.2681 30.2061 7.74376 30.7929 7.74376C31.3796 7.74376 31.8553 7.2681 31.8553 6.68134V3.38516C31.8553 2.19791 30.905 1.2291 29.7179 1.20626L21.2517 1.04333C20.0152 1.01954 19 2.01537 19 3.2521Z" fill="#553CEE"/>
<rect y="11.5913" width="16.8907" height="24.3896" rx="8.44533" transform="rotate(-43.3345 0 11.5913)" fill="#DE6D37"/>
<rect width="16.8907" height="24.3896" rx="8.44533" transform="matrix(-0.727359 -0.686257 -0.686257 0.727359 50.5186 11.5913)" fill="#DE6D37"/>
<rect x="-0.706808" y="0.0205513" width="6.22424" height="9.43157" rx="3.11212" transform="matrix(-0.727359 -0.686257 -0.686257 0.727359 20.0578 39.4615)" fill="#DE6D37" stroke="#553CEE"/>
<rect x="30.2107" y="39.9615" width="6.22424" height="9.43157" rx="3.11212" transform="rotate(-43.3345 30.2107 39.9615)" fill="#DE6D37" stroke="#553CEE"/>
<circle cx="25.2891" cy="23.3924" r="18.9668" fill="#553CEE"/>
<circle cx="25.1839" cy="23.4978" r="14.4359" fill="#F8CE89"/>
<rect x="21.4961" y="12.2231" width="8.00822" height="2.52891" rx="1.26446" fill="#553CEE"/>
<path d="M25.126 25.2417C25.126 24.4377 25.8033 23.7998 26.6059 23.8479L34.7735 24.338C35.2732 24.368 35.6631 24.782 35.6631 25.2826V25.2826C35.6631 25.7868 35.2677 26.2025 34.7641 26.2276L26.592 26.6363C25.7944 26.6761 25.126 26.0402 25.126 25.2417V25.2417Z" fill="#DE6D37"/>
<path d="M25.5815 25.6655C25.0881 26.3037 24.1618 26.4009 23.5467 25.879L14.7654 18.4277C14.3847 18.1048 14.3254 17.5395 14.6308 17.1445V17.1445C14.9378 16.7474 15.5038 16.664 15.9123 16.9558L25.2844 23.6488C25.9374 24.1151 26.0723 25.0307 25.5815 25.6655V25.6655Z" fill="#DE6D37"/>
<circle cx="25.126" cy="25.2344" r="1.5" fill="#F8CE89" stroke="#553CEE" stroke-width="1.21485"/>
</svg>
