<svg width="218" height="271" viewBox="0 0 218 271" fill="none" xmlns="http://www.w3.org/2000/svg">
<path d="M72.8906 152.035C72.8906 152.035 115.233 131.205 170.979 148.677C170.979 148.677 127.981 170.844 72.8906 152.035Z" fill="#961A1A"/>
<path d="M28.6922 70.1903C28.6922 70.1903 27.0543 85.642 55.5279 116.518C84.0015 147.394 80.7255 158.805 80.7255 158.805" stroke="#F7C945" stroke-miterlimit="10"/>
<path d="M0 39.9968C0 39.9968 0 32.271 8.43562 35.4378C8.43562 35.4378 9.14541 28.0668 16.8712 31.2063C16.8712 31.2063 17.9359 24.8728 25.6618 27.3297C25.6618 27.3297 41.1407 63.5292 27.4089 73.0295C13.6772 82.5298 0 39.9968 0 39.9968Z" fill="#D78A28"/>
<path d="M39.2295 36.7208C39.2295 36.7208 40.5126 29.1042 48.293 33.6087C48.293 33.6087 50.204 26.4561 57.3019 30.8514C57.3019 30.8514 59.3767 24.7909 66.6111 28.4763C66.6111 28.4763 75.893 66.7505 60.7963 73.8485C45.6995 80.9464 39.2295 36.7208 39.2295 36.7208Z" fill="#E1B148"/>
<path d="M94.4499 3.97836C94.4499 3.97836 97.4802 -3.14687 104.005 3.07747C104.005 3.07747 107.554 -3.44717 113.423 2.50417C113.423 2.50417 116.89 -2.90117 123.033 2.39498C123.033 2.39498 123.033 41.7612 106.708 45.1191C90.3823 48.4769 94.4499 3.97836 94.4499 3.97836Z" fill="#E1B148"/>
<path d="M123.504 42.6995C123.504 42.6995 126.534 35.5743 133.059 41.7986C133.059 41.7986 136.608 35.274 142.477 41.2253C142.477 41.2253 145.944 35.82 152.086 41.1161C152.086 41.1161 152.086 80.4823 135.761 83.8402C119.436 87.1981 123.504 42.6995 123.504 42.6995Z" fill="#E1B148"/>
<path d="M155.336 50.3161C155.336 50.3161 156.728 42.6995 164.454 47.3405C164.454 47.3405 166.474 40.2152 173.518 44.7197C173.518 44.7197 175.702 38.6864 182.854 42.5084C182.854 42.5084 191.563 80.9191 176.357 87.7714C161.178 94.5963 155.336 50.3161 155.336 50.3161Z" fill="#E1B148"/>
<path d="M192.572 13.052C192.572 13.052 198.878 8.57479 201.199 17.2834C201.199 17.2834 207.614 13.5706 209.525 21.706C209.525 21.706 215.286 18.8941 217.77 26.6199C217.77 26.6199 197.24 60.1986 181.543 54.5475C165.846 48.8965 192.572 13.052 192.572 13.052Z" fill="#D78A28"/>
<path d="M60.8242 73.8485C60.8242 73.8485 75.8664 137.102 98.7163 158.614" stroke="#F7C945" stroke-miterlimit="10"/>
<path d="M116.188 159.269C116.188 159.269 77.2314 107.536 79.2243 75.2953" stroke="#F7C945" stroke-miterlimit="10"/>
<path d="M106.681 45.1464C106.681 45.1464 114.161 80.9909 136.328 107.854C158.496 134.717 146.402 158.932 146.402 158.932" stroke="#F7C945" stroke-miterlimit="10"/>
<path d="M135.762 83.8675L131.64 157.904" stroke="#F7C945" stroke-miterlimit="10"/>
<path d="M142.396 157.249C142.396 157.249 148.729 82.3114 165.901 74.6129C183.072 66.9144 181.352 52.4455 181.352 52.4455" stroke="#F7C945" stroke-miterlimit="10"/>
<path d="M151.813 156.567L176.383 87.7441" stroke="#F7C945" stroke-miterlimit="10"/>
<path d="M63.9355 41.6894C63.9355 41.6894 66.1468 34.2639 73.3267 39.7238C73.3267 39.7238 76.1112 32.8443 82.6086 38.0859C82.6086 38.0859 85.4204 32.3256 92.1362 36.8847C92.1362 36.8847 96.6406 76.0052 80.8068 81.1921C64.9729 86.3791 63.9355 41.6894 63.9355 41.6894Z" fill="#D78A28"/>
<path d="M97.0781 260.879L97.7606 270.953H148.811L150.149 255.501L97.0781 260.879Z" fill="#961A1A"/>
<path d="M72.8906 152.035C72.8906 152.035 136.717 164.811 170.979 148.677C170.433 148.923 172.589 162.682 172.671 163.665C173.681 175.021 174.227 186.46 173.954 197.844C173.654 209.965 172.671 222.468 168.876 234.071C167.32 238.848 165.246 243.598 162.106 247.584C151.814 260.633 127.708 263.118 112.475 262.408C102.702 261.944 91.0995 260.661 83.1007 254.436C70.4882 244.608 68.9594 221.977 68.2496 207.453C68.0312 201.966 70.7612 151.598 72.8906 152.035Z" fill="#C3603A"/>
<path d="M79.4968 157.276H74.501V170.49H79.4968V157.276Z" fill="#F9DCDB"/>
<path d="M87.7414 158.259H82.3906V169.807H87.7414V158.259Z" fill="#F9DCDB"/>
<path d="M96.5588 158.259H91.208V169.807H96.5588V158.259Z" fill="#F9DCDB"/>
<path d="M106.524 158.259H101.173V169.807H106.524V158.259Z" fill="#F9DCDB"/>
<path d="M114.441 158.259H109.09V169.807H114.441V158.259Z" fill="#F9DCDB"/>
<path d="M136.171 157.358H130.82V168.906H136.171V157.358Z" fill="#F9DCDB"/>
<path d="M127.053 158.259H121.702V169.807H127.053V158.259Z" fill="#F9DCDB"/>
<path d="M145.562 159.133H140.211V170.681H145.562V159.133Z" fill="#F9DCDB"/>
<path d="M160.795 156.485H155.444V168.033H160.795V156.485Z" fill="#F9DCDB"/>
<path d="M162.87 170.271H157.52V181.819H162.87V170.271Z" fill="#F9DCDB"/>
<path d="M169.913 155.311H164.562V166.859H169.913V155.311Z" fill="#F9DCDB"/>
<path d="M170.187 170.571H164.836V182.119H170.187V170.571Z" fill="#F9DCDB"/>
<path d="M77.0125 174.448H72.0166V187.661H77.0125V174.448Z" fill="#F9DCDB"/>
<path d="M84.6287 173.274H79.6328V186.487H84.6287V173.274Z" fill="#F9DCDB"/>
<path d="M95.7127 172.974H90.7168V186.187H95.7127V172.974Z" fill="#F9DCDB"/>
<path d="M104.586 173.574H99.5898V186.788H104.586V173.574Z" fill="#F9DCDB"/>
<path d="M111.928 172.974H106.933V186.187H111.928V172.974Z" fill="#F9DCDB"/>
<path d="M127.762 171.5H122.767V184.713H127.762V171.5Z" fill="#F9DCDB"/>
<path d="M119.845 171.8H114.85V185.013H119.845V171.8Z" fill="#F9DCDB"/>
<path d="M137.755 171.5H132.759V184.713H137.755V171.5Z" fill="#F9DCDB"/>
<path d="M145.672 173.847H140.676V187.06H145.672V173.847Z" fill="#F9DCDB"/>
<path d="M153.015 169.152H148.02V182.365H153.015V169.152Z" fill="#F9DCDB"/>
</svg>
