<svg width="38" height="38" viewBox="0 0 38 38" fill="none" xmlns="http://www.w3.org/2000/svg">
<circle cx="19.0003" cy="19" r="8.14286" fill="#F8CE89"/>
<path d="M38 19.0422C38 15.8333 34.7489 13.8067 31.4978 13.8489C33.5667 11.5689 34.7489 7.85333 32.4689 5.61556C30.1889 3.33556 26.4733 4.22222 24.1511 6.54444C24.0244 3.46222 22.2089 0 19.0422 0C15.8333 0 13.8067 3.29333 13.8489 6.54444C11.5689 4.47556 7.85333 3.29333 5.61556 5.57333C3.33556 7.85333 4.22222 11.5689 6.54444 13.8489C3.46222 13.9756 0 15.7911 0 18.9578C0 22.1667 3.29333 24.1933 6.50222 24.1511C4.43333 26.4311 3.25111 30.1467 5.53111 32.3844C7.81111 34.6644 11.5267 33.7778 13.8489 31.4556C13.9756 34.5378 15.7911 38 18.9578 38C22.1667 38 24.1933 34.7067 24.1511 31.4556C26.4311 33.5244 30.1467 34.7067 32.3844 32.4267C34.6644 30.1467 33.7778 26.4311 31.4556 24.1511C34.5378 24.0244 38 22.2089 38 19.0422ZM19 25.3756C15.4533 25.3756 12.6244 22.5044 12.6244 19C12.6244 15.4533 15.4956 12.6244 19 12.6244C22.5044 12.6244 25.3756 15.4533 25.3756 19C25.3756 22.5467 22.5467 25.3756 19 25.3756Z" fill="#553CEE"/>
<path d="M28.0108 16.198C27.4597 14.5139 25.4053 14.0086 23.7063 14.5891C24.4005 13.0371 24.3829 10.8841 22.802 10.1012C21.2138 9.29613 19.416 10.3996 18.5961 12.0172C18.0003 10.4213 16.4528 8.916 14.7908 9.45984C13.1067 10.0109 12.6086 12.0874 13.1891 13.7865C11.6372 13.0922 9.48414 13.1099 8.70125 14.6908C7.8962 16.279 8.99966 18.0767 10.61 18.8745C9.01411 19.4703 7.50882 21.0178 8.05267 22.6798C8.60376 24.3639 10.6803 24.862 12.3571 24.2887C11.6629 25.8406 11.6805 27.9937 13.2614 28.7766C14.8496 29.5816 16.6474 28.4782 17.4674 26.8606C18.0632 28.4565 19.6106 29.9618 21.2726 29.4179C22.9567 28.8668 23.4548 26.7903 22.8743 25.0913C24.4262 25.7856 26.5793 25.7679 27.3622 24.187C28.1672 22.5988 27.0638 20.801 25.4534 20.0032C27.0493 19.4074 28.5546 17.86 28.0108 16.198ZM19.1266 22.785C17.2652 23.3941 15.2875 22.3731 14.6856 20.5338C14.0765 18.6724 15.0975 16.6946 16.9368 16.0928C18.776 15.4909 20.7687 16.4826 21.3778 18.344C21.9869 20.2054 20.988 22.1759 19.1266 22.785Z" fill="#DE6D37"/>
</svg>
