<svg width="252" height="246" viewBox="0 0 252 246" fill="none" xmlns="http://www.w3.org/2000/svg">
<path d="M164.292 61.2341C129.751 57.6283 124.243 85.9023 125.807 100.49L118.696 101.324C116.711 57.0457 149.309 51.6226 165.856 54.4458C226.375 70.1408 202.652 124.122 183.983 148.357L181.873 138.633C202.375 118.116 207.469 65.7414 164.292 61.2341Z" fill="#DC7998" stroke="#DC7998"/>
<path d="M45.8438 118.484L92.0798 181.486L98.6869 138.429L57.3583 100.948C56.7054 100.356 56.3533 99.5033 56.3504 98.622C56.3009 83.1807 46.3846 81.3122 41.2881 82.3659L23.8886 102.811C22.3567 115.989 35.0045 117.965 42.9574 117.236C44.0735 117.134 45.1807 117.581 45.8438 118.484Z" fill="#DC7998" stroke="#DC7998"/>
<path d="M166.411 103.008L117.206 100.737C113.406 100.562 109.802 102.542 108.183 105.985C97.0112 129.75 91.0228 164.997 88.6273 187.115C88.0113 192.803 92.4744 197.667 98.1944 197.777L183.431 199.416C187.057 199.486 190.396 197.499 190.714 193.886C192.182 177.163 182.488 135.85 175.523 110.256C174.394 106.108 170.706 103.206 166.411 103.008Z" fill="#DC7998" stroke="#DC7998"/>
<path d="M182.097 181.04C149.156 188.239 114.871 184.682 95.6854 181.213C94.3391 180.97 93.1243 182.051 93.2113 183.416C93.2654 184.266 93.8161 184.997 94.6301 185.245C117.931 192.355 161.254 189.81 183.225 186.576C184.655 186.366 185.664 185.093 185.58 183.651C185.478 181.897 183.813 180.665 182.097 181.04Z" fill="#F8CE89"/>
<path d="M172.392 113.634C147.805 118.723 123.885 115.768 109.465 113.107C108.155 112.865 106.908 113.76 106.724 115.08C106.57 116.188 107.225 117.254 108.3 117.565C126.237 122.761 156.937 121.238 173.447 118.859C174.642 118.686 175.545 117.713 175.658 116.511C175.828 114.705 174.169 113.266 172.392 113.634Z" fill="#F8CE89"/>
</svg>
