<svg width="253" height="247" viewBox="0 0 253 247" fill="none" xmlns="http://www.w3.org/2000/svg">
<path d="M88.0224 61.8322C122.564 58.2264 128.071 86.5003 126.508 101.088L133.619 101.922C135.604 57.6437 103.005 52.2207 86.4581 55.0439C25.939 70.7389 49.6627 124.72 68.3317 148.955L70.4413 139.231C49.9398 118.714 44.8459 66.3395 88.0224 61.8322Z" fill="#DC7998" stroke="#DC7998"/>
<path d="M206.471 119.082L160.235 182.084L153.628 139.027L194.956 101.546C195.609 100.954 195.961 100.101 195.964 99.22C196.014 83.7788 205.93 81.9103 211.026 82.9639L228.426 103.41C229.958 116.587 217.31 118.563 209.357 117.834C208.241 117.732 207.134 118.179 206.471 119.082Z" fill="#DC7998" stroke="#DC7998"/>
<path d="M85.9034 103.606L135.108 101.336C138.909 101.16 142.513 103.14 144.131 106.583C155.303 130.348 161.292 165.595 163.687 187.713C164.303 193.401 159.84 198.265 154.12 198.375L68.8838 200.014C65.2578 200.084 61.918 198.097 61.6009 194.484C60.1329 177.761 69.8261 136.449 76.7914 110.855C77.9203 106.706 81.6089 103.804 85.9034 103.606Z" fill="#DC7998" stroke="#DC7998"/>
<path d="M70.2175 181.638C103.158 188.837 137.444 185.28 156.629 181.811C157.975 181.568 159.19 182.649 159.103 184.015C159.049 184.864 158.498 185.595 157.684 185.843C134.384 192.953 91.0606 190.408 69.0894 187.174C67.6599 186.964 66.6502 185.691 66.7344 184.249C66.8367 182.495 68.5012 181.263 70.2175 181.638Z" fill="#F8CE89"/>
<path d="M79.9223 114.232C104.509 119.321 128.43 116.366 142.849 113.705C144.159 113.463 145.406 114.358 145.59 115.678C145.744 116.787 145.089 117.852 144.014 118.163C126.078 123.359 95.3774 121.836 78.867 119.457C77.6723 119.285 76.7696 118.311 76.6565 117.109C76.4866 115.303 78.1458 113.864 79.9223 114.232Z" fill="#F8CE89"/>
</svg>
