<svg width="46" height="50" viewBox="0 0 46 50" fill="none" xmlns="http://www.w3.org/2000/svg">
<path d="M5.95372 44.5421C5.72325 44.064 5.35615 43.665 4.89885 43.3955C4.40034 43.1094 3.83394 42.9628 3.25921 42.9713C2.67133 42.9625 2.09103 43.1047 1.5737 43.384C1.09808 43.6598 0.702807 44.055 0.427097 44.5306C0.142234 45.0752 -0.00350821 45.6818 0.00285448 46.2964C-0.0227239 46.9239 0.123994 47.5465 0.427097 48.0966C0.717619 48.603 1.14212 49.0196 1.65396 49.3005C2.10776 49.544 2.60773 49.6892 3.12136 49.7268C3.63498 49.7643 4.15076 49.6933 4.63513 49.5184C5.00637 49.4106 5.35302 49.2315 5.65561 48.9909C5.73222 48.9457 5.79444 48.8797 5.83503 48.8006C5.87563 48.7214 5.89293 48.6324 5.88493 48.5438C5.87689 48.4552 5.85149 48.3692 5.81017 48.2905C5.76885 48.2118 5.71244 48.142 5.64414 48.0851C5.52153 47.9942 5.37254 47.9459 5.2199 47.9475C5.06381 47.9567 4.91317 48.0082 4.78419 48.0966C4.60101 48.2341 4.39541 48.3388 4.17649 48.4062C3.94556 48.4925 3.70064 48.5352 3.45413 48.5323C3.05475 48.5395 2.66014 48.4448 2.30753 48.2571C1.97216 48.0764 1.69711 47.8013 1.51637 47.4659C1.40334 47.275 1.32566 47.0653 1.28705 46.8468H5.67854C5.85335 46.8544 6.02481 46.7972 6.16011 46.6863C6.21825 46.6296 6.26444 46.5618 6.29595 46.487C6.32746 46.4121 6.34365 46.3317 6.34357 46.2505C6.34824 45.6585 6.21476 45.0735 5.95372 44.5421ZM2.147 44.4275C2.49642 44.2315 2.89331 44.1363 3.2936 44.1523C3.62237 44.1337 3.94895 44.216 4.22967 44.3882C4.51039 44.5603 4.73186 44.814 4.86445 45.1154C4.95512 45.3088 5.02063 45.513 5.05937 45.7231H1.26412C1.2957 45.542 1.35773 45.3675 1.44757 45.2071C1.59333 44.8804 1.83797 44.6077 2.147 44.4275Z" fill="#148573"/>
<path d="M11.1363 49.0024C11.1372 49.0954 11.1182 49.1874 11.0806 49.2725C11.043 49.3575 10.9878 49.4335 10.9185 49.4955C10.7625 49.629 10.5618 49.6986 10.3567 49.6904H10.1388C9.73133 49.7014 9.33055 49.5852 8.9922 49.3579C8.65115 49.1534 8.37642 48.8548 8.20104 48.4979C8.01093 48.1215 7.91642 47.7041 7.92586 47.2825V44.439H7.46722C7.38013 44.4454 7.29271 44.4323 7.21136 44.4006C7.13001 44.3688 7.0568 44.3192 6.99711 44.2555C6.93849 44.2041 6.89172 44.1405 6.86005 44.0693C6.82837 43.998 6.81255 43.9207 6.81366 43.8427C6.81202 43.7596 6.82746 43.677 6.85901 43.6001C6.89057 43.5232 6.93757 43.4536 6.99711 43.3956C7.12835 43.2854 7.29599 43.2281 7.46722 43.235H7.92586V41.6069C7.9228 41.5157 7.93853 41.4249 7.97207 41.3401C8.0056 41.2552 8.05622 41.1782 8.12078 41.1138C8.18346 41.0501 8.25854 41 8.34137 40.9664C8.4242 40.9329 8.51302 40.9167 8.60236 40.9189C8.69261 40.9173 8.78225 40.9341 8.86581 40.9682C8.94938 41.0024 9.02511 41.0532 9.0884 41.1175C9.1517 41.1819 9.20122 41.2585 9.23396 41.3426C9.26671 41.4267 9.28198 41.5166 9.27885 41.6069V43.235H10.2191C10.3866 43.2299 10.55 43.2871 10.6777 43.3956C10.7372 43.4536 10.7843 43.5232 10.8158 43.6001C10.8474 43.677 10.8628 43.7596 10.8612 43.8427C10.864 43.9226 10.849 44.0021 10.8172 44.0755C10.7855 44.1489 10.7378 44.2143 10.6777 44.267C10.5523 44.3806 10.3883 44.4421 10.2191 44.439H9.27885V47.2825C9.2724 47.5529 9.36174 47.8169 9.5311 48.0278C9.59565 48.12 9.68146 48.1952 9.78126 48.2471C9.88107 48.299 9.99192 48.326 10.1044 48.3259H10.5057C10.5882 48.3245 10.67 48.3411 10.7453 48.3748C10.8206 48.4085 10.8876 48.4584 10.9414 48.5209C11.0658 48.6504 11.1356 48.8228 11.1363 49.0024Z" fill="#148573"/>
<path d="M18.4287 44.5765C18.1542 44.0849 17.7598 43.6707 17.2821 43.3726C16.7498 43.0878 16.1544 42.9419 15.5507 42.9483C14.938 42.9384 14.3333 43.0886 13.7964 43.384C13.3227 43.6623 12.928 44.057 12.6498 44.5307C12.3544 45.0717 12.2043 45.6801 12.2141 46.2964C12.2004 46.9096 12.3508 47.5153 12.6498 48.0507C12.922 48.529 13.3181 48.9251 13.7964 49.1973C14.3308 49.5004 14.9365 49.6548 15.5507 49.6445C16.16 49.6562 16.7615 49.5058 17.2936 49.2088C17.7762 48.9168 18.1721 48.5012 18.4402 48.0049C18.7264 47.4649 18.8723 46.8616 18.8644 46.2506C18.8588 45.6652 18.7091 45.0903 18.4287 44.5765ZM15.5049 48.4864C15.1368 48.4876 14.7742 48.397 14.45 48.2227C14.1463 48.0376 13.9001 47.7716 13.7391 47.4545C13.5466 47.1041 13.4553 46.7071 13.4754 46.3079C13.4571 45.9088 13.5483 45.5123 13.7391 45.1613C13.9001 44.8442 14.1463 44.5781 14.45 44.3931C14.77 44.208 15.1355 44.1167 15.5049 44.1293C15.8643 44.1138 16.2206 44.2017 16.5315 44.3826C16.8425 44.5635 17.095 44.8297 17.2592 45.1498C17.4453 45.5026 17.5362 45.8978 17.5229 46.2964C17.5401 46.6954 17.4489 47.0916 17.2592 47.443C17.0977 47.7539 16.8512 48.0124 16.5483 48.1883C16.2357 48.3845 15.8739 48.4878 15.5049 48.4864Z" fill="#148573"/>
<path d="M29.8374 45.597V49.0368C29.8374 49.2223 29.7637 49.4002 29.6325 49.5314C29.5014 49.6626 29.3235 49.7363 29.138 49.7363C28.9525 49.7363 28.7746 49.6626 28.6434 49.5314C28.5122 49.4002 28.4386 49.2223 28.4386 49.0368V45.597C28.4671 45.2158 28.3481 44.8381 28.106 44.5422C27.8505 44.3093 27.5173 44.1802 27.1716 44.1802C26.8258 44.1802 26.4926 44.3093 26.2371 44.5422C25.9954 44.8177 25.8646 45.1732 25.8702 45.5397V48.9795C25.8621 49.1086 25.8184 49.2329 25.7439 49.3386C25.6695 49.4443 25.5672 49.5273 25.4484 49.5784C25.3296 49.6295 25.199 49.6467 25.071 49.628C24.943 49.6093 24.8228 49.5555 24.7236 49.4726C24.6566 49.4136 24.6026 49.3414 24.5651 49.2604C24.5276 49.1795 24.5074 49.0916 24.5057 49.0024V45.5626C24.5311 45.1798 24.4079 44.802 24.1617 44.5078C23.9126 44.2865 23.589 44.1677 23.2559 44.1752C23.0755 44.1707 22.8961 44.2029 22.7285 44.27C22.561 44.337 22.4088 44.4374 22.2813 44.5651C22.0327 44.8547 21.9018 45.227 21.9144 45.6085V49.0024C21.9132 49.1833 21.8482 49.3578 21.7309 49.4955C21.6636 49.5633 21.5831 49.6166 21.4943 49.6521C21.4056 49.6876 21.3105 49.7046 21.215 49.7019C21.0295 49.7019 20.8516 49.6282 20.7204 49.497C20.5892 49.3658 20.5155 49.1879 20.5155 49.0024V43.7051C20.5116 43.6111 20.528 43.5174 20.5636 43.4303C20.5992 43.3433 20.6532 43.2649 20.7219 43.2006C20.8555 43.0766 21.0328 43.0106 21.215 43.0172C21.3986 43.0104 21.5782 43.0716 21.7195 43.1892C21.8006 43.2816 21.8595 43.3914 21.8914 43.5102C21.9831 43.4276 22.083 43.3546 22.1896 43.2924C22.5825 43.0518 23.036 42.9285 23.4967 42.9369C23.9311 42.928 24.3596 43.0391 24.735 43.258C24.9893 43.3936 25.209 43.5858 25.3771 43.8198C25.563 43.6 25.7886 43.4172 26.0422 43.2809C26.4732 43.0426 26.9601 42.9238 27.4525 42.9369C27.8912 42.9221 28.325 43.0335 28.7023 43.258C29.0747 43.4614 29.3721 43.7789 29.5508 44.1638C29.756 44.6129 29.8542 45.1035 29.8374 45.597Z" fill="#148573"/>
<path d="M37.6343 44.588C37.3695 44.0893 36.9729 43.6729 36.4877 43.3841C35.9577 43.104 35.3673 42.9576 34.7678 42.9576C34.1683 42.9576 33.5779 43.104 33.0479 43.3841C32.5627 43.6729 32.1661 44.0893 31.9013 44.588C31.6152 45.1285 31.4656 45.7308 31.4656 46.3424C31.4656 46.9539 31.6152 47.5562 31.9013 48.0967C32.1725 48.5907 32.5676 49.0057 33.0479 49.3006C33.5785 49.5788 34.1687 49.7242 34.7678 49.7242C35.3669 49.7242 35.9571 49.5788 36.4877 49.3006C36.9704 49.0086 37.3662 48.593 37.6343 48.0967C37.9167 47.555 38.0641 46.9532 38.0641 46.3424C38.0641 45.7315 37.9167 45.1297 37.6343 44.588ZM34.7105 48.4865C34.3404 48.4921 33.9758 48.397 33.6556 48.2113C33.3582 48.0286 33.1132 47.7718 32.9447 47.466C32.7617 47.1115 32.6662 46.7184 32.6662 46.3194C32.6662 45.9205 32.7617 45.5273 32.9447 45.1728C33.1091 44.858 33.3545 44.5928 33.6556 44.4046C33.9826 44.2424 34.346 44.1674 34.7105 44.1867C35.0789 44.1825 35.4422 44.2734 35.7654 44.4505C36.0665 44.6387 36.3119 44.9039 36.4762 45.2187C36.6584 45.5725 36.7453 45.9677 36.7285 46.3653C36.7413 46.7625 36.6546 47.1567 36.4762 47.5119C36.3077 47.8176 36.0628 48.0744 35.7654 48.2572C35.4407 48.4269 35.0763 48.5061 34.7105 48.4865Z" fill="#148573"/>
<path d="M45.9931 46.0671V49.0024C45.9948 49.0934 45.9785 49.1838 45.945 49.2685C45.9116 49.3531 45.8616 49.4302 45.7982 49.4955C45.7324 49.5615 45.6535 49.6129 45.5666 49.6465C45.4797 49.6801 45.3867 49.695 45.2937 49.6904C45.2023 49.6949 45.1111 49.6798 45.0261 49.6462C44.9411 49.6126 44.8642 49.5612 44.8006 49.4955C44.7371 49.4302 44.6872 49.3531 44.6538 49.2685C44.6203 49.1838 44.604 49.0934 44.6057 49.0024V46.0671C44.6212 45.7003 44.5381 45.336 44.3649 45.0122C44.222 44.7498 44.0019 44.5376 43.7343 44.4045C43.4598 44.2672 43.1582 44.1928 42.8514 44.1867C42.5529 44.1779 42.257 44.2449 41.9914 44.3816C41.7479 44.4981 41.5356 44.6711 41.3723 44.8861C41.2254 45.1022 41.1493 45.3587 41.1544 45.6199V49.0024C41.1562 49.0934 41.1398 49.1838 41.1064 49.2685C41.0729 49.3531 41.023 49.4302 40.9595 49.4955C40.8959 49.5612 40.8191 49.6126 40.734 49.6462C40.649 49.6798 40.5578 49.6949 40.4665 49.6904C40.3734 49.695 40.2804 49.6801 40.1935 49.6465C40.1066 49.6129 40.0277 49.5615 39.962 49.4955C39.8985 49.4302 39.8485 49.3531 39.8151 49.2685C39.7816 49.1838 39.7653 49.0934 39.767 49.0024V43.6936C39.7638 43.6007 39.7793 43.5081 39.8128 43.4214C39.8463 43.3347 39.8971 43.2557 39.962 43.1891C40.0979 43.0602 40.2792 42.9902 40.4665 42.9942C40.5574 42.9925 40.6479 43.0088 40.7325 43.0423C40.8171 43.0757 40.8943 43.1257 40.9595 43.1891C41.0761 43.3052 41.1456 43.4605 41.1544 43.6248C41.3028 43.4973 41.4642 43.3859 41.636 43.2923C42.0821 43.0488 42.5841 42.9263 43.0922 42.9369C43.6195 42.9302 44.14 43.0564 44.6057 43.3038C45.0531 43.5444 45.4199 43.9112 45.6606 44.3587C45.916 44.8902 46.0305 45.4785 45.9931 46.0671Z" fill="#148573"/>
<path fill-rule="evenodd" clip-rule="evenodd" d="M33.7668 20.5544C33.2371 22.0822 32.2101 25.7219 31.6434 27.5583C31.0767 29.3947 30.4516 30.7702 30.3667 31.5733C30.2818 32.3763 30.9267 32.4321 31.1338 32.3768C31.3409 32.3216 31.6266 32.28 32.3846 30.9515C33.1426 29.623 34.8505 26.4193 35.682 24.4059C36.5134 22.3927 37.5324 19.8178 37.3733 18.8717C37.214 17.9255 35.4229 18.1112 34.8218 18.3916C34.2207 18.6721 34.2965 19.0267 33.7668 20.5544Z" fill="#19A58E"/>
<path fill-rule="evenodd" clip-rule="evenodd" d="M33.7581 17.7895C34.0375 17.391 34.6144 15.4107 34.4593 13.5668C34.3042 11.7228 33.5019 8.72129 32.8275 6.7261C32.1531 4.7309 31.3649 2.70519 30.413 1.59551C29.4612 0.485844 28.2289 0.258921 27.1161 0.0679807C26.0033 -0.122953 24.7321 0.115047 23.7359 0.449893C22.7396 0.784733 21.9376 1.28561 21.1383 2.07707C20.339 2.86847 19.4861 3.98279 18.9403 5.19853C18.3945 6.41426 18.0578 8.07091 17.8635 9.37154C17.6693 10.6722 17.6618 11.8326 17.7747 13.0022C17.8876 14.1719 18.1022 15.2658 18.5407 16.3894C18.9792 17.5129 19.7285 18.8024 20.4056 19.7433C21.0828 20.6842 22.1484 21.5863 22.6036 22.0346C23.0588 22.4829 23.3196 22.5106 23.1364 22.4331C22.9533 22.3556 22.0902 21.8381 21.5046 21.5697C20.919 21.3013 20.2706 21.0163 19.623 20.8226C18.9755 20.6289 18.265 20.5062 17.6193 20.4075C16.9736 20.3088 16.3252 20.2055 15.7488 20.2304C15.1725 20.2553 14.6813 20.4111 14.1614 20.5569C13.6415 20.7027 13.1669 20.8308 12.6295 21.1048C12.092 21.3788 11.4667 21.7274 10.9366 22.2007C10.4065 22.6739 9.86074 23.2439 9.44911 23.944C9.03742 24.6441 8.6942 25.3913 8.46668 26.4014C8.23909 27.4115 7.99207 28.9279 8.08367 30.0044C8.17527 31.0808 8.4389 32.0633 9.01616 32.8602C9.59336 33.6572 10.5869 34.3711 11.5471 34.7862C12.5074 35.2014 13.3511 35.3563 14.7775 35.3508C16.204 35.3452 18.352 35.1017 20.1059 34.753C21.8598 34.4043 23.8417 33.782 25.3011 33.2587C26.7604 32.7354 28.2599 31.9651 28.8622 31.6134C29.4645 31.2617 29.0609 31.2084 28.915 31.1486C28.769 31.0888 28.5428 31.0316 27.9865 31.2548C27.4303 31.478 27.0712 32.1011 25.5776 32.4875C24.084 32.874 20.9357 33.462 19.0246 33.5736C17.1136 33.6852 15.3743 33.5231 14.1115 33.157C12.8485 32.7909 11.9939 32.1332 11.4472 31.3769C10.9005 30.6207 10.7144 29.6249 10.831 28.6194C10.9476 27.6141 11.4279 26.1762 12.1467 25.3444C12.8655 24.5126 14.0726 23.9496 15.1438 23.6286C16.215 23.3075 17.3048 23.3606 18.574 23.418C19.8432 23.4754 21.7509 23.7673 22.759 23.9731C23.767 24.179 23.7806 24.3021 24.6224 24.6531C25.4641 25.0041 27.1458 25.7654 27.8095 26.0791C28.4732 26.3927 28.3496 26.5017 28.6048 26.5352C28.8599 26.5686 29.1693 26.432 29.3402 26.2796C29.5112 26.1273 29.7347 25.9965 29.6304 25.621C29.5261 25.2456 29.2827 24.6327 28.7146 24.0271C28.1465 23.4214 27.0564 22.7562 26.2216 21.9868C25.3867 21.2176 24.4307 20.3203 23.7057 19.4113C22.9807 18.5022 22.3704 17.6973 21.8716 16.5324C21.3729 15.3675 20.7935 13.8727 20.7131 12.4221C20.6327 10.9714 20.7781 8.95501 21.3892 7.82855C22.0003 6.7021 23.2763 6.00766 24.3797 5.66344C25.4831 5.31916 27.0513 5.27787 28.0097 5.76304C28.9681 6.24822 29.4694 7.47324 30.13 8.5746C30.7905 9.67596 31.5305 11.1408 31.9727 12.3713C32.4149 13.6018 32.4855 15.0546 32.7831 15.9576C33.0806 16.8607 33.5842 16.6771 33.7581 17.7895Z" fill="#148573"/>
<path fill-rule="evenodd" clip-rule="evenodd" d="M25.9332 22.3584C25.2258 22.0569 24.62 21.8326 23.9067 21.6044C23.1933 21.3761 22.3752 21.1782 21.6529 20.9888C20.9307 20.7994 20.3103 20.6085 19.5731 20.4681C18.8358 20.3276 18.0153 20.1803 17.2295 20.1462C16.4436 20.112 15.6474 20.1078 14.8578 20.2629C14.0683 20.4179 13.2521 20.6734 12.4921 21.0765C11.7322 21.4796 10.9187 22.0349 10.2982 22.6816C9.67764 23.3282 9.1412 24.1298 8.76904 24.9564C8.39695 25.7829 8.16975 26.7192 8.06543 27.6407C7.9611 28.5622 7.9777 29.6157 8.14301 30.4856C8.30826 31.3555 8.48371 32.1433 9.05716 32.8601C9.63055 33.5768 10.6251 34.3711 11.5835 34.7861C12.542 35.2012 13.3841 35.3563 14.8079 35.3507C16.2318 35.3452 18.3758 35.1016 20.1266 34.753C21.8773 34.4042 23.9094 33.8088 25.3123 33.2586C26.7152 32.7084 27.9881 31.8477 28.544 31.4519C29.0999 31.0562 28.7397 30.9383 28.6478 30.8839C28.556 30.8295 28.5476 30.8816 27.9929 31.1256C27.4381 31.3695 26.7689 31.9343 25.3193 32.3476C23.8696 32.761 21.1683 33.4816 19.2948 33.6057C17.4215 33.7299 15.3804 33.4638 14.0786 33.0923C12.7767 32.7208 12.0376 32.1563 11.4838 31.3767C10.93 30.5972 10.654 29.3622 10.7557 28.4149C10.8574 27.4676 11.4205 26.443 12.0942 25.6931C12.7678 24.9432 13.8661 24.2935 14.7976 23.9154C15.7291 23.5373 16.6694 23.4575 17.6828 23.4246C18.6962 23.3917 19.8481 23.549 20.8782 23.7181C21.9083 23.8874 22.8676 24.096 23.8635 24.4395C24.8593 24.7831 26.0456 25.3663 26.8533 25.7793C27.661 26.1922 28.2566 26.8207 28.7097 26.9173C29.1628 27.0139 29.4122 26.6974 29.5719 26.3589C29.7315 26.0205 29.8735 25.2955 29.6674 24.8867C29.3655 24.2451 28.7735 23.8349 28.1511 23.4135C27.5288 22.9921 26.6406 22.6599 25.9332 22.3584Z" fill="#19A58E"/>
<path fill-rule="evenodd" clip-rule="evenodd" d="M29.233 7.2788C29.7612 7.92957 30.2128 8.79379 30.6213 9.67756C31.0299 10.5614 31.4206 11.6383 31.6843 12.5816C31.9481 13.5249 32.0444 14.4066 32.2037 15.3374C32.3629 16.2682 32.3381 17.7482 32.64 18.1664C32.9418 18.5846 33.6664 18.3616 34.015 17.8465C34.3635 17.3313 34.6756 16.2798 34.7313 15.0753C34.7871 13.8709 34.6641 12.2338 34.3494 10.6197C34.0347 9.00564 33.4845 6.88485 32.8431 5.39089C32.2018 3.89692 31.395 2.54063 30.5014 1.65589C29.6078 0.771121 28.6122 0.283563 27.4816 0.0823342C26.351 -0.118901 24.8375 0.0661425 23.718 0.448454C22.5984 0.83076 21.6242 1.43152 20.7642 2.37619C19.9041 3.32092 19.0647 4.81095 18.5576 6.1168C18.0506 7.42259 17.8404 8.91868 17.7218 10.2112C17.6033 11.5036 17.8493 13.497 17.9149 13.8945C17.9805 14.2921 17.9522 13.1389 18.1156 12.5965C18.279 12.0541 18.4954 11.3456 18.8953 10.6399C19.2952 9.93425 20.102 8.82947 20.5149 8.36249C20.8849 7.98163 21.4729 7.30448 22.3079 6.68668C23.0085 6.25821 23.6 5.82464 24.6648 5.59196C25.7297 5.35928 26.6904 5.49197 27.4518 5.7731C28.2131 6.0543 28.7047 6.62804 29.233 7.2788Z" fill="#19A58E"/>
<path fill-rule="evenodd" clip-rule="evenodd" d="M12.1439 25.5681C12.3739 25.2684 13.0488 24.7872 12.6999 25.0322C12.3509 25.2772 10.7071 26.4662 10.05 27.0381C9.39289 27.61 9.00135 28.0165 8.75729 28.4635C8.55212 28.7405 8.21633 29.3239 8.26278 30.061C8.30929 30.798 8.48597 32.0529 9.03623 32.8857C9.58649 33.7186 10.5765 34.5683 11.5644 35.0581C12.5523 35.5478 13.987 35.9665 15.6906 36.0826C17.3941 36.1987 19.9815 36.072 21.7856 35.7548C23.5896 35.4375 25.2902 34.7691 26.5147 34.1793C27.7393 33.5895 28.6889 32.8205 29.1327 32.2159C29.5766 31.6114 29.6789 30.6191 29.1776 30.5522C28.6762 30.4853 27.4638 31.3063 26.3972 31.7543C25.3306 32.2024 23.1763 32.9086 21.3562 33.1758C19.5359 33.4431 17.0715 33.5953 15.4761 33.3578C13.8808 33.1202 12.5621 32.4946 11.7839 31.7504C11.0057 31.0063 10.7445 29.5893 10.8068 28.8933C10.8026 28.2719 11.0968 27.3847 11.3196 26.8305C11.5425 26.2764 11.9138 25.8679 12.1439 25.5681Z" fill="#148573"/>
</svg>
