<svg width="726" height="587" viewBox="0 0 726 587" fill="none" xmlns="http://www.w3.org/2000/svg">
<path d="M40.0509 1.10693H2.02824C0.919467 1.10693 0 2.02505 0 3.15919V67.6433C0 68.7775 0.919467 69.6686 2.02824 69.6686H12.2235C13.3323 69.6686 14.2517 68.7505 14.2517 67.6433V47.8768C14.2517 47.2557 14.6574 46.8507 15.2794 46.8507H36.0215C37.1302 46.8507 38.0497 45.9326 38.0497 44.8254V34.6452C38.0497 33.538 37.1302 32.6199 36.0215 32.6199H15.2794C14.6574 32.6199 14.2517 32.2149 14.2517 31.5938V16.3909C14.2517 15.7698 14.6574 15.3647 15.2794 15.3647H40.0509C41.1597 15.3647 42.0791 14.4466 42.0791 13.3125V3.15919C42.0791 2.02505 41.1597 1.10693 40.0509 1.10693Z" fill="#1B3657"/>
<path d="M70.3121 1.10693H60.0898C58.9811 1.10693 58.0616 2.02505 58.0616 3.13219V67.6163C58.0616 68.7505 58.9811 69.6416 60.0898 69.6416H70.3121C71.4209 69.6416 72.3404 68.7235 72.3404 67.6163V3.15919C72.3404 2.02505 71.4209 1.10693 70.3121 1.10693Z" fill="#1B3657"/>
<path d="M206.339 1.10693H196.063C194.954 1.10693 194.035 2.02505 194.035 3.13219V48.2819C194.035 52.7644 190.573 56.4099 184.651 56.4099C178.944 56.4099 175.483 52.7374 175.483 48.2819V3.15919C175.483 2.02505 174.563 1.13394 173.455 1.13394H163.151C162.043 1.13394 161.123 2.05205 161.123 3.15919V48.3089C161.123 61.6486 172.13 70.8027 184.678 70.8027C197.415 70.8027 208.421 61.6486 208.421 48.3089V3.15919C208.394 2.02505 207.475 1.10693 206.339 1.10693Z" fill="#1B3657"/>
<path d="M334.145 55.4379H306.94C306.318 55.4379 305.912 55.0328 305.912 54.4118V43.5294C305.912 42.9083 306.318 42.5032 306.94 42.5032H328.844C329.953 42.5032 330.873 41.5851 330.873 40.478V30.2977C330.873 29.1906 329.953 28.2725 328.844 28.2725H306.94C306.318 28.2725 305.912 27.8674 305.912 27.2463V16.391C305.912 15.7699 306.318 15.3648 306.94 15.3648H333.739C334.848 15.3648 335.767 14.4467 335.767 13.3126V3.15929C335.767 2.05215 334.848 1.13403 333.739 1.13403H293.688C292.58 1.13403 291.66 2.05215 291.66 3.15929V67.6434C291.66 68.7776 292.58 69.6687 293.688 69.6687H334.145C335.254 69.6687 336.173 68.7506 336.173 67.6434V57.4631C336.2 56.356 335.281 55.4379 334.145 55.4379Z" fill="#1B3657"/>
<path d="M139.38 29.9198H120.342C119.206 29.9198 118.314 30.8379 118.314 31.945V42.0983C118.314 43.2054 119.233 44.1236 120.342 44.1236H126.237C126.859 44.1236 127.265 44.5286 127.265 45.1497V47.1749C127.265 53.7908 123.479 56.4371 117.692 56.4371C112.797 56.4371 109.741 54.7089 108.2 51.5495C106.766 48.6061 106.766 41.9093 106.766 35.4015C106.766 28.8936 106.766 22.1968 108.2 19.2264C109.741 16.067 112.797 14.3388 117.692 14.3388C121.829 14.3388 124.858 16.175 126.129 19.0914C126.562 20.1175 127.535 20.7926 128.644 20.7926H138.758C140.219 20.7926 141.354 19.4695 141.111 18.0383C139.164 6.66984 129.51 0 117.665 0C106.442 0 98.7075 5.58971 95.0296 13.5287C92.2712 19.4154 92.1901 25.7072 92.1901 35.4015C92.1901 45.0687 92.2982 51.3605 95.0296 57.2742C98.7075 65.2132 106.442 70.8029 117.665 70.8029C131.105 70.8029 141.409 63.269 141.409 47.0939V31.972C141.436 30.8379 140.516 29.9198 139.38 29.9198Z" fill="#1B3657"/>
<path d="M264.617 42.4762C270.431 38.8578 273.947 32.431 273.947 24.33V22.4937C273.947 10.6932 264.374 1.13403 252.556 1.13403H242.361H230.137C229.001 1.13403 228.109 2.05215 228.109 3.15929V67.6434C228.109 68.7776 229.028 69.6687 230.137 69.6687H240.332C241.468 69.6687 242.361 68.7506 242.361 67.6434V46.4727C242.361 46.0407 242.712 45.6897 243.145 45.6897H247.58C248.472 45.6897 249.257 46.2297 249.581 47.0398L258.478 67.8324C259.1 69.2636 259.695 69.6687 261.02 69.6687H271.216C272.757 69.6687 273.758 68.6425 273.758 67.3194C273.758 66.6983 273.649 66.4013 273.244 65.3751L263.995 44.5015C263.671 43.7724 263.914 42.8813 264.617 42.4762ZM259.154 24.33C259.154 28.5155 256.207 31.4589 252.015 31.4589H243.361C242.739 31.4589 242.333 31.0538 242.333 30.4327V16.391C242.333 15.7699 242.739 15.3648 243.361 15.3648H252.015C256.18 15.3648 259.154 18.3082 259.154 22.4937V24.33Z" fill="#1B3657"/>
<path d="M579.345 260.61C576.479 261.258 574.721 264.12 575.505 266.955C578.02 275.867 579.345 284.994 579.345 294.31C579.345 387.229 449.646 462.541 289.659 462.541C143.491 462.541 30.9644 404.781 4.97594 319.261C4.1376 316.426 0 317.047 0 319.99V418.769C0 511.687 129.699 587 289.686 587C449.673 587 579.372 511.687 579.372 418.769V380.748C579.372 378.371 581.022 376.346 583.32 375.779C667.073 355.608 725.973 307.677 726 251.753C726 252.293 725.946 258.557 725.946 258.206H726V160.589C726 157.7 721.916 157.025 721.024 159.779C704.771 208.763 653.335 243.841 579.345 260.61Z" fill="#1B3657"/>
<path d="M436.071 170.446C439.073 172.39 442.886 172.579 446.104 170.986C466.657 160.751 494.484 154.46 525.124 154.46C555.764 154.46 583.591 160.751 604.144 170.986C607.335 172.579 611.175 172.39 614.177 170.446C630.132 160.157 639.706 147.061 639.706 132.803C639.706 99.7507 588.405 72.9363 525.124 72.9363C461.843 72.9363 410.542 99.7237 410.542 132.803C410.542 147.061 420.115 160.157 436.071 170.446Z" fill="#1B3657"/>
<path d="M289.686 211.031C201.796 211.031 130.564 247.27 130.564 291.961C130.564 310.566 142.95 327.686 163.692 341.377C166.829 343.429 170.859 343.618 174.158 341.836C203.148 326.255 244.173 316.534 289.686 316.534C335.2 316.534 376.224 326.255 405.214 341.836C408.514 343.618 412.543 343.429 415.68 341.377C436.449 327.713 448.808 310.593 448.808 291.961C448.808 247.27 377.549 211.031 289.686 211.031Z" fill="#1B3657"/>
</svg>
