<svg width="1358" height="993" viewBox="0 0 1358 993" fill="none" xmlns="http://www.w3.org/2000/svg">
<g clip-path="url(#clip0)">
<path d="M1356 2H6C3.23858 2 1 4.23861 1 7.00003V1007C1 1009.76 3.23858 1012 6.00001 1012H1356C1358.76 1012 1361 1009.76 1361 1007V7C1361 4.23858 1358.76 2 1356 2Z" fill="#E9C43E"/>
<g opacity="0.7">
<path opacity="0.7" d="M219 679.217L221.147 186.753C221.286 153.597 247.84 126.822 280.437 127.001L1061.17 131.215C1099.91 131.434 1131.16 163.516 1131 202.933L1128.99 682L219 679.217Z" fill="#D84D2F"/>
<path opacity="0.7" d="M218.794 679L69 820H1289L1129.68 681.803L218.794 679Z" fill="#DC7235"/>
<path opacity="0.7" d="M69 820C70.3528 841.752 88.3577 858.692 110.143 858.75L1250.22 861C1272.52 861.039 1290.24 842.28 1288.93 820H69V820Z" fill="#CC7B38"/>
<path opacity="0.7" d="M270.875 177L1077 179.811L1074.26 619L270 616.209L270.875 177Z" fill="#EC8B5C"/>
<path opacity="0.7" d="M253.098 708L175 780.294L1172 781L1099.26 715.849L253.098 708Z" fill="#EC9770"/>
</g>
<path d="M125.849 755.558C125.849 755.558 142.676 779.937 117.146 784.023C98.1655 787.065 85.5337 793.814 85.5337 793.814L0.352322 916.82L-1.22388 1013.27L40.4677 1012.47L291.838 1013.27H328.202L324.25 915.244C324.25 915.244 336.593 796.723 235.717 791.927C235.717 791.927 211.874 788.686 204.881 776.119L190.85 741.526L125.849 755.558Z" fill="#F3EDE8"/>
<path d="M51.4122 771.7C51.4122 771.7 -43.5593 557.217 106.024 513.943C249.636 472.379 283.735 698.718 283.735 698.718C283.735 698.718 264.31 733.977 184.479 759.533C104.648 785.089 51.4122 771.7 51.4122 771.7Z" fill="#D05A94"/>
<path d="M95.013 790.351C95.013 790.351 104.492 817.239 162.989 816.439C221.486 815.64 235.717 791.927 235.717 791.927C235.717 791.927 297.366 793.504 313.971 825.92C330.577 858.337 330.577 918.419 330.577 918.419L282.359 919.218C282.359 919.218 289.085 947.705 291.838 1013.29H32.5644C32.5644 1013.29 35.4504 934.938 42.0438 917.642L-3 916.82C-3 916.82 0.485398 803.095 58.6494 794.281C98.7648 788.219 95.013 790.351 95.013 790.351Z" fill="#3859A6"/>
<path d="M73.4346 795.413L68.5728 938.845L37.1821 939.534C37.1821 939.534 34.2517 959.85 32.5645 1013.27H291.838C291.838 1013.27 289.196 939.534 282.359 941.11C275.521 942.687 256.34 941.399 256.34 941.399L260.181 795.413L235.739 791.905L224.372 941.51L102.872 941.377L95.0352 790.306C95.0352 790.306 81.6486 788.064 73.0572 792.526L73.4346 795.413Z" fill="#D63C37"/>
<path d="M530.691 741.726C530.691 741.726 513.042 767.304 539.815 771.589C559.751 774.786 572.982 781.847 572.982 781.847L662.337 910.936L664.002 1012.14L620.246 1011.32L356.51 1012.14H318.37L322.522 909.293C322.522 909.293 309.557 784.933 415.407 779.893C415.407 779.893 440.426 776.496 447.752 763.307L462.471 727.005L530.691 741.726Z" fill="#F3EDE8"/>
<path d="M560.483 770.146C560.483 770.146 547.963 784.289 491.708 782.18C415.429 779.338 415.406 771.789 415.406 771.789C415.406 771.789 350.716 781.536 333.311 815.552C315.884 849.567 315.884 912.602 315.884 912.602L318.37 1012.14C318.37 1012.14 336.064 1011.58 356.51 1012.14H628.549C628.549 1012.14 633.655 1012.14 669.108 1012.14L665.867 910.936C665.867 910.936 659.584 802.385 601.176 782.358C575.313 773.521 560.483 770.146 560.483 770.146Z" fill="#E9C43E"/>
<path d="M450.305 755.203L526.695 756.402L560.483 770.146C560.483 770.146 549.583 784.067 491.708 782.18C491.708 782.18 417.338 781.003 415.406 771.789L450.305 755.203Z" fill="#3859A6"/>
<path d="M456.188 723.386C456.188 723.386 420.224 712.751 439.405 689.615C439.405 689.615 405.372 689.859 413.764 661.461C413.764 661.461 382.217 642.877 400.555 622.561C400.555 622.561 379.376 596.739 407.947 583.572C407.947 583.572 397.136 550.534 421.578 544.384C421.578 544.384 438.783 545.361 441.336 519.339C443.867 493.339 473.26 512.3 473.26 512.3C473.26 512.3 487.468 471.202 528.582 495.714C528.582 495.714 546.12 506.039 562.615 495.47C579.109 484.902 600.577 509.769 593.894 515.009C587.212 520.227 625.13 524.246 625.13 524.246C625.13 524.246 644.488 542.319 628.926 553.154C628.926 553.154 657.675 553.421 656.254 575.646C654.833 597.871 657.986 608.063 666.511 610.594C675.035 613.103 658.674 637.104 652.991 635.417C652.991 635.417 660.583 665.458 645.021 676.293C629.459 687.128 635.297 702.248 635.297 702.248C635.297 702.248 634.609 718.523 599.245 716.303C599.245 716.303 596.803 745.434 567.188 737.707C567.188 737.707 555.244 753.738 538.217 748.697C521.189 743.657 456.188 723.386 456.188 723.386Z" fill="#D13C36"/>
<path d="M896.524 728.648C896.524 728.648 858.807 788.508 889.243 794.925C910.089 799.321 926.916 798.544 926.916 798.544L1033.21 903.698L1034.96 994.931L988.743 994.087L710.133 994.931H669.84L674.214 902.011C674.214 902.011 660.538 775.12 772.338 769.991C772.338 769.991 786.479 758.467 794.227 745.012L809.412 688.594L896.524 728.648Z" fill="#F3EDE8"/>
<path d="M901.053 778.45C893.461 779.072 885.869 779.804 878.121 780.293C863.291 781.203 848.04 780.426 833.188 779.982C745.52 777.295 745.498 762.997 745.498 762.997C745.498 762.997 671.15 779.383 651.148 811.377C631.124 843.372 631.124 902.699 631.124 902.699L633.987 1018C633.987 1018 656.01 1015.22 679.52 1015.76L941.657 1017.09C941.657 1017.09 996.314 1018 1037.05 1018L1033.32 901.145C1032.54 881.029 1026.39 859.691 1018.82 841.263C1004.02 805.205 978.642 791.35 939.304 786.088C926.317 784.312 913.685 777.406 901.053 778.45Z" fill="#D05A94"/>
<path d="M746.431 770.079C746.586 769.768 743.212 763.751 743.633 763.596C747.23 762.219 759.773 759.244 762.77 757.645C771.827 752.805 779.886 750.518 784.059 746.388C789.01 741.481 793.184 735.376 795.537 728.67C798.179 721.143 800.82 713.483 803.218 705.89C803.773 704.158 805.749 703.314 807.392 704.114L888.821 742.969C890.975 743.99 891.396 746.744 889.865 748.542C887.889 750.829 902.43 766.482 907.913 770.279C918.258 777.451 937.439 786.665 937.439 786.665L912.02 806.714C912.02 806.714 758.885 792.282 758.108 792.216C756.443 792.06 753.756 786.621 752.979 785.422C750.582 781.669 747.851 777.517 746.63 773.188C746.297 771.922 746.009 770.989 746.431 770.079Z" fill="#D05A94"/>
<path d="M816.605 572.627C816.605 572.627 784.615 562.102 787.145 591.255C789.676 620.408 796.025 639.414 825.152 620.408C854.3 601.402 816.605 572.627 816.605 572.627Z" fill="#F3EDE8"/>
<path d="M973.581 637.548C973.581 637.548 1006.57 644.365 989.853 668.389C973.137 692.413 958.196 705.734 942.367 674.739C926.561 643.721 973.581 637.548 973.581 637.548Z" fill="#F3EDE8"/>
<path d="M908.446 503.352C908.446 503.352 882.516 469.448 853.612 495.182C853.612 495.182 800.443 550.623 811.809 575.024L803.107 685.374L895.792 730.513L935.619 698.385L975.223 656.399C975.223 656.399 1029.55 563.545 989.054 533.815C989.032 533.837 943.522 482.903 908.446 503.352Z" fill="#2C56A5"/>
<path d="M1157.8 739.838C1157.8 739.838 1175.73 765.816 1148.54 770.168C1128.29 773.41 1114.84 780.603 1114.84 780.603L1024.06 911.735L1022.38 1014.54L1066.82 1013.69L1334.73 1014.54H1373.49L1369.27 910.048C1369.27 910.048 1382.44 783.712 1274.92 778.605C1274.92 778.605 1249.5 775.141 1242.07 761.753L1227.1 724.874L1157.8 739.838Z" fill="#F3EDE8"/>
<path d="M1124.94 776.918C1124.94 776.918 1135.04 805.56 1197.4 804.717C1259.74 803.873 1274.9 778.606 1274.9 778.606C1274.9 778.606 1340.61 780.293 1358.31 814.841C1376 849.389 1376 913.423 1376 913.423L1324.61 914.267C1324.61 914.267 1331.78 944.619 1334.71 1014.54H1058.38C1058.38 1014.54 1061.47 931.03 1068.49 912.58L1020.47 911.736C1020.47 911.736 1024.17 790.529 1086.18 781.137C1128.96 774.654 1124.94 776.918 1124.94 776.918Z" fill="#3859A6"/>
<path d="M1065.53 663.66C1065.53 663.66 1040.07 559.149 1132.51 530.951C1222.71 503.441 1255.01 581.974 1265.98 609.817L1257.9 617.854C1257.9 617.854 1214.81 533.482 1143.83 546.027C1081.27 557.084 1085.22 624.204 1080.7 674.739L1065.53 663.66Z" fill="#2C56A5"/>
<path d="M1083.78 694.678C1083.78 694.678 1099.83 725.873 1126.92 729.759L1146.92 751.784L1188.12 740.127L1199.44 727.338L1223.42 727.072L1246.95 720.589L1255.01 692.169C1255.01 692.169 1274.17 668.966 1262.67 641.457L1083.78 694.678Z" fill="#C97F2F"/>
<path d="M1078.99 696.831L1274.06 644.076L1265.82 609.817L1067.91 663.66L1078.99 696.831Z" fill="#D05A94"/>
<path d="M1078.03 663.66C1078.03 663.66 1054.61 532.35 1134.97 519.25C1219.89 505.418 1258.25 612.37 1258.25 612.37L1078.03 663.66Z" fill="#D63C37"/>
<path d="M1266.62 656.71C1266.62 656.71 1289.22 662.216 1285.69 640.368C1282.18 618.52 1281.61 605.642 1281.61 605.642C1281.61 605.642 1273.01 592.565 1255.5 604.355C1255.5 604.377 1249.73 658.775 1266.62 656.71Z" fill="#2C56A5"/>
<path d="M1067.26 646.985C1067.26 646.985 1044.07 648.495 1053.97 668.3C1063.87 688.105 1068.26 700.206 1068.26 700.206C1068.26 700.206 1080.36 710.108 1093.57 693.612C1093.55 693.612 1082.76 639.969 1067.26 646.985Z" fill="#2C56A5"/>
<path d="M542 357V303H553.98V327.02H566.02V303H578V357H566.02V332.98H553.98V357H542Z" fill="#F7C945"/>
<path d="M595.94 357V303H607.95V357H595.94Z" fill="#F7C945"/>
<path d="M625.98 357V314.98C625.98 311.7 627.16 308.88 629.51 306.53C631.86 304.18 634.68 303 637.96 303H650C653.28 303 656.1 304.18 658.45 306.54C660.8 308.9 661.98 311.71 661.98 314.98V357H650V332.98H637.96V357H625.98ZM637.96 327.02H650V314.98C650 313.35 649.4 311.95 648.21 310.77C647.02 309.6 645.61 309.01 643.98 309.01C642.33 309.01 640.91 309.6 639.73 310.77C638.55 311.94 637.96 313.34 637.96 314.98V327.02Z" fill="#F7C945"/>
<path d="M679.92 357V309.02H667.94V303H703.94V309.02H691.96V357H679.92Z" fill="#F7C945"/>
<path d="M733.98 303H745.96V345.02C745.96 348.26 744.78 351.07 742.43 353.44C740.08 355.81 737.26 357 733.98 357H721.94C718.66 357 715.84 355.82 713.49 353.47C711.14 351.12 709.96 348.3 709.96 345.02V303H721.94V345.02C721.94 346.63 722.53 348.03 723.7 349.21C724.87 350.39 726.29 350.98 727.96 350.98C729.63 350.98 731.05 350.39 732.22 349.21C733.39 348.03 733.98 346.63 733.98 345.02V303Z" fill="#F7C945"/>
<path d="M787.92 314.98H781.96C781.43 310.97 779.54 308.96 776.28 308.96C774.18 308.96 772.6 309.47 771.53 310.48C770.46 311.49 769.93 313 769.93 315.01C769.93 316.51 770.52 317.92 771.7 319.23L784.41 333.52C786.75 336.14 787.93 338.97 787.93 341.99V345.03C787.93 348.27 786.76 351.08 784.41 353.45C782.07 355.82 779.24 357.01 775.94 357.01H769.92C765.94 357.01 762.95 356.01 760.95 354C758.94 351.99 757.94 349 757.94 345.03H763.96C763.92 345.44 763.9 345.77 763.9 346.01C763.9 347.64 764.53 348.88 765.78 349.72C767.04 350.56 768.41 350.99 769.91 350.99C772.05 350.99 773.58 350.47 774.52 349.44C775.46 348.41 775.93 346.91 775.93 344.94C775.93 343.42 775.34 342.02 774.16 340.72L761.45 326.49C759.11 323.88 757.93 321.06 757.93 318.02V314.98C757.93 311.72 759.1 308.9 761.45 306.54C763.8 304.18 766.62 303 769.92 303H775.94C783.44 303 787.44 306.99 787.92 314.98Z" fill="#F7C945"/>
<path d="M368 419V388H381.71C383.575 388 385.184 388.672 386.536 390.032C387.871 391.393 388.539 393.012 388.539 394.872V398.333C388.539 400.211 387.871 401.829 386.519 403.19C385.167 404.551 383.575 405.205 381.71 405.205H374.829V419H368ZM374.829 401.795H378.269C379.194 401.795 379.998 401.451 380.683 400.779C381.367 400.09 381.71 399.281 381.71 398.351V394.872C381.71 393.942 381.367 393.132 380.683 392.461C379.998 391.789 379.194 391.462 378.269 391.462H374.829V401.795Z" fill="#F7C945"/>
<path d="M395.368 419V388H402.197V415.538H412.466V419H395.368Z" fill="#F7C945"/>
<path d="M419.347 419V394.872C419.347 392.994 420.014 391.376 421.367 390.015C422.702 388.672 424.31 388 426.176 388H433.039C434.905 388 436.514 388.672 437.866 390.032C439.218 391.393 439.886 393.012 439.886 394.872V419H433.057V405.205H426.193V419H419.347ZM426.176 401.795H433.039V394.872C433.039 393.942 432.697 393.132 432.012 392.461C431.328 391.789 430.541 391.462 429.616 391.462C428.675 391.462 427.871 391.806 427.186 392.478C426.518 393.149 426.176 393.959 426.176 394.889V401.795Z" fill="#F7C945"/>
<path d="M453.561 419V405.205C448.991 404.688 446.715 402.398 446.715 398.333V388H453.544V398.333C453.544 399.263 453.886 400.073 454.554 400.762C455.221 401.451 456.043 401.778 456.984 401.778C457.908 401.778 458.713 401.433 459.398 400.762C460.082 400.073 460.424 399.263 460.424 398.333V388H467.254V398.333C467.254 402.398 464.977 404.688 460.424 405.205V419H453.561Z" fill="#F7C945"/>
<path d="M484.13 419V388H501.228V391.462H490.959V401.795H497.822V405.222H490.959V415.556H501.228V419H484.13Z" fill="#F7C945"/>
<path d="M508.092 419V410.372C508.092 406.324 510.368 404.034 514.921 403.5C510.368 402.966 508.092 400.676 508.092 396.628V388H514.921V398.333C514.921 399.263 515.263 400.073 515.931 400.762C516.598 401.451 517.42 401.778 518.361 401.778C519.285 401.778 520.09 401.433 520.774 400.762C521.459 400.073 521.801 399.263 521.801 398.333V388H528.63V396.628C528.63 400.676 526.354 402.966 521.801 403.5C526.354 404.068 528.63 406.359 528.63 410.389V419H521.801V408.667C521.801 407.719 521.459 406.91 520.774 406.221C520.09 405.549 519.285 405.205 518.361 405.205C517.42 405.205 516.615 405.549 515.931 406.221C515.263 406.893 514.921 407.719 514.921 408.667V419H508.092Z" fill="#F7C945"/>
<path d="M535.494 419V388H549.203C551.069 388 552.678 388.672 554.03 390.032C555.365 391.393 556.05 392.994 556.05 394.872V398.333C556.05 400.211 555.382 401.829 554.03 403.19C552.678 404.551 551.086 405.222 549.203 405.222H542.34V419H535.494ZM542.34 401.795H545.78C546.704 401.795 547.509 401.451 548.193 400.779C548.878 400.09 549.22 399.281 549.22 398.351V394.872C549.22 393.942 548.878 393.132 548.193 392.461C547.509 391.789 546.704 391.444 545.78 391.444H542.34V401.795Z" fill="#F7C945"/>
<path d="M562.879 419V388H579.977V391.462H569.708V401.795H576.571V405.222H569.708V415.556H579.977V419H562.879Z" fill="#F7C945"/>
<path d="M586.841 419V388H600.55C602.416 388 604.025 388.672 605.377 390.032C606.712 391.393 607.396 392.994 607.396 394.872V396.749C607.396 398.282 606.866 399.763 605.822 401.192C604.778 402.622 603.015 403.328 600.567 403.328H603.973C604.915 403.328 605.719 403.672 606.404 404.344C607.071 405.016 607.414 405.842 607.414 406.789V419H600.584V408.667C600.584 407.719 600.242 406.91 599.557 406.221C598.873 405.549 598.068 405.205 597.144 405.205H593.704V419H586.841ZM593.687 401.795H597.127C598.051 401.795 598.856 401.451 599.54 400.779C600.225 400.09 600.567 399.281 600.567 398.351V394.872C600.567 393.942 600.225 393.132 599.54 392.461C598.856 391.789 598.051 391.444 597.127 391.444H593.687V401.795Z" fill="#F7C945"/>
<path d="M617.614 419V388H624.461V419H617.614Z" fill="#F7C945"/>
<path d="M634.764 419V388H651.863V391.462H641.594V401.795H648.457V405.222H641.594V415.556H651.863V419H634.764Z" fill="#F7C945"/>
<path d="M658.726 419V388H660.284L679.265 405.205V388H682.705V419H681.131L662.166 401.795V419H658.726Z" fill="#F7C945"/>
<path d="M710.073 412.128C709.765 416.709 707.489 419 703.244 419H696.381C694.515 419 692.906 418.328 691.554 416.968C690.219 415.624 689.534 414.006 689.534 412.111V394.872C689.534 393.012 690.202 391.41 691.52 390.049C692.838 388.689 694.464 388 696.381 388H703.244C707.54 388 709.816 390.291 710.073 394.872H706.633C706.359 392.581 705.229 391.444 703.227 391.444H699.787C698.845 391.444 698.041 391.789 697.356 392.461C696.689 393.132 696.346 393.942 696.346 394.872V412.111C696.346 413.041 696.689 413.833 697.356 414.522C698.024 415.211 698.828 415.538 699.787 415.538H703.227C705.229 415.538 706.376 414.402 706.633 412.111H710.073V412.128Z" fill="#F7C945"/>
<path d="M716.919 419V388H734.018V391.462H723.749V401.795H730.612V405.222H723.749V415.556H734.018V419H716.919Z" fill="#F7C945"/>
<path d="M754.317 419V388H761.163V419H754.317Z" fill="#F7C945"/>
<path d="M771.45 419V388H773.007L791.989 405.205V388H795.429V419H793.854L774.89 401.795V419H771.45Z" fill="#F7C945"/>
<path d="M812.288 419V388H829.386V391.462H819.117V401.795H825.98V405.222H819.117V415.556H829.386V419H812.288Z" fill="#F7C945"/>
<path d="M836.267 419V410.372C836.267 406.324 838.543 404.034 843.096 403.5C838.543 402.966 836.267 400.676 836.267 396.628V388H843.096V398.333C843.096 399.263 843.438 400.073 844.106 400.762C844.773 401.451 845.595 401.778 846.536 401.778C847.46 401.778 848.265 401.433 848.949 400.762C849.634 400.073 849.976 399.263 849.976 398.333V388H856.806V396.628C856.806 400.676 854.529 402.966 849.976 403.5C854.529 404.068 856.806 406.359 856.806 410.389V419H849.976V408.667C849.976 407.719 849.634 406.91 848.949 406.221C848.265 405.549 847.46 405.205 846.536 405.205C845.595 405.205 844.79 405.549 844.106 406.221C843.438 406.893 843.096 407.719 843.096 408.667V419H836.267Z" fill="#F7C945"/>
<path d="M863.669 419V388H880.767V391.462H870.498V401.795H877.361V405.222H870.498V415.556H880.767V419H863.669Z" fill="#F7C945"/>
<path d="M887.648 419V388H901.358C903.223 388 904.832 388.672 906.184 390.032C907.519 391.393 908.204 392.994 908.204 394.872V396.749C908.204 398.282 907.673 399.763 906.629 401.192C905.585 402.622 903.822 403.328 901.375 403.328H904.781C905.722 403.328 906.527 403.672 907.211 404.344C907.879 405.016 908.221 405.842 908.221 406.789V419H901.392V408.667C901.392 407.719 901.05 406.91 900.365 406.221C899.68 405.549 898.876 405.205 897.952 405.205H894.511V419H887.648ZM894.477 401.795H897.917C898.842 401.795 899.646 401.451 900.331 400.779C901.015 400.09 901.358 399.281 901.358 398.351V394.872C901.358 393.942 901.015 393.132 900.331 392.461C899.646 391.789 898.842 391.444 897.917 391.444H894.477V401.795Z" fill="#F7C945"/>
<path d="M935.555 412.128C935.246 416.709 932.97 419 928.725 419H921.862C919.996 419 918.388 418.328 917.035 416.968C915.7 415.624 915.016 414.006 915.016 412.111V394.872C915.016 393.012 915.683 391.41 917.001 390.049C918.319 388.689 919.945 388 921.845 388H928.708C933.004 388 935.281 390.291 935.537 394.872H932.097C931.823 392.581 930.694 391.444 928.691 391.444H925.251C924.31 391.444 923.505 391.789 922.82 392.461C922.153 393.132 921.811 393.942 921.811 394.872V412.111C921.811 413.041 922.153 413.833 922.82 414.522C923.488 415.211 924.292 415.538 925.251 415.538H928.691C930.694 415.538 931.84 414.402 932.097 412.111H935.555V412.128Z" fill="#F7C945"/>
<path d="M945.79 419V388H952.636V419H945.79Z" fill="#F7C945"/>
<path d="M980.038 394.872H976.632C976.324 392.564 975.246 391.41 973.397 391.41C972.199 391.41 971.292 391.703 970.693 392.288C970.077 392.874 969.786 393.735 969.786 394.889C969.786 395.75 970.128 396.559 970.796 397.317L978.053 405.515C979.388 407.031 980.055 408.649 980.055 410.372V412.111C980.055 413.971 979.388 415.59 978.053 416.951C976.718 418.311 975.109 419 973.226 419H969.786C967.51 419 965.815 418.432 964.668 417.278C963.522 416.124 962.957 414.402 962.957 412.128H966.397C966.38 412.369 966.363 412.559 966.363 412.697C966.363 413.627 966.722 414.35 967.441 414.832C968.16 415.314 968.947 415.556 969.803 415.556C971.018 415.556 971.908 415.263 972.439 414.66C972.969 414.057 973.243 413.213 973.243 412.077C973.243 411.198 972.901 410.389 972.233 409.648L964.976 401.485C963.641 399.987 962.974 398.368 962.974 396.628V394.872C962.974 392.994 963.641 391.376 964.976 390.032C966.311 388.672 967.92 388 969.803 388H973.243C977.471 388 979.764 390.291 980.038 394.872Z" fill="#F7C945"/>
<path d="M986.901 419V388H1004V391.462H993.731V401.795H1000.59V405.222H993.731V415.556H1004V419H986.901Z" fill="#F7C945"/>
</g>
<defs>
<clipPath id="clip0">
<rect width="1358" height="993" fill="white"/>
</clipPath>
</defs>
</svg>
