<svg width="66" height="71" viewBox="0 0 66 71" fill="none" xmlns="http://www.w3.org/2000/svg">
<path d="M24.2318 62.812C1.9602 59.0211 5.86958 37.1443 10.6082 26.6798C25.7719 6.77753 46.148 13.6486 53.256 21.3489C70.4335 45.0421 60.3639 58.4682 51.479 61.035C52.0713 63.9967 57.9946 69.92 53.256 69.92C49.465 69.92 45.3582 65.1813 43.7787 62.812H33.709C33.3142 64.7864 30.8659 68.9722 24.2318 69.92C17.5978 70.8677 21.4676 65.5762 24.2318 62.812Z" fill="#E7A44E"/>
<ellipse cx="21.9159" cy="40.8708" rx="5.33098" ry="6.51564" fill="white" fill-opacity="0.63"/>
<ellipse cx="23.6936" cy="40.8708" rx="3.55398" ry="4.14631" fill="black"/>
<ellipse cx="46.7948" cy="40.8708" rx="5.33098" ry="6.51564" fill="white" fill-opacity="0.63"/>
<path d="M1.13082 26.0875C-4.55555 14.2409 12.5825 8.51507 21.8624 7.13297C20.0854 4.96109 19.4931 0.498865 31.3397 0.0250003C43.1863 -0.448864 45.7531 5.93119 45.5557 9.18046C58.7533 4.0902 69.1862 16.1625 65.1026 20.7566C61.3117 25.0214 51.2815 19.7694 46.7403 16.6103C51.2815 24.1131 55.8622 38.5265 37.8554 36.1572C20.1939 33.8333 26.9209 21.8224 32.7745 15.7735C24.3385 24.2907 6.74017 37.7737 1.13082 26.0875Z" fill="#B4BC76"/>
<ellipse cx="45.0178" cy="40.8708" rx="3.55398" ry="4.14631" fill="black"/>
<path d="M39.2554 49.2086C34.8246 52.889 31.0828 50.6803 29.2381 49.196C29.0982 49.0834 28.8994 49.0828 28.7608 49.197C28.5866 49.3403 28.5795 49.6056 28.7506 49.7526C32.6134 53.0716 36.9314 52.1656 39.8282 49.8492C40.0572 49.6661 40.0238 49.3149 39.7725 49.1638C39.6101 49.0662 39.4011 49.0876 39.2554 49.2086Z" stroke="black"/>
<path d="M30.3019 38.5015C30.3019 45.0534 24.47 50.4404 17.1783 50.4404C9.88654 50.4404 4.05469 45.0534 4.05469 38.5015C4.05469 31.9496 9.88654 26.5626 17.1783 26.5626C24.47 26.5626 30.3019 31.9496 30.3019 38.5015Z" stroke="black"/>
<path d="M64.6564 37.9091C64.6564 44.8093 58.8019 50.4404 51.5328 50.4404C44.2636 50.4404 38.4092 44.8093 38.4092 37.9091C38.4092 31.009 44.2636 25.3779 51.5328 25.3779C58.8019 25.3779 64.6564 31.009 64.6564 37.9091Z" stroke="black"/>
<path d="M39.0945 41.4631C38.3655 41.9636 36.3242 42.8894 33.9913 42.5892C31.6584 42.2889 30.1032 41.7134 29.6172 41.4631" stroke="black"/>
</svg>
