<svg width="40" height="40" viewBox="0 0 40 40" fill="none" xmlns="http://www.w3.org/2000/svg">
<path fill-rule="evenodd" clip-rule="evenodd" d="M11.1369 22.4861C13.9012 20.7164 16.8444 19.8786 19.2115 20.0015V3.04414C19.2115 -1.02917 44.5284 7.31233 31.0449 19.437C33.716 14.0959 28.9924 9.93468 23.8674 10.1253V23.5971C23.8885 26.5298 21.8275 30.2377 17.7648 32.8389C12.8781 35.9664 7.43217 36.1846 5.6031 33.325C3.7719 30.4665 6.25127 25.6126 11.138 22.484L11.1369 22.4861Z" fill="#553CEE"/>
<path d="M20 0C31.015 0 40 8.985 40 20C40 31.015 31.015 40 20 40C8.985 40 0 31.015 0 20C0 8.985 8.985 0 20 0ZM20 5C16.7775 5 13.7675 6.02 11.3275 7.735L32.265 28.6725C33.98 26.2325 35 23.2225 35 20C35 11.685 28.315 5 20 5V5ZM7.735 11.3275C6.02 13.7675 5 16.7775 5 20C5 28.315 11.685 35 20 35C23.2225 35 26.2325 33.98 28.6725 32.265L7.735 11.3275Z" fill="#DE6D37"/>
</svg>
