<svg width="80" height="85" viewBox="0 0 80 85" fill="none" xmlns="http://www.w3.org/2000/svg">
<path d="M32.1888 23.4769C29.398 24.9011 21.6516 28.257 13.8897 26.2449C15.5862 18.4079 22.0693 13.0007 24.5973 11.1498C24.9188 10.9011 25.2586 10.6653 25.6157 10.4454C29.9369 7.78428 35.1551 8.41162 37.2703 11.8463C39.3856 15.2812 37.5972 20.2231 33.276 22.8842C32.9189 23.1041 32.5556 23.3017 32.1888 23.4769Z" fill="#3C6EEE" fill-opacity="0.74"/>
<path d="M46.3331 42.1215C42.679 42.0079 32.8829 41.1706 26.1844 35.6347C32.4487 29.6119 42.1543 28.0418 45.7895 27.6546C46.2596 27.5937 46.7407 27.5531 47.2301 27.5347C53.1523 27.3122 58.0763 30.3999 58.2277 34.4308C58.3792 38.462 53.7008 41.9102 47.7785 42.1327C47.2891 42.1511 46.8064 42.147 46.3331 42.1215Z" fill="#3C6EEE" fill-opacity="0.74"/>
<path d="M58.0165 62.093C55.6258 60.4977 49.486 55.7611 47.7986 48.2426C55.0428 45.6165 62.34 48.2401 64.9714 49.396C65.3172 49.5361 65.6601 49.6982 65.9973 49.8829C70.0778 52.118 71.8147 56.7984 69.8768 60.3361C67.9389 63.8742 63.0598 64.9302 58.9793 62.6951C58.6421 62.5104 58.3208 62.309 58.0165 62.093Z" fill="#3C6EEE" fill-opacity="0.74"/>
<path d="M30.4996 63.812C28.4499 61.7971 23.3059 55.9945 23.0565 48.293C30.6643 47.07 37.341 51.0139 39.7094 52.6422C40.0228 52.8446 40.3292 53.068 40.6259 53.3126C44.2156 56.2724 45.0452 61.1952 42.4791 64.3075C39.9128 67.4199 34.9223 67.5435 31.3326 64.5837C31.0359 64.3391 30.758 64.0811 30.4996 63.812Z" fill="#3C6EEE" fill-opacity="0.74"/>
</svg>
