<svg width="3051" height="984" viewBox="0 0 3051 984" fill="none" xmlns="http://www.w3.org/2000/svg">
<rect width="3051" height="941" fill="white"/>
<rect x="1110" y="41" width="748" height="736" rx="100" fill="#F7B140" fill-opacity="0.6"/>
<circle cx="1722.3" cy="417.461" r="2.6986" fill="#D05A94"/>
<path d="M1728.6 409.341C1728.6 368.166 1686.88 342.161 1645.16 342.702C1671.71 313.447 1686.88 265.77 1657.63 237.056C1628.37 207.8 1580.69 219.178 1550.9 248.975C1549.27 209.426 1525.97 165 1485.34 165C1444.17 165 1418.16 207.259 1418.7 248.975C1389.45 222.428 1341.77 207.259 1313.06 236.514C1283.8 265.77 1295.18 313.447 1324.98 342.702C1285.43 344.328 1241 367.624 1241 408.257C1241 449.432 1283.26 475.438 1324.43 474.896C1297.89 504.152 1282.72 551.828 1311.97 580.542C1341.23 609.798 1388.9 598.421 1418.7 568.623C1420.33 608.173 1443.62 652.598 1484.26 652.598C1525.43 652.598 1551.44 610.34 1550.9 568.623C1580.15 595.17 1627.83 610.34 1656.54 581.084C1685.8 551.828 1674.42 504.152 1644.62 474.896C1684.17 473.27 1728.6 449.974 1728.6 409.341ZM1484.8 490.607C1439.29 490.607 1402.99 453.766 1402.99 408.799C1402.99 363.29 1439.83 326.991 1484.8 326.991C1529.77 326.991 1566.61 363.29 1566.61 408.799C1566.61 454.308 1530.31 490.607 1484.8 490.607Z" fill="#DC7998"/>
<path d="M1602.5 377.996C1595.43 356.386 1569.07 349.902 1547.27 357.35C1556.18 337.437 1555.95 309.81 1535.67 299.764C1515.29 289.434 1492.22 303.593 1481.7 324.349C1474.05 303.871 1454.2 284.556 1432.87 291.535C1411.26 298.606 1404.87 325.251 1412.32 347.052C1392.41 338.144 1364.78 338.37 1354.73 358.656C1344.4 379.034 1358.56 402.102 1379.23 412.339C1358.75 419.985 1339.43 439.841 1346.41 461.166C1353.48 482.776 1380.13 489.167 1401.64 481.812C1392.74 501.725 1392.96 529.352 1413.25 539.398C1433.63 549.728 1456.7 535.569 1467.22 514.813C1474.86 535.291 1494.72 554.606 1516.04 547.627C1537.65 540.556 1544.04 513.911 1536.6 492.11C1556.51 501.019 1584.14 500.792 1594.18 480.506C1604.51 460.128 1590.35 437.06 1569.69 426.823C1590.17 419.177 1609.48 399.321 1602.5 377.996ZM1488.51 462.516C1464.62 470.332 1439.25 457.231 1431.52 433.631C1423.71 409.746 1436.81 384.368 1460.41 376.646C1484.01 368.923 1509.58 381.647 1517.39 405.531C1525.21 429.416 1512.39 454.701 1488.51 462.516Z" fill="#DE6D37"/>
<circle cx="1475.5" cy="420.5" r="50.5" fill="#553CEE"/>
<path d="M1382.1 844C1382.83 844 1383.47 844.267 1384 844.8C1384.53 845.333 1384.8 845.967 1384.8 846.7V911.3C1384.8 912.033 1384.53 912.667 1384 913.2C1383.47 913.733 1382.83 914 1382.1 914H1378C1377.27 914 1376.63 913.733 1376.1 913.2C1375.57 912.667 1375.3 912.033 1375.3 911.3V883.1H1340.1V911.3C1340.1 912.033 1339.83 912.667 1339.3 913.2C1338.77 913.733 1338.13 914 1337.4 914H1333.3C1332.57 914 1331.93 913.767 1331.4 913.3C1330.87 912.767 1330.6 912.1 1330.6 911.3V846.7C1330.6 845.967 1330.87 845.333 1331.4 844.8C1331.93 844.267 1332.57 844 1333.3 844H1337.4C1338.13 844 1338.77 844.267 1339.3 844.8C1339.83 845.333 1340.1 845.967 1340.1 846.7V874.1H1375.3V846.7C1375.3 845.967 1375.57 845.333 1376.1 844.8C1376.63 844.267 1377.27 844 1378 844H1382.1ZM1409.99 911.3C1409.99 912.033 1409.72 912.667 1409.19 913.2C1408.65 913.733 1408.02 914 1407.29 914H1403.59C1402.85 914 1402.22 913.733 1401.69 913.2C1401.15 912.667 1400.89 912.033 1400.89 911.3V864.7C1400.89 863.967 1401.15 863.333 1401.69 862.8C1402.22 862.267 1402.85 862 1403.59 862H1407.29C1408.02 862 1408.65 862.267 1409.19 862.8C1409.72 863.333 1409.99 863.967 1409.99 864.7V911.3ZM1410.99 851.4C1410.99 852.133 1410.72 852.767 1410.19 853.3C1409.65 853.833 1409.02 854.1 1408.29 854.1H1402.59C1401.85 854.1 1401.22 853.833 1400.69 853.3C1400.15 852.767 1399.89 852.133 1399.89 851.4V845.7C1399.89 844.967 1400.15 844.333 1400.69 843.8C1401.22 843.267 1401.85 843 1402.59 843H1408.29C1409.02 843 1409.65 843.267 1410.19 843.8C1410.72 844.333 1410.99 844.967 1410.99 845.7V851.4ZM1421.31 900.9C1421.31 898.233 1421.84 895.9 1422.91 893.9C1423.97 891.9 1425.44 890.2 1427.31 888.8C1429.17 887.4 1431.34 886.267 1433.81 885.4C1436.34 884.533 1439.01 883.867 1441.81 883.4L1455.91 881.1V879.8C1455.91 876.4 1454.77 873.867 1452.51 872.2C1450.31 870.467 1447.54 869.6 1444.21 869.6C1441.27 869.6 1439.04 870.133 1437.51 871.2C1436.04 872.267 1434.77 873.533 1433.71 875C1433.31 875.533 1432.87 875.9 1432.41 876.1C1431.94 876.3 1431.31 876.4 1430.51 876.4H1427.51C1426.77 876.4 1426.11 876.133 1425.51 875.6C1424.97 875.067 1424.74 874.433 1424.81 873.7C1424.94 872.233 1425.51 870.733 1426.51 869.2C1427.57 867.667 1428.97 866.3 1430.71 865.1C1432.51 863.9 1434.54 862.933 1436.81 862.2C1439.14 861.4 1441.61 861 1444.21 861C1447.21 861 1449.97 861.433 1452.51 862.3C1455.11 863.167 1457.31 864.433 1459.11 866.1C1460.97 867.767 1462.41 869.833 1463.41 872.3C1464.47 874.767 1465.01 877.6 1465.01 880.8V911.3C1465.01 912.033 1464.74 912.667 1464.21 913.2C1463.67 913.733 1463.04 914 1462.31 914H1458.61C1457.87 914 1457.24 913.733 1456.71 913.2C1456.17 912.667 1455.91 912.033 1455.91 911.3V907.2C1455.31 908.467 1454.37 909.6 1453.11 910.6C1451.84 911.533 1450.37 912.333 1448.71 913C1447.11 913.667 1445.41 914.167 1443.61 914.5C1441.87 914.833 1440.24 915 1438.71 915C1436.11 915 1433.71 914.633 1431.51 913.9C1429.37 913.167 1427.54 912.2 1426.01 911C1424.54 909.733 1423.37 908.233 1422.51 906.5C1421.71 904.767 1421.31 902.9 1421.31 900.9ZM1439.71 906.4C1442.11 906.4 1444.31 906.033 1446.31 905.3C1448.31 904.567 1450.01 903.567 1451.41 902.3C1452.87 900.967 1453.97 899.4 1454.71 897.6C1455.51 895.8 1455.91 893.8 1455.91 891.6V889.1L1444.11 891C1439.91 891.667 1436.57 892.733 1434.11 894.2C1431.64 895.667 1430.41 897.567 1430.41 899.9C1430.41 900.633 1430.57 901.367 1430.91 902.1C1431.24 902.833 1431.77 903.533 1432.51 904.2C1433.24 904.867 1434.17 905.4 1435.31 905.8C1436.51 906.2 1437.97 906.4 1439.71 906.4ZM1492.61 896.5C1492.61 897.767 1492.71 898.967 1492.91 900.1C1493.18 901.167 1493.61 902.1 1494.21 902.9C1494.81 903.7 1495.65 904.333 1496.71 904.8C1497.85 905.2 1499.28 905.4 1501.01 905.4H1506.31C1507.05 905.4 1507.68 905.667 1508.21 906.2C1508.75 906.733 1509.01 907.367 1509.01 908.1V911.3C1509.01 912.033 1508.75 912.667 1508.21 913.2C1507.68 913.733 1507.05 914 1506.31 914H1500.01C1494.21 914 1490.01 912.5 1487.41 909.5C1484.81 906.5 1483.51 902.167 1483.51 896.5V870.6H1476.11C1475.38 870.6 1474.75 870.333 1474.21 869.8C1473.68 869.267 1473.41 868.633 1473.41 867.9V864.7C1473.41 863.967 1473.68 863.333 1474.21 862.8C1474.75 862.267 1475.38 862 1476.11 862H1483.51V845.7C1483.51 844.967 1483.78 844.333 1484.31 843.8C1484.85 843.267 1485.48 843 1486.21 843H1489.91C1490.65 843 1491.28 843.267 1491.81 843.8C1492.35 844.333 1492.61 844.967 1492.61 845.7V862H1505.31C1506.05 862 1506.68 862.267 1507.21 862.8C1507.75 863.333 1508.01 863.967 1508.01 864.7V867.9C1508.01 868.633 1507.75 869.267 1507.21 869.8C1506.68 870.333 1506.05 870.6 1505.31 870.6H1492.61V896.5ZM1518.55 864.7C1518.55 863.967 1518.82 863.333 1519.35 862.8C1519.88 862.267 1520.52 862 1521.25 862H1524.95C1525.68 862 1526.32 862.267 1526.85 862.8C1527.38 863.333 1527.65 863.967 1527.65 864.7V891.1C1527.65 896.233 1528.78 900.067 1531.05 902.6C1533.38 905.133 1536.75 906.4 1541.15 906.4C1545.35 906.4 1548.65 905.133 1551.05 902.6C1553.45 900.067 1554.65 896.233 1554.65 891.1V864.7C1554.65 863.967 1554.92 863.333 1555.45 862.8C1555.98 862.267 1556.62 862 1557.35 862H1561.05C1561.78 862 1562.42 862.267 1562.95 862.8C1563.48 863.333 1563.75 863.967 1563.75 864.7V911.3C1563.75 912.033 1563.48 912.667 1562.95 913.2C1562.42 913.733 1561.78 914 1561.05 914H1557.35C1556.62 914 1555.98 913.733 1555.45 913.2C1554.92 912.667 1554.65 912.033 1554.65 911.3V908.2C1553.38 909.867 1551.58 911.433 1549.25 912.9C1546.92 914.3 1543.72 915 1539.65 915C1536.52 915 1533.65 914.5 1531.05 913.5C1528.45 912.433 1526.22 910.967 1524.35 909.1C1522.48 907.167 1521.05 904.833 1520.05 902.1C1519.05 899.3 1518.55 896.133 1518.55 892.6V864.7ZM1608.32 899.6C1608.32 898.333 1607.95 897.3 1607.22 896.5C1606.55 895.633 1605.52 894.9 1604.12 894.3C1602.72 893.7 1600.92 893.133 1598.72 892.6C1596.59 892.067 1594.09 891.5 1591.22 890.9C1585.82 889.767 1582.02 887.9 1579.82 885.3C1577.69 882.633 1576.62 879.533 1576.62 876C1576.62 874 1577.02 872.1 1577.82 870.3C1578.62 868.5 1579.82 866.9 1581.42 865.5C1583.02 864.1 1585.02 863 1587.42 862.2C1589.89 861.4 1592.75 861 1596.02 861C1599.29 861 1602.12 861.367 1604.52 862.1C1606.99 862.833 1609.05 863.767 1610.72 864.9C1612.39 866.033 1613.65 867.267 1614.52 868.6C1615.39 869.867 1615.85 871.1 1615.92 872.3C1615.99 873.033 1615.72 873.667 1615.12 874.2C1614.59 874.733 1613.95 875 1613.22 875H1609.92C1609.52 875 1609.02 874.933 1608.42 874.8C1607.89 874.6 1607.39 874.2 1606.92 873.6C1606.05 872.467 1604.75 871.533 1603.02 870.8C1601.35 870 1599.02 869.6 1596.02 869.6C1592.95 869.6 1590.45 870.167 1588.52 871.3C1586.65 872.433 1585.72 874 1585.72 876C1585.72 877.267 1585.99 878.3 1586.52 879.1C1587.05 879.833 1587.92 880.5 1589.12 881.1C1590.32 881.633 1591.89 882.133 1593.82 882.6C1595.82 883.067 1598.29 883.633 1601.22 884.3C1604.29 884.967 1606.85 885.833 1608.92 886.9C1610.99 887.9 1612.65 889.067 1613.92 890.4C1615.19 891.667 1616.09 893.1 1616.62 894.7C1617.15 896.233 1617.42 897.867 1617.42 899.6C1617.42 901.6 1616.92 903.533 1615.92 905.4C1614.99 907.267 1613.62 908.9 1611.82 910.3C1610.02 911.7 1607.82 912.833 1605.22 913.7C1602.69 914.567 1599.79 915 1596.52 915C1593.25 915 1590.35 914.6 1587.82 913.8C1585.29 913 1583.12 912.033 1581.32 910.9C1579.52 909.7 1578.12 908.433 1577.12 907.1C1576.19 905.7 1575.69 904.4 1575.62 903.2C1575.55 902.467 1575.79 901.833 1576.32 901.3C1576.85 900.767 1577.52 900.5 1578.32 900.5H1581.92C1582.32 900.5 1582.79 900.567 1583.32 900.7C1583.85 900.767 1584.35 901.133 1584.82 901.8C1585.89 903.267 1587.35 904.4 1589.22 905.2C1591.09 906 1593.52 906.4 1596.52 906.4C1597.99 906.4 1599.42 906.233 1600.82 905.9C1602.29 905.567 1603.55 905.1 1604.62 904.5C1605.75 903.9 1606.65 903.2 1607.32 902.4C1607.99 901.533 1608.32 900.6 1608.32 899.6Z" fill="black"/>
</svg>
