<svg width="437" height="90" viewBox="0 0 437 90" fill="none" xmlns="http://www.w3.org/2000/svg">
<rect width="437" height="90" fill="white"/>
<path d="M211.238 29V18.3359H214.724C215.881 18.3359 216.75 18.5752 217.332 19.0537C217.917 19.5322 218.21 20.2402 218.21 21.1777C218.21 21.6758 218.069 22.1177 217.786 22.5034C217.502 22.8843 217.117 23.1797 216.628 23.3896C217.205 23.5508 217.659 23.8584 217.991 24.3125C218.328 24.7617 218.496 25.2988 218.496 25.9238C218.496 26.8809 218.186 27.6328 217.566 28.1797C216.946 28.7266 216.069 29 214.937 29H211.238ZM212.644 24.0122V27.8501H214.966C215.62 27.8501 216.135 27.6816 216.511 27.3447C216.892 27.0029 217.083 26.5342 217.083 25.9385C217.083 24.6543 216.384 24.0122 214.988 24.0122H212.644ZM212.644 22.8843H214.768C215.383 22.8843 215.874 22.7305 216.24 22.4229C216.611 22.1152 216.797 21.6978 216.797 21.1704C216.797 20.5845 216.626 20.1597 216.284 19.896C215.942 19.6274 215.422 19.4932 214.724 19.4932H212.644V22.8843ZM220.012 24.9644C220.012 24.188 220.164 23.4897 220.466 22.8696C220.774 22.2495 221.199 21.771 221.741 21.4341C222.288 21.0972 222.91 20.9287 223.608 20.9287C224.688 20.9287 225.559 21.3022 226.223 22.0493C226.892 22.7964 227.227 23.79 227.227 25.0303V25.1255C227.227 25.897 227.078 26.5903 226.78 27.2056C226.487 27.8159 226.064 28.292 225.513 28.6338C224.966 28.9756 224.336 29.1465 223.623 29.1465C222.549 29.1465 221.677 28.7729 221.008 28.0259C220.344 27.2788 220.012 26.29 220.012 25.0596V24.9644ZM221.375 25.1255C221.375 26.0044 221.577 26.71 221.982 27.2422C222.393 27.7744 222.939 28.0405 223.623 28.0405C224.312 28.0405 224.858 27.772 225.264 27.2349C225.669 26.6929 225.872 25.936 225.872 24.9644C225.872 24.0952 225.664 23.3921 225.249 22.855C224.839 22.313 224.292 22.042 223.608 22.042C222.939 22.042 222.4 22.3081 221.99 22.8403C221.58 23.3726 221.375 24.1343 221.375 25.1255ZM228.596 24.9717C228.596 23.7559 228.884 22.7793 229.46 22.042C230.037 21.2998 230.791 20.9287 231.724 20.9287C232.651 20.9287 233.386 21.2461 233.928 21.8809V17.75H235.283V29H234.038L233.972 28.1504C233.43 28.8145 232.676 29.1465 231.709 29.1465C230.791 29.1465 230.042 28.7705 229.46 28.0186C228.884 27.2666 228.596 26.2852 228.596 25.0742V24.9717ZM229.951 25.1255C229.951 26.0239 230.137 26.7271 230.508 27.2349C230.879 27.7427 231.392 27.9966 232.046 27.9966C232.905 27.9966 233.533 27.6108 233.928 26.8394V23.1992C233.523 22.4521 232.9 22.0786 232.061 22.0786C231.396 22.0786 230.879 22.335 230.508 22.8477C230.137 23.3604 229.951 24.1196 229.951 25.1255ZM239.985 27.0151L241.831 21.0752H243.281L240.095 30.2231C239.602 31.5415 238.818 32.2007 237.744 32.2007L237.488 32.1787L236.982 32.0835V30.9849L237.349 31.0142C237.808 31.0142 238.164 30.9214 238.418 30.7358C238.677 30.5503 238.889 30.2109 239.055 29.7178L239.355 28.9121L236.528 21.0752H238.008L239.985 27.0151ZM251.572 24.2466C250.366 23.8999 249.487 23.4751 248.936 22.9722C248.389 22.4644 248.115 21.8394 248.115 21.0972C248.115 20.2573 248.45 19.564 249.119 19.0171C249.792 18.4653 250.667 18.1895 251.741 18.1895C252.473 18.1895 253.125 18.3311 253.696 18.6143C254.272 18.8975 254.717 19.2881 255.029 19.7861C255.347 20.2842 255.505 20.8286 255.505 21.4194H254.092C254.092 20.7749 253.887 20.2695 253.477 19.9033C253.066 19.5322 252.488 19.3467 251.741 19.3467C251.047 19.3467 250.505 19.5005 250.115 19.8081C249.729 20.1108 249.536 20.5332 249.536 21.0752C249.536 21.5098 249.719 21.8784 250.085 22.1812C250.457 22.479 251.084 22.7524 251.968 23.0015C252.856 23.2505 253.55 23.5264 254.048 23.8291C254.551 24.127 254.922 24.4761 255.161 24.8765C255.405 25.2769 255.527 25.748 255.527 26.29C255.527 27.1543 255.19 27.8477 254.517 28.3701C253.843 28.8877 252.942 29.1465 251.814 29.1465C251.082 29.1465 250.398 29.0073 249.763 28.729C249.128 28.4458 248.638 28.0601 248.291 27.5718C247.949 27.0835 247.778 26.5293 247.778 25.9092H249.192C249.192 26.5537 249.429 27.064 249.902 27.4399C250.381 27.811 251.018 27.9966 251.814 27.9966C252.556 27.9966 253.125 27.8452 253.521 27.5425C253.916 27.2397 254.114 26.8271 254.114 26.3047C254.114 25.7822 253.931 25.3794 253.564 25.0962C253.198 24.8081 252.534 24.5249 251.572 24.2466ZM258.962 19.1562V21.0752H260.442V22.1226H258.962V27.0371C258.962 27.3545 259.028 27.5938 259.16 27.7549C259.292 27.9111 259.517 27.9893 259.834 27.9893C259.99 27.9893 260.205 27.96 260.479 27.9014V29C260.122 29.0977 259.775 29.1465 259.438 29.1465C258.833 29.1465 258.376 28.9634 258.069 28.5972C257.761 28.231 257.607 27.7109 257.607 27.0371V22.1226H256.165V21.0752H257.607V19.1562H258.962ZM265.862 22.291C265.657 22.2568 265.435 22.2397 265.195 22.2397C264.307 22.2397 263.704 22.6182 263.386 23.375V29H262.031V21.0752H263.35L263.372 21.9907C263.816 21.2827 264.446 20.9287 265.261 20.9287C265.525 20.9287 265.725 20.9629 265.862 21.0312V22.291ZM270.256 29.1465C269.182 29.1465 268.308 28.7949 267.634 28.0918C266.96 27.3838 266.624 26.439 266.624 25.2573V25.0083C266.624 24.2222 266.772 23.5215 267.07 22.9062C267.373 22.2861 267.793 21.8027 268.33 21.4561C268.872 21.1045 269.458 20.9287 270.088 20.9287C271.118 20.9287 271.919 21.2681 272.49 21.9468C273.062 22.6255 273.347 23.5972 273.347 24.8618V25.4258H267.979C267.998 26.207 268.225 26.8394 268.66 27.3228C269.099 27.8013 269.656 28.0405 270.33 28.0405C270.808 28.0405 271.213 27.9429 271.545 27.7476C271.877 27.5522 272.168 27.2935 272.417 26.9712L273.245 27.6157C272.581 28.6362 271.584 29.1465 270.256 29.1465ZM270.088 22.042C269.541 22.042 269.082 22.2422 268.711 22.6426C268.34 23.0381 268.11 23.5947 268.022 24.3125H271.992V24.21C271.953 23.5215 271.768 22.9893 271.436 22.6133C271.104 22.2324 270.654 22.042 270.088 22.042ZM276.76 19.1562V21.0752H278.24V22.1226H276.76V27.0371C276.76 27.3545 276.826 27.5938 276.958 27.7549C277.09 27.9111 277.314 27.9893 277.632 27.9893C277.788 27.9893 278.003 27.96 278.276 27.9014V29C277.92 29.0977 277.573 29.1465 277.236 29.1465C276.631 29.1465 276.174 28.9634 275.867 28.5972C275.559 28.231 275.405 27.7109 275.405 27.0371V22.1226H273.962V21.0752H275.405V19.1562H276.76ZM283.008 28.0405C283.491 28.0405 283.914 27.894 284.275 27.6011C284.636 27.3081 284.836 26.9419 284.875 26.5024H286.157C286.133 26.9565 285.977 27.3887 285.688 27.7988C285.4 28.209 285.015 28.5361 284.531 28.7803C284.053 29.0244 283.545 29.1465 283.008 29.1465C281.929 29.1465 281.069 28.7876 280.43 28.0698C279.795 27.3472 279.478 26.3608 279.478 25.1108V24.8838C279.478 24.1123 279.619 23.4263 279.902 22.8257C280.186 22.2251 280.591 21.7588 281.118 21.4268C281.65 21.0947 282.278 20.9287 283 20.9287C283.889 20.9287 284.626 21.1948 285.212 21.7271C285.803 22.2593 286.118 22.9502 286.157 23.7998H284.875C284.836 23.2871 284.641 22.8672 284.29 22.54C283.943 22.208 283.513 22.042 283 22.042C282.312 22.042 281.777 22.291 281.396 22.7891C281.021 23.2822 280.833 23.9976 280.833 24.9351V25.1914C280.833 26.1045 281.021 26.8076 281.396 27.3008C281.772 27.7939 282.31 28.0405 283.008 28.0405ZM289.036 22.0347C289.636 21.2974 290.417 20.9287 291.379 20.9287C293.054 20.9287 293.899 21.8735 293.914 23.7632V29H292.559V23.7559C292.554 23.1846 292.422 22.7622 292.163 22.4888C291.909 22.2153 291.511 22.0786 290.969 22.0786C290.53 22.0786 290.144 22.1958 289.812 22.4302C289.48 22.6646 289.221 22.9722 289.036 23.353V29H287.681V17.75H289.036V22.0347ZM299.231 29.1465C298.157 29.1465 297.283 28.7949 296.609 28.0918C295.935 27.3838 295.598 26.439 295.598 25.2573V25.0083C295.598 24.2222 295.747 23.5215 296.045 22.9062C296.348 22.2861 296.768 21.8027 297.305 21.4561C297.847 21.1045 298.433 20.9287 299.062 20.9287C300.093 20.9287 300.894 21.2681 301.465 21.9468C302.036 22.6255 302.322 23.5972 302.322 24.8618V25.4258H296.953C296.973 26.207 297.2 26.8394 297.634 27.3228C298.074 27.8013 298.63 28.0405 299.304 28.0405C299.783 28.0405 300.188 27.9429 300.52 27.7476C300.852 27.5522 301.143 27.2935 301.392 26.9712L302.219 27.6157C301.555 28.6362 300.559 29.1465 299.231 29.1465ZM299.062 22.042C298.516 22.042 298.057 22.2422 297.686 22.6426C297.314 23.0381 297.085 23.5947 296.997 24.3125H300.967V24.21C300.928 23.5215 300.742 22.9893 300.41 22.6133C300.078 22.2324 299.629 22.042 299.062 22.042ZM308.511 26.8979C308.511 26.5317 308.372 26.2485 308.093 26.0483C307.82 25.8433 307.339 25.6675 306.65 25.521C305.967 25.3745 305.422 25.1987 305.017 24.9937C304.617 24.7886 304.319 24.5444 304.124 24.2612C303.933 23.978 303.838 23.6411 303.838 23.2505C303.838 22.6011 304.111 22.0518 304.658 21.6025C305.21 21.1533 305.913 20.9287 306.768 20.9287C307.666 20.9287 308.394 21.1606 308.95 21.6245C309.512 22.0884 309.792 22.6816 309.792 23.4043H308.43C308.43 23.0332 308.271 22.7134 307.954 22.4448C307.642 22.1763 307.246 22.042 306.768 22.042C306.274 22.042 305.889 22.1494 305.61 22.3643C305.332 22.5791 305.193 22.8599 305.193 23.2065C305.193 23.5337 305.322 23.7803 305.581 23.9463C305.84 24.1123 306.306 24.271 306.98 24.4224C307.659 24.5737 308.208 24.7544 308.628 24.9644C309.048 25.1743 309.358 25.4282 309.558 25.7261C309.763 26.019 309.866 26.3779 309.866 26.8027C309.866 27.5107 309.583 28.0796 309.016 28.5093C308.45 28.9341 307.715 29.1465 306.812 29.1465C306.177 29.1465 305.615 29.0342 305.127 28.8096C304.639 28.585 304.255 28.2725 303.977 27.8721C303.704 27.4668 303.567 27.0298 303.567 26.561H304.922C304.946 27.0151 305.127 27.3765 305.464 27.645C305.806 27.9087 306.255 28.0405 306.812 28.0405C307.324 28.0405 307.734 27.938 308.042 27.7329C308.354 27.5229 308.511 27.2446 308.511 26.8979ZM255.835 47.2798H258.809V48.5615H255.835V51.9307H254.473V48.5615H251.499V47.2798H254.473V44.167H255.835V47.2798ZM211.238 77V66.3359H214.724C215.881 66.3359 216.75 66.5752 217.332 67.0537C217.917 67.5322 218.21 68.2402 218.21 69.1777C218.21 69.6758 218.069 70.1177 217.786 70.5034C217.502 70.8843 217.117 71.1797 216.628 71.3896C217.205 71.5508 217.659 71.8584 217.991 72.3125C218.328 72.7617 218.496 73.2988 218.496 73.9238C218.496 74.8809 218.186 75.6328 217.566 76.1797C216.946 76.7266 216.069 77 214.937 77H211.238ZM212.644 72.0122V75.8501H214.966C215.62 75.8501 216.135 75.6816 216.511 75.3447C216.892 75.0029 217.083 74.5342 217.083 73.9385C217.083 72.6543 216.384 72.0122 214.988 72.0122H212.644ZM212.644 70.8843H214.768C215.383 70.8843 215.874 70.7305 216.24 70.4229C216.611 70.1152 216.797 69.6978 216.797 69.1704C216.797 68.5845 216.626 68.1597 216.284 67.896C215.942 67.6274 215.422 67.4932 214.724 67.4932H212.644V70.8843ZM224.202 70.291C223.997 70.2568 223.774 70.2397 223.535 70.2397C222.646 70.2397 222.043 70.6182 221.726 71.375V77H220.371V69.0752H221.689L221.711 69.9907C222.156 69.2827 222.786 68.9287 223.601 68.9287C223.865 68.9287 224.065 68.9629 224.202 69.0312V70.291ZM228.596 77.1465C227.522 77.1465 226.648 76.7949 225.974 76.0918C225.3 75.3838 224.963 74.439 224.963 73.2573V73.0083C224.963 72.2222 225.112 71.5215 225.41 70.9062C225.713 70.2861 226.133 69.8027 226.67 69.4561C227.212 69.1045 227.798 68.9287 228.428 68.9287C229.458 68.9287 230.259 69.2681 230.83 69.9468C231.401 70.6255 231.687 71.5972 231.687 72.8618V73.4258H226.318C226.338 74.207 226.565 74.8394 227 75.3228C227.439 75.8013 227.996 76.0405 228.669 76.0405C229.148 76.0405 229.553 75.9429 229.885 75.7476C230.217 75.5522 230.508 75.2935 230.757 74.9712L231.584 75.6157C230.92 76.6362 229.924 77.1465 228.596 77.1465ZM228.428 70.042C227.881 70.042 227.422 70.2422 227.051 70.6426C226.68 71.0381 226.45 71.5947 226.362 72.3125H230.332V72.21C230.293 71.5215 230.107 70.9893 229.775 70.6133C229.443 70.2324 228.994 70.042 228.428 70.042ZM238.154 77C238.076 76.8438 238.013 76.5654 237.964 76.165C237.334 76.8193 236.582 77.1465 235.708 77.1465C234.927 77.1465 234.285 76.9268 233.782 76.4873C233.284 76.043 233.035 75.4814 233.035 74.8027C233.035 73.9775 233.347 73.3379 233.972 72.8838C234.602 72.4248 235.486 72.1953 236.624 72.1953H237.942V71.5728C237.942 71.0991 237.8 70.7231 237.517 70.4448C237.234 70.1616 236.816 70.02 236.265 70.02C235.781 70.02 235.376 70.1421 235.049 70.3862C234.722 70.6304 234.558 70.9258 234.558 71.2725H233.196C233.196 70.877 233.335 70.4961 233.613 70.1299C233.896 69.7588 234.277 69.4658 234.756 69.251C235.239 69.0361 235.769 68.9287 236.345 68.9287C237.258 68.9287 237.974 69.1582 238.491 69.6172C239.009 70.0713 239.277 70.6987 239.297 71.4995V75.147C239.297 75.8745 239.39 76.4531 239.575 76.8828V77H238.154ZM235.906 75.9673C236.331 75.9673 236.733 75.8574 237.114 75.6377C237.495 75.418 237.771 75.1323 237.942 74.7808V73.1548H236.88C235.22 73.1548 234.39 73.6406 234.39 74.6123C234.39 75.0371 234.531 75.3691 234.814 75.6084C235.098 75.8477 235.461 75.9673 235.906 75.9673ZM243.633 73.3306L242.783 74.2168V77H241.428V65.75H242.783V72.5542L243.508 71.6826L245.977 69.0752H247.625L244.541 72.3857L247.983 77H246.394L243.633 73.3306ZM256.868 72.686H254.363V77H252.949V66.3359H256.479C257.681 66.3359 258.604 66.6094 259.248 67.1562C259.897 67.7031 260.222 68.499 260.222 69.5439C260.222 70.208 260.042 70.7866 259.68 71.2798C259.324 71.7729 258.826 72.1416 258.186 72.3857L260.691 76.9121V77H259.182L256.868 72.686ZM254.363 71.5361H256.523C257.222 71.5361 257.776 71.3555 258.186 70.9941C258.601 70.6328 258.809 70.1494 258.809 69.5439C258.809 68.8848 258.611 68.3794 258.215 68.0278C257.825 67.6763 257.258 67.498 256.516 67.4932H254.363V71.5361ZM265.276 77.1465C264.202 77.1465 263.328 76.7949 262.654 76.0918C261.98 75.3838 261.643 74.439 261.643 73.2573V73.0083C261.643 72.2222 261.792 71.5215 262.09 70.9062C262.393 70.2861 262.812 69.8027 263.35 69.4561C263.892 69.1045 264.478 68.9287 265.107 68.9287C266.138 68.9287 266.938 69.2681 267.51 69.9468C268.081 70.6255 268.367 71.5972 268.367 72.8618V73.4258H262.998C263.018 74.207 263.245 74.8394 263.679 75.3228C264.119 75.8013 264.675 76.0405 265.349 76.0405C265.828 76.0405 266.233 75.9429 266.565 75.7476C266.897 75.5522 267.188 75.2935 267.437 74.9712L268.264 75.6157C267.6 76.6362 266.604 77.1465 265.276 77.1465ZM265.107 70.042C264.561 70.042 264.102 70.2422 263.73 70.6426C263.359 71.0381 263.13 71.5947 263.042 72.3125H267.012V72.21C266.973 71.5215 266.787 70.9893 266.455 70.6133C266.123 70.2324 265.674 70.042 265.107 70.042ZM271.216 69.0752L271.252 69.9541C271.833 69.2705 272.617 68.9287 273.604 68.9287C274.712 68.9287 275.466 69.3535 275.867 70.2031C276.13 69.8223 276.472 69.5146 276.892 69.2803C277.317 69.0459 277.817 68.9287 278.394 68.9287C280.132 68.9287 281.016 69.8491 281.045 71.6899V77H279.69V71.7705C279.69 71.2041 279.561 70.7817 279.302 70.5034C279.043 70.2202 278.608 70.0786 277.998 70.0786C277.495 70.0786 277.078 70.23 276.746 70.5327C276.414 70.8306 276.221 71.2334 276.167 71.7412V77H274.805V71.8071C274.805 70.6548 274.241 70.0786 273.113 70.0786C272.224 70.0786 271.616 70.457 271.289 71.2139V77H269.934V69.0752H271.216ZM284.568 77H283.213V69.0752H284.568V77ZM283.103 66.9731C283.103 66.7534 283.169 66.5679 283.301 66.4165C283.438 66.2651 283.638 66.1895 283.901 66.1895C284.165 66.1895 284.365 66.2651 284.502 66.4165C284.639 66.5679 284.707 66.7534 284.707 66.9731C284.707 67.1929 284.639 67.376 284.502 67.5225C284.365 67.6689 284.165 67.7422 283.901 67.7422C283.638 67.7422 283.438 67.6689 283.301 67.5225C283.169 67.376 283.103 67.1929 283.103 66.9731ZM288.025 69.0752L288.069 70.0713C288.674 69.3096 289.465 68.9287 290.442 68.9287C292.117 68.9287 292.961 69.8735 292.976 71.7632V77H291.621V71.7559C291.616 71.1846 291.484 70.7622 291.226 70.4888C290.972 70.2153 290.574 70.0786 290.032 70.0786C289.592 70.0786 289.207 70.1958 288.875 70.4302C288.542 70.6646 288.284 70.9722 288.098 71.353V77H286.743V69.0752H288.025ZM294.69 72.9717C294.69 71.7559 294.978 70.7793 295.554 70.042C296.13 69.2998 296.885 68.9287 297.817 68.9287C298.745 68.9287 299.48 69.2461 300.022 69.8809V65.75H301.377V77H300.132L300.066 76.1504C299.524 76.8145 298.77 77.1465 297.803 77.1465C296.885 77.1465 296.135 76.7705 295.554 76.0186C294.978 75.2666 294.69 74.2852 294.69 73.0742V72.9717ZM296.045 73.1255C296.045 74.0239 296.23 74.7271 296.602 75.2349C296.973 75.7427 297.485 75.9966 298.14 75.9966C298.999 75.9966 299.626 75.6108 300.022 74.8394V71.1992C299.617 70.4521 298.994 70.0786 298.154 70.0786C297.49 70.0786 296.973 70.335 296.602 70.8477C296.23 71.3604 296.045 72.1196 296.045 73.1255ZM306.775 77.1465C305.701 77.1465 304.827 76.7949 304.153 76.0918C303.479 75.3838 303.142 74.439 303.142 73.2573V73.0083C303.142 72.2222 303.291 71.5215 303.589 70.9062C303.892 70.2861 304.312 69.8027 304.849 69.4561C305.391 69.1045 305.977 68.9287 306.606 68.9287C307.637 68.9287 308.438 69.2681 309.009 69.9468C309.58 70.6255 309.866 71.5972 309.866 72.8618V73.4258H304.497C304.517 74.207 304.744 74.8394 305.178 75.3228C305.618 75.8013 306.174 76.0405 306.848 76.0405C307.327 76.0405 307.732 75.9429 308.064 75.7476C308.396 75.5522 308.687 75.2935 308.936 74.9712L309.763 75.6157C309.099 76.6362 308.103 77.1465 306.775 77.1465ZM306.606 70.042C306.06 70.042 305.601 70.2422 305.229 70.6426C304.858 71.0381 304.629 71.5947 304.541 72.3125H308.511V72.21C308.472 71.5215 308.286 70.9893 307.954 70.6133C307.622 70.2324 307.173 70.042 306.606 70.042ZM315.271 70.291C315.066 70.2568 314.844 70.2397 314.604 70.2397C313.716 70.2397 313.113 70.6182 312.795 71.375V77H311.44V69.0752H312.759L312.781 69.9907C313.225 69.2827 313.855 68.9287 314.67 68.9287C314.934 68.9287 315.134 68.9629 315.271 69.0312V70.291Z" fill="black"/>
<path d="M133.148 50.1348C132.667 50.8249 131.993 51.3424 131.127 51.6875C130.268 52.026 129.265 52.1953 128.119 52.1953C126.96 52.1953 125.932 51.9251 125.033 51.3848C124.135 50.8379 123.438 50.0632 122.943 49.0605C122.455 48.0579 122.204 46.8958 122.191 45.5742V44.334C122.191 42.1921 122.689 40.5319 123.686 39.3535C124.688 38.1751 126.094 37.5859 127.904 37.5859C129.389 37.5859 130.583 37.9668 131.488 38.7285C132.393 39.4837 132.947 40.5579 133.148 41.9512H131.273C130.922 40.0697 129.802 39.1289 127.914 39.1289C126.658 39.1289 125.704 39.5716 125.053 40.457C124.408 41.3359 124.083 42.612 124.076 44.2852V45.4473C124.076 47.0423 124.441 48.3118 125.17 49.2559C125.899 50.1934 126.885 50.6621 128.129 50.6621C128.832 50.6621 129.447 50.584 129.975 50.4277C130.502 50.2715 130.938 50.0078 131.283 49.6367V46.4434H127.992V44.9199H133.148V50.1348ZM142.523 52C142.419 51.7917 142.335 51.4206 142.27 50.8867C141.43 51.7591 140.427 52.1953 139.262 52.1953C138.22 52.1953 137.364 51.9023 136.693 51.3164C136.029 50.724 135.697 49.9753 135.697 49.0703C135.697 47.9701 136.114 47.1172 136.947 46.5117C137.787 45.8997 138.965 45.5938 140.482 45.5938H142.24V44.7637C142.24 44.1322 142.051 43.6309 141.674 43.2598C141.296 42.8822 140.74 42.6934 140.004 42.6934C139.359 42.6934 138.819 42.8561 138.383 43.1816C137.947 43.5072 137.729 43.901 137.729 44.3633H135.912C135.912 43.8359 136.098 43.3281 136.469 42.8398C136.846 42.3451 137.354 41.9544 137.992 41.668C138.637 41.3815 139.343 41.2383 140.111 41.2383C141.329 41.2383 142.283 41.5443 142.973 42.1562C143.663 42.7617 144.021 43.5983 144.047 44.666V49.5293C144.047 50.4993 144.171 51.2708 144.418 51.8438V52H142.523ZM139.525 50.623C140.092 50.623 140.629 50.4766 141.137 50.1836C141.645 49.8906 142.012 49.5098 142.24 49.041V46.873H140.824C138.611 46.873 137.504 47.5208 137.504 48.8164C137.504 49.3828 137.693 49.8255 138.07 50.1445C138.448 50.4635 138.933 50.623 139.525 50.623ZM148.578 41.4336L148.627 42.6055C149.402 41.694 150.447 41.2383 151.762 41.2383C153.24 41.2383 154.245 41.8047 154.779 42.9375C155.131 42.4297 155.587 42.0195 156.146 41.707C156.713 41.3945 157.38 41.2383 158.148 41.2383C160.466 41.2383 161.645 42.4655 161.684 44.9199V52H159.877V45.0273C159.877 44.2721 159.704 43.709 159.359 43.3379C159.014 42.9603 158.435 42.7715 157.621 42.7715C156.951 42.7715 156.394 42.9733 155.951 43.377C155.508 43.7741 155.251 44.3112 155.18 44.9883V52H153.363V45.0762C153.363 43.5397 152.611 42.7715 151.107 42.7715C149.923 42.7715 149.112 43.276 148.676 44.2852V52H146.869V41.4336H148.578ZM166.381 52H164.574V41.4336H166.381V52ZM164.428 38.6309C164.428 38.3379 164.516 38.0905 164.691 37.8887C164.874 37.6868 165.141 37.5859 165.492 37.5859C165.844 37.5859 166.111 37.6868 166.293 37.8887C166.475 38.0905 166.566 38.3379 166.566 38.6309C166.566 38.9238 166.475 39.168 166.293 39.3633C166.111 39.5586 165.844 39.6562 165.492 39.6562C165.141 39.6562 164.874 39.5586 164.691 39.3633C164.516 39.168 164.428 38.9238 164.428 38.6309ZM170.17 52V42.8301H168.5V41.4336H170.17V40.3496C170.17 39.2168 170.473 38.3411 171.078 37.7227C171.684 37.1042 172.54 36.7949 173.646 36.7949C174.063 36.7949 174.477 36.8503 174.887 36.9609L174.789 38.4258C174.483 38.3672 174.158 38.3379 173.812 38.3379C173.227 38.3379 172.774 38.5104 172.455 38.8555C172.136 39.194 171.977 39.6823 171.977 40.3203V41.4336H174.232V42.8301H171.977V52H170.17ZM179.691 49.3535L182.152 41.4336H184.086L179.838 53.6309C179.18 55.3887 178.135 56.2676 176.703 56.2676L176.361 56.2383L175.688 56.1113V54.6465L176.176 54.6855C176.788 54.6855 177.263 54.5618 177.602 54.3145C177.947 54.0671 178.23 53.6146 178.451 52.957L178.852 51.8828L175.082 41.4336H177.055L179.691 49.3535Z" fill="#553CEE"/>
</svg>
