<svg width="368" height="125" viewBox="0 0 368 125" fill="none" xmlns="http://www.w3.org/2000/svg">
<rect width="368" height="97" fill="white"/>
<path d="M150.434 36H149.02L143.651 27.7822V36H142.238V25.3359H143.651L149.035 33.5903V25.3359H150.434V36ZM156.007 36.1465C154.933 36.1465 154.059 35.7949 153.385 35.0918C152.711 34.3838 152.375 33.439 152.375 32.2573V32.0083C152.375 31.2222 152.523 30.5215 152.821 29.9062C153.124 29.2861 153.544 28.8027 154.081 28.4561C154.623 28.1045 155.209 27.9287 155.839 27.9287C156.869 27.9287 157.67 28.2681 158.241 28.9468C158.812 29.6255 159.098 30.5972 159.098 31.8618V32.4258H153.729C153.749 33.207 153.976 33.8394 154.411 34.3228C154.85 34.8013 155.407 35.0405 156.081 35.0405C156.559 35.0405 156.964 34.9429 157.296 34.7476C157.628 34.5522 157.919 34.2935 158.168 33.9712L158.996 34.6157C158.332 35.6362 157.335 36.1465 156.007 36.1465ZM155.839 29.042C155.292 29.042 154.833 29.2422 154.462 29.6426C154.091 30.0381 153.861 30.5947 153.773 31.3125H157.743V31.21C157.704 30.5215 157.519 29.9893 157.187 29.6133C156.854 29.2324 156.405 29.042 155.839 29.042ZM163.852 35.0405C164.335 35.0405 164.757 34.894 165.119 34.6011C165.48 34.3081 165.68 33.9419 165.719 33.5024H167.001C166.977 33.9565 166.82 34.3887 166.532 34.7988C166.244 35.209 165.858 35.5361 165.375 35.7803C164.896 36.0244 164.389 36.1465 163.852 36.1465C162.772 36.1465 161.913 35.7876 161.273 35.0698C160.639 34.3472 160.321 33.3608 160.321 32.1108V31.8838C160.321 31.1123 160.463 30.4263 160.746 29.8257C161.029 29.2251 161.435 28.7588 161.962 28.4268C162.494 28.0947 163.122 27.9287 163.844 27.9287C164.733 27.9287 165.47 28.1948 166.056 28.7271C166.647 29.2593 166.962 29.9502 167.001 30.7998H165.719C165.68 30.2871 165.485 29.8672 165.133 29.54C164.787 29.208 164.357 29.042 163.844 29.042C163.156 29.042 162.621 29.291 162.24 29.7891C161.864 30.2822 161.676 30.9976 161.676 31.9351V32.1914C161.676 33.1045 161.864 33.8076 162.24 34.3008C162.616 34.7939 163.153 35.0405 163.852 35.0405ZM170.736 32.3306L169.887 33.2168V36H168.532V24.75H169.887V31.5542L170.612 30.6826L173.08 28.0752H174.728L171.645 31.3857L175.087 36H173.498L170.736 32.3306ZM184.462 33.8979C184.462 33.5317 184.323 33.2485 184.044 33.0483C183.771 32.8433 183.29 32.6675 182.602 32.521C181.918 32.3745 181.374 32.1987 180.968 31.9937C180.568 31.7886 180.27 31.5444 180.075 31.2612C179.884 30.978 179.789 30.6411 179.789 30.2505C179.789 29.6011 180.062 29.0518 180.609 28.6025C181.161 28.1533 181.864 27.9287 182.719 27.9287C183.617 27.9287 184.345 28.1606 184.901 28.6245C185.463 29.0884 185.744 29.6816 185.744 30.4043H184.381C184.381 30.0332 184.223 29.7134 183.905 29.4448C183.593 29.1763 183.197 29.042 182.719 29.042C182.226 29.042 181.84 29.1494 181.562 29.3643C181.283 29.5791 181.144 29.8599 181.144 30.2065C181.144 30.5337 181.273 30.7803 181.532 30.9463C181.791 31.1123 182.257 31.271 182.931 31.4224C183.61 31.5737 184.159 31.7544 184.579 31.9644C184.999 32.1743 185.309 32.4282 185.509 32.7261C185.714 33.019 185.817 33.3779 185.817 33.8027C185.817 34.5107 185.534 35.0796 184.967 35.5093C184.401 35.9341 183.666 36.1465 182.763 36.1465C182.128 36.1465 181.566 36.0342 181.078 35.8096C180.59 35.585 180.207 35.2725 179.928 34.8721C179.655 34.4668 179.518 34.0298 179.518 33.561H180.873C180.897 34.0151 181.078 34.3765 181.415 34.645C181.757 34.9087 182.206 35.0405 182.763 35.0405C183.275 35.0405 183.686 34.938 183.993 34.7329C184.306 34.5229 184.462 34.2446 184.462 33.8979ZM189.42 26.1562V28.0752H190.9V29.1226H189.42V34.0371C189.42 34.3545 189.486 34.5938 189.618 34.7549C189.75 34.9111 189.975 34.9893 190.292 34.9893C190.448 34.9893 190.663 34.96 190.937 34.9014V36C190.58 36.0977 190.233 36.1465 189.896 36.1465C189.291 36.1465 188.834 35.9634 188.527 35.5972C188.219 35.231 188.065 34.7109 188.065 34.0371V29.1226H186.623V28.0752H188.065V26.1562H189.42ZM196.32 29.291C196.115 29.2568 195.893 29.2397 195.653 29.2397C194.765 29.2397 194.162 29.6182 193.844 30.375V36H192.489V28.0752H193.808L193.83 28.9907C194.274 28.2827 194.904 27.9287 195.719 27.9287C195.983 27.9287 196.183 27.9629 196.32 28.0312V29.291ZM200.714 36.1465C199.64 36.1465 198.766 35.7949 198.092 35.0918C197.418 34.3838 197.082 33.439 197.082 32.2573V32.0083C197.082 31.2222 197.23 30.5215 197.528 29.9062C197.831 29.2861 198.251 28.8027 198.788 28.4561C199.33 28.1045 199.916 27.9287 200.546 27.9287C201.576 27.9287 202.377 28.2681 202.948 28.9468C203.52 29.6255 203.805 30.5972 203.805 31.8618V32.4258H198.437C198.456 33.207 198.683 33.8394 199.118 34.3228C199.557 34.8013 200.114 35.0405 200.788 35.0405C201.266 35.0405 201.671 34.9429 202.003 34.7476C202.335 34.5522 202.626 34.2935 202.875 33.9712L203.703 34.6157C203.039 35.6362 202.042 36.1465 200.714 36.1465ZM200.546 29.042C199.999 29.042 199.54 29.2422 199.169 29.6426C198.798 30.0381 198.568 30.5947 198.48 31.3125H202.45V31.21C202.411 30.5215 202.226 29.9893 201.894 29.6133C201.562 29.2324 201.112 29.042 200.546 29.042ZM207.218 26.1562V28.0752H208.698V29.1226H207.218V34.0371C207.218 34.3545 207.284 34.5938 207.416 34.7549C207.548 34.9111 207.772 34.9893 208.09 34.9893C208.246 34.9893 208.461 34.96 208.734 34.9014V36C208.378 36.0977 208.031 36.1465 207.694 36.1465C207.089 36.1465 206.632 35.9634 206.325 35.5972C206.017 35.231 205.863 34.7109 205.863 34.0371V29.1226H204.42V28.0752H205.863V26.1562H207.218ZM213.466 35.0405C213.949 35.0405 214.372 34.894 214.733 34.6011C215.094 34.3081 215.294 33.9419 215.333 33.5024H216.615C216.591 33.9565 216.435 34.3887 216.146 34.7988C215.858 35.209 215.473 35.5361 214.989 35.7803C214.511 36.0244 214.003 36.1465 213.466 36.1465C212.387 36.1465 211.527 35.7876 210.888 35.0698C210.253 34.3472 209.936 33.3608 209.936 32.1108V31.8838C209.936 31.1123 210.077 30.4263 210.36 29.8257C210.644 29.2251 211.049 28.7588 211.576 28.4268C212.108 28.0947 212.736 27.9287 213.458 27.9287C214.347 27.9287 215.084 28.1948 215.67 28.7271C216.261 29.2593 216.576 29.9502 216.615 30.7998H215.333C215.294 30.2871 215.099 29.8672 214.748 29.54C214.401 29.208 213.971 29.042 213.458 29.042C212.77 29.042 212.235 29.291 211.854 29.7891C211.479 30.2822 211.291 30.9976 211.291 31.9351V32.1914C211.291 33.1045 211.479 33.8076 211.854 34.3008C212.23 34.7939 212.768 35.0405 213.466 35.0405ZM219.494 29.0347C220.094 28.2974 220.875 27.9287 221.837 27.9287C223.512 27.9287 224.357 28.8735 224.372 30.7632V36H223.017V30.7559C223.012 30.1846 222.88 29.7622 222.621 29.4888C222.367 29.2153 221.969 29.0786 221.427 29.0786C220.988 29.0786 220.602 29.1958 220.27 29.4302C219.938 29.6646 219.679 29.9722 219.494 30.353V36H218.139V24.75H219.494V29.0347ZM229.689 36.1465C228.615 36.1465 227.741 35.7949 227.067 35.0918C226.393 34.3838 226.056 33.439 226.056 32.2573V32.0083C226.056 31.2222 226.205 30.5215 226.503 29.9062C226.806 29.2861 227.226 28.8027 227.763 28.4561C228.305 28.1045 228.891 27.9287 229.521 27.9287C230.551 27.9287 231.352 28.2681 231.923 28.9468C232.494 29.6255 232.78 30.5972 232.78 31.8618V32.4258H227.411C227.431 33.207 227.658 33.8394 228.092 34.3228C228.532 34.8013 229.088 35.0405 229.762 35.0405C230.241 35.0405 230.646 34.9429 230.978 34.7476C231.31 34.5522 231.601 34.2935 231.85 33.9712L232.677 34.6157C232.013 35.6362 231.017 36.1465 229.689 36.1465ZM229.521 29.042C228.974 29.042 228.515 29.2422 228.144 29.6426C227.772 30.0381 227.543 30.5947 227.455 31.3125H231.425V31.21C231.386 30.5215 231.2 29.9893 230.868 29.6133C230.536 29.2324 230.087 29.042 229.521 29.042ZM238.969 33.8979C238.969 33.5317 238.83 33.2485 238.551 33.0483C238.278 32.8433 237.797 32.6675 237.108 32.521C236.425 32.3745 235.88 32.1987 235.475 31.9937C235.075 31.7886 234.777 31.5444 234.582 31.2612C234.391 30.978 234.296 30.6411 234.296 30.2505C234.296 29.6011 234.569 29.0518 235.116 28.6025C235.668 28.1533 236.371 27.9287 237.226 27.9287C238.124 27.9287 238.852 28.1606 239.408 28.6245C239.97 29.0884 240.25 29.6816 240.25 30.4043H238.888C238.888 30.0332 238.729 29.7134 238.412 29.4448C238.1 29.1763 237.704 29.042 237.226 29.042C236.732 29.042 236.347 29.1494 236.068 29.3643C235.79 29.5791 235.651 29.8599 235.651 30.2065C235.651 30.5337 235.78 30.7803 236.039 30.9463C236.298 31.1123 236.764 31.271 237.438 31.4224C238.117 31.5737 238.666 31.7544 239.086 31.9644C239.506 32.1743 239.816 32.4282 240.016 32.7261C240.221 33.019 240.324 33.3779 240.324 33.8027C240.324 34.5107 240.041 35.0796 239.474 35.5093C238.908 35.9341 238.173 36.1465 237.27 36.1465C236.635 36.1465 236.073 36.0342 235.585 35.8096C235.097 35.585 234.713 35.2725 234.435 34.8721C234.162 34.4668 234.025 34.0298 234.025 33.561H235.38C235.404 34.0151 235.585 34.3765 235.922 34.645C236.264 34.9087 236.713 35.0405 237.27 35.0405C237.782 35.0405 238.192 34.938 238.5 34.7329C238.812 34.5229 238.969 34.2446 238.969 33.8979ZM186.835 54.2798H189.809V55.5615H186.835V58.9307H185.473V55.5615H182.499V54.2798H185.473V51.167H186.835V54.2798ZM142.238 84V73.3359H145.724C146.881 73.3359 147.75 73.5752 148.332 74.0537C148.917 74.5322 149.21 75.2402 149.21 76.1777C149.21 76.6758 149.069 77.1177 148.786 77.5034C148.502 77.8843 148.117 78.1797 147.628 78.3896C148.205 78.5508 148.659 78.8584 148.991 79.3125C149.328 79.7617 149.496 80.2988 149.496 80.9238C149.496 81.8809 149.186 82.6328 148.566 83.1797C147.946 83.7266 147.069 84 145.937 84H142.238ZM143.644 79.0122V82.8501H145.966C146.62 82.8501 147.135 82.6816 147.511 82.3447C147.892 82.0029 148.083 81.5342 148.083 80.9385C148.083 79.6543 147.384 79.0122 145.988 79.0122H143.644ZM143.644 77.8843H145.768C146.383 77.8843 146.874 77.7305 147.24 77.4229C147.611 77.1152 147.797 76.6978 147.797 76.1704C147.797 75.5845 147.626 75.1597 147.284 74.896C146.942 74.6274 146.422 74.4932 145.724 74.4932H143.644V77.8843ZM155.202 77.291C154.997 77.2568 154.774 77.2397 154.535 77.2397C153.646 77.2397 153.043 77.6182 152.726 78.375V84H151.371V76.0752H152.689L152.711 76.9907C153.156 76.2827 153.786 75.9287 154.601 75.9287C154.865 75.9287 155.065 75.9629 155.202 76.0312V77.291ZM159.596 84.1465C158.522 84.1465 157.648 83.7949 156.974 83.0918C156.3 82.3838 155.963 81.439 155.963 80.2573V80.0083C155.963 79.2222 156.112 78.5215 156.41 77.9062C156.713 77.2861 157.133 76.8027 157.67 76.4561C158.212 76.1045 158.798 75.9287 159.428 75.9287C160.458 75.9287 161.259 76.2681 161.83 76.9468C162.401 77.6255 162.687 78.5972 162.687 79.8618V80.4258H157.318C157.338 81.207 157.565 81.8394 158 82.3228C158.439 82.8013 158.996 83.0405 159.669 83.0405C160.148 83.0405 160.553 82.9429 160.885 82.7476C161.217 82.5522 161.508 82.2935 161.757 81.9712L162.584 82.6157C161.92 83.6362 160.924 84.1465 159.596 84.1465ZM159.428 77.042C158.881 77.042 158.422 77.2422 158.051 77.6426C157.68 78.0381 157.45 78.5947 157.362 79.3125H161.332V79.21C161.293 78.5215 161.107 77.9893 160.775 77.6133C160.443 77.2324 159.994 77.042 159.428 77.042ZM169.154 84C169.076 83.8438 169.013 83.5654 168.964 83.165C168.334 83.8193 167.582 84.1465 166.708 84.1465C165.927 84.1465 165.285 83.9268 164.782 83.4873C164.284 83.043 164.035 82.4814 164.035 81.8027C164.035 80.9775 164.347 80.3379 164.972 79.8838C165.602 79.4248 166.486 79.1953 167.624 79.1953H168.942V78.5728C168.942 78.0991 168.8 77.7231 168.517 77.4448C168.234 77.1616 167.816 77.02 167.265 77.02C166.781 77.02 166.376 77.1421 166.049 77.3862C165.722 77.6304 165.558 77.9258 165.558 78.2725H164.196C164.196 77.877 164.335 77.4961 164.613 77.1299C164.896 76.7588 165.277 76.4658 165.756 76.251C166.239 76.0361 166.769 75.9287 167.345 75.9287C168.258 75.9287 168.974 76.1582 169.491 76.6172C170.009 77.0713 170.277 77.6987 170.297 78.4995V82.147C170.297 82.8745 170.39 83.4531 170.575 83.8828V84H169.154ZM166.906 82.9673C167.331 82.9673 167.733 82.8574 168.114 82.6377C168.495 82.418 168.771 82.1323 168.942 81.7808V80.1548H167.88C166.22 80.1548 165.39 80.6406 165.39 81.6123C165.39 82.0371 165.531 82.3691 165.814 82.6084C166.098 82.8477 166.461 82.9673 166.906 82.9673ZM174.633 80.3306L173.783 81.2168V84H172.428V72.75H173.783V79.5542L174.508 78.6826L176.977 76.0752H178.625L175.541 79.3857L178.983 84H177.394L174.633 80.3306ZM185.583 74.1562V76.0752H187.062V77.1226H185.583V82.0371C185.583 82.3545 185.648 82.5938 185.78 82.7549C185.912 82.9111 186.137 82.9893 186.454 82.9893C186.61 82.9893 186.825 82.96 187.099 82.9014V84C186.742 84.0977 186.396 84.1465 186.059 84.1465C185.453 84.1465 184.997 83.9634 184.689 83.5972C184.381 83.231 184.228 82.7109 184.228 82.0371V77.1226H182.785V76.0752H184.228V74.1562H185.583ZM190.124 84H188.769V76.0752H190.124V84ZM188.659 73.9731C188.659 73.7534 188.725 73.5679 188.856 73.4165C188.993 73.2651 189.193 73.1895 189.457 73.1895C189.721 73.1895 189.921 73.2651 190.058 73.4165C190.194 73.5679 190.263 73.7534 190.263 73.9731C190.263 74.1929 190.194 74.376 190.058 74.5225C189.921 74.6689 189.721 74.7422 189.457 74.7422C189.193 74.7422 188.993 74.6689 188.856 74.5225C188.725 74.376 188.659 74.1929 188.659 73.9731ZM193.573 76.0752L193.61 76.9541C194.191 76.2705 194.975 75.9287 195.961 75.9287C197.069 75.9287 197.824 76.3535 198.224 77.2031C198.488 76.8223 198.83 76.5146 199.25 76.2803C199.674 76.0459 200.175 75.9287 200.751 75.9287C202.489 75.9287 203.373 76.8491 203.402 78.6899V84H202.047V78.7705C202.047 78.2041 201.918 77.7817 201.659 77.5034C201.4 77.2202 200.966 77.0786 200.355 77.0786C199.853 77.0786 199.435 77.23 199.103 77.5327C198.771 77.8306 198.578 78.2334 198.524 78.7412V84H197.162V78.8071C197.162 77.6548 196.598 77.0786 195.47 77.0786C194.582 77.0786 193.974 77.457 193.646 78.2139V84H192.292V76.0752H193.573ZM208.742 84.1465C207.667 84.1465 206.793 83.7949 206.12 83.0918C205.446 82.3838 205.109 81.439 205.109 80.2573V80.0083C205.109 79.2222 205.258 78.5215 205.556 77.9062C205.858 77.2861 206.278 76.8027 206.815 76.4561C207.357 76.1045 207.943 75.9287 208.573 75.9287C209.604 75.9287 210.404 76.2681 210.976 76.9468C211.547 77.6255 211.833 78.5972 211.833 79.8618V80.4258H206.464C206.483 81.207 206.71 81.8394 207.145 82.3228C207.584 82.8013 208.141 83.0405 208.815 83.0405C209.293 83.0405 209.699 82.9429 210.031 82.7476C210.363 82.5522 210.653 82.2935 210.902 81.9712L211.73 82.6157C211.066 83.6362 210.07 84.1465 208.742 84.1465ZM208.573 77.042C208.026 77.042 207.567 77.2422 207.196 77.6426C206.825 78.0381 206.596 78.5947 206.508 79.3125H210.478V79.21C210.438 78.5215 210.253 77.9893 209.921 77.6133C209.589 77.2324 209.14 77.042 208.573 77.042ZM220.958 77.291C220.753 77.2568 220.531 77.2397 220.292 77.2397C219.403 77.2397 218.8 77.6182 218.483 78.375V84H217.128V76.0752H218.446L218.468 76.9907C218.913 76.2827 219.542 75.9287 220.358 75.9287C220.622 75.9287 220.822 75.9629 220.958 76.0312V77.291ZM225.353 84.1465C224.279 84.1465 223.405 83.7949 222.731 83.0918C222.057 82.3838 221.72 81.439 221.72 80.2573V80.0083C221.72 79.2222 221.869 78.5215 222.167 77.9062C222.47 77.2861 222.89 76.8027 223.427 76.4561C223.969 76.1045 224.555 75.9287 225.185 75.9287C226.215 75.9287 227.016 76.2681 227.587 76.9468C228.158 77.6255 228.444 78.5972 228.444 79.8618V80.4258H223.075C223.095 81.207 223.322 81.8394 223.756 82.3228C224.196 82.8013 224.752 83.0405 225.426 83.0405C225.905 83.0405 226.31 82.9429 226.642 82.7476C226.974 82.5522 227.265 82.2935 227.514 81.9712L228.341 82.6157C227.677 83.6362 226.681 84.1465 225.353 84.1465ZM225.185 77.042C224.638 77.042 224.179 77.2422 223.808 77.6426C223.437 78.0381 223.207 78.5947 223.119 79.3125H227.089V79.21C227.05 78.5215 226.864 77.9893 226.532 77.6133C226.2 77.2324 225.751 77.042 225.185 77.042ZM231.293 76.0752L231.33 76.9541C231.911 76.2705 232.694 75.9287 233.681 75.9287C234.789 75.9287 235.543 76.3535 235.944 77.2031C236.208 76.8223 236.549 76.5146 236.969 76.2803C237.394 76.0459 237.895 75.9287 238.471 75.9287C240.209 75.9287 241.093 76.8491 241.122 78.6899V84H239.767V78.7705C239.767 78.2041 239.638 77.7817 239.379 77.5034C239.12 77.2202 238.686 77.0786 238.075 77.0786C237.572 77.0786 237.155 77.23 236.823 77.5327C236.491 77.8306 236.298 78.2334 236.244 78.7412V84H234.882V78.8071C234.882 77.6548 234.318 77.0786 233.19 77.0786C232.301 77.0786 231.693 77.457 231.366 78.2139V84H230.011V76.0752H231.293ZM244.645 84H243.29V76.0752H244.645V84ZM243.18 73.9731C243.18 73.7534 243.246 73.5679 243.378 73.4165C243.515 73.2651 243.715 73.1895 243.979 73.1895C244.242 73.1895 244.442 73.2651 244.579 73.4165C244.716 73.5679 244.784 73.7534 244.784 73.9731C244.784 74.1929 244.716 74.376 244.579 74.5225C244.442 74.6689 244.242 74.7422 243.979 74.7422C243.715 74.7422 243.515 74.6689 243.378 74.5225C243.246 74.376 243.18 74.1929 243.18 73.9731ZM248.102 76.0752L248.146 77.0713C248.751 76.3096 249.542 75.9287 250.519 75.9287C252.194 75.9287 253.039 76.8735 253.053 78.7632V84H251.698V78.7559C251.693 78.1846 251.562 77.7622 251.303 77.4888C251.049 77.2153 250.651 77.0786 250.109 77.0786C249.669 77.0786 249.284 77.1958 248.952 77.4302C248.62 77.6646 248.361 77.9722 248.175 78.353V84H246.82V76.0752H248.102ZM254.767 79.9717C254.767 78.7559 255.055 77.7793 255.631 77.042C256.208 76.2998 256.962 75.9287 257.895 75.9287C258.822 75.9287 259.557 76.2461 260.099 76.8809V72.75H261.454V84H260.209L260.143 83.1504C259.601 83.8145 258.847 84.1465 257.88 84.1465C256.962 84.1465 256.212 83.7705 255.631 83.0186C255.055 82.2666 254.767 81.2852 254.767 80.0742V79.9717ZM256.122 80.1255C256.122 81.0239 256.308 81.7271 256.679 82.2349C257.05 82.7427 257.562 82.9966 258.217 82.9966C259.076 82.9966 259.704 82.6108 260.099 81.8394V78.1992C259.694 77.4521 259.071 77.0786 258.231 77.0786C257.567 77.0786 257.05 77.335 256.679 77.8477C256.308 78.3604 256.122 79.1196 256.122 80.1255ZM266.852 84.1465C265.778 84.1465 264.904 83.7949 264.23 83.0918C263.556 82.3838 263.219 81.439 263.219 80.2573V80.0083C263.219 79.2222 263.368 78.5215 263.666 77.9062C263.969 77.2861 264.389 76.8027 264.926 76.4561C265.468 76.1045 266.054 75.9287 266.684 75.9287C267.714 75.9287 268.515 76.2681 269.086 76.9468C269.657 77.6255 269.943 78.5972 269.943 79.8618V80.4258H264.574C264.594 81.207 264.821 81.8394 265.255 82.3228C265.695 82.8013 266.251 83.0405 266.925 83.0405C267.404 83.0405 267.809 82.9429 268.141 82.7476C268.473 82.5522 268.764 82.2935 269.013 81.9712L269.84 82.6157C269.176 83.6362 268.18 84.1465 266.852 84.1465ZM266.684 77.042C266.137 77.042 265.678 77.2422 265.307 77.6426C264.936 78.0381 264.706 78.5947 264.618 79.3125H268.588V79.21C268.549 78.5215 268.363 77.9893 268.031 77.6133C267.699 77.2324 267.25 77.042 266.684 77.042ZM275.348 77.291C275.143 77.2568 274.921 77.2397 274.682 77.2397C273.793 77.2397 273.19 77.6182 272.873 78.375V84H271.518V76.0752H272.836L272.858 76.9907C273.302 76.2827 273.932 75.9287 274.748 75.9287C275.011 75.9287 275.211 75.9629 275.348 76.0312V77.291Z" fill="black"/>
<path d="M64.1484 57.1348C63.6667 57.8249 62.9928 58.3424 62.127 58.6875C61.2676 59.026 60.265 59.1953 59.1191 59.1953C57.9603 59.1953 56.9316 58.9251 56.0332 58.3848C55.1348 57.8379 54.4382 57.0632 53.9434 56.0605C53.4551 55.0579 53.2044 53.8958 53.1914 52.5742V51.334C53.1914 49.1921 53.6895 47.5319 54.6855 46.3535C55.6882 45.1751 57.0944 44.5859 58.9043 44.5859C60.3887 44.5859 61.5833 44.9668 62.4883 45.7285C63.3932 46.4837 63.9466 47.5579 64.1484 48.9512H62.2734C61.9219 47.0697 60.8021 46.1289 58.9141 46.1289C57.6576 46.1289 56.7038 46.5716 56.0527 47.457C55.4082 48.3359 55.0827 49.612 55.0762 51.2852V52.4473C55.0762 54.0423 55.4408 55.3118 56.1699 56.2559C56.8991 57.1934 57.8854 57.6621 59.1289 57.6621C59.832 57.6621 60.4473 57.584 60.9746 57.4277C61.502 57.2715 61.9382 57.0078 62.2832 56.6367V53.4434H58.9922V51.9199H64.1484V57.1348ZM73.5234 59C73.4193 58.7917 73.3346 58.4206 73.2695 57.8867C72.4297 58.7591 71.4271 59.1953 70.2617 59.1953C69.2201 59.1953 68.3639 58.9023 67.6934 58.3164C67.0293 57.724 66.6973 56.9753 66.6973 56.0703C66.6973 54.9701 67.1139 54.1172 67.9473 53.5117C68.7871 52.8997 69.9655 52.5938 71.4824 52.5938H73.2402V51.7637C73.2402 51.1322 73.0514 50.6309 72.6738 50.2598C72.2962 49.8822 71.7396 49.6934 71.0039 49.6934C70.3594 49.6934 69.819 49.8561 69.3828 50.1816C68.9466 50.5072 68.7285 50.901 68.7285 51.3633H66.9121C66.9121 50.8359 67.0977 50.3281 67.4688 49.8398C67.8464 49.3451 68.3542 48.9544 68.9922 48.668C69.6367 48.3815 70.3431 48.2383 71.1113 48.2383C72.3288 48.2383 73.2826 48.5443 73.9727 49.1562C74.6628 49.7617 75.0208 50.5983 75.0469 51.666V56.5293C75.0469 57.4993 75.1706 58.2708 75.418 58.8438V59H73.5234ZM70.5254 57.623C71.0918 57.623 71.6289 57.4766 72.1367 57.1836C72.6445 56.8906 73.0124 56.5098 73.2402 56.041V53.873H71.8242C69.6107 53.873 68.5039 54.5208 68.5039 55.8164C68.5039 56.3828 68.6927 56.8255 69.0703 57.1445C69.4479 57.4635 69.9329 57.623 70.5254 57.623ZM79.5781 48.4336L79.627 49.6055C80.4017 48.694 81.4466 48.2383 82.7617 48.2383C84.2396 48.2383 85.2454 48.8047 85.7793 49.9375C86.1309 49.4297 86.5866 49.0195 87.1465 48.707C87.7129 48.3945 88.3802 48.2383 89.1484 48.2383C91.4661 48.2383 92.6445 49.4655 92.6836 51.9199V59H90.877V52.0273C90.877 51.2721 90.7044 50.709 90.3594 50.3379C90.0143 49.9603 89.4349 49.7715 88.6211 49.7715C87.9505 49.7715 87.3939 49.9733 86.9512 50.377C86.5085 50.7741 86.2513 51.3112 86.1797 51.9883V59H84.3633V52.0762C84.3633 50.5397 83.6113 49.7715 82.1074 49.7715C80.9225 49.7715 80.112 50.276 79.6758 51.2852V59H77.8691V48.4336H79.5781ZM97.3809 59H95.5742V48.4336H97.3809V59ZM95.4277 45.6309C95.4277 45.3379 95.5156 45.0905 95.6914 44.8887C95.8737 44.6868 96.1406 44.5859 96.4922 44.5859C96.8438 44.5859 97.1107 44.6868 97.293 44.8887C97.4753 45.0905 97.5664 45.3379 97.5664 45.6309C97.5664 45.9238 97.4753 46.168 97.293 46.3633C97.1107 46.5586 96.8438 46.6562 96.4922 46.6562C96.1406 46.6562 95.8737 46.5586 95.6914 46.3633C95.5156 46.168 95.4277 45.9238 95.4277 45.6309ZM101.17 59V49.8301H99.5V48.4336H101.17V47.3496C101.17 46.2168 101.473 45.3411 102.078 44.7227C102.684 44.1042 103.54 43.7949 104.646 43.7949C105.063 43.7949 105.477 43.8503 105.887 43.9609L105.789 45.4258C105.483 45.3672 105.158 45.3379 104.812 45.3379C104.227 45.3379 103.774 45.5104 103.455 45.8555C103.136 46.194 102.977 46.6823 102.977 47.3203V48.4336H105.232V49.8301H102.977V59H101.17ZM110.691 56.3535L113.152 48.4336H115.086L110.838 60.6309C110.18 62.3887 109.135 63.2676 107.703 63.2676L107.361 63.2383L106.688 63.1113V61.6465L107.176 61.6855C107.788 61.6855 108.263 61.5618 108.602 61.3145C108.947 61.0671 109.23 60.6146 109.451 59.957L109.852 58.8828L106.082 48.4336H108.055L110.691 56.3535Z" fill="#553CEE"/>
</svg>
