<svg width="993" height="418" viewBox="0 0 993 418" fill="none" xmlns="http://www.w3.org/2000/svg">
<rect width="993" height="418" fill="white"/>
<path d="M233 75H0V327H233V75Z" fill="#F8CE89"/>
<path d="M8.14453 353.562L17.4414 376.766L26.7383 353.562H31.6016V382H27.8516V370.926L28.2031 358.973L18.8672 382H15.9961L6.67969 359.031L7.05078 370.926V382H3.30078V353.562H8.14453ZM50.7031 382C50.4948 381.583 50.3255 380.841 50.1953 379.773C48.5156 381.518 46.5104 382.391 44.1797 382.391C42.0964 382.391 40.3841 381.805 39.043 380.633C37.7148 379.448 37.0508 377.951 37.0508 376.141C37.0508 373.94 37.8841 372.234 39.5508 371.023C41.2305 369.799 43.5872 369.188 46.6211 369.188H50.1367V367.527C50.1367 366.264 49.7591 365.262 49.0039 364.52C48.2487 363.764 47.1354 363.387 45.6641 363.387C44.375 363.387 43.2943 363.712 42.4219 364.363C41.5495 365.014 41.1133 365.802 41.1133 366.727H37.4805C37.4805 365.672 37.8516 364.656 38.5938 363.68C39.349 362.69 40.3646 361.909 41.6406 361.336C42.9297 360.763 44.3424 360.477 45.8789 360.477C48.3138 360.477 50.2214 361.089 51.6016 362.312C52.9818 363.523 53.6979 365.197 53.75 367.332V377.059C53.75 378.999 53.9974 380.542 54.4922 381.688V382H50.7031ZM44.707 379.246C45.8398 379.246 46.9141 378.953 47.9297 378.367C48.9453 377.781 49.681 377.02 50.1367 376.082V371.746H47.3047C42.8776 371.746 40.6641 373.042 40.6641 375.633C40.6641 376.766 41.0417 377.651 41.7969 378.289C42.5521 378.927 43.5221 379.246 44.707 379.246ZM64.3164 355.75V360.867H68.2617V363.66H64.3164V376.766C64.3164 377.612 64.4922 378.25 64.8438 378.68C65.1953 379.096 65.7943 379.305 66.6406 379.305C67.0573 379.305 67.6302 379.227 68.3594 379.07V382C67.4089 382.26 66.4844 382.391 65.5859 382.391C63.9714 382.391 62.7539 381.902 61.9336 380.926C61.1133 379.949 60.7031 378.562 60.7031 376.766V363.66H56.8555V360.867H60.7031V355.75H64.3164ZM77.4023 355.75V360.867H81.3477V363.66H77.4023V376.766C77.4023 377.612 77.5781 378.25 77.9297 378.68C78.2812 379.096 78.8802 379.305 79.7266 379.305C80.1432 379.305 80.7161 379.227 81.4453 379.07V382C80.4948 382.26 79.5703 382.391 78.6719 382.391C77.0573 382.391 75.8398 381.902 75.0195 380.926C74.1992 379.949 73.7891 378.562 73.7891 376.766V363.66H69.9414V360.867H73.7891V355.75H77.4023Z" fill="black"/>
<path d="M121.644 381.825V386H120.238V375.336H124.171C125.338 375.336 126.251 375.634 126.91 376.229C127.574 376.825 127.906 377.614 127.906 378.595C127.906 379.63 127.582 380.429 126.932 380.99C126.288 381.547 125.362 381.825 124.156 381.825H121.644ZM121.644 380.675H124.171C124.923 380.675 125.499 380.5 125.899 380.148C126.3 379.792 126.5 379.279 126.5 378.61C126.5 377.975 126.3 377.467 125.899 377.086C125.499 376.706 124.95 376.508 124.251 376.493H121.644V380.675ZM133.319 379.291C133.114 379.257 132.892 379.24 132.652 379.24C131.764 379.24 131.161 379.618 130.843 380.375V386H129.488V378.075H130.807L130.829 378.991C131.273 378.283 131.903 377.929 132.718 377.929C132.982 377.929 133.182 377.963 133.319 378.031V379.291ZM134.066 381.964C134.066 381.188 134.217 380.49 134.52 379.87C134.828 379.25 135.252 378.771 135.794 378.434C136.341 378.097 136.964 377.929 137.662 377.929C138.741 377.929 139.613 378.302 140.277 379.049C140.946 379.796 141.28 380.79 141.28 382.03V382.125C141.28 382.897 141.131 383.59 140.833 384.206C140.541 384.816 140.118 385.292 139.566 385.634C139.02 385.976 138.39 386.146 137.677 386.146C136.603 386.146 135.731 385.773 135.062 385.026C134.398 384.279 134.066 383.29 134.066 382.06V381.964ZM135.428 382.125C135.428 383.004 135.631 383.71 136.036 384.242C136.446 384.774 136.993 385.041 137.677 385.041C138.365 385.041 138.912 384.772 139.317 384.235C139.723 383.693 139.925 382.936 139.925 381.964C139.925 381.095 139.718 380.392 139.303 379.855C138.893 379.313 138.346 379.042 137.662 379.042C136.993 379.042 136.454 379.308 136.043 379.84C135.633 380.373 135.428 381.134 135.428 382.125ZM154.786 384.601C154.425 385.119 153.919 385.507 153.27 385.766C152.625 386.02 151.874 386.146 151.014 386.146C150.145 386.146 149.374 385.944 148.7 385.539C148.026 385.128 147.503 384.547 147.132 383.795C146.766 383.043 146.578 382.172 146.568 381.181V380.25C146.568 378.644 146.942 377.399 147.689 376.515C148.441 375.631 149.496 375.189 150.853 375.189C151.966 375.189 152.862 375.475 153.541 376.046C154.22 376.613 154.635 377.418 154.786 378.463H153.38C153.116 377.052 152.276 376.347 150.86 376.347C149.918 376.347 149.203 376.679 148.714 377.343C148.231 378.002 147.987 378.959 147.982 380.214V381.085C147.982 382.282 148.255 383.234 148.802 383.942C149.349 384.645 150.089 384.997 151.021 384.997C151.549 384.997 152.01 384.938 152.406 384.821C152.801 384.704 153.128 384.506 153.387 384.228V381.833H150.919V380.69H154.786V384.601ZM161.817 386C161.739 385.844 161.676 385.565 161.627 385.165C160.997 385.819 160.245 386.146 159.371 386.146C158.59 386.146 157.948 385.927 157.445 385.487C156.947 385.043 156.698 384.481 156.698 383.803C156.698 382.978 157.01 382.338 157.635 381.884C158.265 381.425 159.149 381.195 160.287 381.195H161.605V380.573C161.605 380.099 161.463 379.723 161.18 379.445C160.897 379.162 160.479 379.02 159.928 379.02C159.444 379.02 159.039 379.142 158.712 379.386C158.385 379.63 158.221 379.926 158.221 380.272H156.859C156.859 379.877 156.998 379.496 157.276 379.13C157.56 378.759 157.94 378.466 158.419 378.251C158.902 378.036 159.432 377.929 160.008 377.929C160.921 377.929 161.637 378.158 162.154 378.617C162.672 379.071 162.94 379.699 162.96 380.5V384.147C162.96 384.875 163.053 385.453 163.238 385.883V386H161.817ZM159.569 384.967C159.994 384.967 160.396 384.857 160.777 384.638C161.158 384.418 161.434 384.132 161.605 383.781V382.155H160.543C158.883 382.155 158.053 382.641 158.053 383.612C158.053 384.037 158.194 384.369 158.478 384.608C158.761 384.848 159.125 384.967 159.569 384.967ZM166.358 378.075L166.395 378.954C166.976 378.271 167.76 377.929 168.746 377.929C169.854 377.929 170.609 378.354 171.009 379.203C171.273 378.822 171.615 378.515 172.035 378.28C172.459 378.046 172.96 377.929 173.536 377.929C175.274 377.929 176.158 378.849 176.188 380.69V386H174.833V380.771C174.833 380.204 174.703 379.782 174.444 379.503C174.186 379.22 173.751 379.079 173.141 379.079C172.638 379.079 172.22 379.23 171.888 379.533C171.556 379.831 171.363 380.233 171.31 380.741V386H169.947V380.807C169.947 379.655 169.383 379.079 168.255 379.079C167.367 379.079 166.759 379.457 166.432 380.214V386H165.077V378.075H166.358ZM181.527 386.146C180.453 386.146 179.579 385.795 178.905 385.092C178.231 384.384 177.894 383.439 177.894 382.257V382.008C177.894 381.222 178.043 380.521 178.341 379.906C178.644 379.286 179.063 378.803 179.601 378.456C180.143 378.104 180.729 377.929 181.358 377.929C182.389 377.929 183.189 378.268 183.761 378.947C184.332 379.625 184.618 380.597 184.618 381.862V382.426H179.249C179.269 383.207 179.496 383.839 179.93 384.323C180.37 384.801 180.926 385.041 181.6 385.041C182.079 385.041 182.484 384.943 182.816 384.748C183.148 384.552 183.438 384.293 183.688 383.971L184.515 384.616C183.851 385.636 182.855 386.146 181.527 386.146ZM181.358 379.042C180.812 379.042 180.353 379.242 179.981 379.643C179.61 380.038 179.381 380.595 179.293 381.312H183.263V381.21C183.224 380.521 183.038 379.989 182.706 379.613C182.374 379.232 181.925 379.042 181.358 379.042ZM190.023 379.291C189.818 379.257 189.596 379.24 189.356 379.24C188.468 379.24 187.865 379.618 187.547 380.375V386H186.192V378.075H187.511L187.533 378.991C187.977 378.283 188.607 377.929 189.422 377.929C189.686 377.929 189.886 377.963 190.023 378.031V379.291Z" fill="black"/>
<path d="M126.874 366H119.886V365.026L123.578 360.924C124.125 360.304 124.5 359.801 124.706 359.416C124.916 359.025 125.021 358.622 125.021 358.207C125.021 357.65 124.852 357.194 124.515 356.837C124.178 356.481 123.729 356.303 123.167 356.303C122.494 356.303 121.969 356.496 121.593 356.881C121.222 357.262 121.036 357.794 121.036 358.478H119.681C119.681 357.497 119.996 356.703 120.626 356.098C121.261 355.492 122.108 355.189 123.167 355.189C124.159 355.189 124.942 355.451 125.519 355.973C126.095 356.491 126.383 357.182 126.383 358.046C126.383 359.096 125.714 360.346 124.376 361.796L121.52 364.894H126.874V366ZM132.762 366H131.4V356.969L128.668 357.973V356.742L132.55 355.285H132.762V366ZM143.185 364.015L145.03 358.075H146.48L143.294 367.223C142.801 368.542 142.018 369.201 140.943 369.201L140.687 369.179L140.182 369.083V367.985L140.548 368.014C141.007 368.014 141.363 367.921 141.617 367.736C141.876 367.55 142.088 367.211 142.254 366.718L142.555 365.912L139.728 358.075H141.207L143.185 364.015ZM150.882 366.146C149.808 366.146 148.934 365.795 148.26 365.092C147.586 364.384 147.25 363.439 147.25 362.257V362.008C147.25 361.222 147.398 360.521 147.696 359.906C147.999 359.286 148.419 358.803 148.956 358.456C149.498 358.104 150.084 357.929 150.714 357.929C151.744 357.929 152.545 358.268 153.116 358.947C153.688 359.625 153.973 360.597 153.973 361.862V362.426H148.604C148.624 363.207 148.851 363.839 149.286 364.323C149.725 364.801 150.282 365.041 150.956 365.041C151.434 365.041 151.839 364.943 152.171 364.748C152.503 364.552 152.794 364.293 153.043 363.971L153.871 364.616C153.207 365.636 152.21 366.146 150.882 366.146ZM150.714 359.042C150.167 359.042 149.708 359.242 149.337 359.643C148.966 360.038 148.736 360.595 148.648 361.312H152.618V361.21C152.579 360.521 152.394 359.989 152.062 359.613C151.729 359.232 151.28 359.042 150.714 359.042ZM160.44 366C160.362 365.844 160.299 365.565 160.25 365.165C159.62 365.819 158.868 366.146 157.994 366.146C157.213 366.146 156.571 365.927 156.068 365.487C155.57 365.043 155.321 364.481 155.321 363.803C155.321 362.978 155.633 362.338 156.258 361.884C156.888 361.425 157.772 361.195 158.91 361.195H160.228V360.573C160.228 360.099 160.086 359.723 159.803 359.445C159.52 359.162 159.103 359.02 158.551 359.02C158.067 359.02 157.662 359.142 157.335 359.386C157.008 359.63 156.844 359.926 156.844 360.272H155.482C155.482 359.877 155.621 359.496 155.899 359.13C156.183 358.759 156.563 358.466 157.042 358.251C157.525 358.036 158.055 357.929 158.631 357.929C159.544 357.929 160.26 358.158 160.777 358.617C161.295 359.071 161.563 359.699 161.583 360.5V364.147C161.583 364.875 161.676 365.453 161.861 365.883V366H160.44ZM158.192 364.967C158.617 364.967 159.02 364.857 159.4 364.638C159.781 364.418 160.057 364.132 160.228 363.781V362.155H159.166C157.506 362.155 156.676 362.641 156.676 363.612C156.676 364.037 156.817 364.369 157.101 364.608C157.384 364.848 157.748 364.967 158.192 364.967ZM167.538 359.291C167.333 359.257 167.11 359.24 166.871 359.24C165.982 359.24 165.379 359.618 165.062 360.375V366H163.707V358.075H165.025L165.047 358.991C165.492 358.283 166.122 357.929 166.937 357.929C167.201 357.929 167.401 357.963 167.538 358.031V359.291ZM173.404 363.898C173.404 363.532 173.265 363.249 172.987 363.048C172.713 362.843 172.232 362.667 171.544 362.521C170.86 362.375 170.316 362.199 169.911 361.994C169.51 361.789 169.212 361.544 169.017 361.261C168.827 360.978 168.731 360.641 168.731 360.25C168.731 359.601 169.005 359.052 169.552 358.603C170.104 358.153 170.807 357.929 171.661 357.929C172.56 357.929 173.287 358.161 173.844 358.625C174.405 359.088 174.686 359.682 174.686 360.404H173.324C173.324 360.033 173.165 359.713 172.848 359.445C172.535 359.176 172.14 359.042 171.661 359.042C171.168 359.042 170.782 359.149 170.504 359.364C170.226 359.579 170.086 359.86 170.086 360.207C170.086 360.534 170.216 360.78 170.475 360.946C170.733 361.112 171.2 361.271 171.874 361.422C172.552 361.574 173.102 361.754 173.521 361.964C173.941 362.174 174.251 362.428 174.452 362.726C174.657 363.019 174.759 363.378 174.759 363.803C174.759 364.511 174.476 365.08 173.91 365.509C173.343 365.934 172.608 366.146 171.705 366.146C171.07 366.146 170.509 366.034 170.021 365.81C169.532 365.585 169.149 365.272 168.871 364.872C168.597 364.467 168.46 364.03 168.46 363.561H169.815C169.84 364.015 170.021 364.376 170.357 364.645C170.699 364.909 171.148 365.041 171.705 365.041C172.218 365.041 172.628 364.938 172.936 364.733C173.248 364.523 173.404 364.245 173.404 363.898ZM179.344 362.023H175.77V360.917H179.344V362.023ZM180.311 361.964C180.311 361.188 180.462 360.49 180.765 359.87C181.073 359.25 181.498 358.771 182.04 358.434C182.586 358.097 183.209 357.929 183.907 357.929C184.986 357.929 185.858 358.302 186.522 359.049C187.191 359.796 187.525 360.79 187.525 362.03V362.125C187.525 362.897 187.376 363.59 187.079 364.206C186.786 364.816 186.363 365.292 185.812 365.634C185.265 365.976 184.635 366.146 183.922 366.146C182.848 366.146 181.976 365.773 181.307 365.026C180.643 364.279 180.311 363.29 180.311 362.06V361.964ZM181.673 362.125C181.673 363.004 181.876 363.71 182.281 364.242C182.691 364.774 183.238 365.041 183.922 365.041C184.61 365.041 185.157 364.772 185.562 364.235C185.968 363.693 186.17 362.936 186.17 361.964C186.17 361.095 185.963 360.392 185.548 359.855C185.138 359.313 184.591 359.042 183.907 359.042C183.238 359.042 182.699 359.308 182.289 359.84C181.878 360.373 181.673 361.134 181.673 362.125ZM190.697 366H189.342V354.75H190.697V366ZM192.542 361.972C192.542 360.756 192.831 359.779 193.407 359.042C193.983 358.3 194.737 357.929 195.67 357.929C196.598 357.929 197.333 358.246 197.875 358.881V354.75H199.229V366H197.984L197.918 365.15C197.376 365.814 196.622 366.146 195.655 366.146C194.737 366.146 193.988 365.771 193.407 365.019C192.831 364.267 192.542 363.285 192.542 362.074V361.972ZM193.897 362.125C193.897 363.024 194.083 363.727 194.454 364.235C194.825 364.743 195.338 364.997 195.992 364.997C196.852 364.997 197.479 364.611 197.875 363.839V360.199C197.469 359.452 196.847 359.079 196.007 359.079C195.343 359.079 194.825 359.335 194.454 359.848C194.083 360.36 193.897 361.12 193.897 362.125Z" fill="black"/>
<rect x="106" y="351" width="1" height="36" fill="black"/>
<path d="M322.126 89.2168H317.659L316.655 92H315.205L319.277 81.3359H320.508L324.587 92H323.145L322.126 89.2168ZM318.083 88.0596H321.709L319.893 83.0718L318.083 88.0596ZM329.165 87.2466C327.959 86.8999 327.08 86.4751 326.528 85.9722C325.981 85.4644 325.708 84.8394 325.708 84.0972C325.708 83.2573 326.042 82.564 326.711 82.0171C327.385 81.4653 328.259 81.1895 329.333 81.1895C330.066 81.1895 330.718 81.3311 331.289 81.6143C331.865 81.8975 332.31 82.2881 332.622 82.7861C332.939 83.2842 333.098 83.8286 333.098 84.4194H331.685C331.685 83.7749 331.479 83.2695 331.069 82.9033C330.659 82.5322 330.081 82.3467 329.333 82.3467C328.64 82.3467 328.098 82.5005 327.708 82.8081C327.322 83.1108 327.129 83.5332 327.129 84.0752C327.129 84.5098 327.312 84.8784 327.678 85.1812C328.049 85.479 328.677 85.7524 329.561 86.0015C330.449 86.2505 331.143 86.5264 331.641 86.8291C332.144 87.127 332.515 87.4761 332.754 87.8765C332.998 88.2769 333.12 88.748 333.12 89.29C333.12 90.1543 332.783 90.8477 332.109 91.3701C331.436 91.8877 330.535 92.1465 329.407 92.1465C328.674 92.1465 327.991 92.0073 327.356 91.729C326.721 91.4458 326.23 91.0601 325.884 90.5718C325.542 90.0835 325.371 89.5293 325.371 88.9092H326.785C326.785 89.5537 327.021 90.064 327.495 90.4399C327.974 90.811 328.611 90.9966 329.407 90.9966C330.149 90.9966 330.718 90.8452 331.113 90.5425C331.509 90.2397 331.707 89.8271 331.707 89.3047C331.707 88.7822 331.523 88.3794 331.157 88.0962C330.791 87.8081 330.127 87.5249 329.165 87.2466ZM336.335 87.8252V92H334.929V81.3359H338.862C340.029 81.3359 340.942 81.6338 341.602 82.2295C342.266 82.8252 342.598 83.6138 342.598 84.5952C342.598 85.6304 342.273 86.4287 341.624 86.9902C340.979 87.5469 340.054 87.8252 338.848 87.8252H336.335ZM336.335 86.6753H338.862C339.614 86.6753 340.19 86.4995 340.591 86.1479C340.991 85.7915 341.191 85.2788 341.191 84.6099C341.191 83.9751 340.991 83.4673 340.591 83.0864C340.19 82.7056 339.641 82.5078 338.943 82.4932H336.335V86.6753ZM345.901 92H344.495V81.3359H345.901V92ZM352.39 87.686H349.885V92H348.472V81.3359H352.002C353.203 81.3359 354.126 81.6094 354.771 82.1562C355.42 82.7031 355.745 83.499 355.745 84.5439C355.745 85.208 355.564 85.7866 355.203 86.2798C354.846 86.7729 354.348 87.1416 353.708 87.3857L356.213 91.9121V92H354.705L352.39 87.686ZM349.885 86.5361H352.046C352.744 86.5361 353.298 86.3555 353.708 85.9941C354.124 85.6328 354.331 85.1494 354.331 84.5439C354.331 83.8848 354.133 83.3794 353.738 83.0278C353.347 82.6763 352.781 82.498 352.039 82.4932H349.885V86.5361ZM363.611 89.2168H359.143L358.14 92H356.689L360.762 81.3359H361.992L366.072 92H364.629L363.611 89.2168ZM359.568 88.0596H363.193L361.377 83.0718L359.568 88.0596ZM373.923 82.4932H370.496V92H369.097V82.4932H365.676V81.3359H373.923V82.4932ZM377.014 92H375.608V81.3359H377.014V92ZM387.795 87.0122C387.795 88.0571 387.62 88.9702 387.268 89.7515C386.917 90.5278 386.418 91.1211 385.774 91.5312C385.129 91.9414 384.377 92.1465 383.518 92.1465C382.678 92.1465 381.934 91.9414 381.284 91.5312C380.635 91.1162 380.129 90.5278 379.768 89.7661C379.412 88.9995 379.229 88.1133 379.219 87.1074V86.3384C379.219 85.313 379.397 84.4072 379.753 83.6211C380.11 82.835 380.613 82.2344 381.262 81.8193C381.917 81.3994 382.664 81.1895 383.503 81.1895C384.358 81.1895 385.11 81.397 385.759 81.812C386.414 82.2222 386.917 82.8203 387.268 83.6064C387.62 84.3877 387.795 85.2983 387.795 86.3384V87.0122ZM386.396 86.3237C386.396 85.0591 386.143 84.0898 385.635 83.416C385.127 82.7373 384.417 82.3979 383.503 82.3979C382.615 82.3979 381.914 82.7373 381.401 83.416C380.894 84.0898 380.632 85.0273 380.618 86.2285V87.0122C380.618 88.2378 380.874 89.2021 381.387 89.9053C381.904 90.6035 382.615 90.9526 383.518 90.9526C384.426 90.9526 385.129 90.623 385.627 89.9639C386.125 89.2998 386.382 88.3501 386.396 87.1147V86.3237ZM398.101 92H396.687L391.318 83.7822V92H389.905V81.3359H391.318L396.702 89.5903V81.3359H398.101V92ZM403.74 87.2466C402.534 86.8999 401.655 86.4751 401.104 85.9722C400.557 85.4644 400.283 84.8394 400.283 84.0972C400.283 83.2573 400.618 82.564 401.287 82.0171C401.96 81.4653 402.834 81.1895 403.909 81.1895C404.641 81.1895 405.293 81.3311 405.864 81.6143C406.44 81.8975 406.885 82.2881 407.197 82.7861C407.515 83.2842 407.673 83.8286 407.673 84.4194H406.26C406.26 83.7749 406.055 83.2695 405.645 82.9033C405.234 82.5322 404.656 82.3467 403.909 82.3467C403.215 82.3467 402.673 82.5005 402.283 82.8081C401.897 83.1108 401.704 83.5332 401.704 84.0752C401.704 84.5098 401.887 84.8784 402.253 85.1812C402.625 85.479 403.252 85.7524 404.136 86.0015C405.024 86.2505 405.718 86.5264 406.216 86.8291C406.719 87.127 407.09 87.4761 407.329 87.8765C407.573 88.2769 407.695 88.748 407.695 89.29C407.695 90.1543 407.358 90.8477 406.685 91.3701C406.011 91.8877 405.11 92.1465 403.982 92.1465C403.25 92.1465 402.566 92.0073 401.931 91.729C401.296 91.4458 400.806 91.0601 400.459 90.5718C400.117 90.0835 399.946 89.5293 399.946 88.9092H401.36C401.36 89.5537 401.597 90.064 402.07 90.4399C402.549 90.811 403.186 90.9966 403.982 90.9966C404.724 90.9966 405.293 90.8452 405.688 90.5425C406.084 90.2397 406.282 89.8271 406.282 89.3047C406.282 88.7822 406.099 88.3794 405.732 88.0962C405.366 87.8081 404.702 87.5249 403.74 87.2466Z" fill="black"/>
<path d="M315 93.4648H408.259V94.1973H315V93.4648Z" fill="black"/>
<path d="M316.238 323V312.336H319.248C320.176 312.336 320.996 312.541 321.709 312.951C322.422 313.361 322.971 313.945 323.357 314.702C323.748 315.458 323.945 316.328 323.95 317.309V317.99C323.95 318.996 323.755 319.877 323.364 320.634C322.979 321.391 322.424 321.972 321.702 322.377C320.984 322.783 320.146 322.99 319.189 323H316.238ZM317.644 313.493V321.85H319.124C320.208 321.85 321.05 321.513 321.65 320.839C322.256 320.166 322.559 319.206 322.559 317.961V317.338C322.559 316.127 322.273 315.188 321.702 314.519C321.135 313.845 320.33 313.503 319.285 313.493H317.644ZM332.109 318.071H327.488V321.85H332.856V323H326.082V312.336H332.783V313.493H327.488V316.921H332.109V318.071ZM337.749 318.247C336.543 317.9 335.664 317.475 335.112 316.972C334.565 316.464 334.292 315.839 334.292 315.097C334.292 314.257 334.626 313.564 335.295 313.017C335.969 312.465 336.843 312.189 337.917 312.189C338.65 312.189 339.302 312.331 339.873 312.614C340.449 312.897 340.894 313.288 341.206 313.786C341.523 314.284 341.682 314.829 341.682 315.419H340.269C340.269 314.775 340.063 314.27 339.653 313.903C339.243 313.532 338.665 313.347 337.917 313.347C337.224 313.347 336.682 313.5 336.292 313.808C335.906 314.111 335.713 314.533 335.713 315.075C335.713 315.51 335.896 315.878 336.262 316.181C336.633 316.479 337.261 316.752 338.145 317.001C339.033 317.25 339.727 317.526 340.225 317.829C340.728 318.127 341.099 318.476 341.338 318.876C341.582 319.277 341.704 319.748 341.704 320.29C341.704 321.154 341.367 321.848 340.693 322.37C340.02 322.888 339.119 323.146 337.991 323.146C337.258 323.146 336.575 323.007 335.94 322.729C335.305 322.446 334.814 322.06 334.468 321.572C334.126 321.083 333.955 320.529 333.955 319.909H335.369C335.369 320.554 335.605 321.064 336.079 321.44C336.558 321.811 337.195 321.997 337.991 321.997C338.733 321.997 339.302 321.845 339.697 321.542C340.093 321.24 340.291 320.827 340.291 320.305C340.291 319.782 340.107 319.379 339.741 319.096C339.375 318.808 338.711 318.525 337.749 318.247ZM345.022 323H343.616V312.336H345.022V323ZM351.511 318.686H349.006V323H347.593V312.336H351.123C352.324 312.336 353.247 312.609 353.892 313.156C354.541 313.703 354.866 314.499 354.866 315.544C354.866 316.208 354.685 316.787 354.324 317.28C353.967 317.773 353.469 318.142 352.83 318.386L355.334 322.912V323H353.826L351.511 318.686ZM349.006 317.536H351.167C351.865 317.536 352.419 317.355 352.83 316.994C353.245 316.633 353.452 316.149 353.452 315.544C353.452 314.885 353.254 314.379 352.859 314.028C352.468 313.676 351.902 313.498 351.16 313.493H349.006V317.536ZM362.871 318.071H358.25V321.85H363.618V323H356.843V312.336H363.545V313.493H358.25V316.921H362.871V318.071ZM368.511 318.247C367.305 317.9 366.426 317.475 365.874 316.972C365.327 316.464 365.054 315.839 365.054 315.097C365.054 314.257 365.388 313.564 366.057 313.017C366.731 312.465 367.605 312.189 368.679 312.189C369.412 312.189 370.063 312.331 370.635 312.614C371.211 312.897 371.655 313.288 371.968 313.786C372.285 314.284 372.444 314.829 372.444 315.419H371.03C371.03 314.775 370.825 314.27 370.415 313.903C370.005 313.532 369.426 313.347 368.679 313.347C367.986 313.347 367.444 313.5 367.053 313.808C366.667 314.111 366.475 314.533 366.475 315.075C366.475 315.51 366.658 315.878 367.024 316.181C367.395 316.479 368.022 316.752 368.906 317.001C369.795 317.25 370.488 317.526 370.986 317.829C371.489 318.127 371.86 318.476 372.1 318.876C372.344 319.277 372.466 319.748 372.466 320.29C372.466 321.154 372.129 321.848 371.455 322.37C370.781 322.888 369.88 323.146 368.752 323.146C368.02 323.146 367.336 323.007 366.702 322.729C366.067 322.446 365.576 322.06 365.229 321.572C364.888 321.083 364.717 320.529 364.717 319.909H366.13C366.13 320.554 366.367 321.064 366.841 321.44C367.319 321.811 367.957 321.997 368.752 321.997C369.495 321.997 370.063 321.845 370.459 321.542C370.854 321.24 371.052 320.827 371.052 320.305C371.052 319.782 370.869 319.379 370.503 319.096C370.137 318.808 369.473 318.525 368.511 318.247Z" fill="black"/>
<path d="M315 324.465H373.03V325.197H315V324.465Z" fill="black"/>
<path d="M345.644 353.825V358H344.238V347.336H348.171C349.338 347.336 350.251 347.634 350.91 348.229C351.574 348.825 351.906 349.614 351.906 350.595C351.906 351.63 351.582 352.429 350.932 352.99C350.288 353.547 349.362 353.825 348.156 353.825H345.644ZM345.644 352.675H348.171C348.923 352.675 349.499 352.5 349.899 352.148C350.3 351.792 350.5 351.279 350.5 350.61C350.5 349.975 350.3 349.467 349.899 349.086C349.499 348.706 348.95 348.508 348.251 348.493H345.644V352.675ZM354.96 358H353.605V346.75H354.96V358ZM362.028 358C361.95 357.844 361.887 357.565 361.838 357.165C361.208 357.819 360.456 358.146 359.582 358.146C358.801 358.146 358.159 357.927 357.656 357.487C357.158 357.043 356.909 356.481 356.909 355.803C356.909 354.978 357.221 354.338 357.846 353.884C358.476 353.425 359.36 353.195 360.498 353.195H361.816V352.573C361.816 352.099 361.674 351.723 361.391 351.445C361.108 351.162 360.69 351.02 360.139 351.02C359.655 351.02 359.25 351.142 358.923 351.386C358.596 351.63 358.432 351.926 358.432 352.272H357.07C357.07 351.877 357.209 351.496 357.487 351.13C357.771 350.759 358.151 350.466 358.63 350.251C359.113 350.036 359.643 349.929 360.219 349.929C361.132 349.929 361.848 350.158 362.365 350.617C362.883 351.071 363.151 351.699 363.171 352.5V356.147C363.171 356.875 363.264 357.453 363.449 357.883V358H362.028ZM359.78 356.967C360.205 356.967 360.607 356.857 360.988 356.638C361.369 356.418 361.645 356.132 361.816 355.781V354.155H360.754C359.094 354.155 358.264 354.641 358.264 355.612C358.264 356.037 358.405 356.369 358.688 356.608C358.972 356.848 359.335 356.967 359.78 356.967ZM367.771 356.015L369.616 350.075H371.066L367.88 359.223C367.387 360.542 366.604 361.201 365.529 361.201L365.273 361.179L364.768 361.083V359.985L365.134 360.014C365.593 360.014 365.949 359.921 366.203 359.736C366.462 359.55 366.674 359.211 366.84 358.718L367.141 357.912L364.313 350.075H365.793L367.771 356.015ZM373.051 358V351.123H371.799V350.075H373.051V349.262C373.051 348.413 373.278 347.756 373.732 347.292C374.187 346.828 374.829 346.596 375.659 346.596C375.971 346.596 376.281 346.638 376.589 346.721L376.516 347.819C376.286 347.775 376.042 347.753 375.783 347.753C375.344 347.753 375.004 347.883 374.765 348.142C374.526 348.396 374.406 348.762 374.406 349.24V350.075H376.098V351.123H374.406V358H373.051ZM382.492 357.216C381.965 357.836 381.191 358.146 380.17 358.146C379.326 358.146 378.681 357.902 378.237 357.414C377.797 356.921 377.575 356.193 377.57 355.231V350.075H378.925V355.195C378.925 356.396 379.414 356.997 380.39 356.997C381.425 356.997 382.114 356.611 382.456 355.839V350.075H383.811V358H382.521L382.492 357.216ZM387.348 358H385.993V346.75H387.348V358ZM394.599 351.035C395.2 350.297 395.981 349.929 396.943 349.929C398.618 349.929 399.462 350.874 399.477 352.763V358H398.122V352.756C398.117 352.185 397.985 351.762 397.727 351.489C397.473 351.215 397.075 351.079 396.533 351.079C396.093 351.079 395.708 351.196 395.375 351.43C395.043 351.665 394.785 351.972 394.599 352.353V358H393.244V346.75H394.599V351.035ZM404.794 358.146C403.72 358.146 402.846 357.795 402.172 357.092C401.499 356.384 401.162 355.439 401.162 354.257V354.008C401.162 353.222 401.311 352.521 401.608 351.906C401.911 351.286 402.331 350.803 402.868 350.456C403.41 350.104 403.996 349.929 404.626 349.929C405.656 349.929 406.457 350.268 407.028 350.947C407.6 351.625 407.885 352.597 407.885 353.862V354.426H402.517C402.536 355.207 402.763 355.839 403.198 356.323C403.637 356.801 404.194 357.041 404.868 357.041C405.346 357.041 405.751 356.943 406.083 356.748C406.416 356.552 406.706 356.293 406.955 355.971L407.783 356.616C407.119 357.636 406.123 358.146 404.794 358.146ZM404.626 351.042C404.079 351.042 403.62 351.242 403.249 351.643C402.878 352.038 402.648 352.595 402.561 353.312H406.53V353.21C406.491 352.521 406.306 351.989 405.974 351.613C405.642 351.232 405.192 351.042 404.626 351.042ZM414.353 358C414.274 357.844 414.211 357.565 414.162 357.165C413.532 357.819 412.78 358.146 411.906 358.146C411.125 358.146 410.483 357.927 409.98 357.487C409.482 357.043 409.233 356.481 409.233 355.803C409.233 354.978 409.545 354.338 410.17 353.884C410.8 353.425 411.684 353.195 412.822 353.195H414.14V352.573C414.14 352.099 413.999 351.723 413.715 351.445C413.432 351.162 413.015 351.02 412.463 351.02C411.979 351.02 411.574 351.142 411.247 351.386C410.92 351.63 410.756 351.926 410.756 352.272H409.394C409.394 351.877 409.533 351.496 409.812 351.13C410.095 350.759 410.476 350.466 410.954 350.251C411.438 350.036 411.967 349.929 412.543 349.929C413.457 349.929 414.172 350.158 414.689 350.617C415.207 351.071 415.476 351.699 415.495 352.5V356.147C415.495 356.875 415.588 357.453 415.773 357.883V358H414.353ZM412.104 356.967C412.529 356.967 412.932 356.857 413.312 356.638C413.693 356.418 413.969 356.132 414.14 355.781V354.155H413.078C411.418 354.155 410.588 354.641 410.588 355.612C410.588 356.037 410.729 356.369 411.013 356.608C411.296 356.848 411.66 356.967 412.104 356.967ZM419.091 358H417.736V346.75H419.091V358ZM423.105 348.156V350.075H424.584V351.123H423.105V356.037C423.105 356.354 423.171 356.594 423.303 356.755C423.435 356.911 423.659 356.989 423.977 356.989C424.133 356.989 424.348 356.96 424.621 356.901V358C424.265 358.098 423.918 358.146 423.581 358.146C422.976 358.146 422.519 357.963 422.211 357.597C421.904 357.231 421.75 356.711 421.75 356.037V351.123H420.307V350.075H421.75V348.156H423.105ZM427.529 351.035C428.129 350.297 428.911 349.929 429.873 349.929C431.547 349.929 432.392 350.874 432.407 352.763V358H431.052V352.756C431.047 352.185 430.915 351.762 430.656 351.489C430.402 351.215 430.004 351.079 429.462 351.079C429.023 351.079 428.637 351.196 428.305 351.43C427.973 351.665 427.714 351.972 427.529 352.353V358H426.174V346.75H427.529V351.035ZM444.851 354.125C444.851 355.332 444.575 356.303 444.023 357.041C443.471 357.778 442.724 358.146 441.782 358.146C440.82 358.146 440.063 357.841 439.511 357.231V361.047H438.156V350.075H439.394L439.46 350.954C440.012 350.271 440.778 349.929 441.76 349.929C442.712 349.929 443.464 350.288 444.016 351.005C444.572 351.723 444.851 352.722 444.851 354.001V354.125ZM443.496 353.972C443.496 353.078 443.305 352.373 442.924 351.855C442.543 351.337 442.021 351.079 441.357 351.079C440.537 351.079 439.921 351.442 439.511 352.17V355.957C439.917 356.679 440.537 357.041 441.372 357.041C442.021 357.041 442.536 356.784 442.917 356.271C443.303 355.754 443.496 354.987 443.496 353.972ZM450.41 351.291C450.205 351.257 449.982 351.24 449.743 351.24C448.854 351.24 448.251 351.618 447.934 352.375V358H446.579V350.075H447.897L447.919 350.991C448.364 350.283 448.994 349.929 449.809 349.929C450.073 349.929 450.273 349.963 450.41 350.031V351.291ZM456.262 358C456.184 357.844 456.12 357.565 456.071 357.165C455.441 357.819 454.689 358.146 453.815 358.146C453.034 358.146 452.392 357.927 451.889 357.487C451.391 357.043 451.142 356.481 451.142 355.803C451.142 354.978 451.455 354.338 452.08 353.884C452.709 353.425 453.593 353.195 454.731 353.195H456.049V352.573C456.049 352.099 455.908 351.723 455.625 351.445C455.341 351.162 454.924 351.02 454.372 351.02C453.889 351.02 453.483 351.142 453.156 351.386C452.829 351.63 452.666 351.926 452.666 352.272H451.303C451.303 351.877 451.442 351.496 451.721 351.13C452.004 350.759 452.385 350.466 452.863 350.251C453.347 350.036 453.876 349.929 454.453 349.929C455.366 349.929 456.081 350.158 456.599 350.617C457.116 351.071 457.385 351.699 457.404 352.5V356.147C457.404 356.875 457.497 357.453 457.683 357.883V358H456.262ZM454.013 356.967C454.438 356.967 454.841 356.857 455.222 356.638C455.603 356.418 455.878 356.132 456.049 355.781V354.155H454.987C453.327 354.155 452.497 354.641 452.497 355.612C452.497 356.037 452.639 356.369 452.922 356.608C453.205 356.848 453.569 356.967 454.013 356.967ZM462.707 357.041C463.19 357.041 463.613 356.894 463.974 356.601C464.335 356.308 464.536 355.942 464.575 355.502H465.856C465.832 355.957 465.676 356.389 465.388 356.799C465.1 357.209 464.714 357.536 464.23 357.78C463.752 358.024 463.244 358.146 462.707 358.146C461.628 358.146 460.769 357.788 460.129 357.07C459.494 356.347 459.177 355.361 459.177 354.111V353.884C459.177 353.112 459.318 352.426 459.602 351.826C459.885 351.225 460.29 350.759 460.817 350.427C461.35 350.095 461.977 349.929 462.7 349.929C463.588 349.929 464.326 350.195 464.912 350.727C465.502 351.259 465.817 351.95 465.856 352.8H464.575C464.536 352.287 464.34 351.867 463.989 351.54C463.642 351.208 463.212 351.042 462.7 351.042C462.011 351.042 461.477 351.291 461.096 351.789C460.72 352.282 460.532 352.998 460.532 353.935V354.191C460.532 355.104 460.72 355.808 461.096 356.301C461.472 356.794 462.009 357.041 462.707 357.041ZM469.218 348.156V350.075H470.698V351.123H469.218V356.037C469.218 356.354 469.284 356.594 469.416 356.755C469.548 356.911 469.772 356.989 470.09 356.989C470.246 356.989 470.461 356.96 470.734 356.901V358C470.378 358.098 470.031 358.146 469.694 358.146C469.089 358.146 468.632 357.963 468.325 357.597C468.017 357.231 467.863 356.711 467.863 356.037V351.123H466.42V350.075H467.863V348.156H469.218ZM473.759 358H472.404V350.075H473.759V358ZM472.294 347.973C472.294 347.753 472.36 347.568 472.492 347.417C472.629 347.265 472.829 347.189 473.093 347.189C473.356 347.189 473.557 347.265 473.693 347.417C473.83 347.568 473.898 347.753 473.898 347.973C473.898 348.193 473.83 348.376 473.693 348.522C473.557 348.669 473.356 348.742 473.093 348.742C472.829 348.742 472.629 348.669 472.492 348.522C472.36 348.376 472.294 348.193 472.294 347.973ZM479.113 357.041C479.597 357.041 480.019 356.894 480.38 356.601C480.742 356.308 480.942 355.942 480.981 355.502H482.263C482.238 355.957 482.082 356.389 481.794 356.799C481.506 357.209 481.12 357.536 480.637 357.78C480.158 358.024 479.65 358.146 479.113 358.146C478.034 358.146 477.175 357.788 476.535 357.07C475.9 356.347 475.583 355.361 475.583 354.111V353.884C475.583 353.112 475.725 352.426 476.008 351.826C476.291 351.225 476.696 350.759 477.224 350.427C477.756 350.095 478.383 349.929 479.106 349.929C479.995 349.929 480.732 350.195 481.318 350.727C481.909 351.259 482.224 351.95 482.263 352.8H480.981C480.942 352.287 480.747 351.867 480.395 351.54C480.048 351.208 479.619 351.042 479.106 351.042C478.417 351.042 477.883 351.291 477.502 351.789C477.126 352.282 476.938 352.998 476.938 353.935V354.191C476.938 355.104 477.126 355.808 477.502 356.301C477.878 356.794 478.415 357.041 479.113 357.041ZM487.075 358.146C486 358.146 485.126 357.795 484.453 357.092C483.779 356.384 483.442 355.439 483.442 354.257V354.008C483.442 353.222 483.591 352.521 483.889 351.906C484.191 351.286 484.611 350.803 485.148 350.456C485.69 350.104 486.276 349.929 486.906 349.929C487.937 349.929 488.737 350.268 489.309 350.947C489.88 351.625 490.166 352.597 490.166 353.862V354.426H484.797C484.816 355.207 485.043 355.839 485.478 356.323C485.917 356.801 486.474 357.041 487.148 357.041C487.626 357.041 488.032 356.943 488.364 356.748C488.696 356.552 488.986 356.293 489.235 355.971L490.063 356.616C489.399 357.636 488.403 358.146 487.075 358.146ZM486.906 351.042C486.359 351.042 485.9 351.242 485.529 351.643C485.158 352.038 484.929 352.595 484.841 353.312H488.811V353.21C488.771 352.521 488.586 351.989 488.254 351.613C487.922 351.232 487.473 351.042 486.906 351.042ZM496.354 355.898C496.354 355.532 496.215 355.249 495.937 355.048C495.664 354.843 495.183 354.667 494.494 354.521C493.811 354.375 493.266 354.199 492.861 353.994C492.46 353.789 492.163 353.544 491.967 353.261C491.777 352.978 491.682 352.641 491.682 352.25C491.682 351.601 491.955 351.052 492.502 350.603C493.054 350.153 493.757 349.929 494.611 349.929C495.51 349.929 496.237 350.161 496.794 350.625C497.355 351.088 497.636 351.682 497.636 352.404H496.274C496.274 352.033 496.115 351.713 495.798 351.445C495.485 351.176 495.09 351.042 494.611 351.042C494.118 351.042 493.732 351.149 493.454 351.364C493.176 351.579 493.037 351.86 493.037 352.207C493.037 352.534 493.166 352.78 493.425 352.946C493.684 353.112 494.15 353.271 494.824 353.422C495.502 353.574 496.052 353.754 496.472 353.964C496.892 354.174 497.202 354.428 497.402 354.726C497.607 355.019 497.709 355.378 497.709 355.803C497.709 356.511 497.426 357.08 496.86 357.509C496.293 357.934 495.559 358.146 494.655 358.146C494.021 358.146 493.459 358.034 492.971 357.81C492.482 357.585 492.099 357.272 491.821 356.872C491.547 356.467 491.411 356.03 491.411 355.561H492.766C492.79 356.015 492.971 356.376 493.308 356.645C493.649 356.909 494.099 357.041 494.655 357.041C495.168 357.041 495.578 356.938 495.886 356.733C496.198 356.523 496.354 356.245 496.354 355.898Z" fill="black"/>
<path d="M364.805 145.227L369.37 158.117L373.911 145.227H378.721V163H375.046V158.142L375.413 149.755L370.615 163H368.101L363.315 149.768L363.682 158.142V163H360.02V145.227H364.805ZM386.619 158.007L389.06 149.792H392.844L387.534 165.051L387.241 165.747C386.452 167.472 385.15 168.334 383.335 168.334C382.822 168.334 382.301 168.257 381.772 168.103V165.429L382.31 165.441C382.977 165.441 383.473 165.34 383.799 165.136C384.132 164.933 384.393 164.595 384.58 164.123L384.995 163.037L380.369 149.792H384.165L386.619 158.007ZM403.708 149.792L403.818 151.318C404.762 150.138 406.028 149.548 407.615 149.548C409.014 149.548 410.056 149.959 410.74 150.781C411.423 151.603 411.773 152.832 411.79 154.467V163H408.262V154.553C408.262 153.804 408.099 153.263 407.773 152.929C407.448 152.587 406.907 152.417 406.15 152.417C405.157 152.417 404.412 152.84 403.916 153.686V163H400.388V149.792H403.708ZM420.554 163.244C418.617 163.244 417.039 162.65 415.818 161.462C414.605 160.274 413.999 158.691 413.999 156.713V156.372C413.999 155.045 414.255 153.861 414.768 152.819C415.281 151.77 416.005 150.964 416.941 150.402C417.885 149.833 418.959 149.548 420.164 149.548C421.97 149.548 423.39 150.118 424.424 151.257C425.465 152.396 425.986 154.012 425.986 156.103V157.543H417.576C417.69 158.406 418.031 159.098 418.601 159.619C419.179 160.139 419.907 160.4 420.786 160.4C422.145 160.4 423.207 159.908 423.972 158.923L425.706 160.864C425.177 161.612 424.46 162.198 423.557 162.622C422.654 163.037 421.653 163.244 420.554 163.244ZM420.151 152.404C419.451 152.404 418.882 152.64 418.442 153.112C418.011 153.584 417.734 154.26 417.612 155.139H422.52V154.858C422.503 154.077 422.292 153.474 421.885 153.051C421.478 152.62 420.9 152.404 420.151 152.404ZM433.494 160.4C434.145 160.4 434.674 160.221 435.081 159.863C435.487 159.505 435.699 159.029 435.715 158.435H439.023C439.015 159.33 438.771 160.152 438.291 160.9C437.811 161.641 437.152 162.219 436.313 162.634C435.483 163.041 434.564 163.244 433.555 163.244C431.667 163.244 430.177 162.646 429.087 161.45C427.996 160.245 427.451 158.585 427.451 156.469V156.237C427.451 154.203 427.992 152.579 429.075 151.367C430.157 150.154 431.642 149.548 433.53 149.548C435.182 149.548 436.505 150.02 437.498 150.964C438.499 151.9 439.007 153.149 439.023 154.711H435.715C435.699 154.028 435.487 153.474 435.081 153.051C434.674 152.62 434.137 152.404 433.469 152.404C432.647 152.404 432.025 152.705 431.602 153.308C431.187 153.902 430.979 154.87 430.979 156.213V156.579C430.979 157.938 431.187 158.915 431.602 159.509C432.017 160.103 432.647 160.4 433.494 160.4ZM445.835 157.702L444.565 158.972V163H441.038V144.25H444.565V154.638L445.249 153.759L448.63 149.792H452.866L448.093 155.297L453.281 163H449.229L445.835 157.702ZM468.271 163C468.109 162.683 467.991 162.288 467.917 161.816C467.063 162.768 465.952 163.244 464.585 163.244C463.291 163.244 462.217 162.87 461.362 162.121C460.516 161.372 460.093 160.428 460.093 159.289C460.093 157.889 460.61 156.815 461.643 156.066C462.685 155.318 464.186 154.939 466.147 154.931H467.771V154.174C467.771 153.564 467.612 153.076 467.295 152.709C466.986 152.343 466.493 152.16 465.818 152.16C465.224 152.16 464.756 152.303 464.414 152.587C464.08 152.872 463.914 153.263 463.914 153.759H460.386C460.386 152.994 460.622 152.286 461.094 151.635C461.566 150.984 462.233 150.476 463.096 150.109C463.958 149.735 464.927 149.548 466.001 149.548C467.629 149.548 468.918 149.959 469.871 150.781C470.831 151.595 471.311 152.742 471.311 154.223V159.948C471.319 161.201 471.494 162.15 471.836 162.792V163H468.271ZM465.354 160.546C465.875 160.546 466.355 160.432 466.794 160.205C467.234 159.969 467.559 159.655 467.771 159.265V156.994H466.453C464.687 156.994 463.747 157.604 463.633 158.825L463.621 159.033C463.621 159.472 463.775 159.834 464.084 160.119C464.394 160.404 464.817 160.546 465.354 160.546ZM477.268 149.792L477.378 151.318C478.322 150.138 479.587 149.548 481.174 149.548C482.574 149.548 483.616 149.959 484.299 150.781C484.983 151.603 485.333 152.832 485.349 154.467V163H481.821V154.553C481.821 153.804 481.659 153.263 481.333 152.929C481.007 152.587 480.466 152.417 479.709 152.417C478.717 152.417 477.972 152.84 477.476 153.686V163H473.948V149.792H477.268ZM487.485 156.298C487.485 154.239 487.945 152.6 488.865 151.379C489.792 150.158 491.058 149.548 492.661 149.548C493.947 149.548 495.009 150.028 495.847 150.988V144.25H499.387V163H496.201L496.03 161.596C495.151 162.695 494.02 163.244 492.637 163.244C491.082 163.244 489.833 162.634 488.889 161.413C487.953 160.184 487.485 158.479 487.485 156.298ZM491.013 156.555C491.013 157.792 491.229 158.74 491.66 159.399C492.091 160.058 492.718 160.388 493.54 160.388C494.631 160.388 495.4 159.928 495.847 159.008V153.796C495.408 152.876 494.647 152.417 493.564 152.417C491.864 152.417 491.013 153.796 491.013 156.555ZM520.249 156.518C520.249 158.634 519.797 160.286 518.894 161.474C517.991 162.654 516.729 163.244 515.11 163.244C513.678 163.244 512.534 162.695 511.68 161.596L511.521 163H508.347V144.25H511.875V150.976C512.689 150.024 513.759 149.548 515.085 149.548C516.697 149.548 517.958 150.142 518.87 151.33C519.789 152.51 520.249 154.174 520.249 156.323V156.518ZM516.721 156.262C516.721 154.927 516.51 153.955 516.086 153.344C515.663 152.726 515.033 152.417 514.194 152.417C513.071 152.417 512.298 152.876 511.875 153.796V159.008C512.306 159.936 513.088 160.4 514.219 160.4C515.358 160.4 516.107 159.838 516.465 158.715C516.636 158.178 516.721 157.36 516.721 156.262ZM530.088 163C529.925 162.683 529.807 162.288 529.734 161.816C528.879 162.768 527.769 163.244 526.401 163.244C525.107 163.244 524.033 162.87 523.179 162.121C522.332 161.372 521.909 160.428 521.909 159.289C521.909 157.889 522.426 156.815 523.459 156.066C524.501 155.318 526.003 154.939 527.964 154.931H529.587V154.174C529.587 153.564 529.429 153.076 529.111 152.709C528.802 152.343 528.31 152.16 527.634 152.16C527.04 152.16 526.572 152.303 526.23 152.587C525.897 152.872 525.73 153.263 525.73 153.759H522.202C522.202 152.994 522.438 152.286 522.91 151.635C523.382 150.984 524.049 150.476 524.912 150.109C525.775 149.735 526.743 149.548 527.817 149.548C529.445 149.548 530.735 149.959 531.687 150.781C532.647 151.595 533.127 152.742 533.127 154.223V159.948C533.136 161.201 533.311 162.15 533.652 162.792V163H530.088ZM527.17 160.546C527.691 160.546 528.171 160.432 528.611 160.205C529.05 159.969 529.376 159.655 529.587 159.265V156.994H528.269C526.503 156.994 525.563 157.604 525.449 158.825L525.437 159.033C525.437 159.472 525.592 159.834 525.901 160.119C526.21 160.404 526.633 160.546 527.17 160.546ZM541.331 160.4C541.982 160.4 542.511 160.221 542.917 159.863C543.324 159.505 543.536 159.029 543.552 158.435H546.86C546.852 159.33 546.608 160.152 546.128 160.9C545.648 161.641 544.989 162.219 544.15 162.634C543.32 163.041 542.401 163.244 541.392 163.244C539.504 163.244 538.014 162.646 536.924 161.45C535.833 160.245 535.288 158.585 535.288 156.469V156.237C535.288 154.203 535.829 152.579 536.912 151.367C537.994 150.154 539.479 149.548 541.367 149.548C543.019 149.548 544.342 150.02 545.334 150.964C546.335 151.9 546.844 153.149 546.86 154.711H543.552C543.536 154.028 543.324 153.474 542.917 153.051C542.511 152.62 541.973 152.404 541.306 152.404C540.484 152.404 539.862 152.705 539.438 153.308C539.023 153.902 538.816 154.87 538.816 156.213V156.579C538.816 157.938 539.023 158.915 539.438 159.509C539.854 160.103 540.484 160.4 541.331 160.4ZM553.672 157.702L552.402 158.972V163H548.875V144.25H552.402V154.638L553.086 153.759L556.467 149.792H560.703L555.93 155.297L561.118 163H557.065L553.672 157.702ZM571.897 151.232C572.833 150.109 574.009 149.548 575.425 149.548C578.289 149.548 579.742 151.212 579.783 154.541V163H576.255V154.638C576.255 153.881 576.092 153.324 575.767 152.966C575.441 152.6 574.9 152.417 574.143 152.417C573.11 152.417 572.361 152.815 571.897 153.613V163H568.369V144.25H571.897V151.232ZM590.354 161.657C589.483 162.715 588.279 163.244 586.741 163.244C585.325 163.244 584.242 162.837 583.494 162.023C582.753 161.21 582.375 160.017 582.358 158.447V149.792H585.886V158.325C585.886 159.7 586.513 160.388 587.766 160.388C588.962 160.388 589.784 159.973 590.232 159.143V149.792H593.772V163H590.452L590.354 161.657ZM603.855 153.1C603.375 153.035 602.952 153.002 602.585 153.002C601.251 153.002 600.376 153.454 599.961 154.357V163H596.433V149.792H599.766L599.863 151.367C600.571 150.154 601.552 149.548 602.805 149.548C603.196 149.548 603.562 149.601 603.904 149.707L603.855 153.1ZM610.398 146.545V149.792H612.656V152.38H610.398V158.972C610.398 159.46 610.492 159.81 610.679 160.021C610.866 160.233 611.224 160.339 611.753 160.339C612.144 160.339 612.489 160.31 612.791 160.253V162.927C612.099 163.138 611.387 163.244 610.654 163.244C608.18 163.244 606.919 161.995 606.87 159.497V152.38H604.941V149.792H606.87V146.545H610.398ZM614.805 161.267C614.805 160.705 614.992 160.249 615.366 159.899C615.749 159.549 616.225 159.375 616.794 159.375C617.372 159.375 617.848 159.549 618.223 159.899C618.605 160.249 618.796 160.705 618.796 161.267C618.796 161.82 618.609 162.272 618.235 162.622C617.861 162.963 617.38 163.134 616.794 163.134C616.217 163.134 615.741 162.963 615.366 162.622C614.992 162.272 614.805 161.82 614.805 161.267ZM628.354 163V145.227H634.58C636.737 145.227 638.372 145.642 639.487 146.472C640.602 147.294 641.16 148.502 641.16 150.097C641.16 150.968 640.936 151.737 640.488 152.404C640.041 153.063 639.418 153.548 638.621 153.857C639.532 154.085 640.248 154.545 640.769 155.236C641.298 155.928 641.562 156.774 641.562 157.775C641.562 159.484 641.017 160.778 639.927 161.657C638.836 162.536 637.282 162.984 635.264 163H628.354ZM632.017 155.261V160.058H635.154C636.016 160.058 636.688 159.855 637.168 159.448C637.656 159.033 637.9 158.463 637.9 157.739C637.9 156.111 637.058 155.285 635.374 155.261H632.017ZM632.017 152.673H634.727C636.574 152.64 637.498 151.904 637.498 150.463C637.498 149.658 637.262 149.08 636.79 148.73C636.326 148.372 635.589 148.193 634.58 148.193H632.017V152.673ZM652 161.657C651.129 162.715 649.924 163.244 648.386 163.244C646.97 163.244 645.888 162.837 645.139 162.023C644.399 161.21 644.02 160.017 644.004 158.447V149.792H647.532V158.325C647.532 159.7 648.158 160.388 649.412 160.388C650.608 160.388 651.43 159.973 651.877 159.143V149.792H655.417V163H652.097L652 161.657ZM662.302 146.545V149.792H664.561V152.38H662.302V158.972C662.302 159.46 662.396 159.81 662.583 160.021C662.77 160.233 663.128 160.339 663.657 160.339C664.048 160.339 664.394 160.31 664.695 160.253V162.927C664.003 163.138 663.291 163.244 662.559 163.244C660.085 163.244 658.823 161.995 658.774 159.497V152.38H656.846V149.792H658.774V146.545H662.302ZM675.999 149.792L676.108 151.318C677.052 150.138 678.318 149.548 679.905 149.548C681.305 149.548 682.346 149.959 683.03 150.781C683.713 151.603 684.063 152.832 684.08 154.467V163H680.552V154.553C680.552 153.804 680.389 153.263 680.063 152.929C679.738 152.587 679.197 152.417 678.44 152.417C677.447 152.417 676.702 152.84 676.206 153.686V163H672.678V149.792H675.999ZM692.844 163.244C690.907 163.244 689.329 162.65 688.108 161.462C686.895 160.274 686.289 158.691 686.289 156.713V156.372C686.289 155.045 686.545 153.861 687.058 152.819C687.571 151.77 688.295 150.964 689.231 150.402C690.175 149.833 691.249 149.548 692.454 149.548C694.26 149.548 695.68 150.118 696.714 151.257C697.756 152.396 698.276 154.012 698.276 156.103V157.543H689.866C689.98 158.406 690.321 159.098 690.891 159.619C691.469 160.139 692.197 160.4 693.076 160.4C694.435 160.4 695.497 159.908 696.262 158.923L697.996 160.864C697.467 161.612 696.75 162.198 695.847 162.622C694.944 163.037 693.943 163.244 692.844 163.244ZM692.441 152.404C691.742 152.404 691.172 152.64 690.732 153.112C690.301 153.584 690.024 154.26 689.902 155.139H694.81V154.858C694.793 154.077 694.582 153.474 694.175 153.051C693.768 152.62 693.19 152.404 692.441 152.404ZM705.784 160.4C706.435 160.4 706.964 160.221 707.371 159.863C707.778 159.505 707.989 159.029 708.005 158.435H711.313C711.305 159.33 711.061 160.152 710.581 160.9C710.101 161.641 709.442 162.219 708.604 162.634C707.773 163.041 706.854 163.244 705.845 163.244C703.957 163.244 702.467 162.646 701.377 161.45C700.286 160.245 699.741 158.585 699.741 156.469V156.237C699.741 154.203 700.282 152.579 701.365 151.367C702.447 150.154 703.932 149.548 705.82 149.548C707.472 149.548 708.795 150.02 709.788 150.964C710.789 151.9 711.297 153.149 711.313 154.711H708.005C707.989 154.028 707.778 153.474 707.371 153.051C706.964 152.62 706.427 152.404 705.759 152.404C704.937 152.404 704.315 152.705 703.892 153.308C703.477 153.902 703.269 154.87 703.269 156.213V156.579C703.269 157.938 703.477 158.915 703.892 159.509C704.307 160.103 704.937 160.4 705.784 160.4ZM718.125 157.702L716.855 158.972V163H713.328V144.25H716.855V154.638L717.539 153.759L720.92 149.792H725.156L720.383 155.297L725.571 163H721.519L718.125 157.702ZM740.061 159.35C740.061 158.919 739.845 158.581 739.414 158.337C738.991 158.085 738.307 157.861 737.363 157.666C734.222 157.006 732.651 155.672 732.651 153.662C732.651 152.49 733.136 151.513 734.104 150.732C735.081 149.943 736.354 149.548 737.925 149.548C739.601 149.548 740.94 149.943 741.941 150.732C742.95 151.521 743.455 152.547 743.455 153.808H739.927C739.927 153.304 739.764 152.889 739.438 152.563C739.113 152.229 738.604 152.062 737.913 152.062C737.319 152.062 736.859 152.197 736.533 152.465C736.208 152.734 736.045 153.076 736.045 153.491C736.045 153.881 736.228 154.199 736.594 154.443C736.969 154.679 737.595 154.886 738.474 155.065C739.353 155.236 740.094 155.432 740.696 155.651C742.559 156.335 743.491 157.519 743.491 159.204C743.491 160.408 742.974 161.385 741.941 162.133C740.907 162.874 739.573 163.244 737.937 163.244C736.83 163.244 735.846 163.049 734.983 162.658C734.128 162.259 733.457 161.718 732.969 161.035C732.48 160.343 732.236 159.598 732.236 158.801H735.581C735.614 159.427 735.846 159.908 736.277 160.241C736.708 160.575 737.286 160.742 738.01 160.742C738.686 160.742 739.194 160.616 739.536 160.363C739.886 160.103 740.061 159.765 740.061 159.35ZM749.998 146.545V149.792H752.256V152.38H749.998V158.972C749.998 159.46 750.091 159.81 750.278 160.021C750.465 160.233 750.824 160.339 751.353 160.339C751.743 160.339 752.089 160.31 752.39 160.253V162.927C751.698 163.138 750.986 163.244 750.254 163.244C747.78 163.244 746.519 161.995 746.47 159.497V152.38H744.541V149.792H746.47V146.545H749.998ZM761.643 153.1C761.163 153.035 760.74 153.002 760.374 153.002C759.039 153.002 758.164 153.454 757.749 154.357V163H754.221V149.792H757.554L757.651 151.367C758.359 150.154 759.34 149.548 760.593 149.548C760.984 149.548 761.35 149.601 761.692 149.707L761.643 153.1ZM769.187 163.244C767.25 163.244 765.671 162.65 764.451 161.462C763.238 160.274 762.632 158.691 762.632 156.713V156.372C762.632 155.045 762.888 153.861 763.401 152.819C763.914 151.77 764.638 150.964 765.574 150.402C766.518 149.833 767.592 149.548 768.796 149.548C770.603 149.548 772.023 150.118 773.057 151.257C774.098 152.396 774.619 154.012 774.619 156.103V157.543H766.208C766.322 158.406 766.664 159.098 767.234 159.619C767.812 160.139 768.54 160.4 769.419 160.4C770.778 160.4 771.84 159.908 772.605 158.923L774.338 160.864C773.809 161.612 773.093 162.198 772.19 162.622C771.287 163.037 770.286 163.244 769.187 163.244ZM768.784 152.404C768.084 152.404 767.515 152.64 767.075 153.112C766.644 153.584 766.367 154.26 766.245 155.139H771.152V154.858C771.136 154.077 770.924 153.474 770.518 153.051C770.111 152.62 769.533 152.404 768.784 152.404ZM780.857 146.545V149.792H783.115V152.38H780.857V158.972C780.857 159.46 780.951 159.81 781.138 160.021C781.325 160.233 781.683 160.339 782.212 160.339C782.603 160.339 782.948 160.31 783.25 160.253V162.927C782.558 163.138 781.846 163.244 781.113 163.244C778.639 163.244 777.378 161.995 777.329 159.497V152.38H775.4V149.792H777.329V146.545H780.857ZM790.574 160.4C791.225 160.4 791.754 160.221 792.161 159.863C792.568 159.505 792.779 159.029 792.795 158.435H796.104C796.095 159.33 795.851 160.152 795.371 160.9C794.891 161.641 794.232 162.219 793.394 162.634C792.563 163.041 791.644 163.244 790.635 163.244C788.747 163.244 787.257 162.646 786.167 161.45C785.076 160.245 784.531 158.585 784.531 156.469V156.237C784.531 154.203 785.072 152.579 786.155 151.367C787.237 150.154 788.722 149.548 790.61 149.548C792.262 149.548 793.585 150.02 794.578 150.964C795.579 151.9 796.087 153.149 796.104 154.711H792.795C792.779 154.028 792.568 153.474 792.161 153.051C791.754 152.62 791.217 152.404 790.549 152.404C789.727 152.404 789.105 152.705 788.682 153.308C788.267 153.902 788.059 154.87 788.059 156.213V156.579C788.059 157.938 788.267 158.915 788.682 159.509C789.097 160.103 789.727 160.4 790.574 160.4ZM801.56 151.232C802.496 150.109 803.672 149.548 805.088 149.548C807.952 149.548 809.405 151.212 809.446 154.541V163H805.918V154.638C805.918 153.881 805.755 153.324 805.43 152.966C805.104 152.6 804.563 152.417 803.806 152.417C802.773 152.417 802.024 152.815 801.56 153.613V163H798.032V144.25H801.56V151.232ZM818.186 163.244C816.249 163.244 814.67 162.65 813.45 161.462C812.237 160.274 811.631 158.691 811.631 156.713V156.372C811.631 155.045 811.887 153.861 812.4 152.819C812.913 151.77 813.637 150.964 814.573 150.402C815.517 149.833 816.591 149.548 817.795 149.548C819.602 149.548 821.022 150.118 822.056 151.257C823.097 152.396 823.618 154.012 823.618 156.103V157.543H815.208C815.321 158.406 815.663 159.098 816.233 159.619C816.811 160.139 817.539 160.4 818.418 160.4C819.777 160.4 820.839 159.908 821.604 158.923L823.337 160.864C822.808 161.612 822.092 162.198 821.189 162.622C820.286 163.037 819.285 163.244 818.186 163.244ZM817.783 152.404C817.083 152.404 816.514 152.64 816.074 153.112C815.643 153.584 815.366 154.26 815.244 155.139H820.151V154.858C820.135 154.077 819.924 153.474 819.517 153.051C819.11 152.62 818.532 152.404 817.783 152.404ZM832.786 159.35C832.786 158.919 832.57 158.581 832.139 158.337C831.715 158.085 831.032 157.861 830.088 157.666C826.947 157.006 825.376 155.672 825.376 153.662C825.376 152.49 825.86 151.513 826.829 150.732C827.805 149.943 829.079 149.548 830.649 149.548C832.326 149.548 833.665 149.943 834.666 150.732C835.675 151.521 836.179 152.547 836.179 153.808H832.651C832.651 153.304 832.489 152.889 832.163 152.563C831.838 152.229 831.329 152.062 830.637 152.062C830.043 152.062 829.583 152.197 829.258 152.465C828.932 152.734 828.77 153.076 828.77 153.491C828.77 153.881 828.953 154.199 829.319 154.443C829.693 154.679 830.32 154.886 831.199 155.065C832.078 155.236 832.818 155.432 833.42 155.651C835.284 156.335 836.216 157.519 836.216 159.204C836.216 160.408 835.699 161.385 834.666 162.133C833.632 162.874 832.297 163.244 830.662 163.244C829.555 163.244 828.57 163.049 827.708 162.658C826.853 162.259 826.182 161.718 825.693 161.035C825.205 160.343 824.961 159.598 824.961 158.801H828.306C828.338 159.427 828.57 159.908 829.001 160.241C829.433 160.575 830.011 160.742 830.735 160.742C831.41 160.742 831.919 160.616 832.261 160.363C832.611 160.103 832.786 159.765 832.786 159.35ZM850.803 163.244C848.866 163.244 847.288 162.65 846.067 161.462C844.854 160.274 844.248 158.691 844.248 156.713V156.372C844.248 155.045 844.504 153.861 845.017 152.819C845.53 151.77 846.254 150.964 847.19 150.402C848.134 149.833 849.208 149.548 850.413 149.548C852.219 149.548 853.639 150.118 854.673 151.257C855.715 152.396 856.235 154.012 856.235 156.103V157.543H847.825C847.939 158.406 848.28 159.098 848.85 159.619C849.428 160.139 850.156 160.4 851.035 160.4C852.394 160.4 853.456 159.908 854.221 158.923L855.955 160.864C855.426 161.612 854.709 162.198 853.806 162.622C852.903 163.037 851.902 163.244 850.803 163.244ZM850.4 152.404C849.701 152.404 849.131 152.64 848.691 153.112C848.26 153.584 847.983 154.26 847.861 155.139H852.769V154.858C852.752 154.077 852.541 153.474 852.134 153.051C851.727 152.62 851.149 152.404 850.4 152.404ZM863.279 153.735L865.5 149.792H869.272L865.513 156.262L869.431 163H865.647L863.291 158.85L860.947 163H857.151L861.069 156.262L857.322 149.792H861.106L863.279 153.735ZM876.804 163.244C874.867 163.244 873.289 162.65 872.068 161.462C870.855 160.274 870.249 158.691 870.249 156.713V156.372C870.249 155.045 870.505 153.861 871.018 152.819C871.531 151.77 872.255 150.964 873.191 150.402C874.135 149.833 875.209 149.548 876.414 149.548C878.22 149.548 879.64 150.118 880.674 151.257C881.715 152.396 882.236 154.012 882.236 156.103V157.543H873.826C873.94 158.406 874.281 159.098 874.851 159.619C875.429 160.139 876.157 160.4 877.036 160.4C878.395 160.4 879.457 159.908 880.222 158.923L881.956 160.864C881.427 161.612 880.71 162.198 879.807 162.622C878.904 163.037 877.903 163.244 876.804 163.244ZM876.401 152.404C875.701 152.404 875.132 152.64 874.692 153.112C874.261 153.584 873.984 154.26 873.862 155.139H878.77V154.858C878.753 154.077 878.542 153.474 878.135 153.051C877.728 152.62 877.15 152.404 876.401 152.404ZM891.672 153.1C891.192 153.035 890.769 153.002 890.403 153.002C889.068 153.002 888.193 153.454 887.778 154.357V163H884.25V149.792H887.583L887.681 151.367C888.389 150.154 889.369 149.548 890.623 149.548C891.013 149.548 891.379 149.601 891.721 149.707L891.672 153.1ZM898.63 160.4C899.281 160.4 899.81 160.221 900.217 159.863C900.624 159.505 900.836 159.029 900.852 158.435H904.16C904.152 159.33 903.908 160.152 903.428 160.9C902.948 161.641 902.288 162.219 901.45 162.634C900.62 163.041 899.701 163.244 898.691 163.244C896.803 163.244 895.314 162.646 894.224 161.45C893.133 160.245 892.588 158.585 892.588 156.469V156.237C892.588 154.203 893.129 152.579 894.211 151.367C895.294 150.154 896.779 149.548 898.667 149.548C900.319 149.548 901.641 150.02 902.634 150.964C903.635 151.9 904.144 153.149 904.16 154.711H900.852C900.836 154.028 900.624 153.474 900.217 153.051C899.81 152.62 899.273 152.404 898.606 152.404C897.784 152.404 897.161 152.705 896.738 153.308C896.323 153.902 896.116 154.87 896.116 156.213V156.579C896.116 157.938 896.323 158.915 896.738 159.509C897.153 160.103 897.784 160.4 898.63 160.4ZM909.897 163H906.357V149.792H909.897V163ZM906.15 146.374C906.15 145.845 906.325 145.41 906.675 145.068C907.033 144.726 907.517 144.555 908.127 144.555C908.73 144.555 909.21 144.726 909.568 145.068C909.926 145.41 910.105 145.845 910.105 146.374C910.105 146.911 909.922 147.351 909.556 147.692C909.198 148.034 908.722 148.205 908.127 148.205C907.533 148.205 907.053 148.034 906.687 147.692C906.329 147.351 906.15 146.911 906.15 146.374ZM919.968 159.35C919.968 158.919 919.753 158.581 919.321 158.337C918.898 158.085 918.215 157.861 917.271 157.666C914.129 157.006 912.559 155.672 912.559 153.662C912.559 152.49 913.043 151.513 914.011 150.732C914.988 149.943 916.261 149.548 917.832 149.548C919.508 149.548 920.847 149.943 921.848 150.732C922.857 151.521 923.362 152.547 923.362 153.808H919.834C919.834 153.304 919.671 152.889 919.346 152.563C919.02 152.229 918.512 152.062 917.82 152.062C917.226 152.062 916.766 152.197 916.44 152.465C916.115 152.734 915.952 153.076 915.952 153.491C915.952 153.881 916.135 154.199 916.501 154.443C916.876 154.679 917.502 154.886 918.381 155.065C919.26 155.236 920.001 155.432 920.603 155.651C922.467 156.335 923.398 157.519 923.398 159.204C923.398 160.408 922.882 161.385 921.848 162.133C920.815 162.874 919.48 163.244 917.844 163.244C916.737 163.244 915.753 163.049 914.89 162.658C914.036 162.259 913.364 161.718 912.876 161.035C912.388 160.343 912.144 159.598 912.144 158.801H915.488C915.521 159.427 915.753 159.908 916.184 160.241C916.615 160.575 917.193 160.742 917.917 160.742C918.593 160.742 919.102 160.616 919.443 160.363C919.793 160.103 919.968 159.765 919.968 159.35ZM931.76 163.244C929.823 163.244 928.245 162.65 927.024 161.462C925.811 160.274 925.205 158.691 925.205 156.713V156.372C925.205 155.045 925.461 153.861 925.974 152.819C926.487 151.77 927.211 150.964 928.147 150.402C929.091 149.833 930.165 149.548 931.37 149.548C933.176 149.548 934.596 150.118 935.63 151.257C936.672 152.396 937.192 154.012 937.192 156.103V157.543H928.782C928.896 158.406 929.237 159.098 929.807 159.619C930.385 160.139 931.113 160.4 931.992 160.4C933.351 160.4 934.413 159.908 935.178 158.923L936.912 160.864C936.383 161.612 935.667 162.198 934.763 162.622C933.86 163.037 932.859 163.244 931.76 163.244ZM931.357 152.404C930.658 152.404 930.088 152.64 929.648 153.112C929.217 153.584 928.94 154.26 928.818 155.139H933.726V154.858C933.709 154.077 933.498 153.474 933.091 153.051C932.684 152.62 932.106 152.404 931.357 152.404ZM946.36 159.35C946.36 158.919 946.144 158.581 945.713 158.337C945.29 158.085 944.606 157.861 943.662 157.666C940.521 157.006 938.95 155.672 938.95 153.662C938.95 152.49 939.434 151.513 940.403 150.732C941.379 149.943 942.653 149.548 944.224 149.548C945.9 149.548 947.239 149.943 948.24 150.732C949.249 151.521 949.753 152.547 949.753 153.808H946.226C946.226 153.304 946.063 152.889 945.737 152.563C945.412 152.229 944.903 152.062 944.211 152.062C943.617 152.062 943.158 152.197 942.832 152.465C942.507 152.734 942.344 153.076 942.344 153.491C942.344 153.881 942.527 154.199 942.893 154.443C943.267 154.679 943.894 154.886 944.773 155.065C945.652 155.236 946.392 155.432 946.995 155.651C948.858 156.335 949.79 157.519 949.79 159.204C949.79 160.408 949.273 161.385 948.24 162.133C947.206 162.874 945.872 163.244 944.236 163.244C943.129 163.244 942.144 163.049 941.282 162.658C940.427 162.259 939.756 161.718 939.268 161.035C938.779 160.343 938.535 159.598 938.535 158.801H941.88C941.912 159.427 942.144 159.908 942.576 160.241C943.007 160.575 943.585 160.742 944.309 160.742C944.985 160.742 945.493 160.616 945.835 160.363C946.185 160.103 946.36 159.765 946.36 159.35ZM315.806 197.274C315.806 195.964 316.058 194.796 316.562 193.771C317.067 192.745 317.791 191.952 318.735 191.39C319.688 190.829 320.79 190.548 322.043 190.548C323.826 190.548 325.278 191.093 326.401 192.184C327.533 193.274 328.163 194.755 328.293 196.627L328.318 197.53C328.318 199.557 327.752 201.184 326.621 202.413C325.49 203.634 323.972 204.244 322.068 204.244C320.164 204.244 318.642 203.634 317.502 202.413C316.371 201.192 315.806 199.532 315.806 197.433V197.274ZM319.333 197.53C319.333 198.784 319.569 199.744 320.042 200.411C320.514 201.07 321.189 201.4 322.068 201.4C322.922 201.4 323.59 201.074 324.07 200.423C324.55 199.764 324.79 198.714 324.79 197.274C324.79 196.045 324.55 195.093 324.07 194.417C323.59 193.742 322.914 193.404 322.043 193.404C321.181 193.404 320.514 193.742 320.042 194.417C319.569 195.085 319.333 196.122 319.333 197.53ZM333.738 190.792L333.848 192.318C334.792 191.138 336.057 190.548 337.644 190.548C339.044 190.548 340.085 190.959 340.769 191.781C341.453 192.603 341.803 193.832 341.819 195.467V204H338.291V195.553C338.291 194.804 338.128 194.263 337.803 193.929C337.477 193.587 336.936 193.417 336.179 193.417C335.186 193.417 334.442 193.84 333.945 194.686V204H330.417V190.792H333.738ZM357.09 194.234L360.789 186.227H364.792L358.958 197.555V204H355.234V197.555L349.399 186.227H353.416L357.09 194.234ZM364.829 197.274C364.829 195.964 365.081 194.796 365.586 193.771C366.09 192.745 366.815 191.952 367.759 191.39C368.711 190.829 369.814 190.548 371.067 190.548C372.849 190.548 374.302 191.093 375.425 192.184C376.556 193.274 377.187 194.755 377.317 196.627L377.341 197.53C377.341 199.557 376.776 201.184 375.645 202.413C374.513 203.634 372.996 204.244 371.091 204.244C369.187 204.244 367.665 203.634 366.526 202.413C365.395 201.192 364.829 199.532 364.829 197.433V197.274ZM368.357 197.53C368.357 198.784 368.593 199.744 369.065 200.411C369.537 201.07 370.212 201.4 371.091 201.4C371.946 201.4 372.613 201.074 373.093 200.423C373.573 199.764 373.813 198.714 373.813 197.274C373.813 196.045 373.573 195.093 373.093 194.417C372.613 193.742 371.938 193.404 371.067 193.404C370.204 193.404 369.537 193.742 369.065 194.417C368.593 195.085 368.357 196.122 368.357 197.53ZM387.424 202.657C386.554 203.715 385.349 204.244 383.811 204.244C382.395 204.244 381.313 203.837 380.564 203.023C379.823 202.21 379.445 201.017 379.429 199.447V190.792H382.957V199.325C382.957 200.7 383.583 201.388 384.836 201.388C386.033 201.388 386.855 200.973 387.302 200.143V190.792H390.842V204H387.522L387.424 202.657ZM397.727 187.545V190.792H399.985V193.38H397.727V199.972C397.727 200.46 397.821 200.81 398.008 201.021C398.195 201.233 398.553 201.339 399.082 201.339C399.473 201.339 399.819 201.31 400.12 201.253V203.927C399.428 204.138 398.716 204.244 397.983 204.244C395.509 204.244 394.248 202.995 394.199 200.497V193.38H392.271V190.792H394.199V187.545H397.727ZM409.861 202.657C408.99 203.715 407.786 204.244 406.248 204.244C404.832 204.244 403.749 203.837 403 203.023C402.26 202.21 401.882 201.017 401.865 199.447V190.792H405.393V199.325C405.393 200.7 406.02 201.388 407.273 201.388C408.469 201.388 409.291 200.973 409.739 200.143V190.792H413.279V204H409.958L409.861 202.657ZM427.842 197.518C427.842 199.634 427.39 201.286 426.487 202.474C425.583 203.654 424.322 204.244 422.703 204.244C421.27 204.244 420.127 203.695 419.272 202.596L419.114 204H415.94V185.25H419.468V191.976C420.282 191.024 421.352 190.548 422.678 190.548C424.29 190.548 425.551 191.142 426.462 192.33C427.382 193.51 427.842 195.174 427.842 197.323V197.518ZM424.314 197.262C424.314 195.927 424.102 194.955 423.679 194.344C423.256 193.726 422.625 193.417 421.787 193.417C420.664 193.417 419.891 193.876 419.468 194.796V200.008C419.899 200.936 420.68 201.4 421.812 201.4C422.951 201.4 423.7 200.838 424.058 199.715C424.229 199.178 424.314 198.36 424.314 197.262ZM436.106 204.244C434.169 204.244 432.59 203.65 431.37 202.462C430.157 201.274 429.551 199.691 429.551 197.713V197.372C429.551 196.045 429.807 194.861 430.32 193.819C430.833 192.77 431.557 191.964 432.493 191.402C433.437 190.833 434.511 190.548 435.715 190.548C437.522 190.548 438.942 191.118 439.976 192.257C441.017 193.396 441.538 195.012 441.538 197.103V198.543H433.127C433.241 199.406 433.583 200.098 434.153 200.619C434.731 201.139 435.459 201.4 436.338 201.4C437.697 201.4 438.759 200.908 439.524 199.923L441.257 201.864C440.728 202.612 440.012 203.198 439.109 203.622C438.206 204.037 437.205 204.244 436.106 204.244ZM435.703 193.404C435.003 193.404 434.434 193.64 433.994 194.112C433.563 194.584 433.286 195.26 433.164 196.139H438.071V195.858C438.055 195.077 437.843 194.474 437.437 194.051C437.03 193.62 436.452 193.404 435.703 193.404ZM453.501 204H449.961V185.25H453.501V204ZM455.869 197.274C455.869 195.964 456.121 194.796 456.626 193.771C457.131 192.745 457.855 191.952 458.799 191.39C459.751 190.829 460.854 190.548 462.107 190.548C463.889 190.548 465.342 191.093 466.465 192.184C467.596 193.274 468.227 194.755 468.357 196.627L468.381 197.53C468.381 199.557 467.816 201.184 466.685 202.413C465.553 203.634 464.036 204.244 462.131 204.244C460.227 204.244 458.705 203.634 457.566 202.413C456.435 201.192 455.869 199.532 455.869 197.433V197.274ZM459.397 197.53C459.397 198.784 459.633 199.744 460.105 200.411C460.577 201.07 461.252 201.4 462.131 201.4C462.986 201.4 463.653 201.074 464.133 200.423C464.613 199.764 464.854 198.714 464.854 197.274C464.854 196.045 464.613 195.093 464.133 194.417C463.653 193.742 462.978 193.404 462.107 193.404C461.244 193.404 460.577 193.742 460.105 194.417C459.633 195.085 459.397 196.122 459.397 197.53ZM470.005 197.274C470.005 195.964 470.257 194.796 470.762 193.771C471.266 192.745 471.991 191.952 472.935 191.39C473.887 190.829 474.989 190.548 476.243 190.548C478.025 190.548 479.478 191.093 480.601 192.184C481.732 193.274 482.362 194.755 482.493 196.627L482.517 197.53C482.517 199.557 481.951 201.184 480.82 202.413C479.689 203.634 478.171 204.244 476.267 204.244C474.363 204.244 472.841 203.634 471.702 202.413C470.57 201.192 470.005 199.532 470.005 197.433V197.274ZM473.533 197.53C473.533 198.784 473.769 199.744 474.241 200.411C474.713 201.07 475.388 201.4 476.267 201.4C477.122 201.4 477.789 201.074 478.269 200.423C478.749 199.764 478.989 198.714 478.989 197.274C478.989 196.045 478.749 195.093 478.269 194.417C477.789 193.742 477.113 193.404 476.243 193.404C475.38 193.404 474.713 193.742 474.241 194.417C473.769 195.085 473.533 196.122 473.533 197.53ZM489.487 198.702L488.218 199.972V204H484.69V185.25H488.218V195.638L488.901 194.759L492.283 190.792H496.519L491.746 196.297L496.934 204H492.881L489.487 198.702ZM505.198 200.35C505.198 199.919 504.982 199.581 504.551 199.337C504.128 199.085 503.444 198.861 502.5 198.666C499.359 198.006 497.788 196.672 497.788 194.662C497.788 193.49 498.272 192.513 499.241 191.732C500.217 190.943 501.491 190.548 503.062 190.548C504.738 190.548 506.077 190.943 507.078 191.732C508.087 192.521 508.591 193.547 508.591 194.808H505.063C505.063 194.304 504.901 193.889 504.575 193.563C504.25 193.229 503.741 193.062 503.049 193.062C502.455 193.062 501.995 193.197 501.67 193.465C501.344 193.734 501.182 194.076 501.182 194.491C501.182 194.881 501.365 195.199 501.731 195.443C502.105 195.679 502.732 195.886 503.611 196.065C504.49 196.236 505.23 196.432 505.833 196.651C507.696 197.335 508.628 198.519 508.628 200.204C508.628 201.408 508.111 202.385 507.078 203.133C506.044 203.874 504.709 204.244 503.074 204.244C501.967 204.244 500.982 204.049 500.12 203.658C499.265 203.259 498.594 202.718 498.105 202.035C497.617 201.343 497.373 200.598 497.373 199.801H500.718C500.75 200.427 500.982 200.908 501.414 201.241C501.845 201.575 502.423 201.742 503.147 201.742C503.822 201.742 504.331 201.616 504.673 201.363C505.023 201.103 505.198 200.765 505.198 200.35ZM688.901 202.267C688.901 201.705 689.089 201.249 689.463 200.899C689.845 200.549 690.321 200.375 690.891 200.375C691.469 200.375 691.945 200.549 692.319 200.899C692.702 201.249 692.893 201.705 692.893 202.267C692.893 202.82 692.706 203.272 692.332 203.622C691.957 203.963 691.477 204.134 690.891 204.134C690.313 204.134 689.837 203.963 689.463 203.622C689.089 203.272 688.901 202.82 688.901 202.267ZM706.345 204H702.683V186.227H706.345V204ZM719.48 190.792V204.72C719.48 206.177 719.093 207.308 718.32 208.114C717.547 208.928 716.432 209.334 714.976 209.334C714.365 209.334 713.783 209.265 713.23 209.127V206.332C713.653 206.405 714.023 206.441 714.341 206.441C715.407 206.441 715.94 205.876 715.94 204.745V190.792H719.48ZM715.659 187.374C715.659 186.845 715.834 186.41 716.184 186.068C716.542 185.726 717.026 185.555 717.637 185.555C718.247 185.555 718.727 185.726 719.077 186.068C719.435 186.41 719.614 186.845 719.614 187.374C719.614 187.911 719.431 188.351 719.065 188.692C718.707 189.034 718.231 189.205 717.637 189.205C717.043 189.205 716.562 189.034 716.196 188.692C715.838 188.351 715.659 187.911 715.659 187.374ZM730.149 202.657C729.278 203.715 728.074 204.244 726.536 204.244C725.12 204.244 724.037 203.837 723.289 203.023C722.548 202.21 722.17 201.017 722.153 199.447V190.792H725.681V199.325C725.681 200.7 726.308 201.388 727.561 201.388C728.757 201.388 729.579 200.973 730.027 200.143V190.792H733.567V204H730.247L730.149 202.657ZM743.381 200.35C743.381 199.919 743.166 199.581 742.734 199.337C742.311 199.085 741.628 198.861 740.684 198.666C737.542 198.006 735.972 196.672 735.972 194.662C735.972 193.49 736.456 192.513 737.424 191.732C738.401 190.943 739.674 190.548 741.245 190.548C742.922 190.548 744.26 190.943 745.261 191.732C746.27 192.521 746.775 193.547 746.775 194.808H743.247C743.247 194.304 743.084 193.889 742.759 193.563C742.433 193.229 741.925 193.062 741.233 193.062C740.639 193.062 740.179 193.197 739.854 193.465C739.528 193.734 739.365 194.076 739.365 194.491C739.365 194.881 739.548 195.199 739.915 195.443C740.289 195.679 740.916 195.886 741.794 196.065C742.673 196.236 743.414 196.432 744.016 196.651C745.88 197.335 746.812 198.519 746.812 200.204C746.812 201.408 746.295 202.385 745.261 203.133C744.228 203.874 742.893 204.244 741.257 204.244C740.151 204.244 739.166 204.049 738.303 203.658C737.449 203.259 736.777 202.718 736.289 202.035C735.801 201.343 735.557 200.598 735.557 199.801H738.901C738.934 200.427 739.166 200.908 739.597 201.241C740.028 201.575 740.606 201.742 741.331 201.742C742.006 201.742 742.515 201.616 742.856 201.363C743.206 201.103 743.381 200.765 743.381 200.35ZM753.318 187.545V190.792H755.576V193.38H753.318V199.972C753.318 200.46 753.411 200.81 753.599 201.021C753.786 201.233 754.144 201.339 754.673 201.339C755.063 201.339 755.409 201.31 755.71 201.253V203.927C755.019 204.138 754.307 204.244 753.574 204.244C751.1 204.244 749.839 202.995 749.79 200.497V193.38H747.861V190.792H749.79V187.545H753.318ZM775.254 199.203L776.987 190.792H780.393L777.024 204H774.07L771.567 195.687L769.065 204H766.123L762.754 190.792H766.16L767.881 199.19L770.298 190.792H772.849L775.254 199.203ZM789.805 204C789.642 203.683 789.524 203.288 789.451 202.816C788.596 203.768 787.485 204.244 786.118 204.244C784.824 204.244 783.75 203.87 782.896 203.121C782.049 202.372 781.626 201.428 781.626 200.289C781.626 198.889 782.143 197.815 783.176 197.066C784.218 196.318 785.719 195.939 787.681 195.931H789.304V195.174C789.304 194.564 789.146 194.076 788.828 193.709C788.519 193.343 788.027 193.16 787.351 193.16C786.757 193.16 786.289 193.303 785.947 193.587C785.614 193.872 785.447 194.263 785.447 194.759H781.919C781.919 193.994 782.155 193.286 782.627 192.635C783.099 191.984 783.766 191.476 784.629 191.109C785.492 190.735 786.46 190.548 787.534 190.548C789.162 190.548 790.452 190.959 791.404 191.781C792.364 192.595 792.844 193.742 792.844 195.223V200.948C792.852 202.201 793.027 203.15 793.369 203.792V204H789.805ZM786.887 201.546C787.408 201.546 787.888 201.432 788.328 201.205C788.767 200.969 789.093 200.655 789.304 200.265V197.994H787.986C786.22 197.994 785.28 198.604 785.166 199.825L785.154 200.033C785.154 200.472 785.308 200.834 785.618 201.119C785.927 201.404 786.35 201.546 786.887 201.546ZM802.708 200.35C802.708 199.919 802.492 199.581 802.061 199.337C801.637 199.085 800.954 198.861 800.01 198.666C796.868 198.006 795.298 196.672 795.298 194.662C795.298 193.49 795.782 192.513 796.75 191.732C797.727 190.943 799.001 190.548 800.571 190.548C802.248 190.548 803.586 190.943 804.587 191.732C805.597 192.521 806.101 193.547 806.101 194.808H802.573C802.573 194.304 802.41 193.889 802.085 193.563C801.759 193.229 801.251 193.062 800.559 193.062C799.965 193.062 799.505 193.197 799.18 193.465C798.854 193.734 798.691 194.076 798.691 194.491C798.691 194.881 798.875 195.199 799.241 195.443C799.615 195.679 800.242 195.886 801.121 196.065C802 196.236 802.74 196.432 803.342 196.651C805.206 197.335 806.138 198.519 806.138 200.204C806.138 201.408 805.621 202.385 804.587 203.133C803.554 203.874 802.219 204.244 800.583 204.244C799.477 204.244 798.492 204.049 797.629 203.658C796.775 203.259 796.104 202.718 795.615 202.035C795.127 201.343 794.883 200.598 794.883 199.801H798.228C798.26 200.427 798.492 200.908 798.923 201.241C799.355 201.575 799.932 201.742 800.657 201.742C801.332 201.742 801.841 201.616 802.183 201.363C802.533 201.103 802.708 200.765 802.708 200.35ZM811.667 190.792L811.777 192.318C812.721 191.138 813.987 190.548 815.574 190.548C816.973 190.548 818.015 190.959 818.699 191.781C819.382 192.603 819.732 193.832 819.749 195.467V204H816.221V195.553C816.221 194.804 816.058 194.263 815.732 193.929C815.407 193.587 814.866 193.417 814.109 193.417C813.116 193.417 812.371 193.84 811.875 194.686V204H808.347V190.792H811.667ZM823.459 187.044L823.105 191.976H820.872V185.25H823.459V187.044ZM829.734 187.545V190.792H831.992V193.38H829.734V199.972C829.734 200.46 829.827 200.81 830.015 201.021C830.202 201.233 830.56 201.339 831.089 201.339C831.479 201.339 831.825 201.31 832.126 201.253V203.927C831.435 204.138 830.723 204.244 829.99 204.244C827.516 204.244 826.255 202.995 826.206 200.497V193.38H824.277V190.792H826.206V187.545H829.734ZM843.906 204H840.366V190.792H843.906V204ZM840.159 187.374C840.159 186.845 840.334 186.41 840.684 186.068C841.042 185.726 841.526 185.555 842.136 185.555C842.738 185.555 843.219 185.726 843.577 186.068C843.935 186.41 844.114 186.845 844.114 187.374C844.114 187.911 843.931 188.351 843.564 188.692C843.206 189.034 842.73 189.205 842.136 189.205C841.542 189.205 841.062 189.034 840.696 188.692C840.338 188.351 840.159 187.911 840.159 187.374ZM850.071 190.792L850.181 192.318C851.125 191.138 852.39 190.548 853.977 190.548C855.377 190.548 856.418 190.959 857.102 191.781C857.786 192.603 858.136 193.832 858.152 195.467V204H854.624V195.553C854.624 194.804 854.461 194.263 854.136 193.929C853.81 193.587 853.269 193.417 852.512 193.417C851.519 193.417 850.775 193.84 850.278 194.686V204H846.75V190.792H850.071ZM871.287 187.545V190.792H873.545V193.38H871.287V199.972C871.287 200.46 871.38 200.81 871.567 201.021C871.755 201.233 872.113 201.339 872.642 201.339C873.032 201.339 873.378 201.31 873.679 201.253V203.927C872.987 204.138 872.275 204.244 871.543 204.244C869.069 204.244 867.808 202.995 867.759 200.497V193.38H865.83V190.792H867.759V187.545H871.287ZM878.953 192.232C879.889 191.109 881.064 190.548 882.48 190.548C885.345 190.548 886.798 192.212 886.838 195.541V204H883.311V195.638C883.311 194.881 883.148 194.324 882.822 193.966C882.497 193.6 881.956 193.417 881.199 193.417C880.165 193.417 879.417 193.815 878.953 194.613V204H875.425V185.25H878.953V192.232ZM895.579 204.244C893.642 204.244 892.063 203.65 890.842 202.462C889.63 201.274 889.023 199.691 889.023 197.713V197.372C889.023 196.045 889.28 194.861 889.792 193.819C890.305 192.77 891.029 191.964 891.965 191.402C892.909 190.833 893.984 190.548 895.188 190.548C896.995 190.548 898.415 191.118 899.448 192.257C900.49 193.396 901.011 195.012 901.011 197.103V198.543H892.6C892.714 199.406 893.056 200.098 893.625 200.619C894.203 201.139 894.932 201.4 895.811 201.4C897.17 201.4 898.232 200.908 898.997 199.923L900.73 201.864C900.201 202.612 899.485 203.198 898.582 203.622C897.678 204.037 896.677 204.244 895.579 204.244ZM895.176 193.404C894.476 193.404 893.906 193.64 893.467 194.112C893.035 194.584 892.759 195.26 892.637 196.139H897.544V195.858C897.528 195.077 897.316 194.474 896.909 194.051C896.502 193.62 895.924 193.404 895.176 193.404ZM912.559 190.792L912.668 192.269C913.604 191.122 914.87 190.548 916.465 190.548C918.166 190.548 919.333 191.219 919.968 192.562C920.896 191.219 922.218 190.548 923.936 190.548C925.368 190.548 926.434 190.967 927.134 191.805C927.834 192.635 928.184 193.889 928.184 195.565V204H924.644V195.577C924.644 194.828 924.497 194.283 924.204 193.941C923.911 193.591 923.394 193.417 922.654 193.417C921.596 193.417 920.863 193.921 920.457 194.93L920.469 204H916.941V195.589C916.941 194.824 916.79 194.271 916.489 193.929C916.188 193.587 915.675 193.417 914.951 193.417C913.95 193.417 913.226 193.832 912.778 194.662V204H909.25V190.792H912.559ZM930.356 197.274C930.356 195.964 930.609 194.796 931.113 193.771C931.618 192.745 932.342 191.952 933.286 191.39C934.238 190.829 935.341 190.548 936.594 190.548C938.376 190.548 939.829 191.093 940.952 192.184C942.083 193.274 942.714 194.755 942.844 196.627L942.869 197.53C942.869 199.557 942.303 201.184 941.172 202.413C940.041 203.634 938.523 204.244 936.619 204.244C934.714 204.244 933.193 203.634 932.053 202.413C930.922 201.192 930.356 199.532 930.356 197.433V197.274ZM933.884 197.53C933.884 198.784 934.12 199.744 934.592 200.411C935.064 201.07 935.74 201.4 936.619 201.4C937.473 201.4 938.14 201.074 938.621 200.423C939.101 199.764 939.341 198.714 939.341 197.274C939.341 196.045 939.101 195.093 938.621 194.417C938.14 193.742 937.465 193.404 936.594 193.404C935.732 193.404 935.064 193.742 934.592 194.417C934.12 195.085 933.884 196.122 933.884 197.53ZM944.492 197.274C944.492 195.964 944.744 194.796 945.249 193.771C945.754 192.745 946.478 191.952 947.422 191.39C948.374 190.829 949.477 190.548 950.73 190.548C952.512 190.548 953.965 191.093 955.088 192.184C956.219 193.274 956.85 194.755 956.98 196.627L957.004 197.53C957.004 199.557 956.439 201.184 955.308 202.413C954.176 203.634 952.659 204.244 950.754 204.244C948.85 204.244 947.328 203.634 946.189 202.413C945.058 201.192 944.492 199.532 944.492 197.433V197.274ZM948.02 197.53C948.02 198.784 948.256 199.744 948.728 200.411C949.2 201.07 949.875 201.4 950.754 201.4C951.609 201.4 952.276 201.074 952.756 200.423C953.236 199.764 953.477 198.714 953.477 197.274C953.477 196.045 953.236 195.093 952.756 194.417C952.276 193.742 951.601 193.404 950.73 193.404C949.867 193.404 949.2 193.742 948.728 194.417C948.256 195.085 948.02 196.122 948.02 197.53ZM958.628 197.298C958.628 195.239 959.088 193.6 960.007 192.379C960.935 191.158 962.201 190.548 963.804 190.548C965.09 190.548 966.152 191.028 966.99 191.988V185.25H970.53V204H967.344L967.173 202.596C966.294 203.695 965.163 204.244 963.779 204.244C962.225 204.244 960.976 203.634 960.032 202.413C959.096 201.184 958.628 199.479 958.628 197.298ZM962.156 197.555C962.156 198.792 962.371 199.74 962.803 200.399C963.234 201.058 963.861 201.388 964.683 201.388C965.773 201.388 966.542 200.928 966.99 200.008V194.796C966.55 193.876 965.789 193.417 964.707 193.417C963.006 193.417 962.156 194.796 962.156 197.555ZM320.579 228.545V231.792H322.837V234.38H320.579V240.972C320.579 241.46 320.672 241.81 320.859 242.021C321.047 242.233 321.405 242.339 321.934 242.339C322.324 242.339 322.67 242.31 322.971 242.253V244.927C322.279 245.138 321.567 245.244 320.835 245.244C318.361 245.244 317.1 243.995 317.051 241.497V234.38H315.122V231.792H317.051V228.545H320.579ZM323.887 238.274C323.887 236.964 324.139 235.796 324.644 234.771C325.148 233.745 325.872 232.952 326.816 232.39C327.769 231.829 328.871 231.548 330.125 231.548C331.907 231.548 333.359 232.093 334.482 233.184C335.614 234.274 336.244 235.755 336.375 237.627L336.399 238.53C336.399 240.557 335.833 242.184 334.702 243.413C333.571 244.634 332.053 245.244 330.149 245.244C328.245 245.244 326.723 244.634 325.583 243.413C324.452 242.192 323.887 240.532 323.887 238.433V238.274ZM327.415 238.53C327.415 239.784 327.651 240.744 328.123 241.411C328.595 242.07 329.27 242.4 330.149 242.4C331.003 242.4 331.671 242.074 332.151 241.423C332.631 240.764 332.871 239.714 332.871 238.274C332.871 237.045 332.631 236.093 332.151 235.417C331.671 234.742 330.995 234.404 330.125 234.404C329.262 234.404 328.595 234.742 328.123 235.417C327.651 236.085 327.415 237.122 327.415 238.53ZM344.248 238.298C344.248 236.239 344.708 234.6 345.627 233.379C346.555 232.158 347.821 231.548 349.424 231.548C350.71 231.548 351.772 232.028 352.61 232.988V226.25H356.15V245H352.964L352.793 243.596C351.914 244.695 350.783 245.244 349.399 245.244C347.845 245.244 346.596 244.634 345.652 243.413C344.716 242.184 344.248 240.479 344.248 238.298ZM347.776 238.555C347.776 239.792 347.992 240.74 348.423 241.399C348.854 242.058 349.481 242.388 350.303 242.388C351.393 242.388 352.162 241.928 352.61 241.008V235.796C352.17 234.876 351.41 234.417 350.327 234.417C348.626 234.417 347.776 235.796 347.776 238.555ZM358.335 238.274C358.335 236.964 358.587 235.796 359.092 234.771C359.596 233.745 360.321 232.952 361.265 232.39C362.217 231.829 363.319 231.548 364.573 231.548C366.355 231.548 367.808 232.093 368.931 233.184C370.062 234.274 370.693 235.755 370.823 237.627L370.847 238.53C370.847 240.557 370.282 242.184 369.15 243.413C368.019 244.634 366.501 245.244 364.597 245.244C362.693 245.244 361.171 244.634 360.032 243.413C358.901 242.192 358.335 240.532 358.335 238.433V238.274ZM361.863 238.53C361.863 239.784 362.099 240.744 362.571 241.411C363.043 242.07 363.718 242.4 364.597 242.4C365.452 242.4 366.119 242.074 366.599 241.423C367.079 240.764 367.319 239.714 367.319 238.274C367.319 237.045 367.079 236.093 366.599 235.417C366.119 234.742 365.444 234.404 364.573 234.404C363.71 234.404 363.043 234.742 362.571 235.417C362.099 236.085 361.863 237.122 361.863 238.53ZM382.969 245H379.429V231.792H382.969V245ZM379.221 228.374C379.221 227.845 379.396 227.41 379.746 227.068C380.104 226.726 380.588 226.555 381.199 226.555C381.801 226.555 382.281 226.726 382.639 227.068C382.997 227.41 383.176 227.845 383.176 228.374C383.176 228.911 382.993 229.351 382.627 229.692C382.269 230.034 381.793 230.205 381.199 230.205C380.605 230.205 380.125 230.034 379.758 229.692C379.4 229.351 379.221 228.911 379.221 228.374ZM390.11 228.545V231.792H392.368V234.38H390.11V240.972C390.11 241.46 390.203 241.81 390.391 242.021C390.578 242.233 390.936 242.339 391.465 242.339C391.855 242.339 392.201 242.31 392.502 242.253V244.927C391.811 245.138 391.099 245.244 390.366 245.244C387.892 245.244 386.631 243.995 386.582 241.497V234.38H384.653V231.792H386.582V228.545H390.11ZM394.517 243.267C394.517 242.705 394.704 242.249 395.078 241.899C395.461 241.549 395.937 241.375 396.506 241.375C397.084 241.375 397.56 241.549 397.935 241.899C398.317 242.249 398.508 242.705 398.508 243.267C398.508 243.82 398.321 244.272 397.947 244.622C397.572 244.963 397.092 245.134 396.506 245.134C395.929 245.134 395.452 244.963 395.078 244.622C394.704 244.272 394.517 243.82 394.517 243.267Z" fill="black"/>
<path d="M524.29 200.35C524.29 199.919 524.074 199.581 523.643 199.337C523.219 199.085 522.536 198.861 521.592 198.666C518.451 198.006 516.88 196.672 516.88 194.662C516.88 193.49 517.364 192.513 518.333 191.732C519.309 190.943 520.583 190.548 522.153 190.548C523.83 190.548 525.168 190.943 526.169 191.732C527.179 192.521 527.683 193.547 527.683 194.808H524.155C524.155 194.304 523.993 193.889 523.667 193.563C523.341 193.229 522.833 193.062 522.141 193.062C521.547 193.062 521.087 193.197 520.762 193.465C520.436 193.734 520.273 194.076 520.273 194.491C520.273 194.881 520.457 195.199 520.823 195.443C521.197 195.679 521.824 195.886 522.703 196.065C523.582 196.236 524.322 196.432 524.924 196.651C526.788 197.335 527.72 198.519 527.72 200.204C527.72 201.408 527.203 202.385 526.169 203.133C525.136 203.874 523.801 204.244 522.166 204.244C521.059 204.244 520.074 204.049 519.211 203.658C518.357 203.259 517.686 202.718 517.197 202.035C516.709 201.343 516.465 200.598 516.465 199.801H519.81C519.842 200.427 520.074 200.908 520.505 201.241C520.937 201.575 521.514 201.742 522.239 201.742C522.914 201.742 523.423 201.616 523.765 201.363C524.115 201.103 524.29 200.765 524.29 200.35ZM533.726 204H530.186V190.792H533.726V204ZM529.978 187.374C529.978 186.845 530.153 186.41 530.503 186.068C530.861 185.726 531.345 185.555 531.956 185.555C532.558 185.555 533.038 185.726 533.396 186.068C533.754 186.41 533.933 186.845 533.933 187.374C533.933 187.911 533.75 188.351 533.384 188.692C533.026 189.034 532.55 189.205 531.956 189.205C531.361 189.205 530.881 189.034 530.515 188.692C530.157 188.351 529.978 187.911 529.978 187.374ZM540.366 204H536.826V185.25H540.366V204ZM547.007 204H543.467V185.25H547.007V204ZM554.856 199.007L557.297 190.792H561.082L555.771 206.051L555.479 206.747C554.689 208.472 553.387 209.334 551.572 209.334C551.06 209.334 550.539 209.257 550.01 209.103V206.429L550.547 206.441C551.214 206.441 551.711 206.34 552.036 206.136C552.37 205.933 552.63 205.595 552.817 205.123L553.232 204.037L548.606 190.792H552.402L554.856 199.007ZM576.353 204C576.19 203.683 576.072 203.288 575.999 202.816C575.144 203.768 574.033 204.244 572.666 204.244C571.372 204.244 570.298 203.87 569.443 203.121C568.597 202.372 568.174 201.428 568.174 200.289C568.174 198.889 568.691 197.815 569.724 197.066C570.766 196.318 572.267 195.939 574.229 195.931H575.852V195.174C575.852 194.564 575.693 194.076 575.376 193.709C575.067 193.343 574.574 193.16 573.899 193.16C573.305 193.16 572.837 193.303 572.495 193.587C572.161 193.872 571.995 194.263 571.995 194.759H568.467C568.467 193.994 568.703 193.286 569.175 192.635C569.647 191.984 570.314 191.476 571.177 191.109C572.039 190.735 573.008 190.548 574.082 190.548C575.71 190.548 577 190.959 577.952 191.781C578.912 192.595 579.392 193.742 579.392 195.223V200.948C579.4 202.201 579.575 203.15 579.917 203.792V204H576.353ZM573.435 201.546C573.956 201.546 574.436 201.432 574.875 201.205C575.315 200.969 575.64 200.655 575.852 200.265V197.994H574.534C572.768 197.994 571.828 198.604 571.714 199.825L571.702 200.033C571.702 200.472 571.856 200.834 572.166 201.119C572.475 201.404 572.898 201.546 573.435 201.546ZM585.349 190.792L585.459 192.318C586.403 191.138 587.668 190.548 589.255 190.548C590.655 190.548 591.697 190.959 592.38 191.781C593.064 192.603 593.414 193.832 593.43 195.467V204H589.902V195.553C589.902 194.804 589.74 194.263 589.414 193.929C589.089 193.587 588.547 193.417 587.791 193.417C586.798 193.417 586.053 193.84 585.557 194.686V204H582.029V190.792H585.349ZM595.566 197.298C595.566 195.239 596.026 193.6 596.946 192.379C597.874 191.158 599.139 190.548 600.742 190.548C602.028 190.548 603.09 191.028 603.928 191.988V185.25H607.468V204H604.282L604.111 202.596C603.232 203.695 602.101 204.244 600.718 204.244C599.163 204.244 597.914 203.634 596.97 202.413C596.034 201.184 595.566 199.479 595.566 197.298ZM599.094 197.555C599.094 198.792 599.31 199.74 599.741 200.399C600.173 201.058 600.799 201.388 601.621 201.388C602.712 201.388 603.481 200.928 603.928 200.008V194.796C603.489 193.876 602.728 193.417 601.646 193.417C599.945 193.417 599.094 194.796 599.094 197.555ZM628.33 197.518C628.33 199.634 627.878 201.286 626.975 202.474C626.072 203.654 624.81 204.244 623.191 204.244C621.759 204.244 620.615 203.695 619.761 202.596L619.602 204H616.428V185.25H619.956V191.976C620.77 191.024 621.84 190.548 623.167 190.548C624.778 190.548 626.039 191.142 626.951 192.33C627.87 193.51 628.33 195.174 628.33 197.323V197.518ZM624.802 197.262C624.802 195.927 624.591 194.955 624.167 194.344C623.744 193.726 623.114 193.417 622.275 193.417C621.152 193.417 620.379 193.876 619.956 194.796V200.008C620.387 200.936 621.169 201.4 622.3 201.4C623.439 201.4 624.188 200.838 624.546 199.715C624.717 199.178 624.802 198.36 624.802 197.262ZM629.966 197.274C629.966 195.964 630.218 194.796 630.723 193.771C631.227 192.745 631.951 191.952 632.896 191.39C633.848 190.829 634.95 190.548 636.204 190.548C637.986 190.548 639.438 191.093 640.562 192.184C641.693 193.274 642.323 194.755 642.454 196.627L642.478 197.53C642.478 199.557 641.912 201.184 640.781 202.413C639.65 203.634 638.132 204.244 636.228 204.244C634.324 204.244 632.802 203.634 631.663 202.413C630.531 201.192 629.966 199.532 629.966 197.433V197.274ZM633.494 197.53C633.494 198.784 633.73 199.744 634.202 200.411C634.674 201.07 635.349 201.4 636.228 201.4C637.083 201.4 637.75 201.074 638.23 200.423C638.71 199.764 638.95 198.714 638.95 197.274C638.95 196.045 638.71 195.093 638.23 194.417C637.75 193.742 637.074 193.404 636.204 193.404C635.341 193.404 634.674 193.742 634.202 194.417C633.73 195.085 633.494 196.122 633.494 197.53ZM652.073 194.1C651.593 194.035 651.169 194.002 650.803 194.002C649.469 194.002 648.594 194.454 648.179 195.357V204H644.651V190.792H647.983L648.081 192.367C648.789 191.154 649.77 190.548 651.023 190.548C651.414 190.548 651.78 190.601 652.122 190.707L652.073 194.1ZM657.505 204H653.965V190.792H657.505V204ZM653.757 187.374C653.757 186.845 653.932 186.41 654.282 186.068C654.64 185.726 655.125 185.555 655.735 185.555C656.337 185.555 656.817 185.726 657.175 186.068C657.533 186.41 657.712 186.845 657.712 187.374C657.712 187.911 657.529 188.351 657.163 188.692C656.805 189.034 656.329 189.205 655.735 189.205C655.141 189.205 654.661 189.034 654.294 188.692C653.936 188.351 653.757 187.911 653.757 187.374ZM663.669 190.792L663.779 192.318C664.723 191.138 665.989 190.548 667.576 190.548C668.975 190.548 670.017 190.959 670.701 191.781C671.384 192.603 671.734 193.832 671.75 195.467V204H668.223V195.553C668.223 194.804 668.06 194.263 667.734 193.929C667.409 193.587 666.868 193.417 666.111 193.417C665.118 193.417 664.373 193.84 663.877 194.686V204H660.349V190.792H663.669ZM673.923 197.298C673.923 195.272 674.403 193.64 675.364 192.403C676.332 191.166 677.634 190.548 679.27 190.548C680.719 190.548 681.846 191.044 682.651 192.037L682.798 190.792H685.996V203.561C685.996 204.716 685.732 205.721 685.203 206.576C684.682 207.43 683.945 208.081 682.993 208.529C682.041 208.976 680.926 209.2 679.648 209.2C678.68 209.2 677.736 209.005 676.816 208.614C675.897 208.232 675.201 207.735 674.729 207.125L676.292 204.977C677.17 205.961 678.236 206.454 679.49 206.454C680.426 206.454 681.154 206.201 681.675 205.697C682.196 205.2 682.456 204.492 682.456 203.573V202.865C681.642 203.784 680.572 204.244 679.246 204.244C677.659 204.244 676.373 203.626 675.388 202.389C674.412 201.144 673.923 199.496 673.923 197.445V197.298ZM677.451 197.555C677.451 198.751 677.691 199.691 678.171 200.375C678.652 201.05 679.311 201.388 680.149 201.388C681.223 201.388 681.992 200.985 682.456 200.179V194.625C681.984 193.819 681.223 193.417 680.173 193.417C679.327 193.417 678.66 193.762 678.171 194.454C677.691 195.146 677.451 196.179 677.451 197.555Z" fill="#553CEE"/>
<path d="M317.648 149.422V149.094C317.648 147.281 318.133 145.547 319.102 143.891C320.07 142.234 321.117 141.406 322.242 141.406H322.383C323.008 141.406 323.32 141.781 323.32 142.531C323.32 142.719 323.008 143.336 322.383 144.383C321.992 145.164 321.797 145.773 321.797 146.211C321.797 146.648 322.07 147.336 322.617 148.273C323.18 149.195 323.461 150.07 323.461 150.898L323.438 151.039C323.438 151.68 323.203 152.203 322.734 152.609C322.281 153.016 321.625 153.219 320.766 153.219H320.602C319.492 153.219 318.719 152.914 318.281 152.305C317.859 151.68 317.648 150.719 317.648 149.422ZM332.062 150.688V151.156C332.062 151.766 331.797 152.258 331.266 152.633C330.75 152.992 330.125 153.172 329.391 153.172H329.227C327.258 153.172 326.273 152.031 326.273 149.75V148.742C326.273 147.164 326.75 145.555 327.703 143.914C328.672 142.258 329.719 141.43 330.844 141.43H330.961C331.602 141.43 331.922 141.797 331.922 142.531L331.008 144.359C330.602 145.172 330.398 145.789 330.398 146.211C330.398 146.633 330.672 147.281 331.219 148.156C331.781 149.031 332.062 149.875 332.062 150.688Z" fill="#553CEE"/>
<path d="M421.352 230.422V230.094C421.352 228.281 420.867 226.547 419.898 224.891C418.93 223.234 417.883 222.406 416.758 222.406H416.617C415.992 222.406 415.68 222.781 415.68 223.531C415.68 223.719 415.992 224.336 416.617 225.383C417.008 226.164 417.203 226.773 417.203 227.211C417.203 227.648 416.93 228.336 416.383 229.273C415.82 230.195 415.539 231.07 415.539 231.898L415.562 232.039C415.562 232.68 415.797 233.203 416.266 233.609C416.719 234.016 417.375 234.219 418.234 234.219H418.398C419.508 234.219 420.281 233.914 420.719 233.305C421.141 232.68 421.352 231.719 421.352 230.422ZM406.938 231.688V232.156C406.938 232.766 407.203 233.258 407.734 233.633C408.25 233.992 408.875 234.172 409.609 234.172H409.773C411.742 234.172 412.727 233.031 412.727 230.75V229.742C412.727 228.164 412.25 226.555 411.297 224.914C410.328 223.258 409.281 222.43 408.156 222.43H408.039C407.398 222.43 407.078 222.797 407.078 223.531L407.992 225.359C408.398 226.172 408.602 226.789 408.602 227.211C408.602 227.633 408.328 228.281 407.781 229.156C407.219 230.031 406.938 230.875 406.938 231.688Z" fill="#553CEE"/>
<circle cx="322" cy="351" r="4" fill="black"/>
<path d="M97.8596 203.509C97.8596 203.509 105.94 215.209 93.6896 217.169C84.5696 218.629 78.5096 221.869 78.5096 221.869L37.6096 280.919L36.8496 327.219L56.8696 326.839L177.55 327.219H195.01L193.11 280.159C193.11 280.159 199.04 223.259 150.61 220.959C150.61 220.959 139.16 219.399 135.81 213.369L129.07 196.759L97.8596 203.509Z" fill="#F3EDE8"/>
<path d="M83.06 220.199C83.06 220.199 87.61 233.099 115.7 232.719C143.78 232.339 150.61 220.959 150.61 220.959C150.61 220.959 180.21 221.719 188.18 237.279C196.15 252.839 196.15 281.679 196.15 281.679L173 282.059C173 282.059 176.23 295.729 177.55 327.219H53.08C53.08 327.219 54.47 289.609 57.63 281.299L36 280.919C36 280.919 37.67 226.329 65.6 222.099C84.86 219.179 83.06 220.199 83.06 220.199Z" fill="#553CEE"/>
<path d="M91.5294 216.239C91.5294 216.239 97.0094 179.689 86.3494 164.149C86.3494 164.149 71.1194 169.629 70.8194 147.399C70.5194 125.159 81.7894 137.959 81.7894 137.959C81.7894 137.959 79.3494 97.1392 111.639 97.1392C143.929 97.1392 150.319 127.599 150.019 133.999C150.019 133.999 164.339 130.649 158.549 152.279C152.759 173.909 142.099 162.939 142.099 162.939L138.439 216.249C138.439 216.239 102.799 228.119 91.5294 216.239Z" fill="#F3EDE8"/>
<path d="M76.9697 135.259L116.2 128.519L154.25 135.259L152.46 121.779L114.81 116.629L81.5197 122.579L76.9697 135.259Z" fill="#D05A94"/>
<path d="M79.8301 128.879C79.8301 128.879 85.2101 79.579 116.47 83.189C149.49 87.009 152.26 129.149 152.26 129.149L115.21 119.599L79.8301 128.879Z" fill="#DE6D37"/>
<path d="M160.07 133.989C160.07 133.989 151.49 127.979 149.39 137.729C147.29 147.479 145.43 152.969 145.43 152.969C145.43 152.969 146.89 159.859 156.18 157.779C156.18 157.779 167.5 135.889 160.07 133.989Z" fill="#553CEE"/>
<path d="M74.6698 136.049C74.6698 136.049 64.2198 136.729 68.6798 145.649C73.1398 154.569 75.1198 160.019 75.1198 160.019C75.1198 160.019 80.5698 164.479 86.5198 157.049C86.5098 157.049 81.6498 132.889 74.6698 136.049Z" fill="#553CEE"/>
<path d="M77.1592 137.209C77.1592 137.209 78.7192 96.579 115.259 95.899C150.909 95.239 154.519 127.139 155.629 138.389L151.859 140.479C151.859 140.479 144.919 105.339 117.819 102.549C93.9192 100.089 88.4092 124.899 81.5292 142.809L77.1592 137.209Z" fill="#553CEE"/>
<path d="M112.24 163.849C112.14 165.079 112.25 166.269 112.46 167.489C112.68 168.779 114.34 169.619 115.54 169.239C116.93 168.789 117.52 167.549 117.29 166.159C117.16 165.419 117.31 166.659 117.25 165.909C117.23 165.679 117.21 165.449 117.21 165.219C117.19 164.759 117.21 164.299 117.25 163.839C117.36 162.529 116.02 161.279 114.75 161.339C113.29 161.419 112.35 162.459 112.24 163.849Z" fill="#D05A94"/>
</svg>
