<svg width="2092" height="1793" viewBox="0 0 2092 1793" fill="none" xmlns="http://www.w3.org/2000/svg">
<path d="M1559.03 131.629C1163.55 -34.9961 308.804 -176.847 53.6691 588.748C-55.8707 917.45 13.6511 1186.69 159.537 1396.89C781.27 2263.62 819.284 1444.92 1377.92 1396.89C1936.55 1348.85 1973.51 1093.9 2080.17 742.88C2165.5 462.064 1768.29 218.372 1559.03 131.629Z" fill="#F8CE89"/>
<path d="M581.155 1546.23L482.007 1655.99C477.446 1661.05 481.021 1669.09 487.801 1669.12L589.538 1669.46C596.411 1669.49 602.822 1666.01 606.551 1660.25L686.405 1540.34L780.221 1662.06C784.29 1669.4 793.351 1672.36 800.933 1668.78L849.967 1627.67C860.877 1622.52 862.357 1607.6 852.649 1600.42L704.774 1492.01L726.81 1442.88L653.952 1451.36L581.155 1546.23Z" fill="#553CEE"/>
<path d="M392.66 748.377L424.065 738.606C433.712 735.617 444.191 738.853 450.447 746.744L516.094 829.411C519.885 834.189 521.765 840.23 521.333 846.333L507.773 1037.56C507.156 1046.25 501.978 1053.99 494.15 1057.78C470.881 1069.03 423.357 1085.24 418.795 1032.69C413.926 976.56 386.496 831.23 375.894 776.303C373.582 764.097 380.794 752.076 392.66 748.377Z" fill="#553CEE"/>
<path d="M506.879 1050.91C490.452 1062.99 476.829 1067.09 467.183 1068.14C459.601 1068.94 454.793 1076.67 457.289 1083.89L511.132 1238.83C512.488 1242.72 515.724 1245.62 519.7 1246.54L551.599 1253.91C552.215 1254.06 552.831 1254.15 553.448 1254.18C571.169 1255.42 837.3 1273.69 867.935 1272.25C885.718 1271.41 891.143 1281 892.499 1289.6C893.577 1296.44 888.554 1302.73 881.681 1303.29L653.089 1321.96C652.473 1322.03 651.825 1322.03 651.209 1321.96C641.932 1321.25 567.317 1315.24 517.851 1303.93C469.648 1292.93 405.111 1045.67 394.201 1002.45C393.276 998.754 390.225 996.01 386.496 995.363C381.842 994.592 378.267 990.77 377.342 986.147L359.405 896.39C358.48 891.798 360.33 887.113 364.121 884.4L383.106 870.684C384.184 869.913 394.293 863.964 395.033 865.074L399.995 874.229C401.413 876.355 394.786 877.527 394.324 875.03L390.502 853.978" fill="#553CEE"/>
<path d="M627.909 1312.16C627.909 1312.16 612.962 1361.94 657.805 1366.93C657.805 1366.93 654.692 1417.85 656.14 1458.29L716.301 1443.9C725.639 1441.68 731.896 1432.93 731.002 1423.37L728.536 1397.2C727.951 1391.04 723.482 1385.92 717.441 1384.5L705.976 1381.85V1363.57C719.26 1360.74 728.382 1348.44 727.242 1334.88L725.578 1314.97L627.909 1312.16Z" fill="#553CEE"/>
<path d="M952.998 599.318C954.631 602.03 983.91 589.269 986.284 588.129C1004.28 579.56 1018.49 567.693 1023.02 547.812C1027.64 555.734 1029.15 566.738 1029.96 575.83C1030.23 579.067 1030.33 582.519 1028.6 585.262C1027.43 587.143 1025.52 588.437 1023.88 589.917C1018.92 594.417 1016.06 601.105 1016.21 607.794C1016.58 623.021 1030.91 631.651 1043.95 635.381C1062.5 640.682 1078.25 652.302 1094.25 662.628C1101.98 667.621 1112.8 676.129 1122.69 674.649C1135.61 672.707 1137.98 657.481 1132.22 647.926C1141.99 640.035 1149.32 631.127 1154.01 619.26C1160.26 603.448 1159.68 585.755 1168.8 571.115C1174.01 562.731 1186.89 557.09 1186.98 546.179C1187.01 541.247 1184.15 536.685 1183.75 531.754C1183.13 523.924 1188.65 517.143 1193.36 510.886C1205.81 494.365 1200.85 464.744 1201.5 444.925C1202.67 409.201 1171.94 380.752 1144.82 360.501C1108.95 333.685 1063.86 319.321 1019.63 331.897C917.678 360.902 940.423 469.923 940.423 469.923L949.053 511.472C949.053 511.472 939.653 552.251 919.25 543.62C919.281 543.62 952.998 599.287 952.998 599.318Z" fill="#F4F4F4"/>
<path d="M877.828 541.71L914.874 522.6C914.874 522.6 1003.3 668.424 982.986 688.736C962.676 709.049 918.449 728.19 918.449 728.19C918.449 728.19 938.79 594.294 877.828 541.71Z" fill="#553CEE"/>
<path d="M528.761 1114.8C528.761 1114.8 430.969 1022.64 558.841 725.508C558.841 725.508 698.487 493.349 877.828 541.741C877.828 541.741 966.898 640.898 916.138 780.064C916.138 780.064 872.897 951.224 916.138 956.865C959.378 962.506 1066.57 924.902 1066.57 924.902C1066.57 924.902 1104.17 945.584 1091.01 1002.02C1091.01 1002.02 820.226 1097.94 799.515 1067.86C794.491 1060.55 786.139 1042.58 777.54 1018.6C750.696 943.858 721.386 810.672 782.594 759.413L769.434 1041.54C769.465 1041.44 566.361 1165.57 528.761 1114.8Z" fill="#F6B140"/>
<path d="M928.589 722.949L982.986 688.735C982.986 688.735 988.842 776.704 962.768 833.727C938.403 887.012 978.064 877.693 1019.25 837.685C1021.51 835.493 1026.05 837.868 1025.69 840.994C1023.83 857.124 1024.82 884.468 1050.73 892.352C1050.73 892.352 969.271 975.42 905.751 954.245C842.262 933.069 928.589 722.949 928.589 722.949Z" fill="#F6B140"/>
<path d="M948.13 1113.91L982.34 1078.06C982.34 1078.06 1004.31 784.964 974.974 775.193C974.974 775.193 999.938 704.979 982.987 688.704L928.59 722.918C928.59 722.918 936.726 765.268 953.03 773.406L925.354 1092.7L948.13 1113.91Z" fill="#D05A94"/>
<path d="M760.773 1424.11L677.035 1458.66C677.035 1458.66 661.102 1526.44 720.892 1523.79L787.34 1475.96L760.773 1424.11Z" fill="#F1A480"/>
<path d="M677.036 1458.69C677.036 1458.69 643.997 1448.68 611.698 1488.28C579.368 1527.89 573.111 1523.73 573.111 1523.73L617.954 1584.21L632.563 1575.85C632.563 1575.85 645.076 1638.42 684.68 1639.44C724.283 1640.49 828.547 1651.96 828.547 1651.96C828.547 1651.96 801.426 1585.22 738.892 1585.22L720.924 1523.79C720.893 1523.82 666.28 1504.16 677.036 1458.69Z" fill="#D05A94"/>
<path d="M934.106 1504.44L901.498 1558.13C901.498 1558.13 973.432 1575.85 982.832 1552.92C992.201 1529.99 1000.55 1488.29 1000.55 1488.29L934.106 1504.44Z" fill="#F1A480"/>
<path d="M871.294 1650.94L943.228 1654.05L944.276 1627.97C944.276 1627.97 998.488 1668.63 1043.33 1666.57C1088.17 1664.5 1137.15 1662.4 1137.15 1662.4C1137.15 1662.4 1117.33 1622.8 1030.82 1601.93L982.863 1552.92C982.863 1552.92 979.75 1572.74 901.529 1558.13C901.529 1558.13 858.781 1593.58 871.294 1650.94Z" fill="#D05A94"/>
<path d="M934.106 1504.44L1111.35 1482.27C1111.35 1482.27 1151.63 1212.36 1179.83 1170.07C1208.03 1127.78 1054.95 1091.5 1054.95 1091.5L813.261 1097.54L769.435 1041.41L748.816 1159.96L985.976 1280.32L934.106 1504.44Z" fill="#E4743F"/>
<path d="M527.867 1125.93C527.867 1125.93 493.411 1288.34 645.97 1276.84C798.529 1265.34 964.186 1270.27 964.186 1270.27L747.676 1411.35L775.568 1472.04L862.511 1532.73L1164.33 1283.37C1164.33 1283.37 1179.09 1189.86 1082.32 1165.26C985.544 1140.66 916.662 1116.03 862.511 1119.33C808.391 1122.6 769.496 1041.41 769.496 1041.41C769.496 1041.41 673.831 1109.5 527.867 1125.93Z" fill="#DE6D37"/>
<path d="M1023.07 847.05C1023.07 847.05 1111.52 778.962 1131.86 749.218C1152.2 719.474 1204.66 702.244 1230.49 717.902C1256.31 733.56 1174.15 735.132 1174.15 735.132L1145.18 764.876L1171.77 763.304L1183.52 753.903C1183.52 753.903 1235.17 746.074 1246.91 766.417H1205.43L1171 782.075C1171 782.075 1225.8 761.732 1239.89 782.846C1253.97 803.96 1242.23 779.702 1193.72 793.017C1145.21 806.333 1149.89 804.761 1149.89 804.761L1227.37 809.446C1227.37 809.446 1253.97 808.676 1168.66 818.847C1083.35 829.019 1047.75 888.322 1047.75 888.322C1047.75 888.322 1021.5 888.538 1023.07 847.05Z" fill="#F3EDE8"/>
<path d="M1081.49 1032.57L1082.35 1050.72L1916 1049.86V1027.39L1751.85 907.302L1147.13 909.891L1081.49 1032.57Z" fill="#553CEE"/>
<path d="M1213.21 1653.24H1253.09L1248.66 1047.6L1207.29 1049.08L1213.21 1653.24Z" fill="#553CEE"/>
<path d="M1775.95 1654.24H1815.83L1811.4 1048.6L1770.04 1050.08L1775.95 1654.24Z" fill="#553CEE"/>
<path d="M1276.7 1049.12L1275.22 1543.95L1310.7 1542.5L1307.74 1047.64L1276.7 1049.12Z" fill="#553CEE"/>
<path d="M1690.48 1048.48L1689 1543.31L1724.44 1541.83L1721.52 1047L1690.48 1048.48Z" fill="#553CEE"/>
<path d="M1185.26 1019.53L1403.5 1022.02V1002.08L1351.13 927.243H1222.68L1176.54 1003.31L1172.81 1020.79L1185.26 1019.53Z" fill="#DE6D37"/>
<path d="M1502.98 430L1660 436.763L1559.73 915L1416 859.866L1502.98 430Z" fill="#DE6D37"/>
<path d="M1515.26 453L1438 844.281L1550.28 887L1636 460.874L1515.26 453Z" fill="#F6B140"/>
<path d="M1660.07 437L1685 447.108L1584.93 920L1560 914.887L1660.07 437Z" fill="#D56028"/>
<path d="M1543.05 951.994L1518.82 964.108L1570.88 1016.14L1764.52 1007.66L1693.11 947.155L1690.68 593.708L1643 579L1604.75 945.953L1575.72 948.357" fill="#D46028"/>
<path d="M1079.73 940.066C1079.73 940.066 1179.34 883.013 1227.57 892.66L1289.43 883.814L1332.02 906.315L1301.48 914.36L1281.39 899.102L1236.39 908.75L1380.19 917.596C1380.19 917.596 1399.49 932.853 1261.29 926.442L1308.69 955.354L1341.64 1005.16L1286.99 965.803L1253.25 947.309L1302.25 1012.41L1224.31 960.193L1152 959.392L1092.55 973.047L1079.73 940.066Z" fill="#F3EDE8"/>
</svg>
